G04*
G04 #@! TF.GenerationSoftware,Altium Limited,Altium Designer,18.1.7 (191)*
G04*
G04 Layer_Physical_Order=1*
G04 Layer_Color=255*
%FSLAX44Y44*%
%MOMM*%
G71*
G01*
G75*
%ADD11C,0.2540*%
%ADD31R,2.0000X4.0000*%
%ADD32R,0.9000X0.7000*%
%ADD33R,4.1500X1.0500*%
%ADD34R,8.8000X9.6000*%
%ADD35C,0.6096*%
%ADD36C,1.5240*%
%ADD37R,1.5240X1.5240*%
%ADD38C,1.9000*%
%ADD39R,1.9000X1.9000*%
%ADD40R,1.8000X1.8000*%
%ADD41C,1.8000*%
%ADD42C,1.5000*%
%ADD43R,1.5000X1.5000*%
%ADD44C,1.4000*%
%ADD45R,1.4000X1.4000*%
%ADD46R,1.5000X1.5000*%
G36*
X1397444Y955660D02*
X1397444Y446659D01*
X1389025Y438239D01*
X1310836D01*
X1310350Y439413D01*
X1322025Y451088D01*
X1322269Y451005D01*
X1323430Y450774D01*
X1324610Y450697D01*
X1325790Y450774D01*
X1326951Y451005D01*
X1328071Y451385D01*
X1329132Y451908D01*
X1330115Y452565D01*
X1331005Y453345D01*
X1331785Y454235D01*
X1332442Y455218D01*
X1332965Y456279D01*
X1333345Y457399D01*
X1333576Y458560D01*
X1333653Y459740D01*
X1333576Y460920D01*
X1333345Y462081D01*
X1332965Y463201D01*
X1332442Y464262D01*
X1331785Y465245D01*
X1331005Y466135D01*
X1330115Y466915D01*
X1329132Y467572D01*
X1328071Y468095D01*
X1326951Y468475D01*
X1325790Y468706D01*
X1324610Y468783D01*
X1323430Y468706D01*
X1322269Y468475D01*
X1321149Y468095D01*
X1320088Y467572D01*
X1319105Y466915D01*
X1318215Y466135D01*
X1317435Y465245D01*
X1316778Y464262D01*
X1316255Y463201D01*
X1315875Y462081D01*
X1315644Y460920D01*
X1315567Y459740D01*
X1315644Y458560D01*
X1315875Y457399D01*
X1315958Y457155D01*
X1304269Y445467D01*
X937681D01*
X890715Y492433D01*
X891201Y493606D01*
X898974D01*
Y507154D01*
X891201D01*
X890715Y508327D01*
X897413Y515025D01*
X901866D01*
Y514292D01*
X913914D01*
Y524340D01*
X901866D01*
Y523606D01*
X895636D01*
X895636Y523606D01*
X894799Y523524D01*
X893994Y523280D01*
X893252Y522883D01*
X892602Y522350D01*
X877406Y507154D01*
X854426D01*
Y493606D01*
X877406D01*
X931600Y439413D01*
X931114Y438239D01*
X726665D01*
X718482Y446314D01*
Y956580D01*
X726101Y964199D01*
X1388824Y964199D01*
X1397444Y955660D01*
D02*
G37*
%LPC*%
G36*
X1360351Y960989D02*
X1360350Y960989D01*
X1197410D01*
X1197410Y960989D01*
X1196573Y960906D01*
X1195768Y960662D01*
X1195026Y960266D01*
X1194376Y959732D01*
X1181328Y946684D01*
X1180074Y946797D01*
X1180042Y946862D01*
X1179385Y947845D01*
X1178605Y948735D01*
X1177715Y949515D01*
X1176732Y950172D01*
X1175671Y950695D01*
X1174551Y951075D01*
X1173390Y951306D01*
X1172210Y951383D01*
X1171030Y951306D01*
X1169869Y951075D01*
X1168749Y950695D01*
X1167688Y950172D01*
X1166705Y949515D01*
X1165815Y948735D01*
X1165035Y947845D01*
X1164378Y946862D01*
X1163855Y945801D01*
X1163475Y944681D01*
X1163244Y943520D01*
X1163167Y942340D01*
X1163244Y941160D01*
X1163475Y939999D01*
X1163855Y938879D01*
X1164378Y937818D01*
X1165035Y936835D01*
X1165815Y935945D01*
X1166705Y935165D01*
X1167688Y934508D01*
X1168749Y933985D01*
X1169869Y933605D01*
X1170062Y933567D01*
X1170568Y933296D01*
X1171373Y933052D01*
X1172210Y932969D01*
X1173047Y933052D01*
X1173852Y933296D01*
X1174358Y933567D01*
X1174551Y933605D01*
X1175671Y933985D01*
X1176732Y934508D01*
X1177715Y935165D01*
X1178605Y935945D01*
X1179385Y936835D01*
X1180042Y937818D01*
X1180156Y938049D01*
X1183052D01*
X1183052Y938049D01*
X1183889Y938132D01*
X1184694Y938376D01*
X1185436Y938773D01*
X1186086Y939306D01*
X1187447Y940667D01*
X1188825Y940249D01*
X1188875Y939999D01*
X1189255Y938879D01*
X1189778Y937818D01*
X1190435Y936835D01*
X1191215Y935945D01*
X1192105Y935165D01*
X1193088Y934508D01*
X1194149Y933985D01*
X1195269Y933605D01*
X1196430Y933374D01*
X1197610Y933297D01*
X1198790Y933374D01*
X1199951Y933605D01*
X1201071Y933985D01*
X1202132Y934508D01*
X1203115Y935165D01*
X1204005Y935945D01*
X1204785Y936835D01*
X1205442Y937818D01*
X1205965Y938879D01*
X1206345Y939999D01*
X1206576Y941160D01*
X1206653Y942340D01*
X1206576Y943520D01*
X1206345Y944681D01*
X1205965Y945801D01*
X1205442Y946862D01*
X1204785Y947845D01*
X1204005Y948735D01*
X1203115Y949515D01*
X1202132Y950172D01*
X1201071Y950695D01*
X1200885Y950758D01*
X1200119Y952235D01*
X1200134Y952334D01*
X1200163Y952407D01*
X1220857D01*
X1220982Y951137D01*
X1220669Y951075D01*
X1219549Y950695D01*
X1218488Y950172D01*
X1217505Y949515D01*
X1216615Y948735D01*
X1215835Y947845D01*
X1215178Y946862D01*
X1214655Y945801D01*
X1214275Y944681D01*
X1214044Y943520D01*
X1213967Y942340D01*
X1214044Y941160D01*
X1214275Y939999D01*
X1214655Y938879D01*
X1215178Y937818D01*
X1215835Y936835D01*
X1216615Y935945D01*
X1217505Y935165D01*
X1218488Y934508D01*
X1219549Y933985D01*
X1220669Y933605D01*
X1221830Y933374D01*
X1223010Y933297D01*
X1224190Y933374D01*
X1225351Y933605D01*
X1226471Y933985D01*
X1227532Y934508D01*
X1228515Y935165D01*
X1229405Y935945D01*
X1230185Y936835D01*
X1230842Y937818D01*
X1231365Y938879D01*
X1231745Y939999D01*
X1231976Y941160D01*
X1232053Y942340D01*
X1231976Y943520D01*
X1231745Y944681D01*
X1231365Y945801D01*
X1230842Y946862D01*
X1230185Y947845D01*
X1229405Y948735D01*
X1228515Y949515D01*
X1227532Y950172D01*
X1226471Y950695D01*
X1225351Y951075D01*
X1225038Y951137D01*
X1225163Y952407D01*
X1246257D01*
X1246382Y951137D01*
X1246069Y951075D01*
X1244949Y950695D01*
X1243888Y950172D01*
X1242905Y949515D01*
X1242015Y948735D01*
X1241235Y947845D01*
X1240578Y946862D01*
X1240055Y945801D01*
X1239675Y944681D01*
X1239444Y943520D01*
X1239367Y942340D01*
X1239444Y941160D01*
X1239675Y939999D01*
X1240055Y938879D01*
X1240578Y937818D01*
X1241235Y936835D01*
X1242015Y935945D01*
X1242905Y935165D01*
X1243888Y934508D01*
X1244949Y933985D01*
X1246069Y933605D01*
X1247230Y933374D01*
X1248410Y933297D01*
X1249590Y933374D01*
X1250751Y933605D01*
X1251871Y933985D01*
X1252932Y934508D01*
X1253915Y935165D01*
X1254805Y935945D01*
X1255585Y936835D01*
X1256242Y937818D01*
X1256765Y938879D01*
X1257145Y939999D01*
X1257376Y941160D01*
X1257453Y942340D01*
X1257376Y943520D01*
X1257145Y944681D01*
X1256765Y945801D01*
X1256242Y946862D01*
X1255585Y947845D01*
X1254805Y948735D01*
X1253915Y949515D01*
X1252932Y950172D01*
X1251871Y950695D01*
X1250751Y951075D01*
X1250438Y951137D01*
X1250563Y952407D01*
X1271657D01*
X1271782Y951137D01*
X1271469Y951075D01*
X1270349Y950695D01*
X1269288Y950172D01*
X1268305Y949515D01*
X1267415Y948735D01*
X1266635Y947845D01*
X1265978Y946862D01*
X1265455Y945801D01*
X1265075Y944681D01*
X1264844Y943520D01*
X1264767Y942340D01*
X1264844Y941160D01*
X1265075Y939999D01*
X1265455Y938879D01*
X1265978Y937818D01*
X1266635Y936835D01*
X1267415Y935945D01*
X1268305Y935165D01*
X1269288Y934508D01*
X1270349Y933985D01*
X1271469Y933605D01*
X1272630Y933374D01*
X1273810Y933297D01*
X1274990Y933374D01*
X1276151Y933605D01*
X1277271Y933985D01*
X1278332Y934508D01*
X1279315Y935165D01*
X1280205Y935945D01*
X1280985Y936835D01*
X1281642Y937818D01*
X1282165Y938879D01*
X1282545Y939999D01*
X1282776Y941160D01*
X1282853Y942340D01*
X1282776Y943520D01*
X1282545Y944681D01*
X1282165Y945801D01*
X1281642Y946862D01*
X1280985Y947845D01*
X1280205Y948735D01*
X1279315Y949515D01*
X1278332Y950172D01*
X1277271Y950695D01*
X1276151Y951075D01*
X1275838Y951137D01*
X1275963Y952407D01*
X1297057D01*
X1297182Y951137D01*
X1296869Y951075D01*
X1295749Y950695D01*
X1294688Y950172D01*
X1293705Y949515D01*
X1292815Y948735D01*
X1292035Y947845D01*
X1291378Y946862D01*
X1290855Y945801D01*
X1290475Y944681D01*
X1290244Y943520D01*
X1290167Y942340D01*
X1290244Y941160D01*
X1290475Y939999D01*
X1290558Y939755D01*
X1277373Y926571D01*
X1160909D01*
X1160909Y926571D01*
X1160071Y926489D01*
X1159267Y926245D01*
X1158525Y925848D01*
X1157875Y925315D01*
X1152375Y919815D01*
X1151842Y919165D01*
X1151445Y918423D01*
X1151201Y917618D01*
X1151119Y916781D01*
X1151119Y916781D01*
Y785467D01*
X1108026Y742375D01*
X1107493Y741724D01*
X1107096Y740983D01*
X1106852Y740178D01*
X1106770Y739341D01*
X1106770Y739340D01*
Y736028D01*
X1106479Y735885D01*
X1105482Y735219D01*
X1104581Y734428D01*
X1103790Y733527D01*
X1103124Y732531D01*
X1102594Y731456D01*
X1102209Y730321D01*
X1101975Y729145D01*
X1101897Y727949D01*
X1101975Y726753D01*
X1102209Y725577D01*
X1102594Y724442D01*
X1103124Y723367D01*
X1103790Y722370D01*
X1104581Y721469D01*
X1105482Y720679D01*
X1106479Y720013D01*
X1107554Y719483D01*
X1108689Y719098D01*
X1109864Y718864D01*
X1111060Y718785D01*
X1112256Y718864D01*
X1113432Y719098D01*
X1114567Y719483D01*
X1115642Y720013D01*
X1116639Y720679D01*
X1117540Y721469D01*
X1118330Y722370D01*
X1118996Y723367D01*
X1119526Y724442D01*
X1119912Y725577D01*
X1120145Y726753D01*
X1120224Y727949D01*
X1120145Y729145D01*
X1119912Y730321D01*
X1119526Y731456D01*
X1118996Y732531D01*
X1118330Y733527D01*
X1117540Y734428D01*
X1116639Y735219D01*
X1115642Y735885D01*
X1115351Y736028D01*
Y737563D01*
X1158443Y780656D01*
X1158443Y780656D01*
X1158977Y781306D01*
X1159373Y782048D01*
X1159617Y782853D01*
X1159700Y783690D01*
X1159700Y783690D01*
Y915004D01*
X1162686Y917990D01*
X1279150D01*
X1279151Y917990D01*
X1279988Y918072D01*
X1280793Y918317D01*
X1281534Y918713D01*
X1282185Y919247D01*
X1296626Y933688D01*
X1296869Y933605D01*
X1298030Y933374D01*
X1299210Y933297D01*
X1300390Y933374D01*
X1301551Y933605D01*
X1302671Y933985D01*
X1303732Y934508D01*
X1304715Y935165D01*
X1305605Y935945D01*
X1306385Y936835D01*
X1307042Y937818D01*
X1307565Y938879D01*
X1307945Y939999D01*
X1308176Y941160D01*
X1308253Y942340D01*
X1308176Y943520D01*
X1307945Y944681D01*
X1307565Y945801D01*
X1307042Y946862D01*
X1306385Y947845D01*
X1305605Y948735D01*
X1304715Y949515D01*
X1303732Y950172D01*
X1302671Y950695D01*
X1301551Y951075D01*
X1301238Y951137D01*
X1301363Y952407D01*
X1322457D01*
X1322582Y951137D01*
X1322269Y951075D01*
X1321149Y950695D01*
X1320088Y950172D01*
X1319105Y949515D01*
X1318215Y948735D01*
X1317435Y947845D01*
X1316778Y946862D01*
X1316255Y945801D01*
X1315875Y944681D01*
X1315644Y943520D01*
X1315567Y942340D01*
X1315644Y941160D01*
X1315875Y939999D01*
X1316255Y938879D01*
X1316778Y937818D01*
X1317435Y936835D01*
X1318215Y935945D01*
X1319105Y935165D01*
X1320088Y934508D01*
X1321149Y933985D01*
X1322269Y933605D01*
X1323430Y933374D01*
X1324610Y933297D01*
X1325790Y933374D01*
X1326951Y933605D01*
X1328071Y933985D01*
X1329132Y934508D01*
X1330115Y935165D01*
X1331005Y935945D01*
X1331785Y936835D01*
X1332442Y937818D01*
X1332965Y938879D01*
X1333345Y939999D01*
X1333576Y941160D01*
X1333653Y942340D01*
X1333576Y943520D01*
X1333345Y944681D01*
X1332965Y945801D01*
X1332442Y946862D01*
X1331785Y947845D01*
X1331005Y948735D01*
X1330115Y949515D01*
X1329132Y950172D01*
X1328071Y950695D01*
X1326951Y951075D01*
X1326638Y951137D01*
X1326763Y952407D01*
X1340439D01*
X1340986Y951364D01*
X1340986Y951137D01*
Y933316D01*
X1359034D01*
Y950151D01*
X1360304Y950677D01*
X1370418Y940563D01*
Y834489D01*
X1369148Y834104D01*
X1368771Y834669D01*
X1367893Y835670D01*
X1366891Y836548D01*
X1365784Y837288D01*
X1364589Y837877D01*
X1363328Y838305D01*
X1362022Y838565D01*
X1361963Y838569D01*
Y828470D01*
Y818372D01*
X1362022Y818376D01*
X1363328Y818635D01*
X1364589Y819063D01*
X1365784Y819653D01*
X1366891Y820393D01*
X1367893Y821271D01*
X1368771Y822272D01*
X1369148Y822837D01*
X1370418Y822451D01*
Y743933D01*
X1363372Y736887D01*
X1363065Y736992D01*
X1361889Y737225D01*
X1360693Y737304D01*
X1359497Y737225D01*
X1358321Y736992D01*
X1357186Y736606D01*
X1356111Y736076D01*
X1355115Y735410D01*
X1354213Y734620D01*
X1353423Y733719D01*
X1352757Y732722D01*
X1352227Y731647D01*
X1351842Y730512D01*
X1351608Y729336D01*
X1351529Y728140D01*
X1351608Y726944D01*
X1351842Y725769D01*
X1352227Y724633D01*
X1352757Y723559D01*
X1353423Y722562D01*
X1354213Y721661D01*
X1355115Y720870D01*
X1356111Y720204D01*
X1357186Y719674D01*
X1358321Y719289D01*
X1359497Y719055D01*
X1360693Y718977D01*
X1361889Y719055D01*
X1363065Y719289D01*
X1364200Y719674D01*
X1365275Y720204D01*
X1366272Y720870D01*
X1367173Y721661D01*
X1367963Y722562D01*
X1368629Y723559D01*
X1369159Y724633D01*
X1369544Y725769D01*
X1369778Y726944D01*
X1369857Y728140D01*
X1369778Y729336D01*
X1369544Y730512D01*
X1369440Y730819D01*
X1377742Y739122D01*
X1377743Y739122D01*
X1378276Y739772D01*
X1378673Y740514D01*
X1378917Y741319D01*
X1378999Y742156D01*
X1378999Y742156D01*
Y942340D01*
X1378999Y942340D01*
X1378917Y943177D01*
X1378673Y943982D01*
X1378276Y944724D01*
X1377743Y945374D01*
X1363385Y959732D01*
X1362734Y960266D01*
X1361993Y960662D01*
X1361188Y960906D01*
X1360351Y960989D01*
D02*
G37*
G36*
X1140594Y951364D02*
X1122546D01*
Y933316D01*
X1140594D01*
Y951364D01*
D02*
G37*
G36*
X1106170Y951383D02*
X1104990Y951306D01*
X1103829Y951075D01*
X1102709Y950695D01*
X1101648Y950172D01*
X1100665Y949515D01*
X1099775Y948735D01*
X1098995Y947845D01*
X1098338Y946862D01*
X1097815Y945801D01*
X1097435Y944681D01*
X1097204Y943520D01*
X1097127Y942340D01*
X1097204Y941160D01*
X1097435Y939999D01*
X1097815Y938879D01*
X1098338Y937818D01*
X1098995Y936835D01*
X1099775Y935945D01*
X1100665Y935165D01*
X1101648Y934508D01*
X1102709Y933985D01*
X1103829Y933605D01*
X1104990Y933374D01*
X1106170Y933297D01*
X1107350Y933374D01*
X1108511Y933605D01*
X1109631Y933985D01*
X1110692Y934508D01*
X1111675Y935165D01*
X1112565Y935945D01*
X1113345Y936835D01*
X1114002Y937818D01*
X1114525Y938879D01*
X1114905Y939999D01*
X1115136Y941160D01*
X1115213Y942340D01*
X1115136Y943520D01*
X1114905Y944681D01*
X1114525Y945801D01*
X1114002Y946862D01*
X1113345Y947845D01*
X1112565Y948735D01*
X1111675Y949515D01*
X1110692Y950172D01*
X1109631Y950695D01*
X1108511Y951075D01*
X1107350Y951306D01*
X1106170Y951383D01*
D02*
G37*
G36*
X1029970D02*
X1028790Y951306D01*
X1027629Y951075D01*
X1026509Y950695D01*
X1025448Y950172D01*
X1024465Y949515D01*
X1023575Y948735D01*
X1022795Y947845D01*
X1022138Y946862D01*
X1021615Y945801D01*
X1021235Y944681D01*
X1021004Y943520D01*
X1020927Y942340D01*
X1021004Y941160D01*
X1021235Y939999D01*
X1021615Y938879D01*
X1022138Y937818D01*
X1022795Y936835D01*
X1023575Y935945D01*
X1024465Y935165D01*
X1025448Y934508D01*
X1026509Y933985D01*
X1027629Y933605D01*
X1028790Y933374D01*
X1029970Y933297D01*
X1031150Y933374D01*
X1032311Y933605D01*
X1033431Y933985D01*
X1034492Y934508D01*
X1035475Y935165D01*
X1036365Y935945D01*
X1037145Y936835D01*
X1037802Y937818D01*
X1038325Y938879D01*
X1038705Y939999D01*
X1038936Y941160D01*
X1039013Y942340D01*
X1038936Y943520D01*
X1038705Y944681D01*
X1038325Y945801D01*
X1037802Y946862D01*
X1037145Y947845D01*
X1036365Y948735D01*
X1035475Y949515D01*
X1034492Y950172D01*
X1033431Y950695D01*
X1032311Y951075D01*
X1031150Y951306D01*
X1029970Y951383D01*
D02*
G37*
G36*
X1004570D02*
X1003390Y951306D01*
X1002229Y951075D01*
X1001109Y950695D01*
X1000048Y950172D01*
X999065Y949515D01*
X998175Y948735D01*
X997395Y947845D01*
X996738Y946862D01*
X996215Y945801D01*
X995835Y944681D01*
X995604Y943520D01*
X995527Y942340D01*
X995604Y941160D01*
X995835Y939999D01*
X996215Y938879D01*
X996738Y937818D01*
X997395Y936835D01*
X998175Y935945D01*
X999065Y935165D01*
X1000048Y934508D01*
X1001109Y933985D01*
X1002229Y933605D01*
X1003390Y933374D01*
X1004570Y933297D01*
X1005750Y933374D01*
X1006911Y933605D01*
X1008031Y933985D01*
X1009092Y934508D01*
X1010075Y935165D01*
X1010965Y935945D01*
X1011745Y936835D01*
X1012402Y937818D01*
X1012925Y938879D01*
X1013305Y939999D01*
X1013536Y941160D01*
X1013613Y942340D01*
X1013536Y943520D01*
X1013305Y944681D01*
X1012925Y945801D01*
X1012402Y946862D01*
X1011745Y947845D01*
X1010965Y948735D01*
X1010075Y949515D01*
X1009092Y950172D01*
X1008031Y950695D01*
X1006911Y951075D01*
X1005750Y951306D01*
X1004570Y951383D01*
D02*
G37*
G36*
X979170D02*
X977990Y951306D01*
X976829Y951075D01*
X975709Y950695D01*
X974648Y950172D01*
X973665Y949515D01*
X972775Y948735D01*
X971995Y947845D01*
X971338Y946862D01*
X970815Y945801D01*
X970435Y944681D01*
X970204Y943520D01*
X970127Y942340D01*
X970204Y941160D01*
X970435Y939999D01*
X970815Y938879D01*
X971338Y937818D01*
X971995Y936835D01*
X972775Y935945D01*
X973665Y935165D01*
X974648Y934508D01*
X975709Y933985D01*
X976829Y933605D01*
X977990Y933374D01*
X979170Y933297D01*
X980350Y933374D01*
X981511Y933605D01*
X982631Y933985D01*
X983692Y934508D01*
X984675Y935165D01*
X985565Y935945D01*
X986345Y936835D01*
X987002Y937818D01*
X987525Y938879D01*
X987905Y939999D01*
X988136Y941160D01*
X988213Y942340D01*
X988136Y943520D01*
X987905Y944681D01*
X987525Y945801D01*
X987002Y946862D01*
X986345Y947845D01*
X985565Y948735D01*
X984675Y949515D01*
X983692Y950172D01*
X982631Y950695D01*
X981511Y951075D01*
X980350Y951306D01*
X979170Y951383D01*
D02*
G37*
G36*
X953770D02*
X952590Y951306D01*
X951429Y951075D01*
X950309Y950695D01*
X949248Y950172D01*
X948265Y949515D01*
X947375Y948735D01*
X946595Y947845D01*
X945938Y946862D01*
X945415Y945801D01*
X945035Y944681D01*
X944804Y943520D01*
X944727Y942340D01*
X944804Y941160D01*
X945035Y939999D01*
X945415Y938879D01*
X945938Y937818D01*
X946595Y936835D01*
X947375Y935945D01*
X948265Y935165D01*
X949248Y934508D01*
X950309Y933985D01*
X951429Y933605D01*
X952590Y933374D01*
X953770Y933297D01*
X954950Y933374D01*
X956111Y933605D01*
X957231Y933985D01*
X958292Y934508D01*
X959275Y935165D01*
X960165Y935945D01*
X960945Y936835D01*
X961602Y937818D01*
X962125Y938879D01*
X962505Y939999D01*
X962736Y941160D01*
X962813Y942340D01*
X962736Y943520D01*
X962505Y944681D01*
X962125Y945801D01*
X961602Y946862D01*
X960945Y947845D01*
X960165Y948735D01*
X959275Y949515D01*
X958292Y950172D01*
X957231Y950695D01*
X956111Y951075D01*
X954950Y951306D01*
X953770Y951383D01*
D02*
G37*
G36*
X928370D02*
X927190Y951306D01*
X926029Y951075D01*
X924909Y950695D01*
X923848Y950172D01*
X922865Y949515D01*
X921975Y948735D01*
X921195Y947845D01*
X920538Y946862D01*
X920015Y945801D01*
X919635Y944681D01*
X919404Y943520D01*
X919327Y942340D01*
X919404Y941160D01*
X919635Y939999D01*
X920015Y938879D01*
X920538Y937818D01*
X921195Y936835D01*
X921975Y935945D01*
X922865Y935165D01*
X923848Y934508D01*
X924909Y933985D01*
X926029Y933605D01*
X927190Y933374D01*
X928370Y933297D01*
X929550Y933374D01*
X930711Y933605D01*
X931831Y933985D01*
X932892Y934508D01*
X933875Y935165D01*
X934765Y935945D01*
X935545Y936835D01*
X936202Y937818D01*
X936725Y938879D01*
X937105Y939999D01*
X937336Y941160D01*
X937413Y942340D01*
X937336Y943520D01*
X937105Y944681D01*
X936725Y945801D01*
X936202Y946862D01*
X935545Y947845D01*
X934765Y948735D01*
X933875Y949515D01*
X932892Y950172D01*
X931831Y950695D01*
X930711Y951075D01*
X929550Y951306D01*
X928370Y951383D01*
D02*
G37*
G36*
X902970D02*
X901790Y951306D01*
X900629Y951075D01*
X899509Y950695D01*
X898448Y950172D01*
X897465Y949515D01*
X896575Y948735D01*
X895795Y947845D01*
X895138Y946862D01*
X894615Y945801D01*
X894235Y944681D01*
X894004Y943520D01*
X893927Y942340D01*
X894004Y941160D01*
X894235Y939999D01*
X894615Y938879D01*
X895138Y937818D01*
X895795Y936835D01*
X896575Y935945D01*
X897465Y935165D01*
X898448Y934508D01*
X899509Y933985D01*
X900629Y933605D01*
X901790Y933374D01*
X902970Y933297D01*
X904150Y933374D01*
X905311Y933605D01*
X906431Y933985D01*
X907492Y934508D01*
X908475Y935165D01*
X909365Y935945D01*
X910145Y936835D01*
X910802Y937818D01*
X911325Y938879D01*
X911705Y939999D01*
X911936Y941160D01*
X912013Y942340D01*
X911936Y943520D01*
X911705Y944681D01*
X911325Y945801D01*
X910802Y946862D01*
X910145Y947845D01*
X909365Y948735D01*
X908475Y949515D01*
X907492Y950172D01*
X906431Y950695D01*
X905311Y951075D01*
X904150Y951306D01*
X902970Y951383D01*
D02*
G37*
G36*
X1080770D02*
X1079590Y951306D01*
X1078429Y951075D01*
X1077309Y950695D01*
X1076248Y950172D01*
X1075265Y949515D01*
X1074375Y948735D01*
X1073595Y947845D01*
X1072938Y946862D01*
X1072415Y945801D01*
X1072035Y944681D01*
X1071804Y943520D01*
X1071727Y942340D01*
X1071804Y941160D01*
X1072035Y939999D01*
X1072118Y939755D01*
X1055772Y923410D01*
X1047696D01*
X1047210Y924583D01*
X1055963Y933335D01*
X1056550Y933374D01*
X1057711Y933605D01*
X1058831Y933985D01*
X1059892Y934508D01*
X1060875Y935165D01*
X1061765Y935945D01*
X1062545Y936835D01*
X1063202Y937818D01*
X1063725Y938879D01*
X1064105Y939999D01*
X1064336Y941160D01*
X1064413Y942340D01*
X1064336Y943520D01*
X1064105Y944681D01*
X1063725Y945801D01*
X1063202Y946862D01*
X1062545Y947845D01*
X1061765Y948735D01*
X1060875Y949515D01*
X1059892Y950172D01*
X1058831Y950695D01*
X1057711Y951075D01*
X1056550Y951306D01*
X1055370Y951383D01*
X1054190Y951306D01*
X1053029Y951075D01*
X1051909Y950695D01*
X1050848Y950172D01*
X1049865Y949515D01*
X1048975Y948735D01*
X1048195Y947845D01*
X1047538Y946862D01*
X1047015Y945801D01*
X1046635Y944681D01*
X1046404Y943520D01*
X1046327Y942340D01*
X1046404Y941160D01*
X1046635Y939999D01*
X1047015Y938879D01*
X1047538Y937818D01*
X1047847Y937356D01*
X1040990Y930499D01*
X931305D01*
X931305Y930499D01*
X930468Y930416D01*
X929663Y930172D01*
X928921Y929775D01*
X928271Y929242D01*
X928271Y929242D01*
X861327Y862298D01*
X860154Y862784D01*
Y879204D01*
X839106D01*
Y858156D01*
X855526D01*
X856012Y856983D01*
X818892Y819863D01*
X818359Y819213D01*
X817962Y818471D01*
X817718Y817666D01*
X817635Y816829D01*
X817635Y816829D01*
Y761764D01*
X817635Y761764D01*
X817718Y760927D01*
X817962Y760122D01*
X818359Y759380D01*
X818892Y758730D01*
X839106Y738516D01*
Y723536D01*
X860154D01*
Y744584D01*
X845174D01*
X826217Y763541D01*
Y815052D01*
X836863Y825698D01*
X838043Y825301D01*
X838174Y825213D01*
X838459Y823777D01*
X838946Y822344D01*
X839615Y820988D01*
X840455Y819730D01*
X841452Y818593D01*
X842590Y817595D01*
X843848Y816755D01*
X845204Y816086D01*
X846637Y815599D01*
X848120Y815304D01*
X848360Y815288D01*
Y826770D01*
X849630D01*
Y828040D01*
X861112D01*
X861096Y828279D01*
X860801Y829763D01*
X860314Y831196D01*
X859645Y832552D01*
X858805Y833810D01*
X857807Y834948D01*
X856670Y835945D01*
X855412Y836785D01*
X854056Y837454D01*
X852623Y837941D01*
X851187Y838226D01*
X851099Y838357D01*
X850702Y839537D01*
X933082Y921917D01*
X962450D01*
X962936Y920744D01*
X854086Y811894D01*
X839106D01*
Y790846D01*
X860154D01*
Y805826D01*
X969157Y914829D01*
X1057549D01*
X1057549Y914829D01*
X1058386Y914911D01*
X1059191Y915155D01*
X1059933Y915552D01*
X1060583Y916085D01*
X1078186Y933688D01*
X1078429Y933605D01*
X1079590Y933374D01*
X1080770Y933297D01*
X1081950Y933374D01*
X1083111Y933605D01*
X1084231Y933985D01*
X1085292Y934508D01*
X1086275Y935165D01*
X1087165Y935945D01*
X1087945Y936835D01*
X1088602Y937818D01*
X1089125Y938879D01*
X1089505Y939999D01*
X1089736Y941160D01*
X1089813Y942340D01*
X1089736Y943520D01*
X1089505Y944681D01*
X1089125Y945801D01*
X1088602Y946862D01*
X1087945Y947845D01*
X1087165Y948735D01*
X1086275Y949515D01*
X1085292Y950172D01*
X1084231Y950695D01*
X1083111Y951075D01*
X1081950Y951306D01*
X1080770Y951383D01*
D02*
G37*
G36*
X1279815Y908474D02*
X1278866Y908399D01*
X1277941Y908177D01*
X1277061Y907813D01*
X1276249Y907316D01*
X1275526Y906697D01*
X1275525Y906697D01*
X1269838Y901010D01*
X1269220Y900286D01*
X1268722Y899474D01*
X1268358Y898594D01*
X1268136Y897669D01*
X1268061Y896720D01*
X1268061Y896719D01*
Y896324D01*
X1267901Y896148D01*
X1266791Y895662D01*
X1266278Y896005D01*
X1265276Y896499D01*
X1264218Y896858D01*
X1263122Y897076D01*
X1262007Y897149D01*
X1260892Y897076D01*
X1259796Y896858D01*
X1258738Y896499D01*
X1257736Y896005D01*
X1256807Y895384D01*
X1255967Y894647D01*
X1255230Y893807D01*
X1254609Y892878D01*
X1254115Y891876D01*
X1253756Y890818D01*
X1253538Y889722D01*
X1253465Y888607D01*
X1253538Y887492D01*
X1253756Y886396D01*
X1254115Y885338D01*
X1254609Y884336D01*
X1255230Y883407D01*
X1255940Y882597D01*
Y837057D01*
X1255586Y836936D01*
X1254511Y836406D01*
X1253515Y835740D01*
X1252613Y834950D01*
X1251823Y834049D01*
X1251157Y833052D01*
X1250627Y831977D01*
X1250242Y830842D01*
X1250008Y829666D01*
X1249929Y828470D01*
X1250008Y827274D01*
X1250242Y826099D01*
X1250627Y824964D01*
X1251157Y823888D01*
X1251823Y822892D01*
X1252613Y821991D01*
X1253515Y821200D01*
X1254511Y820534D01*
X1255586Y820004D01*
X1256721Y819619D01*
X1257897Y819385D01*
X1259093Y819307D01*
X1260289Y819385D01*
X1261465Y819619D01*
X1262600Y820004D01*
X1263675Y820534D01*
X1264671Y821200D01*
X1265573Y821991D01*
X1266363Y822892D01*
X1267029Y823888D01*
X1267559Y824964D01*
X1267944Y826099D01*
X1268178Y827274D01*
X1268257Y828470D01*
X1268178Y829666D01*
X1268006Y830530D01*
X1268074Y831384D01*
Y834709D01*
X1268817Y835073D01*
X1269344Y835125D01*
X1269838Y834546D01*
X1275365Y829018D01*
X1275329Y828470D01*
X1275408Y827274D01*
X1275642Y826099D01*
X1276027Y824964D01*
X1276557Y823888D01*
X1277223Y822892D01*
X1278013Y821991D01*
X1278915Y821200D01*
X1279911Y820534D01*
X1280986Y820004D01*
X1282121Y819619D01*
X1283297Y819385D01*
X1284493Y819307D01*
X1285689Y819385D01*
X1286865Y819619D01*
X1288000Y820004D01*
X1289075Y820534D01*
X1290072Y821200D01*
X1290973Y821991D01*
X1291763Y822892D01*
X1292429Y823888D01*
X1292959Y824964D01*
X1293344Y826099D01*
X1293578Y827274D01*
X1293657Y828470D01*
X1293578Y829666D01*
X1293344Y830842D01*
X1292959Y831977D01*
X1292429Y833052D01*
X1291763Y834049D01*
X1290973Y834950D01*
X1290072Y835740D01*
X1289075Y836406D01*
X1288000Y836936D01*
X1286865Y837322D01*
X1285689Y837555D01*
X1284493Y837634D01*
X1283945Y837598D01*
X1280194Y841349D01*
Y849651D01*
X1281464Y849801D01*
X1281637Y849082D01*
X1282001Y848202D01*
X1282499Y847391D01*
X1283117Y846667D01*
X1300765Y829018D01*
X1300729Y828470D01*
X1300808Y827274D01*
X1301042Y826099D01*
X1301427Y824964D01*
X1301957Y823888D01*
X1302623Y822892D01*
X1303413Y821991D01*
X1304315Y821200D01*
X1305311Y820534D01*
X1306386Y820004D01*
X1307521Y819619D01*
X1308697Y819385D01*
X1309893Y819307D01*
X1311089Y819385D01*
X1312265Y819619D01*
X1313400Y820004D01*
X1314475Y820534D01*
X1315471Y821200D01*
X1316373Y821991D01*
X1317163Y822892D01*
X1317829Y823888D01*
X1318359Y824964D01*
X1318744Y826099D01*
X1318978Y827274D01*
X1319057Y828470D01*
X1318978Y829666D01*
X1318744Y830842D01*
X1318359Y831977D01*
X1317829Y833052D01*
X1317163Y834049D01*
X1316373Y834950D01*
X1315471Y835740D01*
X1314475Y836406D01*
X1313400Y836936D01*
X1312265Y837322D01*
X1311089Y837555D01*
X1309893Y837634D01*
X1309345Y837598D01*
X1293474Y853469D01*
Y882597D01*
X1294184Y883407D01*
X1294805Y884336D01*
X1295299Y885338D01*
X1295658Y886396D01*
X1295876Y887492D01*
X1295949Y888607D01*
X1295876Y889722D01*
X1295658Y890818D01*
X1295299Y891876D01*
X1294805Y892878D01*
X1294184Y893807D01*
X1293447Y894647D01*
X1292964Y895071D01*
X1293439Y896341D01*
X1304283D01*
Y880083D01*
X1321331D01*
Y897131D01*
X1318874D01*
Y902407D01*
X1318799Y903356D01*
X1318577Y904282D01*
X1318212Y905162D01*
X1317715Y905973D01*
X1317097Y906697D01*
X1316373Y907315D01*
X1315561Y907813D01*
X1314682Y908177D01*
X1313756Y908399D01*
X1312807Y908474D01*
X1279816D01*
X1279815Y908474D01*
D02*
G37*
G36*
X1088574Y908474D02*
X1055774D01*
X1054825Y908399D01*
X1053899Y908177D01*
X1053020Y907813D01*
X1052208Y907315D01*
X1051484Y906697D01*
X1051484Y906697D01*
X1045605Y900818D01*
X1044987Y900094D01*
X1044490Y899283D01*
X1044125Y898403D01*
X1043903Y897477D01*
X1043828Y896528D01*
X1043828Y896528D01*
Y896133D01*
X1043668Y895956D01*
X1042558Y895471D01*
X1042045Y895813D01*
X1041043Y896308D01*
X1039985Y896667D01*
X1038889Y896885D01*
X1037774Y896958D01*
X1036659Y896885D01*
X1035563Y896667D01*
X1034505Y896308D01*
X1033503Y895813D01*
X1032574Y895193D01*
X1031734Y894456D01*
X1030997Y893616D01*
X1030376Y892687D01*
X1029882Y891684D01*
X1029523Y890626D01*
X1029305Y889530D01*
X1029232Y888416D01*
X1029305Y887301D01*
X1029523Y886205D01*
X1029882Y885147D01*
X1030376Y884144D01*
X1030997Y883215D01*
X1031708Y882405D01*
Y836865D01*
X1031354Y836745D01*
X1030278Y836215D01*
X1029282Y835549D01*
X1028381Y834759D01*
X1027590Y833857D01*
X1026924Y832861D01*
X1026394Y831786D01*
X1026009Y830651D01*
X1025775Y829475D01*
X1025697Y828279D01*
X1025775Y827083D01*
X1026009Y825907D01*
X1026394Y824772D01*
X1026924Y823697D01*
X1027590Y822700D01*
X1028381Y821799D01*
X1029282Y821009D01*
X1030278Y820343D01*
X1031354Y819813D01*
X1032489Y819427D01*
X1033664Y819194D01*
X1034860Y819115D01*
X1036056Y819194D01*
X1037232Y819427D01*
X1038367Y819813D01*
X1039442Y820343D01*
X1040439Y821009D01*
X1041340Y821799D01*
X1042130Y822700D01*
X1042796Y823697D01*
X1043326Y824772D01*
X1043712Y825907D01*
X1043945Y827083D01*
X1044024Y828279D01*
X1043945Y829475D01*
X1043774Y830339D01*
X1043841Y831193D01*
Y834518D01*
X1044584Y834881D01*
X1045111Y834933D01*
X1045605Y834354D01*
X1051133Y828827D01*
X1051097Y828279D01*
X1051175Y827083D01*
X1051409Y825907D01*
X1051794Y824772D01*
X1052324Y823697D01*
X1052990Y822700D01*
X1053781Y821799D01*
X1054682Y821009D01*
X1055678Y820343D01*
X1056754Y819813D01*
X1057889Y819427D01*
X1059064Y819194D01*
X1060260Y819115D01*
X1061456Y819194D01*
X1062632Y819427D01*
X1063767Y819813D01*
X1064842Y820343D01*
X1065839Y821009D01*
X1066740Y821799D01*
X1067530Y822700D01*
X1068196Y823697D01*
X1068726Y824772D01*
X1069112Y825907D01*
X1069345Y827083D01*
X1069424Y828279D01*
X1069345Y829475D01*
X1069112Y830651D01*
X1068726Y831786D01*
X1068196Y832861D01*
X1067530Y833857D01*
X1066740Y834759D01*
X1065839Y835549D01*
X1064842Y836215D01*
X1063767Y836745D01*
X1062632Y837130D01*
X1061456Y837364D01*
X1060260Y837442D01*
X1059712Y837407D01*
X1055962Y841157D01*
Y849460D01*
X1057232Y849610D01*
X1057404Y848890D01*
X1057769Y848011D01*
X1058266Y847199D01*
X1058884Y846475D01*
X1076533Y828827D01*
X1076497Y828279D01*
X1076575Y827083D01*
X1076809Y825907D01*
X1077194Y824772D01*
X1077724Y823697D01*
X1078390Y822700D01*
X1079181Y821799D01*
X1080082Y821009D01*
X1081078Y820343D01*
X1082154Y819813D01*
X1083289Y819427D01*
X1084464Y819194D01*
X1085660Y819115D01*
X1086856Y819194D01*
X1088032Y819427D01*
X1089167Y819813D01*
X1090242Y820343D01*
X1091239Y821009D01*
X1092140Y821799D01*
X1092930Y822700D01*
X1093596Y823697D01*
X1094126Y824772D01*
X1094512Y825907D01*
X1094745Y827083D01*
X1094824Y828279D01*
X1094745Y829475D01*
X1094512Y830651D01*
X1094126Y831786D01*
X1093596Y832861D01*
X1092930Y833857D01*
X1092140Y834759D01*
X1091239Y835549D01*
X1090242Y836215D01*
X1089167Y836745D01*
X1088032Y837130D01*
X1086856Y837364D01*
X1085660Y837442D01*
X1085112Y837407D01*
X1069241Y853278D01*
Y882405D01*
X1069951Y883215D01*
X1070572Y884144D01*
X1071066Y885147D01*
X1071425Y886205D01*
X1071643Y887301D01*
X1071717Y888416D01*
X1071643Y889530D01*
X1071425Y890626D01*
X1071066Y891684D01*
X1070572Y892687D01*
X1069951Y893616D01*
X1069214Y894456D01*
X1068513Y895071D01*
X1068565Y895578D01*
X1068942Y896341D01*
X1080050D01*
Y879892D01*
X1097098D01*
Y896939D01*
X1094641D01*
Y902407D01*
X1094566Y903356D01*
X1094344Y904282D01*
X1093980Y905162D01*
X1093482Y905973D01*
X1092864Y906697D01*
X1092140Y907315D01*
X1091328Y907813D01*
X1090449Y908177D01*
X1089523Y908399D01*
X1088574Y908474D01*
D02*
G37*
G36*
X850900Y905562D02*
Y895350D01*
X861112D01*
X861096Y895590D01*
X860801Y897073D01*
X860314Y898506D01*
X859645Y899862D01*
X858805Y901120D01*
X857807Y902258D01*
X856670Y903255D01*
X855412Y904095D01*
X854056Y904764D01*
X852623Y905251D01*
X851140Y905546D01*
X850900Y905562D01*
D02*
G37*
G36*
X848360D02*
X848120Y905546D01*
X846637Y905251D01*
X845204Y904764D01*
X843848Y904095D01*
X842590Y903255D01*
X841452Y902258D01*
X840455Y901120D01*
X839615Y899862D01*
X838946Y898506D01*
X838459Y897073D01*
X838164Y895590D01*
X838148Y895350D01*
X848360D01*
Y905562D01*
D02*
G37*
G36*
X861112Y892810D02*
X850900D01*
Y882598D01*
X851140Y882614D01*
X852623Y882909D01*
X854056Y883396D01*
X855412Y884065D01*
X856670Y884905D01*
X857807Y885902D01*
X858805Y887040D01*
X859645Y888298D01*
X860314Y889654D01*
X860801Y891087D01*
X861096Y892570D01*
X861112Y892810D01*
D02*
G37*
G36*
X848360D02*
X838148D01*
X838164Y892570D01*
X838459Y891087D01*
X838946Y889654D01*
X839615Y888298D01*
X840455Y887040D01*
X841452Y885902D01*
X842590Y884905D01*
X843848Y884065D01*
X845204Y883396D01*
X846637Y882909D01*
X848120Y882614D01*
X848360Y882598D01*
Y892810D01*
D02*
G37*
G36*
X769620Y861618D02*
Y850900D01*
X780338D01*
X780333Y850980D01*
X780107Y852313D01*
X779732Y853613D01*
X779215Y854862D01*
X778561Y856046D01*
X777778Y857149D01*
X776877Y858157D01*
X775869Y859058D01*
X774766Y859841D01*
X773582Y860495D01*
X772333Y861012D01*
X771033Y861387D01*
X769700Y861613D01*
X769620Y861618D01*
D02*
G37*
G36*
X780338Y848360D02*
X769620D01*
Y837642D01*
X769700Y837647D01*
X771033Y837873D01*
X772333Y838248D01*
X773582Y838765D01*
X774766Y839419D01*
X775869Y840202D01*
X776877Y841103D01*
X777778Y842111D01*
X778561Y843214D01*
X779215Y844398D01*
X779732Y845647D01*
X780107Y846947D01*
X780333Y848280D01*
X780338Y848360D01*
D02*
G37*
G36*
X779374Y911454D02*
X757326D01*
Y897986D01*
X749074Y889734D01*
X748456Y889010D01*
X747959Y888198D01*
X747594Y887319D01*
X747372Y886393D01*
X747297Y885444D01*
X747297Y885444D01*
Y763016D01*
X747297Y763016D01*
X747372Y762067D01*
X747594Y761141D01*
X747959Y760262D01*
X748456Y759450D01*
X749074Y758726D01*
X756056Y751744D01*
Y738276D01*
X761013D01*
Y733044D01*
X761013Y733044D01*
X761088Y732095D01*
X761310Y731169D01*
X761674Y730290D01*
X762172Y729478D01*
X762790Y728754D01*
X795963Y695581D01*
X795963Y695581D01*
X796687Y694963D01*
X797499Y694465D01*
X798379Y694101D01*
X799304Y693879D01*
X800253Y693804D01*
X868819D01*
Y659884D01*
X891867D01*
Y665947D01*
X893040Y666433D01*
X949524Y609949D01*
X949497Y609538D01*
X949575Y608342D01*
X949809Y607167D01*
X950194Y606032D01*
X950724Y604957D01*
X951390Y603960D01*
X952181Y603059D01*
X953082Y602268D01*
X954079Y601603D01*
X955154Y601073D01*
X956289Y600687D01*
X957464Y600453D01*
X958660Y600375D01*
X959856Y600453D01*
X961032Y600687D01*
X962167Y601073D01*
X963242Y601603D01*
X964239Y602268D01*
X965140Y603059D01*
X965930Y603960D01*
X966596Y604957D01*
X967126Y606032D01*
X967512Y607167D01*
X967746Y608342D01*
X967824Y609538D01*
X967746Y610735D01*
X967512Y611910D01*
X967126Y613045D01*
X966596Y614120D01*
X965930Y615117D01*
X965140Y616018D01*
X964239Y616809D01*
X963242Y617475D01*
X962167Y618005D01*
X961032Y618390D01*
X959856Y618624D01*
X958660Y618702D01*
X957975Y618657D01*
X891867Y684765D01*
Y693804D01*
X1090239D01*
X1173765Y610278D01*
X1173729Y609730D01*
X1173808Y608534D01*
X1174042Y607358D01*
X1174427Y606223D01*
X1174957Y605148D01*
X1175623Y604151D01*
X1176413Y603250D01*
X1177315Y602460D01*
X1178311Y601794D01*
X1179386Y601264D01*
X1180521Y600879D01*
X1181697Y600645D01*
X1182893Y600566D01*
X1184089Y600645D01*
X1185265Y600879D01*
X1186400Y601264D01*
X1187475Y601794D01*
X1188472Y602460D01*
X1189373Y603250D01*
X1190163Y604151D01*
X1190188Y604189D01*
X1191458Y603804D01*
Y584750D01*
X1191458Y584750D01*
X1191541Y583913D01*
X1191785Y583108D01*
X1192181Y582366D01*
X1192715Y581716D01*
X1197019Y577412D01*
Y567705D01*
X1159025Y529711D01*
X1158491Y529060D01*
X1158094Y528319D01*
X1157850Y527514D01*
X1157768Y526677D01*
X1157768Y526676D01*
Y506791D01*
X1142803Y491826D01*
X1098406D01*
X1098406Y491826D01*
X1097569Y491744D01*
X1096764Y491500D01*
X1096022Y491103D01*
X1095372Y490569D01*
X1095371Y490569D01*
X1073195Y468392D01*
X1072951Y468475D01*
X1071790Y468706D01*
X1070610Y468783D01*
X1069430Y468706D01*
X1068269Y468475D01*
X1067149Y468095D01*
X1066088Y467572D01*
X1065105Y466915D01*
X1064215Y466135D01*
X1063435Y465245D01*
X1062778Y464262D01*
X1062255Y463201D01*
X1061875Y462081D01*
X1061644Y460920D01*
X1061567Y459740D01*
X1061644Y458560D01*
X1061875Y457399D01*
X1062255Y456279D01*
X1062778Y455218D01*
X1063435Y454235D01*
X1064215Y453345D01*
X1065105Y452565D01*
X1066088Y451908D01*
X1067149Y451385D01*
X1068269Y451005D01*
X1069430Y450774D01*
X1070610Y450697D01*
X1071790Y450774D01*
X1072951Y451005D01*
X1074071Y451385D01*
X1075132Y451908D01*
X1076115Y452565D01*
X1077005Y453345D01*
X1077785Y454235D01*
X1078442Y455218D01*
X1078965Y456279D01*
X1079345Y457399D01*
X1079576Y458560D01*
X1079653Y459740D01*
X1079576Y460920D01*
X1079345Y462081D01*
X1079262Y462324D01*
X1100183Y483245D01*
X1144580D01*
X1144581Y483245D01*
X1145418Y483327D01*
X1146223Y483572D01*
X1146964Y483968D01*
X1147615Y484502D01*
X1165092Y501979D01*
X1165092Y501979D01*
X1165626Y502630D01*
X1166022Y503371D01*
X1166267Y504176D01*
X1166349Y505013D01*
X1166349Y505014D01*
Y524899D01*
X1203087Y561637D01*
X1215067D01*
Y566370D01*
X1228719D01*
Y561637D01*
X1246767D01*
Y566370D01*
X1260419D01*
Y561637D01*
X1278467D01*
Y579685D01*
X1260419D01*
Y574952D01*
X1246767D01*
Y579685D01*
X1228719D01*
Y574952D01*
X1215067D01*
Y579685D01*
X1206881D01*
X1200040Y586527D01*
Y601806D01*
X1200524Y602139D01*
X1201310Y602341D01*
X1202095Y601652D01*
X1203202Y600912D01*
X1204397Y600323D01*
X1205658Y599895D01*
X1206964Y599635D01*
X1207023Y599631D01*
Y609730D01*
Y619828D01*
X1206964Y619825D01*
X1205658Y619565D01*
X1204397Y619137D01*
X1203202Y618548D01*
X1202095Y617808D01*
X1201310Y617119D01*
X1200524Y617321D01*
X1200040Y617654D01*
Y721808D01*
X1200042Y721810D01*
X1201310Y722235D01*
X1201813Y721661D01*
X1202715Y720870D01*
X1203711Y720204D01*
X1204786Y719674D01*
X1205921Y719289D01*
X1207097Y719055D01*
X1208293Y718977D01*
X1209489Y719055D01*
X1210665Y719289D01*
X1211800Y719674D01*
X1212875Y720204D01*
X1213872Y720870D01*
X1214773Y721661D01*
X1215563Y722562D01*
X1216229Y723559D01*
X1216759Y724633D01*
X1217144Y725769D01*
X1217378Y726944D01*
X1217457Y728140D01*
X1217378Y729336D01*
X1217144Y730512D01*
X1216759Y731647D01*
X1216229Y732722D01*
X1215563Y733719D01*
X1214773Y734620D01*
X1213872Y735410D01*
X1212875Y736076D01*
X1211800Y736606D01*
X1210665Y736992D01*
X1210333Y737057D01*
Y756056D01*
X1210565Y756170D01*
X1211548Y756827D01*
X1212438Y757607D01*
X1213217Y758496D01*
X1213875Y759480D01*
X1214398Y760541D01*
X1214778Y761661D01*
X1215009Y762821D01*
X1215086Y764001D01*
X1215009Y765182D01*
X1214778Y766342D01*
X1214398Y767462D01*
X1213875Y768523D01*
X1213217Y769507D01*
X1212438Y770396D01*
X1211548Y771176D01*
X1210565Y771833D01*
X1209504Y772356D01*
X1208383Y772737D01*
X1208134Y772786D01*
X1207716Y774164D01*
X1209077Y775525D01*
X1209077Y775525D01*
X1209610Y776176D01*
X1210007Y776917D01*
X1210251Y777722D01*
X1210334Y778559D01*
X1210333Y778560D01*
Y780377D01*
X1215067D01*
Y785111D01*
X1228719D01*
Y780377D01*
X1246767D01*
Y785111D01*
X1260419D01*
Y780377D01*
X1278467D01*
Y798425D01*
X1260419D01*
Y793692D01*
X1246767D01*
Y798425D01*
X1228719D01*
Y793692D01*
X1215067D01*
Y798425D01*
X1197019D01*
Y780377D01*
X1199997D01*
X1200523Y779107D01*
X1192715Y771299D01*
X1192181Y770649D01*
X1191785Y769907D01*
X1191541Y769102D01*
X1191458Y768265D01*
X1191458Y768265D01*
Y737284D01*
X1176810D01*
X1176324Y738458D01*
X1187183Y749316D01*
X1187801Y750040D01*
X1188298Y750852D01*
X1188663Y751731D01*
X1188885Y752657D01*
X1188960Y753606D01*
X1188960Y753606D01*
Y821628D01*
X1189373Y821991D01*
X1190163Y822892D01*
X1190829Y823888D01*
X1191359Y824964D01*
X1191744Y826099D01*
X1191978Y827274D01*
X1192057Y828470D01*
X1191978Y829666D01*
X1191744Y830842D01*
X1191359Y831977D01*
X1190829Y833052D01*
X1190163Y834049D01*
X1189373Y834950D01*
X1188472Y835740D01*
X1187475Y836406D01*
X1186400Y836936D01*
X1185265Y837322D01*
X1184089Y837555D01*
X1182893Y837634D01*
X1181697Y837555D01*
X1180521Y837322D01*
X1179386Y836936D01*
X1178311Y836406D01*
X1177315Y835740D01*
X1176413Y834950D01*
X1175623Y834049D01*
X1174957Y833052D01*
X1174427Y831977D01*
X1174042Y830842D01*
X1173808Y829666D01*
X1173729Y828470D01*
X1173808Y827274D01*
X1174042Y826099D01*
X1174427Y824964D01*
X1174957Y823888D01*
X1175623Y822892D01*
X1176413Y821991D01*
X1176826Y821628D01*
Y756119D01*
X1164531Y743824D01*
X1163913Y743100D01*
X1163416Y742288D01*
X1163051Y741409D01*
X1162829Y740483D01*
X1162754Y739534D01*
X1162754Y739534D01*
Y714069D01*
X1162754Y714068D01*
X1162829Y713119D01*
X1163051Y712194D01*
X1163416Y711314D01*
X1163913Y710502D01*
X1164531Y709779D01*
X1176826Y697483D01*
Y626036D01*
X1175653Y625550D01*
X1097042Y704161D01*
X1096318Y704779D01*
X1095506Y705276D01*
X1094627Y705641D01*
X1093701Y705863D01*
X1092752Y705938D01*
X1092752Y705938D01*
X886410D01*
Y747449D01*
X958112Y819151D01*
X958660Y819115D01*
X959856Y819194D01*
X961032Y819427D01*
X962167Y819813D01*
X963242Y820343D01*
X964239Y821009D01*
X965140Y821799D01*
X965930Y822700D01*
X966596Y823697D01*
X967126Y824772D01*
X967512Y825907D01*
X967746Y827083D01*
X967824Y828279D01*
X967746Y829475D01*
X967512Y830651D01*
X967126Y831786D01*
X966596Y832861D01*
X965930Y833857D01*
X965140Y834759D01*
X964239Y835549D01*
X963242Y836215D01*
X962167Y836745D01*
X961032Y837130D01*
X959856Y837364D01*
X958660Y837442D01*
X957464Y837364D01*
X956289Y837130D01*
X955154Y836745D01*
X954079Y836215D01*
X953082Y835549D01*
X952181Y834759D01*
X951390Y833857D01*
X950724Y832861D01*
X950194Y831786D01*
X949809Y830651D01*
X949575Y829475D01*
X949497Y828279D01*
X949533Y827731D01*
X876053Y754251D01*
X875435Y753528D01*
X874938Y752716D01*
X874573Y751836D01*
X874351Y750911D01*
X874276Y749962D01*
X874276Y749961D01*
Y705938D01*
X802766D01*
X773147Y735557D01*
Y738276D01*
X778104D01*
Y760324D01*
X764636D01*
X759431Y765529D01*
Y839750D01*
X760701Y840319D01*
X760831Y840202D01*
X761934Y839419D01*
X763118Y838765D01*
X764367Y838248D01*
X765667Y837873D01*
X767000Y837647D01*
X767080Y837642D01*
Y849630D01*
Y861618D01*
X767000Y861613D01*
X765667Y861387D01*
X764367Y861012D01*
X763118Y860495D01*
X761934Y859841D01*
X760831Y859058D01*
X760701Y858941D01*
X759431Y859510D01*
Y882931D01*
X765906Y889406D01*
X779374D01*
Y911454D01*
D02*
G37*
G36*
X1209563Y838569D02*
Y829740D01*
X1218392D01*
X1218388Y829799D01*
X1218128Y831105D01*
X1217700Y832367D01*
X1217111Y833561D01*
X1216371Y834669D01*
X1215493Y835670D01*
X1214491Y836548D01*
X1213384Y837288D01*
X1212189Y837877D01*
X1210928Y838305D01*
X1209622Y838565D01*
X1209563Y838569D01*
D02*
G37*
G36*
X1359423D02*
X1359364Y838565D01*
X1358058Y838305D01*
X1356797Y837877D01*
X1355602Y837288D01*
X1354495Y836548D01*
X1353493Y835670D01*
X1352615Y834669D01*
X1351875Y833561D01*
X1351286Y832367D01*
X1350858Y831105D01*
X1350598Y829799D01*
X1350594Y829740D01*
X1359423D01*
Y838569D01*
D02*
G37*
G36*
X1207023D02*
X1206964Y838565D01*
X1205658Y838305D01*
X1204397Y837877D01*
X1203202Y837288D01*
X1202095Y836548D01*
X1201093Y835670D01*
X1200215Y834669D01*
X1199475Y833561D01*
X1198886Y832367D01*
X1198458Y831105D01*
X1198198Y829799D01*
X1198195Y829740D01*
X1207023D01*
Y838569D01*
D02*
G37*
G36*
X1137730Y838377D02*
Y829549D01*
X1146559D01*
X1146555Y829608D01*
X1146295Y830914D01*
X1145867Y832175D01*
X1145278Y833370D01*
X1144538Y834477D01*
X1143660Y835479D01*
X1142659Y836357D01*
X1141551Y837096D01*
X1140357Y837686D01*
X1139096Y838114D01*
X1137789Y838374D01*
X1137730Y838377D01*
D02*
G37*
G36*
X985330D02*
Y829549D01*
X994159D01*
X994155Y829608D01*
X993895Y830914D01*
X993467Y832175D01*
X992878Y833370D01*
X992138Y834477D01*
X991260Y835479D01*
X990259Y836357D01*
X989151Y837096D01*
X987957Y837686D01*
X986696Y838114D01*
X985389Y838374D01*
X985330Y838377D01*
D02*
G37*
G36*
X1135190D02*
X1135131Y838374D01*
X1133825Y838114D01*
X1132564Y837686D01*
X1131369Y837096D01*
X1130262Y836357D01*
X1129261Y835479D01*
X1128383Y834477D01*
X1127643Y833370D01*
X1127054Y832175D01*
X1126626Y830914D01*
X1126366Y829608D01*
X1126362Y829549D01*
X1135190D01*
Y838377D01*
D02*
G37*
G36*
X982790D02*
X982731Y838374D01*
X981425Y838114D01*
X980164Y837686D01*
X978969Y837096D01*
X977862Y836357D01*
X976861Y835479D01*
X975983Y834477D01*
X975243Y833370D01*
X974653Y832175D01*
X974225Y830914D01*
X973966Y829608D01*
X973962Y829549D01*
X982790D01*
Y838377D01*
D02*
G37*
G36*
X1335293Y837634D02*
X1334097Y837555D01*
X1332921Y837322D01*
X1331786Y836936D01*
X1330711Y836406D01*
X1329715Y835740D01*
X1328813Y834950D01*
X1328023Y834049D01*
X1327357Y833052D01*
X1326827Y831977D01*
X1326442Y830842D01*
X1326208Y829666D01*
X1326129Y828470D01*
X1326208Y827274D01*
X1326442Y826099D01*
X1326827Y824964D01*
X1327357Y823888D01*
X1328023Y822892D01*
X1328813Y821991D01*
X1329715Y821200D01*
X1330711Y820534D01*
X1331786Y820004D01*
X1332921Y819619D01*
X1334097Y819385D01*
X1335293Y819307D01*
X1336489Y819385D01*
X1337665Y819619D01*
X1338800Y820004D01*
X1339875Y820534D01*
X1340871Y821200D01*
X1341773Y821991D01*
X1342563Y822892D01*
X1343229Y823888D01*
X1343759Y824964D01*
X1344144Y826099D01*
X1344378Y827274D01*
X1344457Y828470D01*
X1344378Y829666D01*
X1344144Y830842D01*
X1343759Y831977D01*
X1343229Y833052D01*
X1342563Y834049D01*
X1341773Y834950D01*
X1340871Y835740D01*
X1339875Y836406D01*
X1338800Y836936D01*
X1337665Y837322D01*
X1336489Y837555D01*
X1335293Y837634D01*
D02*
G37*
G36*
X1237877Y897149D02*
X1236762Y897076D01*
X1235666Y896858D01*
X1234608Y896499D01*
X1233606Y896005D01*
X1232677Y895384D01*
X1231837Y894647D01*
X1231100Y893807D01*
X1230479Y892878D01*
X1229985Y891876D01*
X1229626Y890818D01*
X1229408Y889722D01*
X1229335Y888607D01*
X1229408Y887492D01*
X1229626Y886396D01*
X1229985Y885338D01*
X1230479Y884336D01*
X1231100Y883407D01*
X1231810Y882597D01*
Y837419D01*
X1231321Y837322D01*
X1230186Y836936D01*
X1229111Y836406D01*
X1228115Y835740D01*
X1227213Y834950D01*
X1226423Y834049D01*
X1225757Y833052D01*
X1225227Y831977D01*
X1224842Y830842D01*
X1224608Y829666D01*
X1224529Y828470D01*
X1224608Y827274D01*
X1224842Y826099D01*
X1225227Y824964D01*
X1225757Y823888D01*
X1226423Y822892D01*
X1227213Y821991D01*
X1228115Y821200D01*
X1229111Y820534D01*
X1230186Y820004D01*
X1231321Y819619D01*
X1232497Y819385D01*
X1233693Y819307D01*
X1234889Y819385D01*
X1236065Y819619D01*
X1237200Y820004D01*
X1238275Y820534D01*
X1239271Y821200D01*
X1240173Y821991D01*
X1240963Y822892D01*
X1241629Y823888D01*
X1242159Y824964D01*
X1242544Y826099D01*
X1242778Y827274D01*
X1242857Y828470D01*
X1242813Y829134D01*
X1243282Y829900D01*
X1243647Y830779D01*
X1243869Y831705D01*
X1243944Y832654D01*
Y882597D01*
X1244654Y883407D01*
X1245275Y884336D01*
X1245769Y885338D01*
X1246128Y886396D01*
X1246346Y887492D01*
X1246419Y888607D01*
X1246346Y889722D01*
X1246128Y890818D01*
X1245769Y891876D01*
X1245275Y892878D01*
X1244654Y893807D01*
X1243917Y894647D01*
X1243077Y895384D01*
X1242148Y896005D01*
X1241146Y896499D01*
X1240088Y896858D01*
X1238992Y897076D01*
X1237877Y897149D01*
D02*
G37*
G36*
X1111060Y837442D02*
X1109864Y837364D01*
X1108689Y837130D01*
X1107554Y836745D01*
X1106479Y836215D01*
X1105482Y835549D01*
X1104581Y834759D01*
X1103790Y833857D01*
X1103124Y832861D01*
X1102594Y831786D01*
X1102209Y830651D01*
X1101975Y829475D01*
X1101897Y828279D01*
X1101975Y827083D01*
X1102209Y825907D01*
X1102594Y824772D01*
X1103124Y823697D01*
X1103790Y822700D01*
X1104581Y821799D01*
X1105482Y821009D01*
X1106479Y820343D01*
X1107554Y819813D01*
X1108689Y819427D01*
X1109864Y819194D01*
X1111060Y819115D01*
X1112256Y819194D01*
X1113432Y819427D01*
X1114567Y819813D01*
X1115642Y820343D01*
X1116639Y821009D01*
X1117540Y821799D01*
X1118330Y822700D01*
X1118996Y823697D01*
X1119526Y824772D01*
X1119912Y825907D01*
X1120145Y827083D01*
X1120224Y828279D01*
X1120145Y829475D01*
X1119912Y830651D01*
X1119526Y831786D01*
X1118996Y832861D01*
X1118330Y833857D01*
X1117540Y834759D01*
X1116639Y835549D01*
X1115642Y836215D01*
X1114567Y836745D01*
X1113432Y837130D01*
X1112256Y837364D01*
X1111060Y837442D01*
D02*
G37*
G36*
X1013644Y896958D02*
X1012529Y896885D01*
X1011433Y896667D01*
X1010375Y896308D01*
X1009373Y895813D01*
X1008444Y895193D01*
X1007604Y894456D01*
X1006867Y893616D01*
X1006246Y892687D01*
X1005752Y891684D01*
X1005393Y890626D01*
X1005175Y889530D01*
X1005102Y888416D01*
X1005175Y887301D01*
X1005393Y886205D01*
X1005752Y885147D01*
X1006246Y884144D01*
X1006867Y883215D01*
X1007578Y882405D01*
Y837227D01*
X1007089Y837130D01*
X1005954Y836745D01*
X1004878Y836215D01*
X1003882Y835549D01*
X1002981Y834759D01*
X1002190Y833857D01*
X1001524Y832861D01*
X1000994Y831786D01*
X1000609Y830651D01*
X1000375Y829475D01*
X1000297Y828279D01*
X1000375Y827083D01*
X1000609Y825907D01*
X1000994Y824772D01*
X1001524Y823697D01*
X1002190Y822700D01*
X1002981Y821799D01*
X1003882Y821009D01*
X1004878Y820343D01*
X1005954Y819813D01*
X1007089Y819427D01*
X1008264Y819194D01*
X1009460Y819115D01*
X1010656Y819194D01*
X1011832Y819427D01*
X1012967Y819813D01*
X1014042Y820343D01*
X1015039Y821009D01*
X1015940Y821799D01*
X1016730Y822700D01*
X1017396Y823697D01*
X1017926Y824772D01*
X1018312Y825907D01*
X1018546Y827083D01*
X1018624Y828279D01*
X1018580Y828943D01*
X1019050Y829708D01*
X1019414Y830588D01*
X1019636Y831514D01*
X1019711Y832463D01*
Y882405D01*
X1020421Y883215D01*
X1021042Y884144D01*
X1021536Y885147D01*
X1021895Y886205D01*
X1022113Y887301D01*
X1022187Y888416D01*
X1022113Y889530D01*
X1021895Y890626D01*
X1021536Y891684D01*
X1021042Y892687D01*
X1020421Y893616D01*
X1019685Y894456D01*
X1018844Y895193D01*
X1017915Y895813D01*
X1016913Y896308D01*
X1015855Y896667D01*
X1014759Y896885D01*
X1013644Y896958D01*
D02*
G37*
G36*
X1218392Y827200D02*
X1209563D01*
Y818372D01*
X1209622Y818376D01*
X1210928Y818635D01*
X1212189Y819063D01*
X1213384Y819653D01*
X1214491Y820393D01*
X1215493Y821271D01*
X1216371Y822272D01*
X1217111Y823379D01*
X1217700Y824574D01*
X1218128Y825835D01*
X1218388Y827141D01*
X1218392Y827200D01*
D02*
G37*
G36*
X1359423D02*
X1350594D01*
X1350598Y827141D01*
X1350858Y825835D01*
X1351286Y824574D01*
X1351875Y823379D01*
X1352615Y822272D01*
X1353493Y821271D01*
X1354495Y820393D01*
X1355602Y819653D01*
X1356797Y819063D01*
X1358058Y818635D01*
X1359364Y818376D01*
X1359423Y818372D01*
Y827200D01*
D02*
G37*
G36*
X1207023D02*
X1198195D01*
X1198198Y827141D01*
X1198458Y825835D01*
X1198886Y824574D01*
X1199475Y823379D01*
X1200215Y822272D01*
X1201093Y821271D01*
X1202095Y820393D01*
X1203202Y819653D01*
X1204397Y819063D01*
X1205658Y818635D01*
X1206964Y818376D01*
X1207023Y818372D01*
Y827200D01*
D02*
G37*
G36*
X994159Y827009D02*
X985330D01*
Y818180D01*
X985389Y818184D01*
X986696Y818444D01*
X987957Y818872D01*
X989151Y819461D01*
X990259Y820201D01*
X991260Y821079D01*
X992138Y822081D01*
X992878Y823188D01*
X993467Y824382D01*
X993895Y825644D01*
X994155Y826950D01*
X994159Y827009D01*
D02*
G37*
G36*
X1146559D02*
X1137730D01*
Y818180D01*
X1137789Y818184D01*
X1139096Y818444D01*
X1140357Y818872D01*
X1141551Y819461D01*
X1142659Y820201D01*
X1143660Y821079D01*
X1144538Y822081D01*
X1145278Y823188D01*
X1145867Y824382D01*
X1146295Y825644D01*
X1146555Y826950D01*
X1146559Y827009D01*
D02*
G37*
G36*
X1135190D02*
X1126362D01*
X1126366Y826950D01*
X1126626Y825644D01*
X1127054Y824382D01*
X1127643Y823188D01*
X1128383Y822081D01*
X1129261Y821079D01*
X1130262Y820201D01*
X1131369Y819461D01*
X1132564Y818872D01*
X1133825Y818444D01*
X1135131Y818184D01*
X1135190Y818180D01*
Y827009D01*
D02*
G37*
G36*
X982790D02*
X973962D01*
X973966Y826950D01*
X974225Y825644D01*
X974653Y824382D01*
X975243Y823188D01*
X975983Y822081D01*
X976861Y821079D01*
X977862Y820201D01*
X978969Y819461D01*
X980164Y818872D01*
X981425Y818444D01*
X982731Y818184D01*
X982790Y818180D01*
Y827009D01*
D02*
G37*
G36*
X861112Y825500D02*
X850900D01*
Y815288D01*
X851140Y815304D01*
X852623Y815599D01*
X854056Y816086D01*
X855412Y816755D01*
X856670Y817595D01*
X857807Y818593D01*
X858805Y819730D01*
X859645Y820988D01*
X860314Y822344D01*
X860801Y823777D01*
X861096Y825260D01*
X861112Y825500D01*
D02*
G37*
G36*
X1054234Y798234D02*
X1036186D01*
Y793501D01*
X1022534D01*
Y798234D01*
X1004486D01*
Y793501D01*
X990834D01*
Y798234D01*
X972786D01*
Y780186D01*
X990834D01*
Y784919D01*
X1004486D01*
Y780186D01*
X1022534D01*
Y784919D01*
X1036186D01*
Y780186D01*
X1054234D01*
Y798234D01*
D02*
G37*
G36*
X850900Y770941D02*
Y760730D01*
X861112D01*
X861096Y760969D01*
X860801Y762453D01*
X860314Y763886D01*
X859645Y765242D01*
X858805Y766500D01*
X857807Y767637D01*
X856670Y768635D01*
X855412Y769475D01*
X854056Y770144D01*
X852623Y770631D01*
X851140Y770926D01*
X850900Y770941D01*
D02*
G37*
G36*
X848360D02*
X848120Y770926D01*
X846637Y770631D01*
X845204Y770144D01*
X843848Y769475D01*
X842590Y768635D01*
X841452Y767637D01*
X840455Y766500D01*
X839615Y765242D01*
X838946Y763886D01*
X838459Y762453D01*
X838164Y760969D01*
X838148Y760730D01*
X848360D01*
Y770941D01*
D02*
G37*
G36*
X861112Y758190D02*
X850900D01*
Y747979D01*
X851140Y747994D01*
X852623Y748289D01*
X854056Y748776D01*
X855412Y749445D01*
X856670Y750285D01*
X857807Y751283D01*
X858805Y752420D01*
X859645Y753678D01*
X860314Y755034D01*
X860801Y756467D01*
X861096Y757951D01*
X861112Y758190D01*
D02*
G37*
G36*
X848360D02*
X838148D01*
X838164Y757951D01*
X838459Y756467D01*
X838946Y755034D01*
X839615Y753678D01*
X840455Y752420D01*
X841452Y751283D01*
X842590Y750285D01*
X843848Y749445D01*
X845204Y748776D01*
X846637Y748289D01*
X848120Y747994D01*
X848360Y747979D01*
Y758190D01*
D02*
G37*
G36*
X1269443Y773045D02*
X1268262Y772967D01*
X1267102Y772737D01*
X1265982Y772356D01*
X1264921Y771833D01*
X1263938Y771176D01*
X1263048Y770396D01*
X1262268Y769507D01*
X1261611Y768523D01*
X1261088Y767462D01*
X1260707Y766342D01*
X1260477Y765182D01*
X1260399Y764001D01*
X1260477Y762821D01*
X1260707Y761661D01*
X1261088Y760541D01*
X1261611Y759480D01*
X1262268Y758496D01*
X1263048Y757607D01*
X1263938Y756827D01*
X1264921Y756170D01*
X1265152Y756056D01*
Y740267D01*
X1261772Y736887D01*
X1261465Y736992D01*
X1260289Y737225D01*
X1259093Y737304D01*
X1257897Y737225D01*
X1256721Y736992D01*
X1255586Y736606D01*
X1254511Y736076D01*
X1253515Y735410D01*
X1252613Y734620D01*
X1251823Y733719D01*
X1251157Y732722D01*
X1250627Y731647D01*
X1250242Y730512D01*
X1250008Y729336D01*
X1249929Y728140D01*
X1250008Y726944D01*
X1250242Y725769D01*
X1250627Y724633D01*
X1251157Y723559D01*
X1251823Y722562D01*
X1252613Y721661D01*
X1253515Y720870D01*
X1254511Y720204D01*
X1255586Y719674D01*
X1256721Y719289D01*
X1257897Y719055D01*
X1259093Y718977D01*
X1260289Y719055D01*
X1261465Y719289D01*
X1262600Y719674D01*
X1263675Y720204D01*
X1264671Y720870D01*
X1265573Y721661D01*
X1266363Y722562D01*
X1267029Y723559D01*
X1267559Y724633D01*
X1267944Y725769D01*
X1268178Y726944D01*
X1268257Y728140D01*
X1268178Y729336D01*
X1267944Y730512D01*
X1267840Y730819D01*
X1272477Y735456D01*
X1272477Y735456D01*
X1273010Y736106D01*
X1273407Y736848D01*
X1273651Y737653D01*
X1273733Y738490D01*
X1273733Y738490D01*
Y756056D01*
X1273964Y756170D01*
X1274948Y756827D01*
X1275837Y757607D01*
X1276617Y758496D01*
X1277274Y759480D01*
X1277798Y760541D01*
X1278178Y761661D01*
X1278409Y762821D01*
X1278486Y764001D01*
X1278409Y765182D01*
X1278178Y766342D01*
X1277798Y767462D01*
X1277274Y768523D01*
X1276617Y769507D01*
X1275837Y770396D01*
X1274948Y771176D01*
X1273964Y771833D01*
X1272903Y772356D01*
X1271783Y772737D01*
X1270623Y772967D01*
X1269443Y773045D01*
D02*
G37*
G36*
X1045210Y772853D02*
X1044030Y772776D01*
X1042869Y772545D01*
X1041749Y772165D01*
X1040688Y771642D01*
X1039705Y770985D01*
X1038815Y770205D01*
X1038035Y769315D01*
X1037378Y768332D01*
X1036855Y767271D01*
X1036475Y766151D01*
X1036244Y764990D01*
X1036167Y763810D01*
X1036244Y762630D01*
X1036475Y761469D01*
X1036855Y760349D01*
X1037378Y759288D01*
X1038035Y758305D01*
X1038815Y757415D01*
X1039705Y756635D01*
X1040688Y755978D01*
X1040919Y755864D01*
Y740076D01*
X1037539Y736696D01*
X1037232Y736800D01*
X1036056Y737034D01*
X1034860Y737113D01*
X1033664Y737034D01*
X1032489Y736800D01*
X1031354Y736415D01*
X1030278Y735885D01*
X1029282Y735219D01*
X1028381Y734428D01*
X1027590Y733527D01*
X1026924Y732531D01*
X1026394Y731456D01*
X1026009Y730321D01*
X1025775Y729145D01*
X1025697Y727949D01*
X1025775Y726753D01*
X1026009Y725577D01*
X1026394Y724442D01*
X1026924Y723367D01*
X1027590Y722370D01*
X1028381Y721469D01*
X1029282Y720679D01*
X1030278Y720013D01*
X1031354Y719483D01*
X1032489Y719098D01*
X1033664Y718864D01*
X1034860Y718785D01*
X1036056Y718864D01*
X1037232Y719098D01*
X1038367Y719483D01*
X1039442Y720013D01*
X1040439Y720679D01*
X1041340Y721469D01*
X1042130Y722370D01*
X1042796Y723367D01*
X1043326Y724442D01*
X1043712Y725577D01*
X1043945Y726753D01*
X1044024Y727949D01*
X1043945Y729145D01*
X1043712Y730321D01*
X1043607Y730628D01*
X1048244Y735265D01*
X1048244Y735265D01*
X1048777Y735915D01*
X1049174Y736657D01*
X1049418Y737461D01*
X1049501Y738298D01*
X1049501Y738299D01*
Y755864D01*
X1049732Y755978D01*
X1050715Y756635D01*
X1051605Y757415D01*
X1052385Y758305D01*
X1053042Y759288D01*
X1053565Y760349D01*
X1053945Y761469D01*
X1054176Y762630D01*
X1054253Y763810D01*
X1054176Y764990D01*
X1053945Y766151D01*
X1053565Y767271D01*
X1053042Y768332D01*
X1052385Y769315D01*
X1051605Y770205D01*
X1050715Y770985D01*
X1049732Y771642D01*
X1048671Y772165D01*
X1047551Y772545D01*
X1046390Y772776D01*
X1045210Y772853D01*
D02*
G37*
G36*
X1335293Y737304D02*
X1334097Y737225D01*
X1332921Y736992D01*
X1331786Y736606D01*
X1330711Y736076D01*
X1329715Y735410D01*
X1328813Y734620D01*
X1328023Y733719D01*
X1327357Y732722D01*
X1326827Y731647D01*
X1326442Y730512D01*
X1326208Y729336D01*
X1326129Y728140D01*
X1326208Y726944D01*
X1326442Y725769D01*
X1326827Y724633D01*
X1327357Y723559D01*
X1328023Y722562D01*
X1328813Y721661D01*
X1329715Y720870D01*
X1330711Y720204D01*
X1331786Y719674D01*
X1332921Y719289D01*
X1334097Y719055D01*
X1335293Y718977D01*
X1336489Y719055D01*
X1337665Y719289D01*
X1338800Y719674D01*
X1339875Y720204D01*
X1340871Y720870D01*
X1341773Y721661D01*
X1342563Y722562D01*
X1343229Y723559D01*
X1343759Y724633D01*
X1344144Y725769D01*
X1344378Y726944D01*
X1344457Y728140D01*
X1344378Y729336D01*
X1344144Y730512D01*
X1343759Y731647D01*
X1343229Y732722D01*
X1342563Y733719D01*
X1341773Y734620D01*
X1340871Y735410D01*
X1339875Y736076D01*
X1338800Y736606D01*
X1337665Y736992D01*
X1336489Y737225D01*
X1335293Y737304D01*
D02*
G37*
G36*
X1309893D02*
X1308697Y737225D01*
X1307521Y736992D01*
X1306386Y736606D01*
X1305311Y736076D01*
X1304315Y735410D01*
X1303413Y734620D01*
X1302623Y733719D01*
X1301957Y732722D01*
X1301427Y731647D01*
X1301042Y730512D01*
X1300808Y729336D01*
X1300729Y728140D01*
X1300808Y726944D01*
X1301042Y725769D01*
X1301427Y724633D01*
X1301957Y723559D01*
X1302623Y722562D01*
X1303413Y721661D01*
X1304315Y720870D01*
X1305311Y720204D01*
X1306386Y719674D01*
X1307521Y719289D01*
X1308697Y719055D01*
X1309893Y718977D01*
X1311089Y719055D01*
X1312265Y719289D01*
X1313400Y719674D01*
X1314475Y720204D01*
X1315471Y720870D01*
X1316373Y721661D01*
X1317163Y722562D01*
X1317829Y723559D01*
X1318359Y724633D01*
X1318744Y725769D01*
X1318978Y726944D01*
X1319057Y728140D01*
X1318978Y729336D01*
X1318744Y730512D01*
X1318359Y731647D01*
X1317829Y732722D01*
X1317163Y733719D01*
X1316373Y734620D01*
X1315471Y735410D01*
X1314475Y736076D01*
X1313400Y736606D01*
X1312265Y736992D01*
X1311089Y737225D01*
X1309893Y737304D01*
D02*
G37*
G36*
X1284493D02*
X1283297Y737225D01*
X1282121Y736992D01*
X1280986Y736606D01*
X1279911Y736076D01*
X1278915Y735410D01*
X1278013Y734620D01*
X1277223Y733719D01*
X1276557Y732722D01*
X1276027Y731647D01*
X1275642Y730512D01*
X1275408Y729336D01*
X1275329Y728140D01*
X1275408Y726944D01*
X1275642Y725769D01*
X1276027Y724633D01*
X1276557Y723559D01*
X1277223Y722562D01*
X1278013Y721661D01*
X1278915Y720870D01*
X1279911Y720204D01*
X1280986Y719674D01*
X1282121Y719289D01*
X1283297Y719055D01*
X1284493Y718977D01*
X1285689Y719055D01*
X1286865Y719289D01*
X1288000Y719674D01*
X1289075Y720204D01*
X1290072Y720870D01*
X1290973Y721661D01*
X1291763Y722562D01*
X1292429Y723559D01*
X1292959Y724633D01*
X1293344Y725769D01*
X1293578Y726944D01*
X1293657Y728140D01*
X1293578Y729336D01*
X1293344Y730512D01*
X1292959Y731647D01*
X1292429Y732722D01*
X1291763Y733719D01*
X1290973Y734620D01*
X1290072Y735410D01*
X1289075Y736076D01*
X1288000Y736606D01*
X1286865Y736992D01*
X1285689Y737225D01*
X1284493Y737304D01*
D02*
G37*
G36*
X1237743Y773045D02*
X1236562Y772967D01*
X1235402Y772737D01*
X1234282Y772356D01*
X1233221Y771833D01*
X1232238Y771176D01*
X1231348Y770396D01*
X1230568Y769507D01*
X1229911Y768523D01*
X1229388Y767462D01*
X1229008Y766342D01*
X1228777Y765182D01*
X1228699Y764001D01*
X1228777Y762821D01*
X1229008Y761661D01*
X1229388Y760541D01*
X1229911Y759480D01*
X1230568Y758496D01*
X1231348Y757607D01*
X1232238Y756827D01*
X1233221Y756170D01*
X1233452Y756056D01*
Y737288D01*
X1232497Y737225D01*
X1231321Y736992D01*
X1230186Y736606D01*
X1229111Y736076D01*
X1228115Y735410D01*
X1227213Y734620D01*
X1226423Y733719D01*
X1225757Y732722D01*
X1225227Y731647D01*
X1224842Y730512D01*
X1224608Y729336D01*
X1224529Y728140D01*
X1224608Y726944D01*
X1224842Y725769D01*
X1225227Y724633D01*
X1225757Y723559D01*
X1226423Y722562D01*
X1227213Y721661D01*
X1228115Y720870D01*
X1229111Y720204D01*
X1230186Y719674D01*
X1231321Y719289D01*
X1232497Y719055D01*
X1233693Y718977D01*
X1234889Y719055D01*
X1236065Y719289D01*
X1237200Y719674D01*
X1238275Y720204D01*
X1239271Y720870D01*
X1240173Y721661D01*
X1240963Y722562D01*
X1241629Y723559D01*
X1242159Y724633D01*
X1242544Y725769D01*
X1242778Y726944D01*
X1242857Y728140D01*
X1242778Y729336D01*
X1242544Y730512D01*
X1242159Y731647D01*
X1242010Y731950D01*
X1242033Y732190D01*
Y756056D01*
X1242264Y756170D01*
X1243248Y756827D01*
X1244137Y757607D01*
X1244917Y758496D01*
X1245575Y759480D01*
X1246098Y760541D01*
X1246478Y761661D01*
X1246709Y762821D01*
X1246786Y764001D01*
X1246709Y765182D01*
X1246478Y766342D01*
X1246098Y767462D01*
X1245575Y768523D01*
X1244917Y769507D01*
X1244137Y770396D01*
X1243248Y771176D01*
X1242264Y771833D01*
X1241204Y772356D01*
X1240083Y772737D01*
X1238923Y772967D01*
X1237743Y773045D01*
D02*
G37*
G36*
X967804Y737093D02*
X949516D01*
Y718805D01*
X967804D01*
Y737093D01*
D02*
G37*
G36*
X1136460Y737113D02*
X1135264Y737034D01*
X1134089Y736800D01*
X1132954Y736415D01*
X1131879Y735885D01*
X1130882Y735219D01*
X1129981Y734428D01*
X1129190Y733527D01*
X1128524Y732531D01*
X1127994Y731456D01*
X1127609Y730321D01*
X1127375Y729145D01*
X1127297Y727949D01*
X1127375Y726753D01*
X1127609Y725577D01*
X1127994Y724442D01*
X1128524Y723367D01*
X1129190Y722370D01*
X1129981Y721469D01*
X1130882Y720679D01*
X1131879Y720013D01*
X1132954Y719483D01*
X1134089Y719098D01*
X1135264Y718864D01*
X1136460Y718785D01*
X1137656Y718864D01*
X1138832Y719098D01*
X1139967Y719483D01*
X1141042Y720013D01*
X1142039Y720679D01*
X1142940Y721469D01*
X1143730Y722370D01*
X1144396Y723367D01*
X1144926Y724442D01*
X1145312Y725577D01*
X1145546Y726753D01*
X1145624Y727949D01*
X1145546Y729145D01*
X1145312Y730321D01*
X1144926Y731456D01*
X1144396Y732531D01*
X1143730Y733527D01*
X1142940Y734428D01*
X1142039Y735219D01*
X1141042Y735885D01*
X1139967Y736415D01*
X1138832Y736800D01*
X1137656Y737034D01*
X1136460Y737113D01*
D02*
G37*
G36*
X1085660D02*
X1084464Y737034D01*
X1083289Y736800D01*
X1082154Y736415D01*
X1081078Y735885D01*
X1080082Y735219D01*
X1079181Y734428D01*
X1078390Y733527D01*
X1077724Y732531D01*
X1077194Y731456D01*
X1076809Y730321D01*
X1076575Y729145D01*
X1076497Y727949D01*
X1076575Y726753D01*
X1076809Y725577D01*
X1077194Y724442D01*
X1077724Y723367D01*
X1078390Y722370D01*
X1079181Y721469D01*
X1080082Y720679D01*
X1081078Y720013D01*
X1082154Y719483D01*
X1083289Y719098D01*
X1084464Y718864D01*
X1085660Y718785D01*
X1086856Y718864D01*
X1088032Y719098D01*
X1089167Y719483D01*
X1090242Y720013D01*
X1091239Y720679D01*
X1092140Y721469D01*
X1092930Y722370D01*
X1093596Y723367D01*
X1094126Y724442D01*
X1094512Y725577D01*
X1094745Y726753D01*
X1094824Y727949D01*
X1094745Y729145D01*
X1094512Y730321D01*
X1094126Y731456D01*
X1093596Y732531D01*
X1092930Y733527D01*
X1092140Y734428D01*
X1091239Y735219D01*
X1090242Y735885D01*
X1089167Y736415D01*
X1088032Y736800D01*
X1086856Y737034D01*
X1085660Y737113D01*
D02*
G37*
G36*
X1060260D02*
X1059064Y737034D01*
X1057889Y736800D01*
X1056754Y736415D01*
X1055678Y735885D01*
X1054682Y735219D01*
X1053781Y734428D01*
X1052990Y733527D01*
X1052324Y732531D01*
X1051794Y731456D01*
X1051409Y730321D01*
X1051175Y729145D01*
X1051097Y727949D01*
X1051175Y726753D01*
X1051409Y725577D01*
X1051794Y724442D01*
X1052324Y723367D01*
X1052990Y722370D01*
X1053781Y721469D01*
X1054682Y720679D01*
X1055678Y720013D01*
X1056754Y719483D01*
X1057889Y719098D01*
X1059064Y718864D01*
X1060260Y718785D01*
X1061456Y718864D01*
X1062632Y719098D01*
X1063767Y719483D01*
X1064842Y720013D01*
X1065839Y720679D01*
X1066740Y721469D01*
X1067530Y722370D01*
X1068196Y723367D01*
X1068726Y724442D01*
X1069112Y725577D01*
X1069345Y726753D01*
X1069424Y727949D01*
X1069345Y729145D01*
X1069112Y730321D01*
X1068726Y731456D01*
X1068196Y732531D01*
X1067530Y733527D01*
X1066740Y734428D01*
X1065839Y735219D01*
X1064842Y735885D01*
X1063767Y736415D01*
X1062632Y736800D01*
X1061456Y737034D01*
X1060260Y737113D01*
D02*
G37*
G36*
X1013510Y772853D02*
X1012330Y772776D01*
X1011170Y772545D01*
X1010049Y772165D01*
X1008988Y771642D01*
X1008005Y770985D01*
X1007115Y770205D01*
X1006336Y769315D01*
X1005678Y768332D01*
X1005155Y767271D01*
X1004775Y766151D01*
X1004544Y764990D01*
X1004467Y763810D01*
X1004544Y762630D01*
X1004775Y761469D01*
X1005155Y760349D01*
X1005678Y759288D01*
X1006336Y758305D01*
X1007115Y757415D01*
X1008005Y756635D01*
X1008988Y755978D01*
X1009219Y755864D01*
Y737097D01*
X1008264Y737034D01*
X1007089Y736800D01*
X1005954Y736415D01*
X1004878Y735885D01*
X1003882Y735219D01*
X1002981Y734428D01*
X1002190Y733527D01*
X1001524Y732531D01*
X1000994Y731456D01*
X1000609Y730321D01*
X1000375Y729145D01*
X1000297Y727949D01*
X1000375Y726753D01*
X1000609Y725577D01*
X1000994Y724442D01*
X1001524Y723367D01*
X1002190Y722370D01*
X1002981Y721469D01*
X1003882Y720679D01*
X1004878Y720013D01*
X1005954Y719483D01*
X1007089Y719098D01*
X1008264Y718864D01*
X1009460Y718785D01*
X1010656Y718864D01*
X1011832Y719098D01*
X1012967Y719483D01*
X1014042Y720013D01*
X1015039Y720679D01*
X1015940Y721469D01*
X1016730Y722370D01*
X1017396Y723367D01*
X1017926Y724442D01*
X1018312Y725577D01*
X1018546Y726753D01*
X1018624Y727949D01*
X1018546Y729145D01*
X1018312Y730321D01*
X1017926Y731456D01*
X1017777Y731758D01*
X1017801Y731999D01*
Y755864D01*
X1018032Y755978D01*
X1019015Y756635D01*
X1019905Y757415D01*
X1020685Y758305D01*
X1021342Y759288D01*
X1021865Y760349D01*
X1022245Y761469D01*
X1022476Y762630D01*
X1022553Y763810D01*
X1022476Y764990D01*
X1022245Y766151D01*
X1021865Y767271D01*
X1021342Y768332D01*
X1020685Y769315D01*
X1019905Y770205D01*
X1019015Y770985D01*
X1018032Y771642D01*
X1016971Y772165D01*
X1015851Y772545D01*
X1014690Y772776D01*
X1013510Y772853D01*
D02*
G37*
G36*
X981810D02*
X980630Y772776D01*
X979470Y772545D01*
X978350Y772165D01*
X977289Y771642D01*
X976305Y770985D01*
X975416Y770205D01*
X974636Y769315D01*
X973978Y768332D01*
X973455Y767271D01*
X973075Y766151D01*
X972844Y764990D01*
X972767Y763810D01*
X972844Y762630D01*
X973075Y761469D01*
X973455Y760349D01*
X973978Y759288D01*
X974636Y758305D01*
X975416Y757415D01*
X976305Y756635D01*
X977289Y755978D01*
X977520Y755864D01*
Y734359D01*
X976790Y733527D01*
X976124Y732531D01*
X975594Y731456D01*
X975209Y730321D01*
X974975Y729145D01*
X974897Y727949D01*
X974975Y726753D01*
X975209Y725577D01*
X975594Y724442D01*
X976124Y723367D01*
X976790Y722370D01*
X977581Y721469D01*
X978482Y720679D01*
X979479Y720013D01*
X980554Y719483D01*
X981689Y719098D01*
X982864Y718864D01*
X984060Y718785D01*
X985256Y718864D01*
X986432Y719098D01*
X987567Y719483D01*
X988642Y720013D01*
X989639Y720679D01*
X990540Y721469D01*
X991330Y722370D01*
X991996Y723367D01*
X992526Y724442D01*
X992912Y725577D01*
X993146Y726753D01*
X993224Y727949D01*
X993146Y729145D01*
X992912Y730321D01*
X992526Y731456D01*
X991996Y732531D01*
X991330Y733527D01*
X990540Y734428D01*
X989639Y735219D01*
X988642Y735885D01*
X987567Y736415D01*
X986432Y736800D01*
X986101Y736866D01*
Y755864D01*
X986332Y755978D01*
X987315Y756635D01*
X988205Y757415D01*
X988985Y758305D01*
X989642Y759288D01*
X990165Y760349D01*
X990545Y761469D01*
X990776Y762630D01*
X990854Y763810D01*
X990776Y764990D01*
X990545Y766151D01*
X990165Y767271D01*
X989642Y768332D01*
X988985Y769315D01*
X988205Y770205D01*
X987315Y770985D01*
X986332Y771642D01*
X985271Y772165D01*
X984151Y772545D01*
X982991Y772776D01*
X981810Y772853D01*
D02*
G37*
G36*
X1279815Y689734D02*
X1278866Y689659D01*
X1277941Y689437D01*
X1277061Y689072D01*
X1276249Y688575D01*
X1275526Y687957D01*
X1275525Y687957D01*
X1269838Y682269D01*
X1269220Y681545D01*
X1268722Y680734D01*
X1268358Y679854D01*
X1268136Y678928D01*
X1268061Y677979D01*
X1268061Y677979D01*
Y677584D01*
X1267901Y677408D01*
X1266791Y676922D01*
X1266278Y677264D01*
X1265276Y677759D01*
X1264218Y678118D01*
X1263122Y678336D01*
X1262007Y678409D01*
X1260892Y678336D01*
X1259796Y678118D01*
X1258738Y677759D01*
X1257736Y677264D01*
X1256807Y676644D01*
X1255967Y675907D01*
X1255230Y675067D01*
X1254609Y674138D01*
X1254115Y673136D01*
X1253756Y672077D01*
X1253538Y670982D01*
X1253465Y669867D01*
X1253538Y668752D01*
X1253756Y667656D01*
X1254115Y666598D01*
X1254609Y665595D01*
X1255230Y664666D01*
X1255940Y663856D01*
Y618316D01*
X1255586Y618196D01*
X1254511Y617666D01*
X1253515Y617000D01*
X1252613Y616210D01*
X1251823Y615308D01*
X1251157Y614312D01*
X1250627Y613237D01*
X1250242Y612102D01*
X1250008Y610926D01*
X1249929Y609730D01*
X1250008Y608534D01*
X1250242Y607358D01*
X1250627Y606223D01*
X1251157Y605148D01*
X1251823Y604151D01*
X1252613Y603250D01*
X1253515Y602460D01*
X1254511Y601794D01*
X1255586Y601264D01*
X1256721Y600879D01*
X1257897Y600645D01*
X1259093Y600566D01*
X1260289Y600645D01*
X1261465Y600879D01*
X1262600Y601264D01*
X1263675Y601794D01*
X1264671Y602460D01*
X1265573Y603250D01*
X1266363Y604151D01*
X1267029Y605148D01*
X1267559Y606223D01*
X1267944Y607358D01*
X1268178Y608534D01*
X1268257Y609730D01*
X1268178Y610926D01*
X1268006Y611790D01*
X1268074Y612644D01*
Y615969D01*
X1268817Y616333D01*
X1269344Y616384D01*
X1269838Y615806D01*
X1275365Y610278D01*
X1275329Y609730D01*
X1275408Y608534D01*
X1275642Y607358D01*
X1276027Y606223D01*
X1276557Y605148D01*
X1277223Y604151D01*
X1278013Y603250D01*
X1278915Y602460D01*
X1279911Y601794D01*
X1280986Y601264D01*
X1282121Y600879D01*
X1283297Y600645D01*
X1284493Y600566D01*
X1285689Y600645D01*
X1286865Y600879D01*
X1288000Y601264D01*
X1289075Y601794D01*
X1290072Y602460D01*
X1290973Y603250D01*
X1291763Y604151D01*
X1292429Y605148D01*
X1292959Y606223D01*
X1293344Y607358D01*
X1293578Y608534D01*
X1293657Y609730D01*
X1293578Y610926D01*
X1293344Y612102D01*
X1292959Y613237D01*
X1292429Y614312D01*
X1291763Y615308D01*
X1290973Y616210D01*
X1290072Y617000D01*
X1289075Y617666D01*
X1288000Y618196D01*
X1286865Y618581D01*
X1285689Y618815D01*
X1284493Y618894D01*
X1283945Y618858D01*
X1280194Y622608D01*
Y630911D01*
X1281464Y631061D01*
X1281637Y630341D01*
X1282001Y629462D01*
X1282499Y628650D01*
X1283117Y627926D01*
X1300765Y610278D01*
X1300729Y609730D01*
X1300808Y608534D01*
X1301042Y607358D01*
X1301427Y606223D01*
X1301957Y605148D01*
X1302623Y604151D01*
X1303413Y603250D01*
X1304315Y602460D01*
X1305311Y601794D01*
X1306386Y601264D01*
X1307521Y600879D01*
X1308697Y600645D01*
X1309893Y600566D01*
X1311089Y600645D01*
X1312265Y600879D01*
X1313400Y601264D01*
X1314475Y601794D01*
X1315471Y602460D01*
X1316373Y603250D01*
X1317163Y604151D01*
X1317829Y605148D01*
X1318359Y606223D01*
X1318744Y607358D01*
X1318978Y608534D01*
X1319057Y609730D01*
X1318978Y610926D01*
X1318744Y612102D01*
X1318359Y613237D01*
X1317829Y614312D01*
X1317163Y615308D01*
X1316373Y616210D01*
X1315471Y617000D01*
X1314475Y617666D01*
X1313400Y618196D01*
X1312265Y618581D01*
X1311089Y618815D01*
X1309893Y618894D01*
X1309345Y618858D01*
X1293474Y634729D01*
Y663856D01*
X1294184Y664666D01*
X1294805Y665595D01*
X1295299Y666598D01*
X1295658Y667656D01*
X1295876Y668752D01*
X1295949Y669867D01*
X1295876Y670982D01*
X1295658Y672077D01*
X1295299Y673136D01*
X1294805Y674138D01*
X1294184Y675067D01*
X1293447Y675907D01*
X1292964Y676330D01*
X1293439Y677600D01*
X1304283D01*
Y661343D01*
X1321331D01*
Y678391D01*
X1318874D01*
Y683667D01*
X1318799Y684616D01*
X1318577Y685542D01*
X1318212Y686421D01*
X1317715Y687233D01*
X1317097Y687957D01*
X1316373Y688575D01*
X1315561Y689072D01*
X1314682Y689437D01*
X1313756Y689659D01*
X1312807Y689734D01*
X1279816D01*
X1279815Y689734D01*
D02*
G37*
G36*
X1055583Y689542D02*
X1054634Y689468D01*
X1053708Y689245D01*
X1052828Y688881D01*
X1052017Y688384D01*
X1051293Y687766D01*
X1051293Y687765D01*
X1045605Y682078D01*
X1044987Y681354D01*
X1044490Y680542D01*
X1044125Y679663D01*
X1043903Y678737D01*
X1043828Y677788D01*
X1043828Y677788D01*
Y677393D01*
X1043668Y677216D01*
X1042558Y676730D01*
X1042045Y677073D01*
X1041043Y677567D01*
X1039985Y677926D01*
X1038889Y678144D01*
X1037774Y678217D01*
X1036659Y678144D01*
X1035563Y677926D01*
X1034505Y677567D01*
X1033503Y677073D01*
X1032574Y676452D01*
X1031734Y675715D01*
X1030997Y674875D01*
X1030376Y673946D01*
X1029882Y672944D01*
X1029523Y671886D01*
X1029305Y670790D01*
X1029232Y669675D01*
X1029305Y668560D01*
X1029523Y667464D01*
X1029882Y666406D01*
X1030376Y665404D01*
X1030997Y664475D01*
X1031708Y663665D01*
Y618125D01*
X1031354Y618005D01*
X1030278Y617475D01*
X1029282Y616809D01*
X1028381Y616018D01*
X1027590Y615117D01*
X1026924Y614120D01*
X1026394Y613045D01*
X1026009Y611910D01*
X1025775Y610735D01*
X1025697Y609538D01*
X1025775Y608342D01*
X1026009Y607167D01*
X1026394Y606032D01*
X1026924Y604957D01*
X1027590Y603960D01*
X1028381Y603059D01*
X1029282Y602268D01*
X1030278Y601603D01*
X1031354Y601073D01*
X1032489Y600687D01*
X1033664Y600453D01*
X1034860Y600375D01*
X1036056Y600453D01*
X1037232Y600687D01*
X1038367Y601073D01*
X1039442Y601603D01*
X1040439Y602268D01*
X1041340Y603059D01*
X1042130Y603960D01*
X1042796Y604957D01*
X1043326Y606032D01*
X1043712Y607167D01*
X1043945Y608342D01*
X1044024Y609538D01*
X1043945Y610735D01*
X1043774Y611599D01*
X1043841Y612452D01*
Y615778D01*
X1044584Y616141D01*
X1045111Y616193D01*
X1045605Y615614D01*
X1051133Y610087D01*
X1051097Y609538D01*
X1051175Y608342D01*
X1051409Y607167D01*
X1051794Y606032D01*
X1052324Y604957D01*
X1052990Y603960D01*
X1053781Y603059D01*
X1054682Y602268D01*
X1055678Y601603D01*
X1056754Y601073D01*
X1057889Y600687D01*
X1059064Y600453D01*
X1060260Y600375D01*
X1061456Y600453D01*
X1062632Y600687D01*
X1063767Y601073D01*
X1064842Y601603D01*
X1065839Y602268D01*
X1066740Y603059D01*
X1067530Y603960D01*
X1068196Y604957D01*
X1068726Y606032D01*
X1069112Y607167D01*
X1069345Y608342D01*
X1069424Y609538D01*
X1069345Y610735D01*
X1069112Y611910D01*
X1068726Y613045D01*
X1068196Y614120D01*
X1067530Y615117D01*
X1066740Y616018D01*
X1065839Y616809D01*
X1064842Y617475D01*
X1063767Y618005D01*
X1062632Y618390D01*
X1061456Y618624D01*
X1060260Y618702D01*
X1059712Y618666D01*
X1055962Y622417D01*
Y630719D01*
X1057232Y630870D01*
X1057404Y630150D01*
X1057769Y629270D01*
X1058266Y628459D01*
X1058884Y627735D01*
X1076533Y610087D01*
X1076497Y609538D01*
X1076575Y608342D01*
X1076809Y607167D01*
X1077194Y606032D01*
X1077724Y604957D01*
X1078390Y603960D01*
X1079181Y603059D01*
X1080082Y602268D01*
X1081078Y601603D01*
X1082154Y601073D01*
X1083289Y600687D01*
X1084464Y600453D01*
X1085660Y600375D01*
X1086856Y600453D01*
X1088032Y600687D01*
X1089167Y601073D01*
X1090242Y601603D01*
X1091239Y602268D01*
X1092140Y603059D01*
X1092930Y603960D01*
X1093596Y604957D01*
X1094126Y606032D01*
X1094512Y607167D01*
X1094745Y608342D01*
X1094824Y609538D01*
X1094745Y610735D01*
X1094512Y611910D01*
X1094126Y613045D01*
X1093596Y614120D01*
X1092930Y615117D01*
X1092140Y616018D01*
X1091239Y616809D01*
X1090242Y617475D01*
X1089167Y618005D01*
X1088032Y618390D01*
X1086856Y618624D01*
X1085660Y618702D01*
X1085112Y618666D01*
X1069241Y634538D01*
Y663665D01*
X1069951Y664475D01*
X1070572Y665404D01*
X1071066Y666406D01*
X1071425Y667464D01*
X1071643Y668560D01*
X1071717Y669675D01*
X1071643Y670790D01*
X1071425Y671886D01*
X1071066Y672944D01*
X1070572Y673946D01*
X1069951Y674875D01*
X1069214Y675715D01*
X1068732Y676139D01*
X1069206Y677409D01*
X1080050D01*
Y661151D01*
X1097098D01*
Y678199D01*
X1094641D01*
Y683476D01*
X1094566Y684425D01*
X1094344Y685350D01*
X1093980Y686230D01*
X1093482Y687042D01*
X1092864Y687766D01*
X1092140Y688384D01*
X1091328Y688881D01*
X1090449Y689245D01*
X1089523Y689468D01*
X1088574Y689542D01*
X1055583D01*
X1055583Y689542D01*
D02*
G37*
G36*
X765810Y636657D02*
X764433Y636566D01*
X763080Y636297D01*
X761774Y635854D01*
X760537Y635244D01*
X759390Y634477D01*
X758353Y633568D01*
X757443Y632530D01*
X756676Y631383D01*
X756066Y630146D01*
X755623Y628840D01*
X755354Y627487D01*
X755263Y626110D01*
X755354Y624733D01*
X755623Y623380D01*
X756066Y622074D01*
X756676Y620837D01*
X757443Y619690D01*
X758353Y618652D01*
X759390Y617743D01*
X760537Y616976D01*
X761774Y616366D01*
X763080Y615923D01*
X764433Y615654D01*
X765810Y615563D01*
X767187Y615654D01*
X768540Y615923D01*
X769846Y616366D01*
X771083Y616976D01*
X772230Y617743D01*
X773268Y618652D01*
X774177Y619690D01*
X774944Y620837D01*
X775554Y622074D01*
X775997Y623380D01*
X776266Y624733D01*
X776357Y626110D01*
X776266Y627487D01*
X775997Y628840D01*
X775554Y630146D01*
X774944Y631383D01*
X774177Y632530D01*
X773268Y633568D01*
X772230Y634477D01*
X771083Y635244D01*
X769846Y635854D01*
X768540Y636297D01*
X767187Y636566D01*
X765810Y636657D01*
D02*
G37*
G36*
X892883Y632828D02*
X881613D01*
Y611558D01*
X892883D01*
Y632828D01*
D02*
G37*
G36*
X879073D02*
X867803D01*
Y611558D01*
X879073D01*
Y632828D01*
D02*
G37*
G36*
X1361963Y619828D02*
Y611000D01*
X1370792D01*
X1370788Y611059D01*
X1370528Y612365D01*
X1370100Y613626D01*
X1369511Y614821D01*
X1368771Y615928D01*
X1367893Y616930D01*
X1366891Y617808D01*
X1365784Y618548D01*
X1364589Y619137D01*
X1363328Y619565D01*
X1362022Y619825D01*
X1361963Y619828D01*
D02*
G37*
G36*
X1209563D02*
Y611000D01*
X1218392D01*
X1218388Y611059D01*
X1218128Y612365D01*
X1217700Y613626D01*
X1217111Y614821D01*
X1216371Y615928D01*
X1215493Y616930D01*
X1214491Y617808D01*
X1213384Y618548D01*
X1212189Y619137D01*
X1210928Y619565D01*
X1209622Y619825D01*
X1209563Y619828D01*
D02*
G37*
G36*
X1359423D02*
X1359364Y619825D01*
X1358058Y619565D01*
X1356797Y619137D01*
X1355602Y618548D01*
X1354495Y617808D01*
X1353493Y616930D01*
X1352615Y615928D01*
X1351875Y614821D01*
X1351286Y613626D01*
X1350858Y612365D01*
X1350598Y611059D01*
X1350594Y611000D01*
X1359423D01*
Y619828D01*
D02*
G37*
G36*
X1137730Y619637D02*
Y610808D01*
X1146559D01*
X1146555Y610868D01*
X1146295Y612174D01*
X1145867Y613435D01*
X1145278Y614629D01*
X1144538Y615737D01*
X1143660Y616738D01*
X1142659Y617616D01*
X1141551Y618356D01*
X1140357Y618945D01*
X1139096Y619373D01*
X1137789Y619633D01*
X1137730Y619637D01*
D02*
G37*
G36*
X985330D02*
Y610808D01*
X994159D01*
X994155Y610868D01*
X993895Y612174D01*
X993467Y613435D01*
X992878Y614629D01*
X992138Y615737D01*
X991260Y616738D01*
X990259Y617616D01*
X989151Y618356D01*
X987957Y618945D01*
X986696Y619373D01*
X985389Y619633D01*
X985330Y619637D01*
D02*
G37*
G36*
X1135190D02*
X1135131Y619633D01*
X1133825Y619373D01*
X1132564Y618945D01*
X1131369Y618356D01*
X1130262Y617616D01*
X1129261Y616738D01*
X1128383Y615737D01*
X1127643Y614629D01*
X1127054Y613435D01*
X1126626Y612174D01*
X1126366Y610868D01*
X1126362Y610808D01*
X1135190D01*
Y619637D01*
D02*
G37*
G36*
X982790D02*
X982731Y619633D01*
X981425Y619373D01*
X980164Y618945D01*
X978969Y618356D01*
X977862Y617616D01*
X976861Y616738D01*
X975983Y615737D01*
X975243Y614629D01*
X974653Y613435D01*
X974225Y612174D01*
X973966Y610868D01*
X973962Y610808D01*
X982790D01*
Y619637D01*
D02*
G37*
G36*
X1335293Y618894D02*
X1334097Y618815D01*
X1332921Y618581D01*
X1331786Y618196D01*
X1330711Y617666D01*
X1329715Y617000D01*
X1328813Y616210D01*
X1328023Y615308D01*
X1327357Y614312D01*
X1326827Y613237D01*
X1326442Y612102D01*
X1326208Y610926D01*
X1326129Y609730D01*
X1326208Y608534D01*
X1326442Y607358D01*
X1326827Y606223D01*
X1327357Y605148D01*
X1328023Y604151D01*
X1328813Y603250D01*
X1329715Y602460D01*
X1330711Y601794D01*
X1331786Y601264D01*
X1332921Y600879D01*
X1334097Y600645D01*
X1335293Y600566D01*
X1336489Y600645D01*
X1337665Y600879D01*
X1338800Y601264D01*
X1339875Y601794D01*
X1340871Y602460D01*
X1341773Y603250D01*
X1342563Y604151D01*
X1343229Y605148D01*
X1343759Y606223D01*
X1344144Y607358D01*
X1344378Y608534D01*
X1344457Y609730D01*
X1344378Y610926D01*
X1344144Y612102D01*
X1343759Y613237D01*
X1343229Y614312D01*
X1342563Y615308D01*
X1341773Y616210D01*
X1340871Y617000D01*
X1339875Y617666D01*
X1338800Y618196D01*
X1337665Y618581D01*
X1336489Y618815D01*
X1335293Y618894D01*
D02*
G37*
G36*
X1237877Y678409D02*
X1236762Y678336D01*
X1235666Y678118D01*
X1234608Y677759D01*
X1233606Y677264D01*
X1232677Y676644D01*
X1231837Y675907D01*
X1231100Y675067D01*
X1230479Y674138D01*
X1229985Y673136D01*
X1229626Y672077D01*
X1229408Y670982D01*
X1229335Y669867D01*
X1229408Y668752D01*
X1229626Y667656D01*
X1229985Y666598D01*
X1230479Y665595D01*
X1231100Y664666D01*
X1231810Y663856D01*
Y618679D01*
X1231321Y618581D01*
X1230186Y618196D01*
X1229111Y617666D01*
X1228115Y617000D01*
X1227213Y616210D01*
X1226423Y615308D01*
X1225757Y614312D01*
X1225227Y613237D01*
X1224842Y612102D01*
X1224608Y610926D01*
X1224529Y609730D01*
X1224608Y608534D01*
X1224842Y607358D01*
X1225227Y606223D01*
X1225757Y605148D01*
X1226423Y604151D01*
X1227213Y603250D01*
X1228115Y602460D01*
X1229111Y601794D01*
X1230186Y601264D01*
X1231321Y600879D01*
X1232497Y600645D01*
X1233693Y600566D01*
X1234889Y600645D01*
X1236065Y600879D01*
X1237200Y601264D01*
X1238275Y601794D01*
X1239271Y602460D01*
X1240173Y603250D01*
X1240963Y604151D01*
X1241629Y605148D01*
X1242159Y606223D01*
X1242544Y607358D01*
X1242778Y608534D01*
X1242857Y609730D01*
X1242813Y610394D01*
X1243282Y611160D01*
X1243647Y612039D01*
X1243869Y612965D01*
X1243944Y613914D01*
Y663856D01*
X1244654Y664666D01*
X1245275Y665595D01*
X1245769Y666598D01*
X1246128Y667656D01*
X1246346Y668752D01*
X1246419Y669867D01*
X1246346Y670982D01*
X1246128Y672077D01*
X1245769Y673136D01*
X1245275Y674138D01*
X1244654Y675067D01*
X1243917Y675907D01*
X1243077Y676644D01*
X1242148Y677264D01*
X1241146Y677759D01*
X1240088Y678118D01*
X1238992Y678336D01*
X1237877Y678409D01*
D02*
G37*
G36*
X1111060Y618702D02*
X1109864Y618624D01*
X1108689Y618390D01*
X1107554Y618005D01*
X1106479Y617475D01*
X1105482Y616809D01*
X1104581Y616018D01*
X1103790Y615117D01*
X1103124Y614120D01*
X1102594Y613045D01*
X1102209Y611910D01*
X1101975Y610735D01*
X1101897Y609538D01*
X1101975Y608342D01*
X1102209Y607167D01*
X1102594Y606032D01*
X1103124Y604957D01*
X1103790Y603960D01*
X1104581Y603059D01*
X1105482Y602268D01*
X1106479Y601603D01*
X1107554Y601073D01*
X1108689Y600687D01*
X1109864Y600453D01*
X1111060Y600375D01*
X1112256Y600453D01*
X1113432Y600687D01*
X1114567Y601073D01*
X1115642Y601603D01*
X1116639Y602268D01*
X1117540Y603059D01*
X1118330Y603960D01*
X1118996Y604957D01*
X1119526Y606032D01*
X1119912Y607167D01*
X1120145Y608342D01*
X1120224Y609538D01*
X1120145Y610735D01*
X1119912Y611910D01*
X1119526Y613045D01*
X1118996Y614120D01*
X1118330Y615117D01*
X1117540Y616018D01*
X1116639Y616809D01*
X1115642Y617475D01*
X1114567Y618005D01*
X1113432Y618390D01*
X1112256Y618624D01*
X1111060Y618702D01*
D02*
G37*
G36*
X1013644Y678217D02*
X1012529Y678144D01*
X1011433Y677926D01*
X1010375Y677567D01*
X1009373Y677073D01*
X1008444Y676452D01*
X1007604Y675715D01*
X1006867Y674875D01*
X1006246Y673946D01*
X1005752Y672944D01*
X1005393Y671886D01*
X1005175Y670790D01*
X1005102Y669675D01*
X1005175Y668560D01*
X1005393Y667464D01*
X1005752Y666406D01*
X1006246Y665404D01*
X1006867Y664475D01*
X1007578Y663665D01*
Y618487D01*
X1007089Y618390D01*
X1005954Y618005D01*
X1004878Y617475D01*
X1003882Y616809D01*
X1002981Y616018D01*
X1002190Y615117D01*
X1001524Y614120D01*
X1000994Y613045D01*
X1000609Y611910D01*
X1000375Y610735D01*
X1000297Y609538D01*
X1000375Y608342D01*
X1000609Y607167D01*
X1000994Y606032D01*
X1001524Y604957D01*
X1002190Y603960D01*
X1002981Y603059D01*
X1003882Y602268D01*
X1004878Y601603D01*
X1005954Y601073D01*
X1007089Y600687D01*
X1008264Y600453D01*
X1009460Y600375D01*
X1010656Y600453D01*
X1011832Y600687D01*
X1012967Y601073D01*
X1014042Y601603D01*
X1015039Y602268D01*
X1015940Y603059D01*
X1016730Y603960D01*
X1017396Y604957D01*
X1017926Y606032D01*
X1018312Y607167D01*
X1018546Y608342D01*
X1018624Y609538D01*
X1018580Y610202D01*
X1019050Y610968D01*
X1019414Y611848D01*
X1019636Y612773D01*
X1019711Y613722D01*
Y663665D01*
X1020421Y664475D01*
X1021042Y665404D01*
X1021536Y666406D01*
X1021895Y667464D01*
X1022113Y668560D01*
X1022187Y669675D01*
X1022113Y670790D01*
X1021895Y671886D01*
X1021536Y672944D01*
X1021042Y673946D01*
X1020421Y674875D01*
X1019685Y675715D01*
X1018844Y676452D01*
X1017915Y677073D01*
X1016913Y677567D01*
X1015855Y677926D01*
X1014759Y678144D01*
X1013644Y678217D01*
D02*
G37*
G36*
X1218392Y608460D02*
X1209563D01*
Y599631D01*
X1209622Y599635D01*
X1210928Y599895D01*
X1212189Y600323D01*
X1213384Y600912D01*
X1214491Y601652D01*
X1215493Y602530D01*
X1216371Y603532D01*
X1217111Y604639D01*
X1217700Y605834D01*
X1218128Y607095D01*
X1218388Y608401D01*
X1218392Y608460D01*
D02*
G37*
G36*
X1370792D02*
X1361963D01*
Y599631D01*
X1362022Y599635D01*
X1363328Y599895D01*
X1364589Y600323D01*
X1365784Y600912D01*
X1366891Y601652D01*
X1367893Y602530D01*
X1368771Y603532D01*
X1369511Y604639D01*
X1370100Y605834D01*
X1370528Y607095D01*
X1370788Y608401D01*
X1370792Y608460D01*
D02*
G37*
G36*
X1359423D02*
X1350594D01*
X1350598Y608401D01*
X1350858Y607095D01*
X1351286Y605834D01*
X1351875Y604639D01*
X1352615Y603532D01*
X1353493Y602530D01*
X1354495Y601652D01*
X1355602Y600912D01*
X1356797Y600323D01*
X1358058Y599895D01*
X1359364Y599635D01*
X1359423Y599631D01*
Y608460D01*
D02*
G37*
G36*
X994159Y608269D02*
X985330D01*
Y599440D01*
X985389Y599444D01*
X986696Y599704D01*
X987957Y600132D01*
X989151Y600721D01*
X990259Y601461D01*
X991260Y602339D01*
X992138Y603340D01*
X992878Y604448D01*
X993467Y605642D01*
X993895Y606903D01*
X994155Y608210D01*
X994159Y608269D01*
D02*
G37*
G36*
X1146559D02*
X1137730D01*
Y599440D01*
X1137789Y599444D01*
X1139096Y599704D01*
X1140357Y600132D01*
X1141551Y600721D01*
X1142659Y601461D01*
X1143660Y602339D01*
X1144538Y603340D01*
X1145278Y604448D01*
X1145867Y605642D01*
X1146295Y606903D01*
X1146555Y608210D01*
X1146559Y608269D01*
D02*
G37*
G36*
X1135190D02*
X1126362D01*
X1126366Y608210D01*
X1126626Y606903D01*
X1127054Y605642D01*
X1127643Y604448D01*
X1128383Y603340D01*
X1129261Y602339D01*
X1130262Y601461D01*
X1131369Y600721D01*
X1132564Y600132D01*
X1133825Y599704D01*
X1135131Y599444D01*
X1135190Y599440D01*
Y608269D01*
D02*
G37*
G36*
X982790D02*
X973962D01*
X973966Y608210D01*
X974225Y606903D01*
X974653Y605642D01*
X975243Y604448D01*
X975983Y603340D01*
X976861Y602339D01*
X977862Y601461D01*
X978969Y600721D01*
X980164Y600132D01*
X981425Y599704D01*
X982731Y599444D01*
X982790Y599440D01*
Y608269D01*
D02*
G37*
G36*
X776334Y611234D02*
X755286D01*
Y590186D01*
X776334D01*
Y611234D01*
D02*
G37*
G36*
X892883Y609018D02*
X881613D01*
Y587748D01*
X892883D01*
Y609018D01*
D02*
G37*
G36*
X879073D02*
X867803D01*
Y587748D01*
X879073D01*
Y609018D01*
D02*
G37*
G36*
X1054234Y579494D02*
X1036186D01*
Y574760D01*
X1022534D01*
Y579494D01*
X1004486D01*
Y574760D01*
X990834D01*
Y579494D01*
X972786D01*
Y561446D01*
X990834D01*
Y566179D01*
X1004486D01*
Y561446D01*
X1022534D01*
Y566179D01*
X1036186D01*
Y561446D01*
X1054234D01*
Y579494D01*
D02*
G37*
G36*
X899990Y558970D02*
X877970D01*
Y552450D01*
X899990D01*
Y558970D01*
D02*
G37*
G36*
X875430D02*
X853410D01*
Y552450D01*
X875430D01*
Y558970D01*
D02*
G37*
G36*
X899990Y549910D02*
X877970D01*
Y543390D01*
X899990D01*
Y549910D01*
D02*
G37*
G36*
X875430D02*
X853410D01*
Y543390D01*
X875430D01*
Y549910D01*
D02*
G37*
G36*
X1269443Y554304D02*
X1268262Y554227D01*
X1267102Y553996D01*
X1265982Y553616D01*
X1264921Y553093D01*
X1263938Y552436D01*
X1263048Y551656D01*
X1262268Y550766D01*
X1261611Y549783D01*
X1261088Y548722D01*
X1260707Y547602D01*
X1260477Y546441D01*
X1260399Y545261D01*
X1260438Y544676D01*
X1260113Y544352D01*
X1259580Y543701D01*
X1259183Y542960D01*
X1258939Y542155D01*
X1258857Y541318D01*
X1258857Y541317D01*
Y518548D01*
X1257897Y518485D01*
X1256721Y518251D01*
X1255586Y517866D01*
X1254511Y517336D01*
X1253515Y516670D01*
X1252613Y515880D01*
X1251823Y514978D01*
X1251157Y513982D01*
X1250627Y512907D01*
X1250242Y511772D01*
X1250008Y510596D01*
X1249929Y509400D01*
X1250008Y508204D01*
X1250242Y507028D01*
X1250627Y505893D01*
X1251157Y504818D01*
X1251823Y503821D01*
X1252613Y502920D01*
X1253515Y502130D01*
X1254511Y501464D01*
X1255586Y500934D01*
X1256721Y500549D01*
X1257897Y500315D01*
X1259093Y500236D01*
X1260289Y500315D01*
X1261465Y500549D01*
X1262600Y500934D01*
X1263675Y501464D01*
X1264671Y502130D01*
X1265573Y502920D01*
X1266363Y503821D01*
X1267029Y504818D01*
X1267559Y505893D01*
X1267944Y507028D01*
X1268178Y508204D01*
X1268257Y509400D01*
X1268178Y510596D01*
X1267944Y511772D01*
X1267559Y512907D01*
X1267413Y513203D01*
X1267438Y513454D01*
X1267438Y513455D01*
Y535393D01*
X1268708Y536266D01*
X1269443Y536218D01*
X1270623Y536295D01*
X1271783Y536526D01*
X1272903Y536906D01*
X1273964Y537429D01*
X1274948Y538087D01*
X1275837Y538867D01*
X1276617Y539756D01*
X1277274Y540739D01*
X1277798Y541800D01*
X1278178Y542920D01*
X1278409Y544081D01*
X1278486Y545261D01*
X1278409Y546441D01*
X1278178Y547602D01*
X1277798Y548722D01*
X1277274Y549783D01*
X1276617Y550766D01*
X1275837Y551656D01*
X1274948Y552436D01*
X1273964Y553093D01*
X1272903Y553616D01*
X1271783Y553996D01*
X1270623Y554227D01*
X1269443Y554304D01*
D02*
G37*
G36*
X914930Y540356D02*
X909160D01*
Y535586D01*
X914930D01*
Y540356D01*
D02*
G37*
G36*
X906620D02*
X900850D01*
Y535586D01*
X906620D01*
Y540356D01*
D02*
G37*
G36*
X914930Y533046D02*
X909160D01*
Y528276D01*
X914930D01*
Y533046D01*
D02*
G37*
G36*
X906620D02*
X900850D01*
Y528276D01*
X906620D01*
Y533046D01*
D02*
G37*
G36*
X1045210Y554113D02*
X1044030Y554036D01*
X1042869Y553805D01*
X1041749Y553425D01*
X1040688Y552901D01*
X1039705Y552244D01*
X1038815Y551464D01*
X1038035Y550575D01*
X1037378Y549591D01*
X1036855Y548530D01*
X1036475Y547410D01*
X1036244Y546250D01*
X1036167Y545070D01*
X1036244Y543889D01*
X1036475Y542729D01*
X1036605Y542345D01*
X1036291Y541756D01*
X1036046Y540951D01*
X1035964Y540114D01*
X1035964Y540114D01*
Y519229D01*
X1035037Y518361D01*
X1034860Y518372D01*
X1033664Y518294D01*
X1032489Y518060D01*
X1031354Y517675D01*
X1030278Y517145D01*
X1029282Y516479D01*
X1028381Y515688D01*
X1027590Y514787D01*
X1026924Y513790D01*
X1026394Y512715D01*
X1026009Y511580D01*
X1025775Y510405D01*
X1025697Y509208D01*
X1025775Y508012D01*
X1026009Y506837D01*
X1026394Y505702D01*
X1026924Y504627D01*
X1027590Y503630D01*
X1028381Y502729D01*
X1029282Y501939D01*
X1030278Y501273D01*
X1031354Y500742D01*
X1032489Y500357D01*
X1033664Y500123D01*
X1034860Y500045D01*
X1036056Y500123D01*
X1037232Y500357D01*
X1038367Y500742D01*
X1039442Y501273D01*
X1040439Y501939D01*
X1041340Y502729D01*
X1042130Y503630D01*
X1042796Y504627D01*
X1043326Y505702D01*
X1043712Y506837D01*
X1043945Y508012D01*
X1044024Y509208D01*
X1043945Y510405D01*
X1043712Y511580D01*
X1043591Y511937D01*
X1043822Y512219D01*
X1044219Y512961D01*
X1044463Y513766D01*
X1044545Y514603D01*
X1044545Y514603D01*
Y535404D01*
X1045210Y536026D01*
X1046390Y536104D01*
X1047551Y536334D01*
X1048671Y536715D01*
X1049732Y537238D01*
X1050715Y537895D01*
X1051605Y538675D01*
X1052385Y539564D01*
X1053042Y540548D01*
X1053565Y541609D01*
X1053945Y542729D01*
X1054176Y543889D01*
X1054253Y545070D01*
X1054176Y546250D01*
X1053945Y547410D01*
X1053565Y548530D01*
X1053042Y549591D01*
X1052385Y550575D01*
X1051605Y551464D01*
X1050715Y552244D01*
X1049732Y552901D01*
X1048671Y553425D01*
X1047551Y553805D01*
X1046390Y554036D01*
X1045210Y554113D01*
D02*
G37*
G36*
X1192037Y518544D02*
X1173749D01*
Y500256D01*
X1192037D01*
Y518544D01*
D02*
G37*
G36*
X1360693Y518564D02*
X1359497Y518485D01*
X1358321Y518251D01*
X1357186Y517866D01*
X1356111Y517336D01*
X1355115Y516670D01*
X1354213Y515880D01*
X1353423Y514978D01*
X1352757Y513982D01*
X1352227Y512907D01*
X1351842Y511772D01*
X1351608Y510596D01*
X1351529Y509400D01*
X1351608Y508204D01*
X1351842Y507028D01*
X1352227Y505893D01*
X1352757Y504818D01*
X1353423Y503821D01*
X1354213Y502920D01*
X1355115Y502130D01*
X1356111Y501464D01*
X1357186Y500934D01*
X1358321Y500549D01*
X1359497Y500315D01*
X1360693Y500236D01*
X1361889Y500315D01*
X1363065Y500549D01*
X1364200Y500934D01*
X1365275Y501464D01*
X1366272Y502130D01*
X1367173Y502920D01*
X1367963Y503821D01*
X1368629Y504818D01*
X1369159Y505893D01*
X1369544Y507028D01*
X1369778Y508204D01*
X1369857Y509400D01*
X1369778Y510596D01*
X1369544Y511772D01*
X1369159Y512907D01*
X1368629Y513982D01*
X1367963Y514978D01*
X1367173Y515880D01*
X1366272Y516670D01*
X1365275Y517336D01*
X1364200Y517866D01*
X1363065Y518251D01*
X1361889Y518485D01*
X1360693Y518564D01*
D02*
G37*
G36*
X1335293D02*
X1334097Y518485D01*
X1332921Y518251D01*
X1331786Y517866D01*
X1330711Y517336D01*
X1329715Y516670D01*
X1328813Y515880D01*
X1328023Y514978D01*
X1327357Y513982D01*
X1326827Y512907D01*
X1326442Y511772D01*
X1326208Y510596D01*
X1326129Y509400D01*
X1326208Y508204D01*
X1326442Y507028D01*
X1326827Y505893D01*
X1327357Y504818D01*
X1328023Y503821D01*
X1328813Y502920D01*
X1329715Y502130D01*
X1330711Y501464D01*
X1331786Y500934D01*
X1332921Y500549D01*
X1334097Y500315D01*
X1335293Y500236D01*
X1336489Y500315D01*
X1337665Y500549D01*
X1338800Y500934D01*
X1339875Y501464D01*
X1340871Y502130D01*
X1341773Y502920D01*
X1342563Y503821D01*
X1343229Y504818D01*
X1343759Y505893D01*
X1344144Y507028D01*
X1344378Y508204D01*
X1344457Y509400D01*
X1344378Y510596D01*
X1344144Y511772D01*
X1343759Y512907D01*
X1343229Y513982D01*
X1342563Y514978D01*
X1341773Y515880D01*
X1340871Y516670D01*
X1339875Y517336D01*
X1338800Y517866D01*
X1337665Y518251D01*
X1336489Y518485D01*
X1335293Y518564D01*
D02*
G37*
G36*
X1309893D02*
X1308697Y518485D01*
X1307521Y518251D01*
X1306386Y517866D01*
X1305311Y517336D01*
X1304315Y516670D01*
X1303413Y515880D01*
X1302623Y514978D01*
X1301957Y513982D01*
X1301427Y512907D01*
X1301042Y511772D01*
X1300808Y510596D01*
X1300729Y509400D01*
X1300808Y508204D01*
X1301042Y507028D01*
X1301427Y505893D01*
X1301957Y504818D01*
X1302623Y503821D01*
X1303413Y502920D01*
X1304315Y502130D01*
X1305311Y501464D01*
X1306386Y500934D01*
X1307521Y500549D01*
X1308697Y500315D01*
X1309893Y500236D01*
X1311089Y500315D01*
X1312265Y500549D01*
X1313400Y500934D01*
X1314475Y501464D01*
X1315471Y502130D01*
X1316373Y502920D01*
X1317163Y503821D01*
X1317829Y504818D01*
X1318359Y505893D01*
X1318744Y507028D01*
X1318978Y508204D01*
X1319057Y509400D01*
X1318978Y510596D01*
X1318744Y511772D01*
X1318359Y512907D01*
X1317829Y513982D01*
X1317163Y514978D01*
X1316373Y515880D01*
X1315471Y516670D01*
X1314475Y517336D01*
X1313400Y517866D01*
X1312265Y518251D01*
X1311089Y518485D01*
X1309893Y518564D01*
D02*
G37*
G36*
X1284493D02*
X1283297Y518485D01*
X1282121Y518251D01*
X1280986Y517866D01*
X1279911Y517336D01*
X1278915Y516670D01*
X1278013Y515880D01*
X1277223Y514978D01*
X1276557Y513982D01*
X1276027Y512907D01*
X1275642Y511772D01*
X1275408Y510596D01*
X1275329Y509400D01*
X1275408Y508204D01*
X1275642Y507028D01*
X1276027Y505893D01*
X1276557Y504818D01*
X1277223Y503821D01*
X1278013Y502920D01*
X1278915Y502130D01*
X1279911Y501464D01*
X1280986Y500934D01*
X1282121Y500549D01*
X1283297Y500315D01*
X1284493Y500236D01*
X1285689Y500315D01*
X1286865Y500549D01*
X1288000Y500934D01*
X1289075Y501464D01*
X1290072Y502130D01*
X1290973Y502920D01*
X1291763Y503821D01*
X1292429Y504818D01*
X1292959Y505893D01*
X1293344Y507028D01*
X1293578Y508204D01*
X1293657Y509400D01*
X1293578Y510596D01*
X1293344Y511772D01*
X1292959Y512907D01*
X1292429Y513982D01*
X1291763Y514978D01*
X1290973Y515880D01*
X1290072Y516670D01*
X1289075Y517336D01*
X1288000Y517866D01*
X1286865Y518251D01*
X1285689Y518485D01*
X1284493Y518564D01*
D02*
G37*
G36*
X1237743Y554304D02*
X1236562Y554227D01*
X1235402Y553996D01*
X1234282Y553616D01*
X1233221Y553093D01*
X1232238Y552436D01*
X1231348Y551656D01*
X1230568Y550766D01*
X1229911Y549783D01*
X1229388Y548722D01*
X1229008Y547602D01*
X1228777Y546441D01*
X1228699Y545261D01*
X1228777Y544081D01*
X1229008Y542920D01*
X1229388Y541800D01*
X1229911Y540739D01*
X1230568Y539756D01*
X1231348Y538867D01*
X1232238Y538087D01*
X1233221Y537429D01*
X1233452Y537315D01*
Y518548D01*
X1232497Y518485D01*
X1231321Y518251D01*
X1230186Y517866D01*
X1229111Y517336D01*
X1228115Y516670D01*
X1227213Y515880D01*
X1226423Y514978D01*
X1225757Y513982D01*
X1225227Y512907D01*
X1224842Y511772D01*
X1224608Y510596D01*
X1224529Y509400D01*
X1224608Y508204D01*
X1224842Y507028D01*
X1225227Y505893D01*
X1225757Y504818D01*
X1226423Y503821D01*
X1227213Y502920D01*
X1228115Y502130D01*
X1229111Y501464D01*
X1230186Y500934D01*
X1231321Y500549D01*
X1232497Y500315D01*
X1233693Y500236D01*
X1234889Y500315D01*
X1236065Y500549D01*
X1237200Y500934D01*
X1238275Y501464D01*
X1239271Y502130D01*
X1240173Y502920D01*
X1240963Y503821D01*
X1241629Y504818D01*
X1242159Y505893D01*
X1242544Y507028D01*
X1242778Y508204D01*
X1242857Y509400D01*
X1242778Y510596D01*
X1242544Y511772D01*
X1242159Y512907D01*
X1242010Y513209D01*
X1242033Y513450D01*
Y537315D01*
X1242264Y537429D01*
X1243248Y538087D01*
X1244137Y538867D01*
X1244917Y539756D01*
X1245575Y540739D01*
X1246098Y541800D01*
X1246478Y542920D01*
X1246709Y544081D01*
X1246786Y545261D01*
X1246709Y546441D01*
X1246478Y547602D01*
X1246098Y548722D01*
X1245575Y549783D01*
X1244917Y550766D01*
X1244137Y551656D01*
X1243248Y552436D01*
X1242264Y553093D01*
X1241204Y553616D01*
X1240083Y553996D01*
X1238923Y554227D01*
X1237743Y554304D01*
D02*
G37*
G36*
X1206043D02*
X1204863Y554227D01*
X1203702Y553996D01*
X1202582Y553616D01*
X1201521Y553093D01*
X1200538Y552436D01*
X1199648Y551656D01*
X1198868Y550766D01*
X1198211Y549783D01*
X1197688Y548722D01*
X1197308Y547602D01*
X1197077Y546441D01*
X1197000Y545261D01*
X1197077Y544081D01*
X1197308Y542920D01*
X1197688Y541800D01*
X1198211Y540739D01*
X1198868Y539756D01*
X1199648Y538867D01*
X1200538Y538087D01*
X1201521Y537429D01*
X1201752Y537315D01*
Y515810D01*
X1201023Y514978D01*
X1200357Y513982D01*
X1199827Y512907D01*
X1199442Y511772D01*
X1199208Y510596D01*
X1199129Y509400D01*
X1199208Y508204D01*
X1199442Y507028D01*
X1199827Y505893D01*
X1200357Y504818D01*
X1201023Y503821D01*
X1201813Y502920D01*
X1202715Y502130D01*
X1203711Y501464D01*
X1204786Y500934D01*
X1205921Y500549D01*
X1207097Y500315D01*
X1208293Y500236D01*
X1209489Y500315D01*
X1210665Y500549D01*
X1211800Y500934D01*
X1212875Y501464D01*
X1213872Y502130D01*
X1214773Y502920D01*
X1215563Y503821D01*
X1216229Y504818D01*
X1216759Y505893D01*
X1217144Y507028D01*
X1217378Y508204D01*
X1217457Y509400D01*
X1217378Y510596D01*
X1217144Y511772D01*
X1216759Y512907D01*
X1216229Y513982D01*
X1215563Y514978D01*
X1214773Y515880D01*
X1213872Y516670D01*
X1212875Y517336D01*
X1211800Y517866D01*
X1210665Y518251D01*
X1210333Y518317D01*
Y537315D01*
X1210565Y537429D01*
X1211548Y538087D01*
X1212438Y538867D01*
X1213217Y539756D01*
X1213875Y540739D01*
X1214398Y541800D01*
X1214778Y542920D01*
X1215009Y544081D01*
X1215086Y545261D01*
X1215009Y546441D01*
X1214778Y547602D01*
X1214398Y548722D01*
X1213875Y549783D01*
X1213217Y550766D01*
X1212438Y551656D01*
X1211548Y552436D01*
X1210565Y553093D01*
X1209504Y553616D01*
X1208383Y553996D01*
X1207223Y554227D01*
X1206043Y554304D01*
D02*
G37*
G36*
X967804Y518353D02*
X949516D01*
Y500065D01*
X967804D01*
Y518353D01*
D02*
G37*
G36*
X1136460Y518372D02*
X1135264Y518294D01*
X1134089Y518060D01*
X1132954Y517675D01*
X1131879Y517145D01*
X1130882Y516479D01*
X1129981Y515688D01*
X1129190Y514787D01*
X1128524Y513790D01*
X1127994Y512715D01*
X1127609Y511580D01*
X1127375Y510405D01*
X1127297Y509208D01*
X1127375Y508012D01*
X1127609Y506837D01*
X1127994Y505702D01*
X1128524Y504627D01*
X1129190Y503630D01*
X1129981Y502729D01*
X1130882Y501939D01*
X1131879Y501273D01*
X1132954Y500742D01*
X1134089Y500357D01*
X1135264Y500123D01*
X1136460Y500045D01*
X1137656Y500123D01*
X1138832Y500357D01*
X1139967Y500742D01*
X1141042Y501273D01*
X1142039Y501939D01*
X1142940Y502729D01*
X1143730Y503630D01*
X1144396Y504627D01*
X1144926Y505702D01*
X1145312Y506837D01*
X1145546Y508012D01*
X1145624Y509208D01*
X1145546Y510405D01*
X1145312Y511580D01*
X1144926Y512715D01*
X1144396Y513790D01*
X1143730Y514787D01*
X1142940Y515688D01*
X1142039Y516479D01*
X1141042Y517145D01*
X1139967Y517675D01*
X1138832Y518060D01*
X1137656Y518294D01*
X1136460Y518372D01*
D02*
G37*
G36*
X1111060D02*
X1109864Y518294D01*
X1108689Y518060D01*
X1107554Y517675D01*
X1106479Y517145D01*
X1105482Y516479D01*
X1104581Y515688D01*
X1103790Y514787D01*
X1103124Y513790D01*
X1102594Y512715D01*
X1102209Y511580D01*
X1101975Y510405D01*
X1101897Y509208D01*
X1101975Y508012D01*
X1102209Y506837D01*
X1102594Y505702D01*
X1103124Y504627D01*
X1103790Y503630D01*
X1104581Y502729D01*
X1105482Y501939D01*
X1106479Y501273D01*
X1107554Y500742D01*
X1108689Y500357D01*
X1109864Y500123D01*
X1111060Y500045D01*
X1112256Y500123D01*
X1113432Y500357D01*
X1114567Y500742D01*
X1115642Y501273D01*
X1116639Y501939D01*
X1117540Y502729D01*
X1118330Y503630D01*
X1118996Y504627D01*
X1119526Y505702D01*
X1119912Y506837D01*
X1120145Y508012D01*
X1120224Y509208D01*
X1120145Y510405D01*
X1119912Y511580D01*
X1119526Y512715D01*
X1118996Y513790D01*
X1118330Y514787D01*
X1117540Y515688D01*
X1116639Y516479D01*
X1115642Y517145D01*
X1114567Y517675D01*
X1113432Y518060D01*
X1112256Y518294D01*
X1111060Y518372D01*
D02*
G37*
G36*
X1085660D02*
X1084464Y518294D01*
X1083289Y518060D01*
X1082154Y517675D01*
X1081078Y517145D01*
X1080082Y516479D01*
X1079181Y515688D01*
X1078390Y514787D01*
X1077724Y513790D01*
X1077194Y512715D01*
X1076809Y511580D01*
X1076575Y510405D01*
X1076497Y509208D01*
X1076575Y508012D01*
X1076809Y506837D01*
X1077194Y505702D01*
X1077724Y504627D01*
X1078390Y503630D01*
X1079181Y502729D01*
X1080082Y501939D01*
X1081078Y501273D01*
X1082154Y500742D01*
X1083289Y500357D01*
X1084464Y500123D01*
X1085660Y500045D01*
X1086856Y500123D01*
X1088032Y500357D01*
X1089167Y500742D01*
X1090242Y501273D01*
X1091239Y501939D01*
X1092140Y502729D01*
X1092930Y503630D01*
X1093596Y504627D01*
X1094126Y505702D01*
X1094512Y506837D01*
X1094745Y508012D01*
X1094824Y509208D01*
X1094745Y510405D01*
X1094512Y511580D01*
X1094126Y512715D01*
X1093596Y513790D01*
X1092930Y514787D01*
X1092140Y515688D01*
X1091239Y516479D01*
X1090242Y517145D01*
X1089167Y517675D01*
X1088032Y518060D01*
X1086856Y518294D01*
X1085660Y518372D01*
D02*
G37*
G36*
X1060260D02*
X1059064Y518294D01*
X1057889Y518060D01*
X1056754Y517675D01*
X1055678Y517145D01*
X1054682Y516479D01*
X1053781Y515688D01*
X1052990Y514787D01*
X1052324Y513790D01*
X1051794Y512715D01*
X1051409Y511580D01*
X1051175Y510405D01*
X1051097Y509208D01*
X1051175Y508012D01*
X1051409Y506837D01*
X1051794Y505702D01*
X1052324Y504627D01*
X1052990Y503630D01*
X1053781Y502729D01*
X1054682Y501939D01*
X1055678Y501273D01*
X1056754Y500742D01*
X1057889Y500357D01*
X1059064Y500123D01*
X1060260Y500045D01*
X1061456Y500123D01*
X1062632Y500357D01*
X1063767Y500742D01*
X1064842Y501273D01*
X1065839Y501939D01*
X1066740Y502729D01*
X1067530Y503630D01*
X1068196Y504627D01*
X1068726Y505702D01*
X1069112Y506837D01*
X1069345Y508012D01*
X1069424Y509208D01*
X1069345Y510405D01*
X1069112Y511580D01*
X1068726Y512715D01*
X1068196Y513790D01*
X1067530Y514787D01*
X1066740Y515688D01*
X1065839Y516479D01*
X1064842Y517145D01*
X1063767Y517675D01*
X1062632Y518060D01*
X1061456Y518294D01*
X1060260Y518372D01*
D02*
G37*
G36*
X1013510Y554113D02*
X1012330Y554036D01*
X1011170Y553805D01*
X1010049Y553425D01*
X1008988Y552901D01*
X1008005Y552244D01*
X1007115Y551464D01*
X1006336Y550575D01*
X1005678Y549591D01*
X1005155Y548530D01*
X1004775Y547410D01*
X1004544Y546250D01*
X1004467Y545070D01*
X1004544Y543889D01*
X1004775Y542729D01*
X1005155Y541609D01*
X1005216Y541486D01*
X1005170Y541020D01*
X1005170Y541020D01*
Y517288D01*
X1004878Y517145D01*
X1003882Y516479D01*
X1002981Y515688D01*
X1002190Y514787D01*
X1001524Y513790D01*
X1000994Y512715D01*
X1000609Y511580D01*
X1000375Y510405D01*
X1000297Y509208D01*
X1000375Y508012D01*
X1000609Y506837D01*
X1000994Y505702D01*
X1001524Y504627D01*
X1002190Y503630D01*
X1002981Y502729D01*
X1003882Y501939D01*
X1004878Y501273D01*
X1005954Y500742D01*
X1007089Y500357D01*
X1008264Y500123D01*
X1009460Y500045D01*
X1010656Y500123D01*
X1011832Y500357D01*
X1012967Y500742D01*
X1014042Y501273D01*
X1015039Y501939D01*
X1015940Y502729D01*
X1016730Y503630D01*
X1017396Y504627D01*
X1017926Y505702D01*
X1018312Y506837D01*
X1018546Y508012D01*
X1018624Y509208D01*
X1018546Y510405D01*
X1018312Y511580D01*
X1017926Y512715D01*
X1017396Y513790D01*
X1016730Y514787D01*
X1015940Y515688D01*
X1015039Y516479D01*
X1014042Y517145D01*
X1013751Y517288D01*
Y536042D01*
X1014690Y536104D01*
X1015851Y536334D01*
X1016971Y536715D01*
X1018032Y537238D01*
X1019015Y537895D01*
X1019905Y538675D01*
X1020685Y539564D01*
X1021342Y540548D01*
X1021865Y541609D01*
X1022245Y542729D01*
X1022476Y543889D01*
X1022553Y545070D01*
X1022476Y546250D01*
X1022245Y547410D01*
X1021865Y548530D01*
X1021342Y549591D01*
X1020685Y550575D01*
X1019905Y551464D01*
X1019015Y552244D01*
X1018032Y552901D01*
X1016971Y553425D01*
X1015851Y553805D01*
X1014690Y554036D01*
X1013510Y554113D01*
D02*
G37*
G36*
X981810D02*
X980630Y554036D01*
X979470Y553805D01*
X978350Y553425D01*
X977289Y552901D01*
X976305Y552244D01*
X975416Y551464D01*
X974636Y550575D01*
X973978Y549591D01*
X973455Y548530D01*
X973075Y547410D01*
X972844Y546250D01*
X972767Y545070D01*
X972844Y543889D01*
X973075Y542729D01*
X973455Y541609D01*
X973978Y540548D01*
X974636Y539564D01*
X975416Y538675D01*
X976305Y537895D01*
X977289Y537238D01*
X977520Y537124D01*
Y515619D01*
X976790Y514787D01*
X976124Y513790D01*
X975594Y512715D01*
X975209Y511580D01*
X974975Y510405D01*
X974897Y509208D01*
X974975Y508012D01*
X975209Y506837D01*
X975594Y505702D01*
X976124Y504627D01*
X976790Y503630D01*
X977581Y502729D01*
X978482Y501939D01*
X979479Y501273D01*
X980554Y500742D01*
X981689Y500357D01*
X982864Y500123D01*
X984060Y500045D01*
X985256Y500123D01*
X986432Y500357D01*
X987567Y500742D01*
X988642Y501273D01*
X989639Y501939D01*
X990540Y502729D01*
X991330Y503630D01*
X991996Y504627D01*
X992526Y505702D01*
X992912Y506837D01*
X993146Y508012D01*
X993224Y509208D01*
X993146Y510405D01*
X992912Y511580D01*
X992526Y512715D01*
X991996Y513790D01*
X991330Y514787D01*
X990540Y515688D01*
X989639Y516479D01*
X988642Y517145D01*
X987567Y517675D01*
X986432Y518060D01*
X986101Y518126D01*
Y537124D01*
X986332Y537238D01*
X987315Y537895D01*
X988205Y538675D01*
X988985Y539564D01*
X989642Y540548D01*
X990165Y541609D01*
X990545Y542729D01*
X990776Y543889D01*
X990854Y545070D01*
X990776Y546250D01*
X990545Y547410D01*
X990165Y548530D01*
X989642Y549591D01*
X988985Y550575D01*
X988205Y551464D01*
X987315Y552244D01*
X986332Y552901D01*
X985271Y553425D01*
X984151Y553805D01*
X982991Y554036D01*
X981810Y554113D01*
D02*
G37*
G36*
X767080Y709548D02*
X765638Y709453D01*
X764221Y709171D01*
X762852Y708707D01*
X761556Y708067D01*
X760355Y707265D01*
X759268Y706312D01*
X758315Y705225D01*
X757513Y704024D01*
X756873Y702728D01*
X756409Y701359D01*
X756127Y699942D01*
X756032Y698500D01*
X756127Y697058D01*
X756409Y695641D01*
X756873Y694272D01*
X757513Y692976D01*
X758315Y691775D01*
X759268Y690688D01*
X760355Y689735D01*
X761013Y689295D01*
Y669771D01*
X737390Y646148D01*
X736772Y645424D01*
X736274Y644612D01*
X735910Y643733D01*
X735688Y642807D01*
X735613Y641858D01*
X735613Y641858D01*
Y575304D01*
X729176D01*
Y476256D01*
X820224D01*
Y575304D01*
X747747D01*
Y639345D01*
X771370Y662968D01*
X771370Y662968D01*
X771988Y663692D01*
X772486Y664504D01*
X772850Y665383D01*
X773072Y666309D01*
X773147Y667258D01*
X773147Y667258D01*
Y689295D01*
X773805Y689735D01*
X774892Y690688D01*
X775845Y691775D01*
X776647Y692976D01*
X777287Y694272D01*
X777751Y695641D01*
X778033Y697058D01*
X778128Y698500D01*
X778033Y699942D01*
X777751Y701359D01*
X777287Y702728D01*
X776647Y704024D01*
X775845Y705225D01*
X774892Y706312D01*
X773805Y707265D01*
X772604Y708067D01*
X771308Y708707D01*
X769939Y709171D01*
X768522Y709453D01*
X767080Y709548D01*
D02*
G37*
G36*
X1148080Y469718D02*
Y461010D01*
X1156788D01*
X1156785Y461053D01*
X1156529Y462344D01*
X1156106Y463590D01*
X1155524Y464771D01*
X1154792Y465865D01*
X1153925Y466855D01*
X1152935Y467722D01*
X1151841Y468453D01*
X1150660Y469036D01*
X1149414Y469459D01*
X1148123Y469715D01*
X1148080Y469718D01*
D02*
G37*
G36*
X1122680D02*
Y461010D01*
X1131388D01*
X1131385Y461053D01*
X1131129Y462344D01*
X1130706Y463590D01*
X1130124Y464771D01*
X1129392Y465865D01*
X1128525Y466855D01*
X1127535Y467722D01*
X1126441Y468453D01*
X1125260Y469036D01*
X1124014Y469459D01*
X1122723Y469715D01*
X1122680Y469718D01*
D02*
G37*
G36*
X1145540D02*
X1145497Y469715D01*
X1144206Y469459D01*
X1142960Y469036D01*
X1141779Y468453D01*
X1140685Y467722D01*
X1139695Y466855D01*
X1138828Y465865D01*
X1138096Y464771D01*
X1137514Y463590D01*
X1137091Y462344D01*
X1136835Y461053D01*
X1136832Y461010D01*
X1145540D01*
Y469718D01*
D02*
G37*
G36*
X1120140D02*
X1120097Y469715D01*
X1118806Y469459D01*
X1117560Y469036D01*
X1116379Y468453D01*
X1115285Y467722D01*
X1114295Y466855D01*
X1113428Y465865D01*
X1112697Y464771D01*
X1112114Y463590D01*
X1111691Y462344D01*
X1111435Y461053D01*
X1111432Y461010D01*
X1120140D01*
Y469718D01*
D02*
G37*
G36*
X1359034Y468764D02*
X1340986D01*
Y450716D01*
X1359034D01*
Y468764D01*
D02*
G37*
G36*
X1181234D02*
X1163186D01*
Y450716D01*
X1181234D01*
Y468764D01*
D02*
G37*
G36*
X1299210Y468783D02*
X1298030Y468706D01*
X1296869Y468475D01*
X1295749Y468095D01*
X1294688Y467572D01*
X1293705Y466915D01*
X1292815Y466135D01*
X1292035Y465245D01*
X1291378Y464262D01*
X1290855Y463201D01*
X1290475Y462081D01*
X1290244Y460920D01*
X1290167Y459740D01*
X1290244Y458560D01*
X1290475Y457399D01*
X1290855Y456279D01*
X1291378Y455218D01*
X1292035Y454235D01*
X1292815Y453345D01*
X1293705Y452565D01*
X1294688Y451908D01*
X1295749Y451385D01*
X1296869Y451005D01*
X1298030Y450774D01*
X1299210Y450697D01*
X1300390Y450774D01*
X1301551Y451005D01*
X1302671Y451385D01*
X1303732Y451908D01*
X1304715Y452565D01*
X1305605Y453345D01*
X1306385Y454235D01*
X1307042Y455218D01*
X1307565Y456279D01*
X1307945Y457399D01*
X1308176Y458560D01*
X1308253Y459740D01*
X1308176Y460920D01*
X1307945Y462081D01*
X1307565Y463201D01*
X1307042Y464262D01*
X1306385Y465245D01*
X1305605Y466135D01*
X1304715Y466915D01*
X1303732Y467572D01*
X1302671Y468095D01*
X1301551Y468475D01*
X1300390Y468706D01*
X1299210Y468783D01*
D02*
G37*
G36*
X1273810D02*
X1272630Y468706D01*
X1271469Y468475D01*
X1270349Y468095D01*
X1269288Y467572D01*
X1268305Y466915D01*
X1267415Y466135D01*
X1266635Y465245D01*
X1265978Y464262D01*
X1265455Y463201D01*
X1265075Y462081D01*
X1264844Y460920D01*
X1264767Y459740D01*
X1264844Y458560D01*
X1265075Y457399D01*
X1265455Y456279D01*
X1265978Y455218D01*
X1266635Y454235D01*
X1267415Y453345D01*
X1268305Y452565D01*
X1269288Y451908D01*
X1270349Y451385D01*
X1271469Y451005D01*
X1272630Y450774D01*
X1273810Y450697D01*
X1274990Y450774D01*
X1276151Y451005D01*
X1277271Y451385D01*
X1278332Y451908D01*
X1279315Y452565D01*
X1280205Y453345D01*
X1280985Y454235D01*
X1281642Y455218D01*
X1282165Y456279D01*
X1282545Y457399D01*
X1282776Y458560D01*
X1282853Y459740D01*
X1282776Y460920D01*
X1282545Y462081D01*
X1282165Y463201D01*
X1281642Y464262D01*
X1280985Y465245D01*
X1280205Y466135D01*
X1279315Y466915D01*
X1278332Y467572D01*
X1277271Y468095D01*
X1276151Y468475D01*
X1274990Y468706D01*
X1273810Y468783D01*
D02*
G37*
G36*
X1248410D02*
X1247230Y468706D01*
X1246069Y468475D01*
X1244949Y468095D01*
X1243888Y467572D01*
X1242905Y466915D01*
X1242015Y466135D01*
X1241235Y465245D01*
X1240578Y464262D01*
X1240055Y463201D01*
X1239675Y462081D01*
X1239444Y460920D01*
X1239367Y459740D01*
X1239444Y458560D01*
X1239675Y457399D01*
X1240055Y456279D01*
X1240578Y455218D01*
X1241235Y454235D01*
X1242015Y453345D01*
X1242905Y452565D01*
X1243888Y451908D01*
X1244949Y451385D01*
X1246069Y451005D01*
X1247230Y450774D01*
X1248410Y450697D01*
X1249590Y450774D01*
X1250751Y451005D01*
X1251871Y451385D01*
X1252932Y451908D01*
X1253915Y452565D01*
X1254805Y453345D01*
X1255585Y454235D01*
X1256242Y455218D01*
X1256765Y456279D01*
X1257145Y457399D01*
X1257376Y458560D01*
X1257453Y459740D01*
X1257376Y460920D01*
X1257145Y462081D01*
X1256765Y463201D01*
X1256242Y464262D01*
X1255585Y465245D01*
X1254805Y466135D01*
X1253915Y466915D01*
X1252932Y467572D01*
X1251871Y468095D01*
X1250751Y468475D01*
X1249590Y468706D01*
X1248410Y468783D01*
D02*
G37*
G36*
X1223010D02*
X1221830Y468706D01*
X1220669Y468475D01*
X1219549Y468095D01*
X1218488Y467572D01*
X1217505Y466915D01*
X1216615Y466135D01*
X1215835Y465245D01*
X1215178Y464262D01*
X1214655Y463201D01*
X1214275Y462081D01*
X1214044Y460920D01*
X1213967Y459740D01*
X1214044Y458560D01*
X1214275Y457399D01*
X1214655Y456279D01*
X1215178Y455218D01*
X1215835Y454235D01*
X1216615Y453345D01*
X1217505Y452565D01*
X1218488Y451908D01*
X1219549Y451385D01*
X1220669Y451005D01*
X1221830Y450774D01*
X1223010Y450697D01*
X1224190Y450774D01*
X1225351Y451005D01*
X1226471Y451385D01*
X1227532Y451908D01*
X1228515Y452565D01*
X1229405Y453345D01*
X1230185Y454235D01*
X1230842Y455218D01*
X1231365Y456279D01*
X1231745Y457399D01*
X1231976Y458560D01*
X1232053Y459740D01*
X1231976Y460920D01*
X1231745Y462081D01*
X1231365Y463201D01*
X1230842Y464262D01*
X1230185Y465245D01*
X1229405Y466135D01*
X1228515Y466915D01*
X1227532Y467572D01*
X1226471Y468095D01*
X1225351Y468475D01*
X1224190Y468706D01*
X1223010Y468783D01*
D02*
G37*
G36*
X1096010D02*
X1094830Y468706D01*
X1093669Y468475D01*
X1092549Y468095D01*
X1091488Y467572D01*
X1090505Y466915D01*
X1089615Y466135D01*
X1088835Y465245D01*
X1088178Y464262D01*
X1087655Y463201D01*
X1087275Y462081D01*
X1087044Y460920D01*
X1086967Y459740D01*
X1087044Y458560D01*
X1087275Y457399D01*
X1087655Y456279D01*
X1088178Y455218D01*
X1088835Y454235D01*
X1089615Y453345D01*
X1090505Y452565D01*
X1091488Y451908D01*
X1092549Y451385D01*
X1093669Y451005D01*
X1094830Y450774D01*
X1096010Y450697D01*
X1097190Y450774D01*
X1098351Y451005D01*
X1099471Y451385D01*
X1100532Y451908D01*
X1101515Y452565D01*
X1102405Y453345D01*
X1103185Y454235D01*
X1103842Y455218D01*
X1104365Y456279D01*
X1104745Y457399D01*
X1104976Y458560D01*
X1105053Y459740D01*
X1104976Y460920D01*
X1104745Y462081D01*
X1104365Y463201D01*
X1103842Y464262D01*
X1103185Y465245D01*
X1102405Y466135D01*
X1101515Y466915D01*
X1100532Y467572D01*
X1099471Y468095D01*
X1098351Y468475D01*
X1097190Y468706D01*
X1096010Y468783D01*
D02*
G37*
G36*
X1045210D02*
X1044030Y468706D01*
X1042869Y468475D01*
X1041749Y468095D01*
X1040688Y467572D01*
X1039705Y466915D01*
X1038815Y466135D01*
X1038035Y465245D01*
X1037378Y464262D01*
X1036855Y463201D01*
X1036475Y462081D01*
X1036244Y460920D01*
X1036167Y459740D01*
X1036244Y458560D01*
X1036475Y457399D01*
X1036855Y456279D01*
X1037378Y455218D01*
X1038035Y454235D01*
X1038815Y453345D01*
X1039705Y452565D01*
X1040688Y451908D01*
X1041749Y451385D01*
X1042869Y451005D01*
X1044030Y450774D01*
X1045210Y450697D01*
X1046390Y450774D01*
X1047551Y451005D01*
X1048671Y451385D01*
X1049732Y451908D01*
X1050715Y452565D01*
X1051605Y453345D01*
X1052385Y454235D01*
X1053042Y455218D01*
X1053565Y456279D01*
X1053945Y457399D01*
X1054176Y458560D01*
X1054253Y459740D01*
X1054176Y460920D01*
X1053945Y462081D01*
X1053565Y463201D01*
X1053042Y464262D01*
X1052385Y465245D01*
X1051605Y466135D01*
X1050715Y466915D01*
X1049732Y467572D01*
X1048671Y468095D01*
X1047551Y468475D01*
X1046390Y468706D01*
X1045210Y468783D01*
D02*
G37*
G36*
X1019810D02*
X1018630Y468706D01*
X1017469Y468475D01*
X1016349Y468095D01*
X1015288Y467572D01*
X1014305Y466915D01*
X1013415Y466135D01*
X1012635Y465245D01*
X1011978Y464262D01*
X1011455Y463201D01*
X1011075Y462081D01*
X1010844Y460920D01*
X1010767Y459740D01*
X1010844Y458560D01*
X1011075Y457399D01*
X1011455Y456279D01*
X1011978Y455218D01*
X1012635Y454235D01*
X1013415Y453345D01*
X1014305Y452565D01*
X1015288Y451908D01*
X1016349Y451385D01*
X1017469Y451005D01*
X1018630Y450774D01*
X1019810Y450697D01*
X1020990Y450774D01*
X1022151Y451005D01*
X1023271Y451385D01*
X1024332Y451908D01*
X1025315Y452565D01*
X1026205Y453345D01*
X1026985Y454235D01*
X1027642Y455218D01*
X1028165Y456279D01*
X1028545Y457399D01*
X1028776Y458560D01*
X1028853Y459740D01*
X1028776Y460920D01*
X1028545Y462081D01*
X1028165Y463201D01*
X1027642Y464262D01*
X1026985Y465245D01*
X1026205Y466135D01*
X1025315Y466915D01*
X1024332Y467572D01*
X1023271Y468095D01*
X1022151Y468475D01*
X1020990Y468706D01*
X1019810Y468783D01*
D02*
G37*
G36*
X994410D02*
X993230Y468706D01*
X992069Y468475D01*
X990949Y468095D01*
X989888Y467572D01*
X988905Y466915D01*
X988015Y466135D01*
X987235Y465245D01*
X986578Y464262D01*
X986055Y463201D01*
X985675Y462081D01*
X985444Y460920D01*
X985367Y459740D01*
X985444Y458560D01*
X985675Y457399D01*
X986055Y456279D01*
X986578Y455218D01*
X987235Y454235D01*
X988015Y453345D01*
X988905Y452565D01*
X989888Y451908D01*
X990949Y451385D01*
X992069Y451005D01*
X993230Y450774D01*
X994410Y450697D01*
X995590Y450774D01*
X996751Y451005D01*
X997871Y451385D01*
X998932Y451908D01*
X999915Y452565D01*
X1000805Y453345D01*
X1001585Y454235D01*
X1002242Y455218D01*
X1002765Y456279D01*
X1003145Y457399D01*
X1003376Y458560D01*
X1003453Y459740D01*
X1003376Y460920D01*
X1003145Y462081D01*
X1002765Y463201D01*
X1002242Y464262D01*
X1001585Y465245D01*
X1000805Y466135D01*
X999915Y466915D01*
X998932Y467572D01*
X997871Y468095D01*
X996751Y468475D01*
X995590Y468706D01*
X994410Y468783D01*
D02*
G37*
G36*
X1156788Y458470D02*
X1148080D01*
Y449762D01*
X1148123Y449765D01*
X1149414Y450021D01*
X1150660Y450444D01*
X1151841Y451026D01*
X1152935Y451758D01*
X1153925Y452625D01*
X1154792Y453615D01*
X1155524Y454709D01*
X1156106Y455890D01*
X1156529Y457136D01*
X1156785Y458427D01*
X1156788Y458470D01*
D02*
G37*
G36*
X1131388D02*
X1122680D01*
Y449762D01*
X1122723Y449765D01*
X1124014Y450021D01*
X1125260Y450444D01*
X1126441Y451026D01*
X1127535Y451758D01*
X1128525Y452625D01*
X1129392Y453615D01*
X1130124Y454709D01*
X1130706Y455890D01*
X1131129Y457136D01*
X1131385Y458427D01*
X1131388Y458470D01*
D02*
G37*
G36*
X1145540D02*
X1136832D01*
X1136835Y458427D01*
X1137091Y457136D01*
X1137514Y455890D01*
X1138096Y454709D01*
X1138828Y453615D01*
X1139695Y452625D01*
X1140685Y451758D01*
X1141779Y451026D01*
X1142960Y450444D01*
X1144206Y450021D01*
X1145497Y449765D01*
X1145540Y449762D01*
Y458470D01*
D02*
G37*
G36*
X1120140D02*
X1111432D01*
X1111435Y458427D01*
X1111691Y457136D01*
X1112114Y455890D01*
X1112697Y454709D01*
X1113428Y453615D01*
X1114295Y452625D01*
X1115285Y451758D01*
X1116379Y451026D01*
X1117560Y450444D01*
X1118806Y450021D01*
X1120097Y449765D01*
X1120140Y449762D01*
Y458470D01*
D02*
G37*
%LPD*%
D11*
X931305Y926208D02*
X1042767D01*
X821926Y816829D02*
X931305Y926208D01*
X821926Y761764D02*
Y816829D01*
X876700Y551180D02*
X893564Y534316D01*
X907890D01*
X876700Y500380D02*
X895636Y519316D01*
X907890D01*
X1267091Y545261D02*
X1269443D01*
X1263147Y541318D02*
X1267091Y545261D01*
X1263147Y513454D02*
Y541318D01*
X1259093Y509400D02*
X1263147Y513454D01*
X1162058Y505013D02*
Y526677D01*
X1144581Y487536D02*
X1162058Y505013D01*
X1098406Y487536D02*
X1144581D01*
X1070610Y459740D02*
X1098406Y487536D01*
X1162058Y526677D02*
X1206043Y570661D01*
X1009460Y541020D02*
X1013510Y545070D01*
X1009460Y509208D02*
Y541020D01*
X1040255Y540114D02*
X1045210Y545070D01*
X1040255Y514603D02*
Y540114D01*
X1034860Y509208D02*
X1040255Y514603D01*
X1055370Y938811D02*
Y942340D01*
X1042767Y926208D02*
X1055370Y938811D01*
X1057549Y919119D02*
X1080770Y942340D01*
X967379Y919119D02*
X1057549D01*
X849630Y801370D02*
X967379Y919119D01*
X1306047Y441177D02*
X1324610Y459740D01*
X935903Y441177D02*
X1306047D01*
X876700Y500380D02*
X935903Y441177D01*
X1360693Y728140D02*
X1374709Y742156D01*
Y942340D01*
X1206043Y570661D02*
Y574456D01*
X1195749Y584750D02*
X1206043Y574456D01*
X1195749Y584750D02*
Y768265D01*
X1206043Y778559D01*
Y789401D01*
X1360351Y956698D02*
X1374709Y942340D01*
X1197410Y956698D02*
X1360351D01*
X1183052Y942340D02*
X1197410Y956698D01*
X1172210Y942340D02*
X1183052D01*
X1111060Y739341D02*
X1155409Y783690D01*
Y916781D01*
X821926Y761764D02*
X849630Y734060D01*
X1279151Y922281D02*
X1299210Y942340D01*
X1160909Y922281D02*
X1279151D01*
X1111060Y727949D02*
Y739341D01*
X1155409Y916781D02*
X1160909Y922281D01*
X1335293Y509400D02*
Y512849D01*
X981810Y730199D02*
Y763810D01*
Y730199D02*
X984060Y727949D01*
X1013510Y731999D02*
Y763810D01*
X1009460Y727949D02*
X1013510Y731999D01*
X1045210Y738298D02*
Y763810D01*
X1034860Y727949D02*
X1045210Y738298D01*
X1013510Y789210D02*
X1045210D01*
X981810D02*
X1013510D01*
X1034860Y828279D02*
X1037774Y831193D01*
X1259093Y828470D02*
X1262007Y831384D01*
X1206043Y789401D02*
X1237743D01*
X1269443D01*
X1259093Y728140D02*
X1269443Y738490D01*
Y764001D01*
X1233693Y728140D02*
X1237743Y732190D01*
Y764001D01*
X1206043Y730390D02*
X1208293Y728140D01*
X1206043Y730390D02*
Y764001D01*
Y511650D02*
Y545261D01*
Y511650D02*
X1208293Y509400D01*
X1237743Y513450D02*
Y545261D01*
X1233693Y509400D02*
X1237743Y513450D01*
Y570661D02*
X1269443D01*
X1206043D02*
X1237743D01*
X1259093Y609730D02*
X1262007Y612644D01*
X1034860Y609538D02*
X1037774Y612452D01*
X981810Y570470D02*
X1013510D01*
X1045210D01*
X981810Y511459D02*
X984060Y509208D01*
X981810Y511459D02*
Y545070D01*
X741680Y525780D02*
X774700D01*
X1172210Y937260D02*
Y942340D01*
D31*
X880343Y681408D02*
D03*
Y610288D02*
D03*
D32*
X907890Y519316D02*
D03*
Y534316D02*
D03*
D33*
X876700Y500380D02*
D03*
Y551180D02*
D03*
D34*
X774700Y525780D02*
D03*
D35*
X741680D02*
Y641858D01*
X767080Y667258D02*
Y698500D01*
X741680Y641858D02*
X767080Y667258D01*
X1088574Y888416D02*
Y902407D01*
X1055774D02*
X1088574D01*
X1049895Y896528D02*
X1055774Y902407D01*
X883494Y684559D02*
X958514Y609538D01*
X880343Y699871D02*
X883494D01*
X880343Y687710D02*
X883494Y684559D01*
X800253Y699871D02*
X880343D01*
X767080Y733044D02*
X800253Y699871D01*
X880343D02*
Y749962D01*
Y687710D02*
Y699871D01*
X883494D02*
X1092752D01*
X883494Y684559D02*
Y699871D01*
X1092752D02*
X1182893Y609730D01*
X880343Y681408D02*
X883494Y684559D01*
X1182893Y609730D02*
Y699996D01*
X1168821Y714068D02*
X1182893Y699996D01*
X1168821Y714068D02*
Y739534D01*
X1182893Y753606D01*
Y828470D01*
X958514Y609538D02*
X958660D01*
X1013644Y832463D02*
Y888416D01*
X1037774Y831193D02*
Y888416D01*
X880343Y749962D02*
X958660Y828279D01*
X1009460D02*
X1013644Y832463D01*
X1063174Y850765D02*
X1085660Y828279D01*
X1049895Y838644D02*
Y896528D01*
X1262007Y831384D02*
Y888607D01*
X1274128Y896720D02*
X1279815Y902407D01*
X1274128Y838836D02*
Y896720D01*
X1237877Y832654D02*
Y888607D01*
X1287407Y850956D02*
Y888607D01*
Y850956D02*
X1309893Y828470D01*
X1063174Y632025D02*
Y669675D01*
Y632025D02*
X1085660Y609538D01*
X1063174Y850765D02*
Y888416D01*
X1049895Y838644D02*
X1060260Y828279D01*
X1274128Y838836D02*
X1284493Y828470D01*
X1279815Y902407D02*
X1312807D01*
Y888607D02*
Y902407D01*
X1233693Y828470D02*
X1237877Y832654D01*
X1262007Y612644D02*
Y669867D01*
X1237877Y613914D02*
Y669867D01*
X1233693Y609730D02*
X1237877Y613914D01*
X1287407Y632216D02*
Y669867D01*
Y632216D02*
X1309893Y609730D01*
X1312807Y669867D02*
Y683667D01*
X1279815D02*
X1312807D01*
X1274128Y620095D02*
X1284493Y609730D01*
X1274128Y620095D02*
Y677979D01*
X1279815Y683667D01*
X1049895Y677788D02*
X1055583Y683476D01*
X1049895Y619904D02*
Y677788D01*
Y619904D02*
X1060260Y609538D01*
X1055583Y683476D02*
X1088574D01*
Y669675D02*
Y683476D01*
X1009460Y609538D02*
X1013644Y613722D01*
Y669675D01*
X1037774Y612452D02*
Y669675D01*
X753364Y763016D02*
X767080Y749300D01*
X753364Y763016D02*
Y885444D01*
X768350Y900430D01*
X767080Y733044D02*
Y749300D01*
D36*
X1233693Y728140D02*
D03*
X1208293D02*
D03*
X1284493D02*
D03*
X1259093D02*
D03*
X1309893D02*
D03*
X1335293D02*
D03*
X1360693D02*
D03*
Y828470D02*
D03*
X1335293D02*
D03*
X1309893D02*
D03*
X1259093D02*
D03*
X1284493D02*
D03*
X1208293D02*
D03*
X1182893D02*
D03*
X1233693D02*
D03*
X1009460Y727949D02*
D03*
X984060D02*
D03*
X1060260D02*
D03*
X1034860D02*
D03*
X1085660D02*
D03*
X1111060D02*
D03*
X1136460D02*
D03*
Y828279D02*
D03*
X1111060D02*
D03*
X1085660D02*
D03*
X1034860D02*
D03*
X1060260D02*
D03*
X984060D02*
D03*
X958660D02*
D03*
X1009460D02*
D03*
X1233693Y509400D02*
D03*
X1208293D02*
D03*
X1284493D02*
D03*
X1259093D02*
D03*
X1309893D02*
D03*
X1335293D02*
D03*
X1360693D02*
D03*
Y609730D02*
D03*
X1335293D02*
D03*
X1309893D02*
D03*
X1259093D02*
D03*
X1284493D02*
D03*
X1208293D02*
D03*
X1182893D02*
D03*
X1233693D02*
D03*
X1009460Y509208D02*
D03*
X984060D02*
D03*
X1060260D02*
D03*
X1034860D02*
D03*
X1085660D02*
D03*
X1111060D02*
D03*
X1136460D02*
D03*
Y609538D02*
D03*
X1111060D02*
D03*
X1085660D02*
D03*
X1034860D02*
D03*
X1060260D02*
D03*
X984060D02*
D03*
X958660D02*
D03*
X1009460D02*
D03*
D37*
X1182893Y728140D02*
D03*
X958660Y727949D02*
D03*
X1182893Y509400D02*
D03*
X958660Y509208D02*
D03*
D38*
X768350Y849630D02*
D03*
X767080Y698500D02*
D03*
D39*
X768350Y900430D02*
D03*
X767080Y749300D02*
D03*
D40*
X849630Y734060D02*
D03*
Y801370D02*
D03*
Y868680D02*
D03*
X765810Y600710D02*
D03*
D41*
X849630Y759460D02*
D03*
Y826770D02*
D03*
Y894080D02*
D03*
X765810Y626110D02*
D03*
D42*
X1172210Y942340D02*
D03*
X1197610D02*
D03*
X1223010D02*
D03*
X1248410D02*
D03*
X1273810D02*
D03*
X1299210D02*
D03*
X1324610D02*
D03*
X981810Y763810D02*
D03*
X1013510D02*
D03*
X1045210D02*
D03*
X1269443Y764001D02*
D03*
X1237743D02*
D03*
X1206043D02*
D03*
Y545261D02*
D03*
X1237743D02*
D03*
X1269443D02*
D03*
X1045210Y545070D02*
D03*
X1013510D02*
D03*
X981810D02*
D03*
X1223010Y459740D02*
D03*
X1248410D02*
D03*
X1273810D02*
D03*
X1299210D02*
D03*
X1324610D02*
D03*
X1146810D02*
D03*
X1121410D02*
D03*
X1096010D02*
D03*
X1070610D02*
D03*
X1045210D02*
D03*
X1019810D02*
D03*
X994410D02*
D03*
X1080770Y942340D02*
D03*
X902970D02*
D03*
X928370D02*
D03*
X953770D02*
D03*
X979170D02*
D03*
X1004570D02*
D03*
X1029970D02*
D03*
X1055370D02*
D03*
X1106170D02*
D03*
D43*
X1350010D02*
D03*
Y459740D02*
D03*
X1172210D02*
D03*
X1131570Y942340D02*
D03*
D44*
X1013644Y888416D02*
D03*
X1063174D02*
D03*
X1037774D02*
D03*
X1237877Y888607D02*
D03*
X1287407D02*
D03*
X1262007D02*
D03*
X1237877Y669867D02*
D03*
X1287407D02*
D03*
X1262007D02*
D03*
X1037774Y669675D02*
D03*
X1063174D02*
D03*
X1013644D02*
D03*
D45*
X1088574Y888416D02*
D03*
X1312807Y888607D02*
D03*
Y669867D02*
D03*
X1088574Y669675D02*
D03*
D46*
X981810Y789210D02*
D03*
X1013510D02*
D03*
X1045210D02*
D03*
X1269443Y789401D02*
D03*
X1237743D02*
D03*
X1206043D02*
D03*
Y570661D02*
D03*
X1237743D02*
D03*
X1269443D02*
D03*
X1045210Y570470D02*
D03*
X1013510D02*
D03*
X981810D02*
D03*
M02*
