G04*
G04 #@! TF.GenerationSoftware,Altium Limited,Altium Designer,18.1.7 (191)*
G04*
G04 Layer_Color=8388736*
%FSLAX44Y44*%
%MOMM*%
G71*
G01*
G75*
%ADD16R,2.2032X4.2032*%
%ADD17R,1.1032X0.9032*%
%ADD18R,4.3532X1.2532*%
%ADD19R,9.0032X9.8032*%
%ADD20C,1.7272*%
%ADD21R,1.7272X1.7272*%
%ADD22C,2.1032*%
%ADD23R,2.1032X2.1032*%
%ADD24R,2.0032X2.0032*%
%ADD25C,2.0032*%
%ADD26C,1.7032*%
%ADD27R,1.7032X1.7032*%
%ADD28C,1.6032*%
%ADD29R,1.6032X1.6032*%
%ADD30R,1.7032X1.7032*%
D16*
X880343Y681408D02*
D03*
Y610288D02*
D03*
D17*
X907890Y519316D02*
D03*
Y534316D02*
D03*
D18*
X876700Y500380D02*
D03*
Y551180D02*
D03*
D19*
X774700Y525780D02*
D03*
D20*
X1233693Y728140D02*
D03*
X1208293D02*
D03*
X1284493D02*
D03*
X1259093D02*
D03*
X1309893D02*
D03*
X1335293D02*
D03*
X1360693D02*
D03*
Y828470D02*
D03*
X1335293D02*
D03*
X1309893D02*
D03*
X1259093D02*
D03*
X1284493D02*
D03*
X1208293D02*
D03*
X1182893D02*
D03*
X1233693D02*
D03*
X1009460Y727949D02*
D03*
X984060D02*
D03*
X1060260D02*
D03*
X1034860D02*
D03*
X1085660D02*
D03*
X1111060D02*
D03*
X1136460D02*
D03*
Y828279D02*
D03*
X1111060D02*
D03*
X1085660D02*
D03*
X1034860D02*
D03*
X1060260D02*
D03*
X984060D02*
D03*
X958660D02*
D03*
X1009460D02*
D03*
X1233693Y509400D02*
D03*
X1208293D02*
D03*
X1284493D02*
D03*
X1259093D02*
D03*
X1309893D02*
D03*
X1335293D02*
D03*
X1360693D02*
D03*
Y609730D02*
D03*
X1335293D02*
D03*
X1309893D02*
D03*
X1259093D02*
D03*
X1284493D02*
D03*
X1208293D02*
D03*
X1182893D02*
D03*
X1233693D02*
D03*
X1009460Y509208D02*
D03*
X984060D02*
D03*
X1060260D02*
D03*
X1034860D02*
D03*
X1085660D02*
D03*
X1111060D02*
D03*
X1136460D02*
D03*
Y609538D02*
D03*
X1111060D02*
D03*
X1085660D02*
D03*
X1034860D02*
D03*
X1060260D02*
D03*
X984060D02*
D03*
X958660D02*
D03*
X1009460D02*
D03*
D21*
X1182893Y728140D02*
D03*
X958660Y727949D02*
D03*
X1182893Y509400D02*
D03*
X958660Y509208D02*
D03*
D22*
X768350Y849630D02*
D03*
X767080Y698500D02*
D03*
D23*
X768350Y900430D02*
D03*
X767080Y749300D02*
D03*
D24*
X849630Y734060D02*
D03*
Y801370D02*
D03*
Y868680D02*
D03*
X765810Y600710D02*
D03*
D25*
X849630Y759460D02*
D03*
Y826770D02*
D03*
Y894080D02*
D03*
X765810Y626110D02*
D03*
D26*
X1172210Y942340D02*
D03*
X1197610D02*
D03*
X1223010D02*
D03*
X1248410D02*
D03*
X1273810D02*
D03*
X1299210D02*
D03*
X1324610D02*
D03*
X981810Y763810D02*
D03*
X1013510D02*
D03*
X1045210D02*
D03*
X1269443Y764001D02*
D03*
X1237743D02*
D03*
X1206043D02*
D03*
Y545261D02*
D03*
X1237743D02*
D03*
X1269443D02*
D03*
X1045210Y545070D02*
D03*
X1013510D02*
D03*
X981810D02*
D03*
X1223010Y459740D02*
D03*
X1248410D02*
D03*
X1273810D02*
D03*
X1299210D02*
D03*
X1324610D02*
D03*
X1146810D02*
D03*
X1121410D02*
D03*
X1096010D02*
D03*
X1070610D02*
D03*
X1045210D02*
D03*
X1019810D02*
D03*
X994410D02*
D03*
X1080770Y942340D02*
D03*
X902970D02*
D03*
X928370D02*
D03*
X953770D02*
D03*
X979170D02*
D03*
X1004570D02*
D03*
X1029970D02*
D03*
X1055370D02*
D03*
X1106170D02*
D03*
D27*
X1350010D02*
D03*
Y459740D02*
D03*
X1172210D02*
D03*
X1131570Y942340D02*
D03*
D28*
X1013644Y888416D02*
D03*
X1063174D02*
D03*
X1037774D02*
D03*
X1237877Y888607D02*
D03*
X1287407D02*
D03*
X1262007D02*
D03*
X1237877Y669867D02*
D03*
X1287407D02*
D03*
X1262007D02*
D03*
X1037774Y669675D02*
D03*
X1063174D02*
D03*
X1013644D02*
D03*
D29*
X1088574Y888416D02*
D03*
X1312807Y888607D02*
D03*
Y669867D02*
D03*
X1088574Y669675D02*
D03*
D30*
X981810Y789210D02*
D03*
X1013510D02*
D03*
X1045210D02*
D03*
X1269443Y789401D02*
D03*
X1237743D02*
D03*
X1206043D02*
D03*
Y570661D02*
D03*
X1237743D02*
D03*
X1269443D02*
D03*
X1045210Y570470D02*
D03*
X1013510D02*
D03*
X981810D02*
D03*
M02*
