G04*
G04 #@! TF.GenerationSoftware,Altium Limited,Altium Designer,18.1.7 (191)*
G04*
G04 Layer_Physical_Order=2*
G04 Layer_Color=16711680*
%FSLAX44Y44*%
%MOMM*%
G71*
G01*
G75*
%ADD11C,0.2540*%
%ADD36C,1.5240*%
%ADD37R,1.5240X1.5240*%
%ADD38C,1.9000*%
%ADD39R,1.9000X1.9000*%
%ADD40R,1.8000X1.8000*%
%ADD41C,1.8000*%
%ADD42C,1.5000*%
%ADD43R,1.5000X1.5000*%
%ADD44C,1.4000*%
%ADD45R,1.4000X1.4000*%
%ADD46R,1.5000X1.5000*%
G36*
X1397568Y955877D02*
X1397246Y446423D01*
X1389959Y439136D01*
X726941Y439136D01*
X718344Y447766D01*
X718301Y956690D01*
X726278Y964667D01*
X1238318Y964667D01*
X1238507Y963397D01*
X1238441Y963378D01*
X1237700Y962981D01*
X1237049Y962447D01*
X1237049Y962447D01*
X1225594Y950992D01*
X1225351Y951075D01*
X1224190Y951306D01*
X1223010Y951383D01*
X1221830Y951306D01*
X1220669Y951075D01*
X1219549Y950695D01*
X1218488Y950172D01*
X1217505Y949515D01*
X1216615Y948735D01*
X1215835Y947845D01*
X1215178Y946862D01*
X1214655Y945801D01*
X1214275Y944681D01*
X1214044Y943520D01*
X1213967Y942340D01*
X1214044Y941160D01*
X1214275Y939999D01*
X1214655Y938879D01*
X1215178Y937818D01*
X1215835Y936835D01*
X1216615Y935945D01*
X1217505Y935165D01*
X1218488Y934508D01*
X1219549Y933985D01*
X1220669Y933605D01*
X1221830Y933374D01*
X1223010Y933297D01*
X1224190Y933374D01*
X1225351Y933605D01*
X1226471Y933985D01*
X1227532Y934508D01*
X1228515Y935165D01*
X1229405Y935945D01*
X1230185Y936835D01*
X1230842Y937818D01*
X1231365Y938879D01*
X1231745Y939999D01*
X1231976Y941160D01*
X1232053Y942340D01*
X1231976Y943520D01*
X1231745Y944681D01*
X1231662Y944924D01*
X1241861Y955123D01*
X1257779D01*
X1258265Y953950D01*
X1257767Y953452D01*
X1257233Y952801D01*
X1256837Y952059D01*
X1256592Y951255D01*
X1256510Y950417D01*
X1256510Y950417D01*
Y948716D01*
X1255240Y948238D01*
X1254805Y948735D01*
X1253915Y949515D01*
X1252932Y950172D01*
X1251871Y950695D01*
X1250751Y951075D01*
X1249590Y951306D01*
X1248410Y951383D01*
X1247230Y951306D01*
X1246069Y951075D01*
X1244949Y950695D01*
X1243888Y950172D01*
X1242905Y949515D01*
X1242015Y948735D01*
X1241235Y947845D01*
X1240578Y946862D01*
X1240055Y945801D01*
X1239675Y944681D01*
X1239444Y943520D01*
X1239367Y942340D01*
X1239444Y941160D01*
X1239675Y939999D01*
X1240055Y938879D01*
X1240578Y937818D01*
X1241235Y936835D01*
X1242015Y935945D01*
X1242461Y935555D01*
X1242699Y933996D01*
X1158691Y849989D01*
X1157335Y850429D01*
X1157264Y850874D01*
X1200644Y894253D01*
X1200644Y894253D01*
X1201178Y894904D01*
X1201574Y895645D01*
X1201818Y896450D01*
X1201901Y897287D01*
Y934394D01*
X1202132Y934508D01*
X1203115Y935165D01*
X1204005Y935945D01*
X1204785Y936835D01*
X1205442Y937818D01*
X1205965Y938879D01*
X1206345Y939999D01*
X1206576Y941160D01*
X1206653Y942340D01*
X1206576Y943520D01*
X1206345Y944681D01*
X1205965Y945801D01*
X1205442Y946862D01*
X1204785Y947845D01*
X1204005Y948735D01*
X1203115Y949515D01*
X1202132Y950172D01*
X1201071Y950695D01*
X1199951Y951075D01*
X1198790Y951306D01*
X1197610Y951383D01*
X1196430Y951306D01*
X1195269Y951075D01*
X1194149Y950695D01*
X1193088Y950172D01*
X1192105Y949515D01*
X1191215Y948735D01*
X1190435Y947845D01*
X1189778Y946862D01*
X1189255Y945801D01*
X1188875Y944681D01*
X1188644Y943520D01*
X1188567Y942340D01*
X1188644Y941160D01*
X1188875Y939999D01*
X1189255Y938879D01*
X1189778Y937818D01*
X1190435Y936835D01*
X1191215Y935945D01*
X1192105Y935165D01*
X1193088Y934508D01*
X1193319Y934394D01*
Y899065D01*
X1149429Y855174D01*
X1148896Y854524D01*
X1148499Y853783D01*
X1148255Y852978D01*
X1148173Y852141D01*
X1148173Y852140D01*
Y745729D01*
X1139139Y736696D01*
X1138832Y736800D01*
X1137656Y737034D01*
X1136460Y737113D01*
X1135264Y737034D01*
X1134089Y736800D01*
X1132954Y736415D01*
X1131879Y735885D01*
X1130882Y735219D01*
X1129981Y734428D01*
X1129727Y734139D01*
X1128457Y734617D01*
Y811061D01*
Y820095D01*
X1129727Y820670D01*
X1130262Y820201D01*
X1131369Y819461D01*
X1132564Y818872D01*
X1133825Y818444D01*
X1135131Y818184D01*
X1135190Y818180D01*
Y828279D01*
X1136460D01*
Y829549D01*
X1146559D01*
X1146555Y829608D01*
X1146295Y830914D01*
X1145867Y832175D01*
X1145278Y833370D01*
X1144538Y834477D01*
X1143660Y835479D01*
X1142659Y836357D01*
X1141551Y837096D01*
X1140357Y837686D01*
X1139096Y838114D01*
X1137789Y838374D01*
X1136609Y838451D01*
X1136373Y838601D01*
X1135701Y839684D01*
X1135778Y839938D01*
X1135861Y840775D01*
X1135861Y840775D01*
Y933316D01*
X1140594D01*
Y951364D01*
X1122546D01*
Y933316D01*
X1127279D01*
Y842552D01*
X1121132Y836405D01*
X1120599Y835755D01*
X1120202Y835013D01*
X1119958Y834208D01*
X1119915Y833772D01*
X1118732Y833413D01*
X1118625Y833417D01*
X1118330Y833857D01*
X1117540Y834759D01*
X1116639Y835549D01*
X1115642Y836215D01*
X1114567Y836745D01*
X1113432Y837130D01*
X1112256Y837364D01*
X1111060Y837442D01*
X1109864Y837364D01*
X1108689Y837130D01*
X1107554Y836745D01*
X1106479Y836215D01*
X1105482Y835549D01*
X1104581Y834759D01*
X1103790Y833857D01*
X1103124Y832861D01*
X1102594Y831786D01*
X1102209Y830651D01*
X1101975Y829475D01*
X1101897Y828279D01*
X1101975Y827083D01*
X1102209Y825907D01*
X1102594Y824772D01*
X1103124Y823697D01*
X1103790Y822700D01*
X1104581Y821799D01*
X1105482Y821009D01*
X1106479Y820343D01*
X1107554Y819813D01*
X1108689Y819427D01*
X1109864Y819194D01*
X1111060Y819115D01*
X1112256Y819194D01*
X1113432Y819427D01*
X1114567Y819813D01*
X1115642Y820343D01*
X1116639Y821009D01*
X1117540Y821799D01*
X1118330Y822700D01*
X1118606Y823112D01*
X1119876Y822727D01*
Y815352D01*
X962342D01*
X962342Y815352D01*
X961505Y815270D01*
X960700Y815025D01*
X959958Y814629D01*
X959308Y814095D01*
X955626Y810414D01*
X955093Y809764D01*
X954696Y809022D01*
X954452Y808217D01*
X954370Y807380D01*
X954370Y807380D01*
Y737093D01*
X949516D01*
Y718805D01*
X967225D01*
Y615465D01*
X965956Y615079D01*
X965930Y615117D01*
X965140Y616018D01*
X964239Y616809D01*
X963242Y617475D01*
X962167Y618005D01*
X961032Y618390D01*
X959856Y618624D01*
X958660Y618702D01*
X957464Y618624D01*
X956289Y618390D01*
X955154Y618005D01*
X954079Y617475D01*
X953082Y616809D01*
X952181Y616018D01*
X951390Y615117D01*
X950724Y614120D01*
X950194Y613045D01*
X949809Y611910D01*
X949575Y610735D01*
X949497Y609538D01*
X949575Y608342D01*
X949809Y607167D01*
X950194Y606032D01*
X950724Y604957D01*
X951390Y603960D01*
X952181Y603059D01*
X953082Y602268D01*
X954079Y601603D01*
X955154Y601073D01*
X956289Y600687D01*
X957464Y600453D01*
X958660Y600375D01*
X959856Y600453D01*
X961032Y600687D01*
X962167Y601073D01*
X963242Y601603D01*
X964239Y602268D01*
X965140Y603059D01*
X965452Y603415D01*
X966797Y603022D01*
X966893Y602401D01*
X939252Y574760D01*
X866867D01*
X837883Y603744D01*
X837233Y604277D01*
X836491Y604674D01*
X835686Y604918D01*
X834849Y605001D01*
X834849Y605001D01*
X776334D01*
Y611234D01*
X758661D01*
X758175Y612407D01*
X762043Y616275D01*
X763080Y615923D01*
X764433Y615654D01*
X765810Y615563D01*
X767187Y615654D01*
X768540Y615923D01*
X769846Y616366D01*
X771083Y616976D01*
X772230Y617743D01*
X773268Y618652D01*
X774177Y619690D01*
X774944Y620837D01*
X775554Y622074D01*
X775997Y623380D01*
X776266Y624733D01*
X776357Y626110D01*
X776266Y627487D01*
X775997Y628840D01*
X775554Y630146D01*
X774944Y631383D01*
X774177Y632530D01*
X773268Y633568D01*
X772230Y634477D01*
X771083Y635244D01*
X769846Y635854D01*
X768540Y636297D01*
X767187Y636566D01*
X765810Y636657D01*
X764433Y636566D01*
X763080Y636297D01*
X761774Y635854D01*
X760537Y635244D01*
X759390Y634477D01*
X758353Y633568D01*
X757443Y632530D01*
X756676Y631383D01*
X756066Y630146D01*
X755623Y628840D01*
X755354Y627487D01*
X755263Y626110D01*
X755354Y624733D01*
X755623Y623380D01*
X755975Y622343D01*
X748775Y615143D01*
X748241Y614493D01*
X747845Y613751D01*
X747601Y612946D01*
X747518Y612109D01*
X747518Y612109D01*
Y460919D01*
X747518Y460918D01*
X747601Y460081D01*
X747845Y459276D01*
X748241Y458535D01*
X748775Y457884D01*
X763635Y443024D01*
X764285Y442491D01*
X765027Y442094D01*
X765832Y441850D01*
X766669Y441768D01*
X766669Y441768D01*
X1333866Y441768D01*
X1333866Y441768D01*
X1334703Y441850D01*
X1335508Y442094D01*
X1336250Y442491D01*
X1336900Y443024D01*
X1344591Y450716D01*
X1359034D01*
Y468764D01*
X1340986D01*
Y459246D01*
X1332089Y450349D01*
X1328841D01*
X1328545Y451619D01*
X1329132Y451908D01*
X1330115Y452565D01*
X1331005Y453345D01*
X1331785Y454235D01*
X1332442Y455218D01*
X1332965Y456279D01*
X1333345Y457399D01*
X1333576Y458560D01*
X1333653Y459740D01*
X1333576Y460920D01*
X1333345Y462081D01*
X1332965Y463201D01*
X1332442Y464262D01*
X1331785Y465245D01*
X1331005Y466135D01*
X1330115Y466915D01*
X1329132Y467572D01*
X1328071Y468095D01*
X1326951Y468475D01*
X1325790Y468706D01*
X1324610Y468783D01*
X1323430Y468706D01*
X1322269Y468475D01*
X1321149Y468095D01*
X1320088Y467572D01*
X1319105Y466915D01*
X1318215Y466135D01*
X1317435Y465245D01*
X1316778Y464262D01*
X1316255Y463201D01*
X1315875Y462081D01*
X1315644Y460920D01*
X1315567Y459740D01*
X1315644Y458560D01*
X1315875Y457399D01*
X1316255Y456279D01*
X1316778Y455218D01*
X1317435Y454235D01*
X1318215Y453345D01*
X1319105Y452565D01*
X1320088Y451908D01*
X1320675Y451619D01*
X1320379Y450349D01*
X1303441D01*
X1303145Y451619D01*
X1303732Y451908D01*
X1304715Y452565D01*
X1305605Y453345D01*
X1306385Y454235D01*
X1307042Y455218D01*
X1307565Y456279D01*
X1307945Y457399D01*
X1308176Y458560D01*
X1308253Y459740D01*
X1308176Y460920D01*
X1307945Y462081D01*
X1307565Y463201D01*
X1307042Y464262D01*
X1306385Y465245D01*
X1305605Y466135D01*
X1304715Y466915D01*
X1303732Y467572D01*
X1302671Y468095D01*
X1301551Y468475D01*
X1300390Y468706D01*
X1299210Y468783D01*
X1298030Y468706D01*
X1296869Y468475D01*
X1295749Y468095D01*
X1294688Y467572D01*
X1293705Y466915D01*
X1292815Y466135D01*
X1292035Y465245D01*
X1291378Y464262D01*
X1290855Y463201D01*
X1290475Y462081D01*
X1290244Y460920D01*
X1290167Y459740D01*
X1290244Y458560D01*
X1290475Y457399D01*
X1290855Y456279D01*
X1291378Y455218D01*
X1292035Y454235D01*
X1292815Y453345D01*
X1293705Y452565D01*
X1294688Y451908D01*
X1295275Y451619D01*
X1294979Y450349D01*
X1278041D01*
X1277745Y451619D01*
X1278332Y451908D01*
X1279315Y452565D01*
X1280205Y453345D01*
X1280985Y454235D01*
X1281642Y455218D01*
X1282165Y456279D01*
X1282545Y457399D01*
X1282776Y458560D01*
X1282853Y459740D01*
X1282776Y460920D01*
X1282545Y462081D01*
X1282165Y463201D01*
X1281642Y464262D01*
X1280985Y465245D01*
X1280205Y466135D01*
X1279315Y466915D01*
X1278332Y467572D01*
X1277271Y468095D01*
X1276151Y468475D01*
X1274990Y468706D01*
X1273810Y468783D01*
X1272630Y468706D01*
X1271469Y468475D01*
X1270349Y468095D01*
X1269288Y467572D01*
X1268305Y466915D01*
X1267415Y466135D01*
X1266635Y465245D01*
X1265978Y464262D01*
X1265455Y463201D01*
X1265075Y462081D01*
X1264844Y460920D01*
X1264767Y459740D01*
X1264844Y458560D01*
X1265075Y457399D01*
X1265455Y456279D01*
X1265978Y455218D01*
X1266635Y454235D01*
X1267415Y453345D01*
X1268305Y452565D01*
X1269288Y451908D01*
X1269875Y451619D01*
X1269579Y450349D01*
X1252641D01*
X1252345Y451619D01*
X1252932Y451908D01*
X1253915Y452565D01*
X1254805Y453345D01*
X1255585Y454235D01*
X1256242Y455218D01*
X1256765Y456279D01*
X1257145Y457399D01*
X1257376Y458560D01*
X1257453Y459740D01*
X1257376Y460920D01*
X1257145Y462081D01*
X1256765Y463201D01*
X1256242Y464262D01*
X1255585Y465245D01*
X1254805Y466135D01*
X1253915Y466915D01*
X1252932Y467572D01*
X1251871Y468095D01*
X1250751Y468475D01*
X1249590Y468706D01*
X1248410Y468783D01*
X1247230Y468706D01*
X1246069Y468475D01*
X1244949Y468095D01*
X1243888Y467572D01*
X1242905Y466915D01*
X1242015Y466135D01*
X1241235Y465245D01*
X1240578Y464262D01*
X1240055Y463201D01*
X1239675Y462081D01*
X1239444Y460920D01*
X1239367Y459740D01*
X1239444Y458560D01*
X1239675Y457399D01*
X1240055Y456279D01*
X1240578Y455218D01*
X1241235Y454235D01*
X1242015Y453345D01*
X1242905Y452565D01*
X1243888Y451908D01*
X1244475Y451619D01*
X1244179Y450349D01*
X1227241D01*
X1226945Y451619D01*
X1227532Y451908D01*
X1228515Y452565D01*
X1229405Y453345D01*
X1230185Y454235D01*
X1230842Y455218D01*
X1231365Y456279D01*
X1231745Y457399D01*
X1231976Y458560D01*
X1232053Y459740D01*
X1231976Y460920D01*
X1231745Y462081D01*
X1231365Y463201D01*
X1230842Y464262D01*
X1230185Y465245D01*
X1229405Y466135D01*
X1228515Y466915D01*
X1227532Y467572D01*
X1226471Y468095D01*
X1225351Y468475D01*
X1224190Y468706D01*
X1223010Y468783D01*
X1221830Y468706D01*
X1220669Y468475D01*
X1219549Y468095D01*
X1218488Y467572D01*
X1217505Y466915D01*
X1216615Y466135D01*
X1215835Y465245D01*
X1215178Y464262D01*
X1214655Y463201D01*
X1214275Y462081D01*
X1214044Y460920D01*
X1213967Y459740D01*
X1214044Y458560D01*
X1214275Y457399D01*
X1214655Y456279D01*
X1215178Y455218D01*
X1215835Y454235D01*
X1216615Y453345D01*
X1217505Y452565D01*
X1218488Y451908D01*
X1219075Y451619D01*
X1218779Y450349D01*
X1182352Y450349D01*
X1181234Y451619D01*
Y468764D01*
X1163186D01*
Y451619D01*
X1163186Y450716D01*
X1162068Y450349D01*
X1153113Y450349D01*
X1152728Y451619D01*
X1152935Y451758D01*
X1153925Y452625D01*
X1154792Y453615D01*
X1155524Y454709D01*
X1156106Y455890D01*
X1156529Y457136D01*
X1156785Y458427D01*
X1156788Y458470D01*
X1146810D01*
X1136832D01*
X1136835Y458427D01*
X1137091Y457136D01*
X1137514Y455890D01*
X1138096Y454709D01*
X1138828Y453615D01*
X1139695Y452625D01*
X1140685Y451758D01*
X1140892Y451619D01*
X1140507Y450349D01*
X1127713D01*
X1127327Y451619D01*
X1127535Y451758D01*
X1128525Y452625D01*
X1129392Y453615D01*
X1130124Y454709D01*
X1130706Y455890D01*
X1131129Y457136D01*
X1131385Y458427D01*
X1131388Y458470D01*
X1121410D01*
X1111432D01*
X1111435Y458427D01*
X1111691Y457136D01*
X1112114Y455890D01*
X1112697Y454709D01*
X1113428Y453615D01*
X1114295Y452625D01*
X1115285Y451758D01*
X1115492Y451619D01*
X1115107Y450349D01*
X1100241D01*
X1099945Y451619D01*
X1100532Y451908D01*
X1101515Y452565D01*
X1102405Y453345D01*
X1103185Y454235D01*
X1103842Y455218D01*
X1104365Y456279D01*
X1104745Y457399D01*
X1104976Y458560D01*
X1105053Y459740D01*
X1104976Y460920D01*
X1104745Y462081D01*
X1104365Y463201D01*
X1103842Y464262D01*
X1103185Y465245D01*
X1102405Y466135D01*
X1101515Y466915D01*
X1100532Y467572D01*
X1099471Y468095D01*
X1098351Y468475D01*
X1097190Y468706D01*
X1096010Y468783D01*
X1094830Y468706D01*
X1093669Y468475D01*
X1092549Y468095D01*
X1091488Y467572D01*
X1090505Y466915D01*
X1089615Y466135D01*
X1088835Y465245D01*
X1088178Y464262D01*
X1087655Y463201D01*
X1087275Y462081D01*
X1087044Y460920D01*
X1086967Y459740D01*
X1087044Y458560D01*
X1087275Y457399D01*
X1087655Y456279D01*
X1088178Y455218D01*
X1088835Y454235D01*
X1089615Y453345D01*
X1090505Y452565D01*
X1091488Y451908D01*
X1092075Y451619D01*
X1091779Y450349D01*
X1074841D01*
X1074545Y451619D01*
X1075132Y451908D01*
X1076115Y452565D01*
X1077005Y453345D01*
X1077785Y454235D01*
X1078442Y455218D01*
X1078965Y456279D01*
X1079345Y457399D01*
X1079576Y458560D01*
X1079653Y459740D01*
X1079576Y460920D01*
X1079345Y462081D01*
X1078965Y463201D01*
X1078442Y464262D01*
X1077785Y465245D01*
X1077005Y466135D01*
X1076115Y466915D01*
X1075132Y467572D01*
X1074071Y468095D01*
X1072951Y468475D01*
X1071790Y468706D01*
X1070610Y468783D01*
X1069430Y468706D01*
X1068269Y468475D01*
X1068026Y468392D01*
X1052194Y484224D01*
X1051544Y484757D01*
X1050802Y485154D01*
X1049997Y485398D01*
X1049160Y485480D01*
X1049160Y485480D01*
X942807D01*
X935740Y492547D01*
Y566179D01*
X941030D01*
X941030Y566179D01*
X941030Y566179D01*
X972786D01*
Y561446D01*
X990834D01*
Y579494D01*
X972786D01*
Y574760D01*
X953048D01*
X952562Y575934D01*
X974550Y597922D01*
X974550Y597922D01*
X975084Y598572D01*
X975480Y599314D01*
X975724Y600119D01*
X975807Y600956D01*
X975807Y600956D01*
Y601614D01*
X976292Y601948D01*
X977077Y602149D01*
X977862Y601461D01*
X978969Y600721D01*
X980164Y600132D01*
X981425Y599704D01*
X982731Y599444D01*
X982790Y599440D01*
Y609538D01*
Y619637D01*
X982731Y619633D01*
X981425Y619373D01*
X980164Y618945D01*
X978969Y618356D01*
X977862Y617616D01*
X977077Y616928D01*
X976292Y617129D01*
X975807Y617463D01*
Y721616D01*
X975809Y721618D01*
X977077Y722044D01*
X977581Y721469D01*
X978482Y720679D01*
X979479Y720013D01*
X980554Y719483D01*
X981689Y719098D01*
X982864Y718864D01*
X984060Y718785D01*
X985256Y718864D01*
X986432Y719098D01*
X987567Y719483D01*
X988642Y720013D01*
X989639Y720679D01*
X990540Y721469D01*
X991330Y722370D01*
X991996Y723367D01*
X992526Y724442D01*
X992912Y725577D01*
X993146Y726753D01*
X993224Y727949D01*
X993146Y729145D01*
X992912Y730321D01*
X992526Y731456D01*
X991996Y732531D01*
X991330Y733527D01*
X990540Y734428D01*
X989639Y735219D01*
X988642Y735885D01*
X987567Y736415D01*
X986432Y736800D01*
X985256Y737034D01*
X984060Y737113D01*
X982864Y737034D01*
X981689Y736800D01*
X980554Y736415D01*
X979479Y735885D01*
X978482Y735219D01*
X977581Y734428D01*
X977077Y733854D01*
X975809Y734279D01*
X975807Y734281D01*
Y755441D01*
X977077Y756120D01*
X977289Y755978D01*
X978350Y755455D01*
X979470Y755075D01*
X980630Y754844D01*
X981810Y754767D01*
X982991Y754844D01*
X984151Y755075D01*
X985271Y755455D01*
X986332Y755978D01*
X987315Y756635D01*
X988205Y757415D01*
X988985Y758305D01*
X989642Y759288D01*
X990165Y760349D01*
X990545Y761469D01*
X990776Y762630D01*
X990854Y763810D01*
X990776Y764990D01*
X990545Y766151D01*
X990165Y767271D01*
X989642Y768332D01*
X988985Y769315D01*
X988205Y770205D01*
X987315Y770985D01*
X986332Y771642D01*
X985271Y772165D01*
X984151Y772545D01*
X983901Y772595D01*
X983483Y773973D01*
X984844Y775334D01*
X984844Y775334D01*
X985378Y775984D01*
X985774Y776726D01*
X986018Y777531D01*
X986101Y778368D01*
X986101Y778368D01*
Y780186D01*
X990834D01*
Y798234D01*
X972786D01*
Y780186D01*
X975764D01*
X976290Y778916D01*
X968482Y771108D01*
X967949Y770458D01*
X967552Y769716D01*
X967308Y768911D01*
X967225Y768074D01*
X967225Y768074D01*
Y737093D01*
X962951D01*
Y805603D01*
X964119Y806771D01*
X1119876D01*
Y733501D01*
X1118606Y733115D01*
X1118330Y733527D01*
X1117540Y734428D01*
X1116639Y735219D01*
X1115642Y735885D01*
X1114567Y736415D01*
X1113432Y736800D01*
X1112256Y737034D01*
X1111060Y737113D01*
X1109864Y737034D01*
X1108689Y736800D01*
X1107554Y736415D01*
X1106479Y735885D01*
X1105482Y735219D01*
X1104581Y734428D01*
X1103790Y733527D01*
X1103124Y732531D01*
X1102594Y731456D01*
X1102209Y730321D01*
X1101975Y729145D01*
X1101897Y727949D01*
X1101975Y726753D01*
X1102209Y725577D01*
X1102594Y724442D01*
X1103124Y723367D01*
X1103790Y722370D01*
X1104581Y721469D01*
X1105482Y720679D01*
X1106479Y720013D01*
X1107554Y719483D01*
X1108689Y719098D01*
X1109864Y718864D01*
X1111060Y718785D01*
X1112256Y718864D01*
X1113432Y719098D01*
X1114567Y719483D01*
X1115642Y720013D01*
X1116639Y720679D01*
X1117540Y721469D01*
X1118330Y722370D01*
X1118606Y722783D01*
X1119876Y722397D01*
Y615090D01*
X1118606Y614705D01*
X1118330Y615117D01*
X1117540Y616018D01*
X1116639Y616809D01*
X1115642Y617475D01*
X1114567Y618005D01*
X1113432Y618390D01*
X1112256Y618624D01*
X1111060Y618702D01*
X1109864Y618624D01*
X1108689Y618390D01*
X1107554Y618005D01*
X1106479Y617475D01*
X1105482Y616809D01*
X1104581Y616018D01*
X1103790Y615117D01*
X1103124Y614120D01*
X1102594Y613045D01*
X1102209Y611910D01*
X1101975Y610735D01*
X1101897Y609538D01*
X1101975Y608342D01*
X1102209Y607167D01*
X1102594Y606032D01*
X1103124Y604957D01*
X1103790Y603960D01*
X1104581Y603059D01*
X1105482Y602268D01*
X1106479Y601603D01*
X1107554Y601073D01*
X1108689Y600687D01*
X1109864Y600453D01*
X1111060Y600375D01*
X1112256Y600453D01*
X1113432Y600687D01*
X1114567Y601073D01*
X1115642Y601603D01*
X1116639Y602268D01*
X1117540Y603059D01*
X1118330Y603960D01*
X1118606Y604372D01*
X1119876Y603987D01*
Y561889D01*
X1096099Y538113D01*
X1096099Y538112D01*
X1095732Y537746D01*
X1095199Y537095D01*
X1094802Y536354D01*
X1094558Y535549D01*
X1094476Y534712D01*
X1094476Y534711D01*
Y514760D01*
X1093206Y514375D01*
X1092930Y514787D01*
X1092140Y515688D01*
X1091239Y516479D01*
X1090242Y517145D01*
X1089167Y517675D01*
X1088032Y518060D01*
X1086856Y518294D01*
X1085660Y518372D01*
X1084464Y518294D01*
X1083289Y518060D01*
X1082154Y517675D01*
X1081078Y517145D01*
X1080082Y516479D01*
X1079181Y515688D01*
X1078390Y514787D01*
X1077724Y513790D01*
X1077194Y512715D01*
X1076809Y511580D01*
X1076575Y510405D01*
X1076497Y509208D01*
X1076575Y508012D01*
X1076809Y506837D01*
X1077194Y505702D01*
X1077724Y504627D01*
X1078390Y503630D01*
X1079181Y502729D01*
X1080082Y501939D01*
X1081078Y501273D01*
X1082154Y500742D01*
X1083289Y500357D01*
X1084464Y500123D01*
X1085660Y500045D01*
X1086856Y500123D01*
X1088032Y500357D01*
X1089167Y500742D01*
X1090242Y501273D01*
X1091239Y501939D01*
X1092140Y502729D01*
X1092930Y503630D01*
X1093159Y503973D01*
X1094347Y503766D01*
X1094484Y503669D01*
X1094558Y502912D01*
X1094802Y502107D01*
X1095199Y501365D01*
X1095732Y500715D01*
X1098608Y497840D01*
X1098122Y496666D01*
X977270D01*
X967804Y506132D01*
Y518353D01*
X949516D01*
Y500065D01*
X961736D01*
X972459Y489342D01*
X972459Y489342D01*
X973109Y488808D01*
X973851Y488412D01*
X974656Y488168D01*
X975493Y488085D01*
X975493Y488085D01*
X1108362D01*
X1116469Y479978D01*
X1116470Y479978D01*
X1117120Y479444D01*
X1117862Y479048D01*
X1118667Y478804D01*
X1119504Y478721D01*
X1156505D01*
X1156505Y478721D01*
X1157342Y478804D01*
X1158147Y479048D01*
X1158889Y479444D01*
X1159539Y479978D01*
X1179817Y500256D01*
X1192037D01*
Y518544D01*
X1187184D01*
Y583365D01*
X1198221Y594402D01*
X1198755Y595052D01*
X1199151Y595794D01*
X1199395Y596599D01*
X1199478Y597436D01*
X1199478Y597436D01*
Y602447D01*
X1200748Y602925D01*
X1201093Y602530D01*
X1202095Y601652D01*
X1203202Y600912D01*
X1204397Y600323D01*
X1205658Y599895D01*
X1206964Y599635D01*
X1207023Y599631D01*
Y609730D01*
Y619828D01*
X1206964Y619825D01*
X1205658Y619565D01*
X1204397Y619137D01*
X1203202Y618548D01*
X1202095Y617808D01*
X1201093Y616930D01*
X1200531Y616289D01*
X1199314Y616434D01*
X1199104Y616552D01*
X1198755Y617206D01*
X1198221Y617856D01*
X1187184Y628894D01*
Y718996D01*
X1192037D01*
Y737284D01*
X1173749D01*
Y718996D01*
X1178602D01*
Y627117D01*
X1178602Y627116D01*
X1178685Y626279D01*
X1178929Y625474D01*
X1179325Y624733D01*
X1179859Y624082D01*
X1183837Y620104D01*
X1183277Y618868D01*
X1182893Y618894D01*
X1181697Y618815D01*
X1180521Y618581D01*
X1179386Y618196D01*
X1178311Y617666D01*
X1177315Y617000D01*
X1176413Y616210D01*
X1175623Y615308D01*
X1174957Y614312D01*
X1174427Y613237D01*
X1174042Y612102D01*
X1173808Y610926D01*
X1173729Y609730D01*
X1173808Y608534D01*
X1174042Y607358D01*
X1174427Y606223D01*
X1174957Y605148D01*
X1175623Y604151D01*
X1176413Y603250D01*
X1177315Y602460D01*
X1178311Y601794D01*
X1179386Y601264D01*
X1180521Y600879D01*
X1181697Y600645D01*
X1182893Y600566D01*
X1184089Y600645D01*
X1185265Y600879D01*
X1186400Y601264D01*
X1187475Y601794D01*
X1188472Y602460D01*
X1189373Y603250D01*
X1189626Y603540D01*
X1190896Y603062D01*
Y599213D01*
X1179859Y588176D01*
X1179325Y587526D01*
X1178929Y586784D01*
X1178685Y585979D01*
X1178602Y585142D01*
X1178602Y585142D01*
Y518544D01*
X1173749D01*
Y506324D01*
X1154728Y487303D01*
X1121281D01*
X1113174Y495410D01*
X1113173Y495410D01*
X1109691Y498893D01*
X1109700Y498957D01*
X1110284Y500096D01*
X1111060Y500045D01*
X1112256Y500123D01*
X1113432Y500357D01*
X1113739Y500462D01*
X1123056Y491145D01*
X1123706Y490611D01*
X1124448Y490215D01*
X1125253Y489971D01*
X1126090Y489888D01*
X1126090Y489888D01*
X1151878D01*
X1151878Y489888D01*
X1152715Y489971D01*
X1153520Y490215D01*
X1154262Y490611D01*
X1154912Y491145D01*
X1169481Y505714D01*
X1169482Y505714D01*
X1170015Y506365D01*
X1170412Y507107D01*
X1170656Y507911D01*
X1170738Y508748D01*
X1170738Y834719D01*
X1229225Y893206D01*
X1230271Y892456D01*
X1229985Y891876D01*
X1229626Y890818D01*
X1229408Y889722D01*
X1229335Y888607D01*
X1229408Y887492D01*
X1229626Y886396D01*
X1229985Y885338D01*
X1230479Y884336D01*
X1231100Y883407D01*
X1231837Y882567D01*
X1232677Y881830D01*
X1233606Y881209D01*
X1234608Y880715D01*
X1235666Y880356D01*
X1236762Y880138D01*
X1237877Y880065D01*
X1238992Y880138D01*
X1240088Y880356D01*
X1241146Y880715D01*
X1242148Y881209D01*
X1243077Y881830D01*
X1243917Y882567D01*
X1244654Y883407D01*
X1245275Y884336D01*
X1245769Y885338D01*
X1246128Y886396D01*
X1246346Y887492D01*
X1246419Y888607D01*
X1246346Y889722D01*
X1246128Y890818D01*
X1245769Y891876D01*
X1245275Y892878D01*
X1244654Y893807D01*
X1243917Y894647D01*
X1243077Y895384D01*
X1242148Y896005D01*
X1241146Y896499D01*
X1240088Y896858D01*
X1238992Y897076D01*
X1237877Y897149D01*
X1236762Y897076D01*
X1235666Y896858D01*
X1234608Y896499D01*
X1234028Y896213D01*
X1233278Y897259D01*
X1263834Y927815D01*
X1263835Y927816D01*
X1264368Y928466D01*
X1264765Y929208D01*
X1265009Y930013D01*
X1265091Y930850D01*
Y936860D01*
X1266361Y937245D01*
X1266635Y936835D01*
X1267415Y935945D01*
X1267908Y935513D01*
Y896443D01*
X1266638Y895764D01*
X1266278Y896005D01*
X1265276Y896499D01*
X1264218Y896858D01*
X1263122Y897076D01*
X1262007Y897149D01*
X1260892Y897076D01*
X1259796Y896858D01*
X1258738Y896499D01*
X1257736Y896005D01*
X1256807Y895384D01*
X1255967Y894647D01*
X1255230Y893807D01*
X1254609Y892878D01*
X1254115Y891876D01*
X1253756Y890818D01*
X1253538Y889722D01*
X1253465Y888607D01*
X1253538Y887492D01*
X1253756Y886396D01*
X1254115Y885338D01*
X1254609Y884336D01*
X1255230Y883407D01*
X1255967Y882567D01*
X1256807Y881830D01*
X1257736Y881209D01*
X1258738Y880715D01*
X1259796Y880356D01*
X1260892Y880138D01*
X1262007Y880065D01*
X1263122Y880138D01*
X1264218Y880356D01*
X1265276Y880715D01*
X1266278Y881209D01*
X1266638Y881450D01*
X1267908Y880771D01*
Y834022D01*
X1266638Y833637D01*
X1266363Y834049D01*
X1265573Y834950D01*
X1264671Y835740D01*
X1263675Y836406D01*
X1262600Y836936D01*
X1261465Y837322D01*
X1260289Y837555D01*
X1259093Y837634D01*
X1257897Y837555D01*
X1256721Y837322D01*
X1255586Y836936D01*
X1254511Y836406D01*
X1253515Y835740D01*
X1252613Y834950D01*
X1251823Y834049D01*
X1251157Y833052D01*
X1250627Y831977D01*
X1250242Y830842D01*
X1250008Y829666D01*
X1249929Y828470D01*
X1250008Y827274D01*
X1250242Y826099D01*
X1250627Y824964D01*
X1251157Y823888D01*
X1251823Y822892D01*
X1252613Y821991D01*
X1253515Y821200D01*
X1254511Y820534D01*
X1255586Y820004D01*
X1256721Y819619D01*
X1257897Y819385D01*
X1259093Y819307D01*
X1260289Y819385D01*
X1261465Y819619D01*
X1262600Y820004D01*
X1263675Y820534D01*
X1264671Y821200D01*
X1265573Y821991D01*
X1266363Y822892D01*
X1266638Y823304D01*
X1267908Y822919D01*
Y812704D01*
X1267908Y812703D01*
X1267991Y811866D01*
X1268235Y811061D01*
X1268632Y810320D01*
X1269165Y809669D01*
X1309182Y769653D01*
Y749961D01*
X1309182Y749961D01*
X1309264Y749124D01*
X1309508Y748319D01*
X1309905Y747577D01*
X1310439Y746927D01*
X1326546Y730819D01*
X1326442Y730512D01*
X1326208Y729336D01*
X1326129Y728140D01*
X1326208Y726944D01*
X1326442Y725769D01*
X1326827Y724633D01*
X1327357Y723559D01*
X1328023Y722562D01*
X1328813Y721661D01*
X1329715Y720870D01*
X1330711Y720204D01*
X1331786Y719674D01*
X1332921Y719289D01*
X1334097Y719055D01*
X1335293Y718977D01*
X1336489Y719055D01*
X1337665Y719289D01*
X1338800Y719674D01*
X1339875Y720204D01*
X1340871Y720870D01*
X1341773Y721661D01*
X1342026Y721950D01*
X1343296Y721472D01*
Y616398D01*
X1342026Y615920D01*
X1341773Y616210D01*
X1340871Y617000D01*
X1339875Y617666D01*
X1338800Y618196D01*
X1337665Y618581D01*
X1336489Y618815D01*
X1335293Y618894D01*
X1334097Y618815D01*
X1332921Y618581D01*
X1331786Y618196D01*
X1330711Y617666D01*
X1329715Y617000D01*
X1328813Y616210D01*
X1328023Y615308D01*
X1327357Y614312D01*
X1326827Y613237D01*
X1326442Y612102D01*
X1326208Y610926D01*
X1326129Y609730D01*
X1326208Y608534D01*
X1326442Y607358D01*
X1326827Y606223D01*
X1327357Y605148D01*
X1328023Y604151D01*
X1328813Y603250D01*
X1329715Y602460D01*
X1330711Y601794D01*
X1331786Y601264D01*
X1332921Y600879D01*
X1334097Y600645D01*
X1335293Y600566D01*
X1336489Y600645D01*
X1337665Y600879D01*
X1338800Y601264D01*
X1339875Y601794D01*
X1340871Y602460D01*
X1341773Y603250D01*
X1342026Y603540D01*
X1343296Y603062D01*
Y523471D01*
X1337972Y518147D01*
X1337665Y518251D01*
X1336489Y518485D01*
X1335293Y518564D01*
X1334097Y518485D01*
X1332921Y518251D01*
X1331786Y517866D01*
X1330711Y517336D01*
X1329715Y516670D01*
X1328813Y515880D01*
X1328023Y514978D01*
X1327357Y513982D01*
X1326827Y512907D01*
X1326442Y511772D01*
X1326208Y510596D01*
X1326129Y509400D01*
X1326208Y508204D01*
X1326442Y507028D01*
X1326827Y505893D01*
X1327357Y504818D01*
X1328023Y503821D01*
X1328813Y502920D01*
X1329715Y502130D01*
X1330711Y501464D01*
X1331786Y500934D01*
X1332921Y500549D01*
X1334097Y500315D01*
X1335293Y500236D01*
X1336489Y500315D01*
X1337665Y500549D01*
X1338800Y500934D01*
X1339875Y501464D01*
X1340871Y502130D01*
X1341773Y502920D01*
X1342563Y503821D01*
X1343229Y504818D01*
X1343759Y505893D01*
X1344144Y507028D01*
X1344378Y508204D01*
X1344457Y509400D01*
X1344378Y510596D01*
X1344144Y511772D01*
X1344040Y512079D01*
X1350621Y518660D01*
X1351155Y519310D01*
X1351551Y520052D01*
X1351795Y520857D01*
X1351878Y521694D01*
X1351878Y521694D01*
Y602447D01*
X1353148Y602925D01*
X1353493Y602530D01*
X1354495Y601652D01*
X1355602Y600912D01*
X1356797Y600323D01*
X1358058Y599895D01*
X1359364Y599635D01*
X1359423Y599631D01*
Y609730D01*
Y619828D01*
X1359364Y619825D01*
X1358058Y619565D01*
X1356797Y619137D01*
X1355602Y618548D01*
X1354495Y617808D01*
X1353493Y616930D01*
X1353148Y616535D01*
X1351878Y617013D01*
Y722589D01*
X1353148Y722974D01*
X1353423Y722562D01*
X1354213Y721661D01*
X1355115Y720870D01*
X1356111Y720204D01*
X1357186Y719674D01*
X1358321Y719289D01*
X1359497Y719055D01*
X1360693Y718977D01*
X1361889Y719055D01*
X1363065Y719289D01*
X1364200Y719674D01*
X1365275Y720204D01*
X1366272Y720870D01*
X1367173Y721661D01*
X1367426Y721950D01*
X1368696Y721472D01*
Y617914D01*
X1367426Y617338D01*
X1366891Y617808D01*
X1365784Y618548D01*
X1364589Y619137D01*
X1363328Y619565D01*
X1362022Y619825D01*
X1361963Y619828D01*
Y609730D01*
Y599631D01*
X1362022Y599635D01*
X1363328Y599895D01*
X1364589Y600323D01*
X1365784Y600912D01*
X1366891Y601652D01*
X1367426Y602121D01*
X1368696Y601546D01*
Y524532D01*
X1362523Y518359D01*
X1361889Y518485D01*
X1360693Y518564D01*
X1359497Y518485D01*
X1358321Y518251D01*
X1357186Y517866D01*
X1356111Y517336D01*
X1355115Y516670D01*
X1354213Y515880D01*
X1353423Y514978D01*
X1352757Y513982D01*
X1352227Y512907D01*
X1351842Y511772D01*
X1351608Y510596D01*
X1351529Y509400D01*
X1351608Y508204D01*
X1351842Y507028D01*
X1352227Y505893D01*
X1352757Y504818D01*
X1353423Y503821D01*
X1354213Y502920D01*
X1355115Y502130D01*
X1356111Y501464D01*
X1357186Y500934D01*
X1358321Y500549D01*
X1359497Y500315D01*
X1360693Y500236D01*
X1361889Y500315D01*
X1363065Y500549D01*
X1364200Y500934D01*
X1365275Y501464D01*
X1366272Y502130D01*
X1367173Y502920D01*
X1367963Y503821D01*
X1368629Y504818D01*
X1369159Y505893D01*
X1369544Y507028D01*
X1369778Y508204D01*
X1369857Y509400D01*
X1369778Y510596D01*
X1369544Y511772D01*
X1369171Y512871D01*
X1376021Y519721D01*
X1376555Y520371D01*
X1376951Y521113D01*
X1377195Y521918D01*
X1377278Y522755D01*
X1377278Y522755D01*
Y938314D01*
X1377278Y938314D01*
X1377195Y939151D01*
X1376951Y939956D01*
X1376555Y940698D01*
X1376021Y941348D01*
X1376021Y941348D01*
X1354922Y962447D01*
X1354272Y962981D01*
X1353530Y963378D01*
X1353465Y963397D01*
X1353653Y964667D01*
X1388778D01*
X1397568Y955877D01*
D02*
G37*
G36*
X1317559Y947986D02*
X1317435Y947845D01*
X1316778Y946862D01*
X1316255Y945801D01*
X1315875Y944681D01*
X1315644Y943520D01*
X1315567Y942340D01*
X1315644Y941160D01*
X1315875Y939999D01*
X1316255Y938879D01*
X1316778Y937818D01*
X1317435Y936835D01*
X1318215Y935945D01*
X1318708Y935513D01*
Y897131D01*
X1304283D01*
Y880083D01*
X1318708D01*
Y834022D01*
X1317438Y833637D01*
X1317163Y834049D01*
X1316373Y834950D01*
X1315471Y835740D01*
X1314475Y836406D01*
X1313400Y836936D01*
X1312265Y837322D01*
X1311089Y837555D01*
X1309893Y837634D01*
X1308697Y837555D01*
X1307521Y837322D01*
X1306386Y836936D01*
X1305311Y836406D01*
X1304315Y835740D01*
X1303413Y834950D01*
X1302623Y834049D01*
X1301957Y833052D01*
X1301427Y831977D01*
X1301042Y830842D01*
X1300808Y829666D01*
X1300729Y828470D01*
X1300808Y827274D01*
X1301042Y826099D01*
X1301427Y824964D01*
X1301957Y823888D01*
X1302623Y822892D01*
X1303413Y821991D01*
X1304315Y821200D01*
X1305311Y820534D01*
X1306386Y820004D01*
X1307521Y819619D01*
X1308697Y819385D01*
X1309893Y819307D01*
X1311089Y819385D01*
X1312265Y819619D01*
X1313400Y820004D01*
X1314475Y820534D01*
X1315471Y821200D01*
X1316373Y821991D01*
X1317163Y822892D01*
X1317438Y823304D01*
X1318708Y822919D01*
Y773254D01*
X1317438Y773066D01*
X1317437Y773072D01*
X1317040Y773814D01*
X1316506Y774464D01*
X1316506Y774464D01*
X1276490Y814481D01*
Y821802D01*
X1277760Y822280D01*
X1278013Y821991D01*
X1278915Y821200D01*
X1279911Y820534D01*
X1280986Y820004D01*
X1282121Y819619D01*
X1283297Y819385D01*
X1284493Y819307D01*
X1285689Y819385D01*
X1286865Y819619D01*
X1288000Y820004D01*
X1289075Y820534D01*
X1290072Y821200D01*
X1290973Y821991D01*
X1291763Y822892D01*
X1292429Y823888D01*
X1292959Y824964D01*
X1293344Y826099D01*
X1293578Y827274D01*
X1293657Y828470D01*
X1293578Y829666D01*
X1293344Y830842D01*
X1292959Y831977D01*
X1292429Y833052D01*
X1291763Y834049D01*
X1290973Y834950D01*
X1290072Y835740D01*
X1289075Y836406D01*
X1288000Y836936D01*
X1286865Y837322D01*
X1285689Y837555D01*
X1284493Y837634D01*
X1283297Y837555D01*
X1282121Y837322D01*
X1280986Y836936D01*
X1279911Y836406D01*
X1278915Y835740D01*
X1278013Y834950D01*
X1277760Y834661D01*
X1276490Y835139D01*
Y933720D01*
X1277271Y933985D01*
X1278332Y934508D01*
X1279315Y935165D01*
X1280205Y935945D01*
X1280985Y936835D01*
X1281642Y937818D01*
X1282165Y938879D01*
X1282545Y939999D01*
X1282776Y941160D01*
X1282853Y942340D01*
X1282776Y943520D01*
X1282545Y944681D01*
X1282165Y945801D01*
X1281642Y946862D01*
X1280985Y947845D01*
X1280861Y947986D01*
X1281436Y949256D01*
X1291584D01*
X1292159Y947986D01*
X1292035Y947845D01*
X1291378Y946862D01*
X1290855Y945801D01*
X1290475Y944681D01*
X1290244Y943520D01*
X1290167Y942340D01*
X1290244Y941160D01*
X1290475Y939999D01*
X1290855Y938879D01*
X1291378Y937818D01*
X1292035Y936835D01*
X1292815Y935945D01*
X1293705Y935165D01*
X1294688Y934508D01*
X1295749Y933985D01*
X1296869Y933605D01*
X1298030Y933374D01*
X1299210Y933297D01*
X1300390Y933374D01*
X1301551Y933605D01*
X1302671Y933985D01*
X1303732Y934508D01*
X1304715Y935165D01*
X1305605Y935945D01*
X1306385Y936835D01*
X1307042Y937818D01*
X1307565Y938879D01*
X1307945Y939999D01*
X1308176Y941160D01*
X1308253Y942340D01*
X1308176Y943520D01*
X1307945Y944681D01*
X1307565Y945801D01*
X1307042Y946862D01*
X1306385Y947845D01*
X1306261Y947986D01*
X1306836Y949256D01*
X1316984D01*
X1317559Y947986D01*
D02*
G37*
G36*
X1256510Y935964D02*
Y932627D01*
X1165241Y841357D01*
X1164067Y841843D01*
Y843229D01*
X1251444Y930605D01*
X1251444Y930605D01*
X1251977Y931256D01*
X1252374Y931997D01*
X1252618Y932802D01*
X1252701Y933639D01*
Y934394D01*
X1252932Y934508D01*
X1253915Y935165D01*
X1254805Y935945D01*
X1255240Y936442D01*
X1256510Y935964D01*
D02*
G37*
G36*
X1340986Y933316D02*
X1359034D01*
Y944540D01*
X1360207Y945026D01*
X1368696Y936537D01*
Y836654D01*
X1367426Y836079D01*
X1366891Y836548D01*
X1365784Y837288D01*
X1364589Y837877D01*
X1363328Y838305D01*
X1362022Y838565D01*
X1361963Y838569D01*
Y828470D01*
Y818372D01*
X1362022Y818376D01*
X1363328Y818635D01*
X1364589Y819063D01*
X1365784Y819653D01*
X1366891Y820393D01*
X1367426Y820862D01*
X1368696Y820286D01*
Y734809D01*
X1367426Y734331D01*
X1367173Y734620D01*
X1366272Y735410D01*
X1365275Y736076D01*
X1364200Y736606D01*
X1363065Y736992D01*
X1361889Y737225D01*
X1360693Y737304D01*
X1359497Y737225D01*
X1358321Y736992D01*
X1357186Y736606D01*
X1356111Y736076D01*
X1355115Y735410D01*
X1354213Y734620D01*
X1353423Y733719D01*
X1353129Y733278D01*
X1353022Y733274D01*
X1351838Y733633D01*
X1351795Y734070D01*
X1351551Y734875D01*
X1351155Y735616D01*
X1350621Y736266D01*
X1327290Y759598D01*
Y821802D01*
X1328560Y822280D01*
X1328813Y821991D01*
X1329715Y821200D01*
X1330711Y820534D01*
X1331786Y820004D01*
X1332921Y819619D01*
X1334097Y819385D01*
X1335293Y819307D01*
X1336489Y819385D01*
X1337665Y819619D01*
X1338800Y820004D01*
X1339875Y820534D01*
X1340871Y821200D01*
X1341773Y821991D01*
X1342563Y822892D01*
X1343229Y823888D01*
X1343759Y824964D01*
X1344144Y826099D01*
X1344378Y827274D01*
X1344457Y828470D01*
X1344378Y829666D01*
X1344144Y830842D01*
X1343759Y831977D01*
X1343229Y833052D01*
X1342563Y834049D01*
X1341773Y834950D01*
X1340871Y835740D01*
X1339875Y836406D01*
X1338800Y836936D01*
X1337665Y837322D01*
X1336489Y837555D01*
X1335293Y837634D01*
X1334097Y837555D01*
X1332921Y837322D01*
X1331786Y836936D01*
X1330711Y836406D01*
X1329715Y835740D01*
X1328813Y834950D01*
X1328560Y834661D01*
X1327290Y835139D01*
Y933720D01*
X1328071Y933985D01*
X1329132Y934508D01*
X1330115Y935165D01*
X1331005Y935945D01*
X1331785Y936835D01*
X1332442Y937818D01*
X1332965Y938879D01*
X1333345Y939999D01*
X1333576Y941160D01*
X1333653Y942340D01*
X1333576Y943520D01*
X1333345Y944681D01*
X1332965Y945801D01*
X1332442Y946862D01*
X1331785Y947845D01*
X1331661Y947986D01*
X1332236Y949256D01*
X1340986D01*
Y933316D01*
D02*
G37*
G36*
X1155486Y739247D02*
Y534302D01*
X1139139Y517956D01*
X1138832Y518060D01*
X1137656Y518294D01*
X1136460Y518372D01*
X1135264Y518294D01*
X1134089Y518060D01*
X1132954Y517675D01*
X1131879Y517145D01*
X1130882Y516479D01*
X1129981Y515688D01*
X1129190Y514787D01*
X1128524Y513790D01*
X1127994Y512715D01*
X1127609Y511580D01*
X1127375Y510405D01*
X1127297Y509208D01*
X1127375Y508012D01*
X1127609Y506837D01*
X1127994Y505702D01*
X1128524Y504627D01*
X1129190Y503630D01*
X1129981Y502729D01*
X1130882Y501939D01*
X1131879Y501273D01*
X1132954Y500742D01*
X1134089Y500357D01*
X1135264Y500123D01*
X1136460Y500045D01*
X1137656Y500123D01*
X1138832Y500357D01*
X1139967Y500742D01*
X1141042Y501273D01*
X1142039Y501939D01*
X1142940Y502729D01*
X1143730Y503630D01*
X1144396Y504627D01*
X1144926Y505702D01*
X1145312Y506837D01*
X1145546Y508012D01*
X1145624Y509208D01*
X1145546Y510405D01*
X1145312Y511580D01*
X1145207Y511888D01*
X1160984Y527664D01*
X1162157Y527178D01*
Y510526D01*
X1150101Y498470D01*
X1127867D01*
X1119807Y506529D01*
X1119912Y506837D01*
X1120145Y508012D01*
X1120224Y509208D01*
X1120145Y510405D01*
X1119912Y511580D01*
X1119526Y512715D01*
X1118996Y513790D01*
X1118330Y514787D01*
X1117540Y515688D01*
X1116639Y516479D01*
X1115642Y517145D01*
X1114567Y517675D01*
X1113432Y518060D01*
X1112256Y518294D01*
X1111060Y518372D01*
X1109864Y518294D01*
X1108689Y518060D01*
X1107554Y517675D01*
X1106479Y517145D01*
X1105482Y516479D01*
X1104581Y515688D01*
X1104327Y515399D01*
X1103057Y515877D01*
Y532934D01*
X1127200Y557077D01*
X1127200Y557078D01*
X1127734Y557728D01*
X1128130Y558470D01*
X1128374Y559274D01*
X1128457Y560112D01*
X1128457Y560112D01*
Y601355D01*
X1129727Y601930D01*
X1130262Y601461D01*
X1131369Y600721D01*
X1132564Y600132D01*
X1133825Y599704D01*
X1135131Y599444D01*
X1135190Y599440D01*
Y609538D01*
Y619637D01*
X1135131Y619633D01*
X1133825Y619373D01*
X1132564Y618945D01*
X1131369Y618356D01*
X1130262Y617616D01*
X1129727Y617147D01*
X1128457Y617723D01*
Y721281D01*
X1129727Y721758D01*
X1129981Y721469D01*
X1130882Y720679D01*
X1131879Y720013D01*
X1132954Y719483D01*
X1134089Y719098D01*
X1135264Y718864D01*
X1136460Y718785D01*
X1137656Y718864D01*
X1138832Y719098D01*
X1139967Y719483D01*
X1141042Y720013D01*
X1142039Y720679D01*
X1142940Y721469D01*
X1143730Y722370D01*
X1144396Y723367D01*
X1144926Y724442D01*
X1145312Y725577D01*
X1145546Y726753D01*
X1145624Y727949D01*
X1145546Y729145D01*
X1145312Y730321D01*
X1145207Y730628D01*
X1154313Y739733D01*
X1155486Y739247D01*
D02*
G37*
G36*
X862056Y567436D02*
X862056Y567436D01*
X862706Y566902D01*
X863448Y566506D01*
X864253Y566261D01*
X865090Y566179D01*
X865090Y566179D01*
X927159D01*
Y490770D01*
X927159Y490770D01*
X927241Y489933D01*
X927485Y489128D01*
X927882Y488386D01*
X928415Y487736D01*
X937996Y478156D01*
X937996Y478156D01*
X938646Y477622D01*
X939388Y477226D01*
X940193Y476982D01*
X941030Y476899D01*
X1047383D01*
X1061958Y462324D01*
X1061875Y462081D01*
X1061644Y460920D01*
X1061567Y459740D01*
X1061644Y458560D01*
X1061875Y457399D01*
X1062255Y456279D01*
X1062778Y455218D01*
X1063435Y454235D01*
X1064215Y453345D01*
X1065105Y452565D01*
X1066088Y451908D01*
X1066675Y451619D01*
X1066379Y450349D01*
X1049441D01*
X1049145Y451619D01*
X1049732Y451908D01*
X1050715Y452565D01*
X1051605Y453345D01*
X1052385Y454235D01*
X1053042Y455218D01*
X1053565Y456279D01*
X1053945Y457399D01*
X1054176Y458560D01*
X1054253Y459740D01*
X1054176Y460920D01*
X1053945Y462081D01*
X1053565Y463201D01*
X1053042Y464262D01*
X1052385Y465245D01*
X1051605Y466135D01*
X1050715Y466915D01*
X1049732Y467572D01*
X1048671Y468095D01*
X1047551Y468475D01*
X1046390Y468706D01*
X1045210Y468783D01*
X1044030Y468706D01*
X1042869Y468475D01*
X1041749Y468095D01*
X1040688Y467572D01*
X1039705Y466915D01*
X1038815Y466135D01*
X1038035Y465245D01*
X1037378Y464262D01*
X1036855Y463201D01*
X1036475Y462081D01*
X1036244Y460920D01*
X1036167Y459740D01*
X1036244Y458560D01*
X1036475Y457399D01*
X1036855Y456279D01*
X1037378Y455218D01*
X1038035Y454235D01*
X1038815Y453345D01*
X1039705Y452565D01*
X1040688Y451908D01*
X1041275Y451619D01*
X1040979Y450349D01*
X1024041D01*
X1023745Y451619D01*
X1024332Y451908D01*
X1025315Y452565D01*
X1026205Y453345D01*
X1026985Y454235D01*
X1027642Y455218D01*
X1028165Y456279D01*
X1028545Y457399D01*
X1028776Y458560D01*
X1028853Y459740D01*
X1028776Y460920D01*
X1028545Y462081D01*
X1028165Y463201D01*
X1027642Y464262D01*
X1026985Y465245D01*
X1026205Y466135D01*
X1025315Y466915D01*
X1024332Y467572D01*
X1023271Y468095D01*
X1022151Y468475D01*
X1020990Y468706D01*
X1019810Y468783D01*
X1018630Y468706D01*
X1017469Y468475D01*
X1016349Y468095D01*
X1015288Y467572D01*
X1014305Y466915D01*
X1013415Y466135D01*
X1012635Y465245D01*
X1011978Y464262D01*
X1011455Y463201D01*
X1011075Y462081D01*
X1010844Y460920D01*
X1010767Y459740D01*
X1010844Y458560D01*
X1011075Y457399D01*
X1011455Y456279D01*
X1011978Y455218D01*
X1012635Y454235D01*
X1013415Y453345D01*
X1014305Y452565D01*
X1015288Y451908D01*
X1015875Y451619D01*
X1015579Y450349D01*
X998641D01*
X998345Y451619D01*
X998932Y451908D01*
X999915Y452565D01*
X1000805Y453345D01*
X1001585Y454235D01*
X1002242Y455218D01*
X1002765Y456279D01*
X1003145Y457399D01*
X1003376Y458560D01*
X1003453Y459740D01*
X1003376Y460920D01*
X1003145Y462081D01*
X1002765Y463201D01*
X1002242Y464262D01*
X1001585Y465245D01*
X1000805Y466135D01*
X999915Y466915D01*
X998932Y467572D01*
X997871Y468095D01*
X996751Y468475D01*
X995590Y468706D01*
X994410Y468783D01*
X993230Y468706D01*
X992069Y468475D01*
X990949Y468095D01*
X989888Y467572D01*
X988905Y466915D01*
X988015Y466135D01*
X987235Y465245D01*
X986578Y464262D01*
X986055Y463201D01*
X985675Y462081D01*
X985444Y460920D01*
X985367Y459740D01*
X985444Y458560D01*
X985675Y457399D01*
X986055Y456279D01*
X986578Y455218D01*
X987235Y454235D01*
X988015Y453345D01*
X988905Y452565D01*
X989888Y451908D01*
X990475Y451619D01*
X990179Y450349D01*
X768446Y450349D01*
X756099Y462696D01*
Y590186D01*
X776334D01*
Y596419D01*
X833072D01*
X862056Y567436D01*
D02*
G37*
%LPC*%
G36*
X1172210Y951383D02*
X1171030Y951306D01*
X1169869Y951075D01*
X1168749Y950695D01*
X1167688Y950172D01*
X1166705Y949515D01*
X1165815Y948735D01*
X1165035Y947845D01*
X1164378Y946862D01*
X1163855Y945801D01*
X1163475Y944681D01*
X1163244Y943520D01*
X1163167Y942340D01*
X1163244Y941160D01*
X1163475Y939999D01*
X1163855Y938879D01*
X1164378Y937818D01*
X1165035Y936835D01*
X1165815Y935945D01*
X1166705Y935165D01*
X1167688Y934508D01*
X1168749Y933985D01*
X1169869Y933605D01*
X1171030Y933374D01*
X1172210Y933297D01*
X1173390Y933374D01*
X1174551Y933605D01*
X1175671Y933985D01*
X1176732Y934508D01*
X1177715Y935165D01*
X1178605Y935945D01*
X1179385Y936835D01*
X1180042Y937818D01*
X1180565Y938879D01*
X1180945Y939999D01*
X1181176Y941160D01*
X1181253Y942340D01*
X1181176Y943520D01*
X1180945Y944681D01*
X1180565Y945801D01*
X1180042Y946862D01*
X1179385Y947845D01*
X1178605Y948735D01*
X1177715Y949515D01*
X1176732Y950172D01*
X1175671Y950695D01*
X1174551Y951075D01*
X1173390Y951306D01*
X1172210Y951383D01*
D02*
G37*
G36*
X902970D02*
X901790Y951306D01*
X900629Y951075D01*
X899509Y950695D01*
X898448Y950172D01*
X897465Y949515D01*
X896575Y948735D01*
X895795Y947845D01*
X895138Y946862D01*
X894615Y945801D01*
X894235Y944681D01*
X894004Y943520D01*
X893927Y942340D01*
X894004Y941160D01*
X894235Y939999D01*
X894615Y938879D01*
X895138Y937818D01*
X895795Y936835D01*
X896575Y935945D01*
X897465Y935165D01*
X898448Y934508D01*
X899509Y933985D01*
X900629Y933605D01*
X901790Y933374D01*
X902970Y933297D01*
X904150Y933374D01*
X905311Y933605D01*
X906431Y933985D01*
X907492Y934508D01*
X908475Y935165D01*
X909365Y935945D01*
X910145Y936835D01*
X910802Y937818D01*
X911325Y938879D01*
X911705Y939999D01*
X911936Y941160D01*
X912013Y942340D01*
X911936Y943520D01*
X911705Y944681D01*
X911325Y945801D01*
X910802Y946862D01*
X910145Y947845D01*
X909365Y948735D01*
X908475Y949515D01*
X907492Y950172D01*
X906431Y950695D01*
X905311Y951075D01*
X904150Y951306D01*
X902970Y951383D01*
D02*
G37*
G36*
X1106170D02*
X1104990Y951306D01*
X1103829Y951075D01*
X1102709Y950695D01*
X1101648Y950172D01*
X1100665Y949515D01*
X1099775Y948735D01*
X1098995Y947845D01*
X1098338Y946862D01*
X1097815Y945801D01*
X1097435Y944681D01*
X1097204Y943520D01*
X1097127Y942340D01*
X1097204Y941160D01*
X1097435Y939999D01*
X1097815Y938879D01*
X1098338Y937818D01*
X1098995Y936835D01*
X1099233Y936564D01*
X1094886Y932217D01*
X1082646D01*
X1082521Y933487D01*
X1083111Y933605D01*
X1084231Y933985D01*
X1085292Y934508D01*
X1086275Y935165D01*
X1087165Y935945D01*
X1087945Y936835D01*
X1088602Y937818D01*
X1089125Y938879D01*
X1089505Y939999D01*
X1089736Y941160D01*
X1089813Y942340D01*
X1089736Y943520D01*
X1089505Y944681D01*
X1089125Y945801D01*
X1088602Y946862D01*
X1087945Y947845D01*
X1087165Y948735D01*
X1086275Y949515D01*
X1085292Y950172D01*
X1084231Y950695D01*
X1083111Y951075D01*
X1081950Y951306D01*
X1080770Y951383D01*
X1079590Y951306D01*
X1078429Y951075D01*
X1077309Y950695D01*
X1076248Y950172D01*
X1075265Y949515D01*
X1074375Y948735D01*
X1073595Y947845D01*
X1072938Y946862D01*
X1072415Y945801D01*
X1072035Y944681D01*
X1071804Y943520D01*
X1071727Y942340D01*
X1071804Y941160D01*
X1072035Y939999D01*
X1072415Y938879D01*
X1072938Y937818D01*
X1073595Y936835D01*
X1074375Y935945D01*
X1075265Y935165D01*
X1076248Y934508D01*
X1077309Y933985D01*
X1078429Y933605D01*
X1079019Y933487D01*
X1078894Y932217D01*
X1057246D01*
X1057121Y933487D01*
X1057711Y933605D01*
X1058831Y933985D01*
X1059892Y934508D01*
X1060875Y935165D01*
X1061765Y935945D01*
X1062545Y936835D01*
X1063202Y937818D01*
X1063725Y938879D01*
X1064105Y939999D01*
X1064336Y941160D01*
X1064413Y942340D01*
X1064336Y943520D01*
X1064105Y944681D01*
X1063725Y945801D01*
X1063202Y946862D01*
X1062545Y947845D01*
X1061765Y948735D01*
X1060875Y949515D01*
X1059892Y950172D01*
X1058831Y950695D01*
X1057711Y951075D01*
X1056550Y951306D01*
X1055370Y951383D01*
X1054190Y951306D01*
X1053029Y951075D01*
X1051909Y950695D01*
X1050848Y950172D01*
X1049865Y949515D01*
X1048975Y948735D01*
X1048195Y947845D01*
X1047538Y946862D01*
X1047015Y945801D01*
X1046635Y944681D01*
X1046404Y943520D01*
X1046327Y942340D01*
X1046404Y941160D01*
X1046635Y939999D01*
X1047015Y938879D01*
X1047538Y937818D01*
X1048195Y936835D01*
X1048975Y935945D01*
X1049865Y935165D01*
X1050848Y934508D01*
X1051909Y933985D01*
X1053029Y933605D01*
X1053619Y933487D01*
X1053494Y932217D01*
X1031846D01*
X1031721Y933487D01*
X1032311Y933605D01*
X1033431Y933985D01*
X1034492Y934508D01*
X1035475Y935165D01*
X1036365Y935945D01*
X1037145Y936835D01*
X1037802Y937818D01*
X1038325Y938879D01*
X1038705Y939999D01*
X1038936Y941160D01*
X1039013Y942340D01*
X1038936Y943520D01*
X1038705Y944681D01*
X1038325Y945801D01*
X1037802Y946862D01*
X1037145Y947845D01*
X1036365Y948735D01*
X1035475Y949515D01*
X1034492Y950172D01*
X1033431Y950695D01*
X1032311Y951075D01*
X1031150Y951306D01*
X1029970Y951383D01*
X1028790Y951306D01*
X1027629Y951075D01*
X1026509Y950695D01*
X1025448Y950172D01*
X1024465Y949515D01*
X1023575Y948735D01*
X1022795Y947845D01*
X1022138Y946862D01*
X1021615Y945801D01*
X1021235Y944681D01*
X1021004Y943520D01*
X1020927Y942340D01*
X1021004Y941160D01*
X1021235Y939999D01*
X1021615Y938879D01*
X1022138Y937818D01*
X1022795Y936835D01*
X1023575Y935945D01*
X1024465Y935165D01*
X1025448Y934508D01*
X1026509Y933985D01*
X1027629Y933605D01*
X1028219Y933487D01*
X1028094Y932217D01*
X1006446D01*
X1006321Y933487D01*
X1006911Y933605D01*
X1008031Y933985D01*
X1009092Y934508D01*
X1010075Y935165D01*
X1010965Y935945D01*
X1011745Y936835D01*
X1012402Y937818D01*
X1012925Y938879D01*
X1013305Y939999D01*
X1013536Y941160D01*
X1013613Y942340D01*
X1013536Y943520D01*
X1013305Y944681D01*
X1012925Y945801D01*
X1012402Y946862D01*
X1011745Y947845D01*
X1010965Y948735D01*
X1010075Y949515D01*
X1009092Y950172D01*
X1008031Y950695D01*
X1006911Y951075D01*
X1005750Y951306D01*
X1004570Y951383D01*
X1003390Y951306D01*
X1002229Y951075D01*
X1001109Y950695D01*
X1000048Y950172D01*
X999065Y949515D01*
X998175Y948735D01*
X997395Y947845D01*
X996738Y946862D01*
X996215Y945801D01*
X995835Y944681D01*
X995604Y943520D01*
X995527Y942340D01*
X995604Y941160D01*
X995835Y939999D01*
X996215Y938879D01*
X996738Y937818D01*
X997395Y936835D01*
X998175Y935945D01*
X999065Y935165D01*
X1000048Y934508D01*
X1001109Y933985D01*
X1002229Y933605D01*
X1002819Y933487D01*
X1002694Y932217D01*
X981046D01*
X980921Y933487D01*
X981511Y933605D01*
X982631Y933985D01*
X983692Y934508D01*
X984675Y935165D01*
X985565Y935945D01*
X986345Y936835D01*
X987002Y937818D01*
X987525Y938879D01*
X987905Y939999D01*
X988136Y941160D01*
X988213Y942340D01*
X988136Y943520D01*
X987905Y944681D01*
X987525Y945801D01*
X987002Y946862D01*
X986345Y947845D01*
X985565Y948735D01*
X984675Y949515D01*
X983692Y950172D01*
X982631Y950695D01*
X981511Y951075D01*
X980350Y951306D01*
X979170Y951383D01*
X977990Y951306D01*
X976829Y951075D01*
X975709Y950695D01*
X974648Y950172D01*
X973665Y949515D01*
X972775Y948735D01*
X971995Y947845D01*
X971338Y946862D01*
X970815Y945801D01*
X970435Y944681D01*
X970204Y943520D01*
X970127Y942340D01*
X970204Y941160D01*
X970435Y939999D01*
X970815Y938879D01*
X971338Y937818D01*
X971995Y936835D01*
X972775Y935945D01*
X973665Y935165D01*
X974648Y934508D01*
X975709Y933985D01*
X976829Y933605D01*
X977419Y933487D01*
X977294Y932217D01*
X955646D01*
X955521Y933487D01*
X956111Y933605D01*
X957231Y933985D01*
X958292Y934508D01*
X959275Y935165D01*
X960165Y935945D01*
X960945Y936835D01*
X961602Y937818D01*
X962125Y938879D01*
X962505Y939999D01*
X962736Y941160D01*
X962813Y942340D01*
X962736Y943520D01*
X962505Y944681D01*
X962125Y945801D01*
X961602Y946862D01*
X960945Y947845D01*
X960165Y948735D01*
X959275Y949515D01*
X958292Y950172D01*
X957231Y950695D01*
X956111Y951075D01*
X954950Y951306D01*
X953770Y951383D01*
X952590Y951306D01*
X951429Y951075D01*
X950309Y950695D01*
X949248Y950172D01*
X948265Y949515D01*
X947375Y948735D01*
X946595Y947845D01*
X945938Y946862D01*
X945415Y945801D01*
X945035Y944681D01*
X944804Y943520D01*
X944727Y942340D01*
X944804Y941160D01*
X945035Y939999D01*
X945415Y938879D01*
X945938Y937818D01*
X946595Y936835D01*
X947375Y935945D01*
X948265Y935165D01*
X949248Y934508D01*
X950309Y933985D01*
X951429Y933605D01*
X952019Y933487D01*
X951894Y932217D01*
X930246D01*
X930121Y933487D01*
X930711Y933605D01*
X931831Y933985D01*
X932892Y934508D01*
X933875Y935165D01*
X934765Y935945D01*
X935545Y936835D01*
X936202Y937818D01*
X936725Y938879D01*
X937105Y939999D01*
X937336Y941160D01*
X937413Y942340D01*
X937336Y943520D01*
X937105Y944681D01*
X936725Y945801D01*
X936202Y946862D01*
X935545Y947845D01*
X934765Y948735D01*
X933875Y949515D01*
X932892Y950172D01*
X931831Y950695D01*
X930711Y951075D01*
X929550Y951306D01*
X928370Y951383D01*
X927190Y951306D01*
X926029Y951075D01*
X924909Y950695D01*
X923848Y950172D01*
X922865Y949515D01*
X921975Y948735D01*
X921195Y947845D01*
X920538Y946862D01*
X920015Y945801D01*
X919635Y944681D01*
X919404Y943520D01*
X919327Y942340D01*
X919404Y941160D01*
X919635Y939999D01*
X920015Y938879D01*
X920538Y937818D01*
X921195Y936835D01*
X921975Y935945D01*
X922865Y935165D01*
X923848Y934508D01*
X924909Y933985D01*
X926029Y933605D01*
X926619Y933487D01*
X926494Y932217D01*
X908877D01*
X908877Y932217D01*
X908040Y932135D01*
X907235Y931891D01*
X906493Y931494D01*
X905843Y930961D01*
X905843Y930961D01*
X854086Y879204D01*
X839106D01*
Y858156D01*
X860154D01*
Y873136D01*
X910654Y923636D01*
X1096663D01*
X1096664Y923636D01*
X1097501Y923719D01*
X1098306Y923963D01*
X1099047Y924359D01*
X1099698Y924893D01*
X1108384Y933580D01*
X1108511Y933605D01*
X1109631Y933985D01*
X1110692Y934508D01*
X1111675Y935165D01*
X1112565Y935945D01*
X1113345Y936835D01*
X1114002Y937818D01*
X1114525Y938879D01*
X1114905Y939999D01*
X1115136Y941160D01*
X1115213Y942340D01*
X1115136Y943520D01*
X1114905Y944681D01*
X1114525Y945801D01*
X1114002Y946862D01*
X1113345Y947845D01*
X1112565Y948735D01*
X1111675Y949515D01*
X1110692Y950172D01*
X1109631Y950695D01*
X1108511Y951075D01*
X1107350Y951306D01*
X1106170Y951383D01*
D02*
G37*
G36*
X850900Y905562D02*
Y895350D01*
X861112D01*
X861096Y895590D01*
X860801Y897073D01*
X860314Y898506D01*
X859645Y899862D01*
X858805Y901120D01*
X857807Y902258D01*
X856670Y903255D01*
X855412Y904095D01*
X854056Y904764D01*
X852623Y905251D01*
X851140Y905546D01*
X850900Y905562D01*
D02*
G37*
G36*
X848360D02*
X848120Y905546D01*
X846637Y905251D01*
X845204Y904764D01*
X843848Y904095D01*
X842590Y903255D01*
X841452Y902258D01*
X840455Y901120D01*
X839615Y899862D01*
X838946Y898506D01*
X838459Y897073D01*
X838164Y895590D01*
X838148Y895350D01*
X848360D01*
Y905562D01*
D02*
G37*
G36*
X779374Y911454D02*
X757326D01*
Y889406D01*
X779374D01*
Y911454D01*
D02*
G37*
G36*
X861112Y892810D02*
X850900D01*
Y882598D01*
X851140Y882614D01*
X852623Y882909D01*
X854056Y883396D01*
X855412Y884065D01*
X856670Y884905D01*
X857807Y885902D01*
X858805Y887040D01*
X859645Y888298D01*
X860314Y889654D01*
X860801Y891087D01*
X861096Y892570D01*
X861112Y892810D01*
D02*
G37*
G36*
X848360D02*
X838148D01*
X838164Y892570D01*
X838459Y891087D01*
X838946Y889654D01*
X839615Y888298D01*
X840455Y887040D01*
X841452Y885902D01*
X842590Y884905D01*
X843848Y884065D01*
X845204Y883396D01*
X846637Y882909D01*
X848120Y882614D01*
X848360Y882598D01*
Y892810D01*
D02*
G37*
G36*
X1097098Y896939D02*
X1080050D01*
Y879892D01*
X1097098D01*
Y896939D01*
D02*
G37*
G36*
X1063174Y896958D02*
X1062059Y896885D01*
X1060963Y896667D01*
X1059905Y896308D01*
X1058903Y895813D01*
X1057974Y895193D01*
X1057134Y894456D01*
X1056397Y893616D01*
X1055776Y892687D01*
X1055282Y891684D01*
X1054923Y890626D01*
X1054705Y889530D01*
X1054632Y888416D01*
X1054705Y887301D01*
X1054923Y886205D01*
X1055282Y885147D01*
X1055776Y884144D01*
X1056397Y883215D01*
X1057134Y882375D01*
X1057974Y881638D01*
X1058903Y881018D01*
X1059905Y880524D01*
X1060963Y880164D01*
X1062059Y879946D01*
X1063174Y879873D01*
X1064289Y879946D01*
X1065385Y880164D01*
X1066443Y880524D01*
X1067445Y881018D01*
X1068374Y881638D01*
X1069214Y882375D01*
X1069951Y883215D01*
X1070572Y884144D01*
X1071066Y885147D01*
X1071425Y886205D01*
X1071643Y887301D01*
X1071717Y888416D01*
X1071643Y889530D01*
X1071425Y890626D01*
X1071066Y891684D01*
X1070572Y892687D01*
X1069951Y893616D01*
X1069214Y894456D01*
X1068374Y895193D01*
X1067445Y895813D01*
X1066443Y896308D01*
X1065385Y896667D01*
X1064289Y896885D01*
X1063174Y896958D01*
D02*
G37*
G36*
X1037774D02*
X1036659Y896885D01*
X1035563Y896667D01*
X1034505Y896308D01*
X1033503Y895813D01*
X1032574Y895193D01*
X1031734Y894456D01*
X1030997Y893616D01*
X1030376Y892687D01*
X1029882Y891684D01*
X1029523Y890626D01*
X1029305Y889530D01*
X1029232Y888416D01*
X1029305Y887301D01*
X1029523Y886205D01*
X1029882Y885147D01*
X1030376Y884144D01*
X1030997Y883215D01*
X1031734Y882375D01*
X1032574Y881638D01*
X1033503Y881018D01*
X1034505Y880524D01*
X1035563Y880164D01*
X1036659Y879946D01*
X1037774Y879873D01*
X1038889Y879946D01*
X1039985Y880164D01*
X1041043Y880524D01*
X1042045Y881018D01*
X1042974Y881638D01*
X1043814Y882375D01*
X1044551Y883215D01*
X1045172Y884144D01*
X1045666Y885147D01*
X1046025Y886205D01*
X1046243Y887301D01*
X1046317Y888416D01*
X1046243Y889530D01*
X1046025Y890626D01*
X1045666Y891684D01*
X1045172Y892687D01*
X1044551Y893616D01*
X1043814Y894456D01*
X1042974Y895193D01*
X1042045Y895813D01*
X1041043Y896308D01*
X1039985Y896667D01*
X1038889Y896885D01*
X1037774Y896958D01*
D02*
G37*
G36*
X1013644D02*
X1012529Y896885D01*
X1011433Y896667D01*
X1010375Y896308D01*
X1009373Y895813D01*
X1008444Y895193D01*
X1007604Y894456D01*
X1006867Y893616D01*
X1006246Y892687D01*
X1005752Y891684D01*
X1005393Y890626D01*
X1005175Y889530D01*
X1005102Y888416D01*
X1005175Y887301D01*
X1005393Y886205D01*
X1005752Y885147D01*
X1006246Y884144D01*
X1006867Y883215D01*
X1007604Y882375D01*
X1008444Y881638D01*
X1009373Y881018D01*
X1010375Y880524D01*
X1011433Y880164D01*
X1012529Y879946D01*
X1013644Y879873D01*
X1014759Y879946D01*
X1015855Y880164D01*
X1016913Y880524D01*
X1017915Y881018D01*
X1018844Y881638D01*
X1019685Y882375D01*
X1020421Y883215D01*
X1021042Y884144D01*
X1021536Y885147D01*
X1021895Y886205D01*
X1022113Y887301D01*
X1022187Y888416D01*
X1022113Y889530D01*
X1021895Y890626D01*
X1021536Y891684D01*
X1021042Y892687D01*
X1020421Y893616D01*
X1019685Y894456D01*
X1018844Y895193D01*
X1017915Y895813D01*
X1016913Y896308D01*
X1015855Y896667D01*
X1014759Y896885D01*
X1013644Y896958D01*
D02*
G37*
G36*
X769620Y861618D02*
Y850900D01*
X780338D01*
X780333Y850980D01*
X780107Y852313D01*
X779732Y853613D01*
X779215Y854862D01*
X778561Y856046D01*
X777778Y857149D01*
X776877Y858157D01*
X775869Y859058D01*
X774766Y859841D01*
X773582Y860495D01*
X772333Y861012D01*
X771033Y861387D01*
X769700Y861613D01*
X769620Y861618D01*
D02*
G37*
G36*
X767080D02*
X767000Y861613D01*
X765667Y861387D01*
X764367Y861012D01*
X763118Y860495D01*
X761934Y859841D01*
X760831Y859058D01*
X759823Y858157D01*
X758922Y857149D01*
X758139Y856046D01*
X757485Y854862D01*
X756968Y853613D01*
X756593Y852313D01*
X756367Y850980D01*
X756362Y850900D01*
X767080D01*
Y861618D01*
D02*
G37*
G36*
X780338Y848360D02*
X769620D01*
Y837642D01*
X769700Y837647D01*
X771033Y837873D01*
X772333Y838248D01*
X773582Y838765D01*
X774766Y839419D01*
X775869Y840202D01*
X776877Y841103D01*
X777778Y842111D01*
X778561Y843214D01*
X779215Y844398D01*
X779732Y845647D01*
X780107Y846947D01*
X780333Y848280D01*
X780338Y848360D01*
D02*
G37*
G36*
X767080D02*
X756362D01*
X756367Y848280D01*
X756593Y846947D01*
X756968Y845647D01*
X757485Y844398D01*
X758139Y843214D01*
X758922Y842111D01*
X759823Y841103D01*
X760831Y840202D01*
X761934Y839419D01*
X763118Y838765D01*
X764367Y838248D01*
X765667Y837873D01*
X767000Y837647D01*
X767080Y837642D01*
Y848360D01*
D02*
G37*
G36*
X1209563Y838569D02*
Y829740D01*
X1218392D01*
X1218388Y829799D01*
X1218128Y831105D01*
X1217700Y832367D01*
X1217111Y833561D01*
X1216371Y834669D01*
X1215493Y835670D01*
X1214491Y836548D01*
X1213384Y837288D01*
X1212189Y837877D01*
X1210928Y838305D01*
X1209622Y838565D01*
X1209563Y838569D01*
D02*
G37*
G36*
X1207023D02*
X1206964Y838565D01*
X1205658Y838305D01*
X1204397Y837877D01*
X1203202Y837288D01*
X1202095Y836548D01*
X1201093Y835670D01*
X1200215Y834669D01*
X1199475Y833561D01*
X1198886Y832367D01*
X1198458Y831105D01*
X1198198Y829799D01*
X1198195Y829740D01*
X1207023D01*
Y838569D01*
D02*
G37*
G36*
X985330Y838377D02*
Y829549D01*
X994159D01*
X994155Y829608D01*
X993895Y830914D01*
X993467Y832175D01*
X992878Y833370D01*
X992138Y834477D01*
X991260Y835479D01*
X990259Y836357D01*
X989151Y837096D01*
X987957Y837686D01*
X986696Y838114D01*
X985389Y838374D01*
X985330Y838377D01*
D02*
G37*
G36*
X982790D02*
X982731Y838374D01*
X981425Y838114D01*
X980164Y837686D01*
X978969Y837096D01*
X977862Y836357D01*
X976861Y835479D01*
X975983Y834477D01*
X975243Y833370D01*
X974653Y832175D01*
X974225Y830914D01*
X973966Y829608D01*
X973962Y829549D01*
X982790D01*
Y838377D01*
D02*
G37*
G36*
X850900Y838251D02*
Y828040D01*
X861112D01*
X861096Y828279D01*
X860801Y829763D01*
X860314Y831196D01*
X859645Y832552D01*
X858805Y833810D01*
X857807Y834948D01*
X856670Y835945D01*
X855412Y836785D01*
X854056Y837454D01*
X852623Y837941D01*
X851140Y838236D01*
X850900Y838251D01*
D02*
G37*
G36*
X848360D02*
X848120Y838236D01*
X846637Y837941D01*
X845204Y837454D01*
X843848Y836785D01*
X842590Y835945D01*
X841452Y834948D01*
X840455Y833810D01*
X839615Y832552D01*
X838946Y831196D01*
X838459Y829763D01*
X838164Y828279D01*
X838148Y828040D01*
X848360D01*
Y838251D01*
D02*
G37*
G36*
X1233693Y837634D02*
X1232497Y837555D01*
X1231321Y837322D01*
X1230186Y836936D01*
X1229111Y836406D01*
X1228115Y835740D01*
X1227213Y834950D01*
X1226423Y834049D01*
X1225757Y833052D01*
X1225227Y831977D01*
X1224842Y830842D01*
X1224608Y829666D01*
X1224529Y828470D01*
X1224608Y827274D01*
X1224842Y826099D01*
X1225227Y824964D01*
X1225757Y823888D01*
X1226423Y822892D01*
X1227213Y821991D01*
X1228115Y821200D01*
X1229111Y820534D01*
X1230186Y820004D01*
X1231321Y819619D01*
X1232497Y819385D01*
X1233693Y819307D01*
X1234889Y819385D01*
X1236065Y819619D01*
X1237200Y820004D01*
X1238275Y820534D01*
X1239271Y821200D01*
X1240173Y821991D01*
X1240963Y822892D01*
X1241629Y823888D01*
X1242159Y824964D01*
X1242544Y826099D01*
X1242778Y827274D01*
X1242857Y828470D01*
X1242778Y829666D01*
X1242544Y830842D01*
X1242159Y831977D01*
X1241629Y833052D01*
X1240963Y834049D01*
X1240173Y834950D01*
X1239271Y835740D01*
X1238275Y836406D01*
X1237200Y836936D01*
X1236065Y837322D01*
X1234889Y837555D01*
X1233693Y837634D01*
D02*
G37*
G36*
X1182893D02*
X1181697Y837555D01*
X1180521Y837322D01*
X1179386Y836936D01*
X1178311Y836406D01*
X1177315Y835740D01*
X1176413Y834950D01*
X1175623Y834049D01*
X1174957Y833052D01*
X1174427Y831977D01*
X1174042Y830842D01*
X1173808Y829666D01*
X1173729Y828470D01*
X1173808Y827274D01*
X1174042Y826099D01*
X1174427Y824964D01*
X1174957Y823888D01*
X1175623Y822892D01*
X1176413Y821991D01*
X1177315Y821200D01*
X1178311Y820534D01*
X1179386Y820004D01*
X1180521Y819619D01*
X1181697Y819385D01*
X1182893Y819307D01*
X1184089Y819385D01*
X1185265Y819619D01*
X1186400Y820004D01*
X1187475Y820534D01*
X1188472Y821200D01*
X1189373Y821991D01*
X1190163Y822892D01*
X1190829Y823888D01*
X1191359Y824964D01*
X1191744Y826099D01*
X1191978Y827274D01*
X1192057Y828470D01*
X1191978Y829666D01*
X1191744Y830842D01*
X1191359Y831977D01*
X1190829Y833052D01*
X1190163Y834049D01*
X1189373Y834950D01*
X1188472Y835740D01*
X1187475Y836406D01*
X1186400Y836936D01*
X1185265Y837322D01*
X1184089Y837555D01*
X1182893Y837634D01*
D02*
G37*
G36*
X1085660Y837442D02*
X1084464Y837364D01*
X1083289Y837130D01*
X1082154Y836745D01*
X1081078Y836215D01*
X1080082Y835549D01*
X1079181Y834759D01*
X1078390Y833857D01*
X1077724Y832861D01*
X1077194Y831786D01*
X1076809Y830651D01*
X1076575Y829475D01*
X1076497Y828279D01*
X1076575Y827083D01*
X1076809Y825907D01*
X1077194Y824772D01*
X1077724Y823697D01*
X1078390Y822700D01*
X1079181Y821799D01*
X1080082Y821009D01*
X1081078Y820343D01*
X1082154Y819813D01*
X1083289Y819427D01*
X1084464Y819194D01*
X1085660Y819115D01*
X1086856Y819194D01*
X1088032Y819427D01*
X1089167Y819813D01*
X1090242Y820343D01*
X1091239Y821009D01*
X1092140Y821799D01*
X1092930Y822700D01*
X1093596Y823697D01*
X1094126Y824772D01*
X1094512Y825907D01*
X1094745Y827083D01*
X1094824Y828279D01*
X1094745Y829475D01*
X1094512Y830651D01*
X1094126Y831786D01*
X1093596Y832861D01*
X1092930Y833857D01*
X1092140Y834759D01*
X1091239Y835549D01*
X1090242Y836215D01*
X1089167Y836745D01*
X1088032Y837130D01*
X1086856Y837364D01*
X1085660Y837442D01*
D02*
G37*
G36*
X1060260D02*
X1059064Y837364D01*
X1057889Y837130D01*
X1056754Y836745D01*
X1055678Y836215D01*
X1054682Y835549D01*
X1053781Y834759D01*
X1052990Y833857D01*
X1052324Y832861D01*
X1051794Y831786D01*
X1051409Y830651D01*
X1051175Y829475D01*
X1051097Y828279D01*
X1051175Y827083D01*
X1051409Y825907D01*
X1051794Y824772D01*
X1052324Y823697D01*
X1052990Y822700D01*
X1053781Y821799D01*
X1054682Y821009D01*
X1055678Y820343D01*
X1056754Y819813D01*
X1057889Y819427D01*
X1059064Y819194D01*
X1060260Y819115D01*
X1061456Y819194D01*
X1062632Y819427D01*
X1063767Y819813D01*
X1064842Y820343D01*
X1065839Y821009D01*
X1066740Y821799D01*
X1067530Y822700D01*
X1068196Y823697D01*
X1068726Y824772D01*
X1069112Y825907D01*
X1069345Y827083D01*
X1069424Y828279D01*
X1069345Y829475D01*
X1069112Y830651D01*
X1068726Y831786D01*
X1068196Y832861D01*
X1067530Y833857D01*
X1066740Y834759D01*
X1065839Y835549D01*
X1064842Y836215D01*
X1063767Y836745D01*
X1062632Y837130D01*
X1061456Y837364D01*
X1060260Y837442D01*
D02*
G37*
G36*
X1034860D02*
X1033664Y837364D01*
X1032489Y837130D01*
X1031354Y836745D01*
X1030278Y836215D01*
X1029282Y835549D01*
X1028381Y834759D01*
X1027590Y833857D01*
X1026924Y832861D01*
X1026394Y831786D01*
X1026009Y830651D01*
X1025775Y829475D01*
X1025697Y828279D01*
X1025775Y827083D01*
X1026009Y825907D01*
X1026394Y824772D01*
X1026924Y823697D01*
X1027590Y822700D01*
X1028381Y821799D01*
X1029282Y821009D01*
X1030278Y820343D01*
X1031354Y819813D01*
X1032489Y819427D01*
X1033664Y819194D01*
X1034860Y819115D01*
X1036056Y819194D01*
X1037232Y819427D01*
X1038367Y819813D01*
X1039442Y820343D01*
X1040439Y821009D01*
X1041340Y821799D01*
X1042130Y822700D01*
X1042796Y823697D01*
X1043326Y824772D01*
X1043712Y825907D01*
X1043945Y827083D01*
X1044024Y828279D01*
X1043945Y829475D01*
X1043712Y830651D01*
X1043326Y831786D01*
X1042796Y832861D01*
X1042130Y833857D01*
X1041340Y834759D01*
X1040439Y835549D01*
X1039442Y836215D01*
X1038367Y836745D01*
X1037232Y837130D01*
X1036056Y837364D01*
X1034860Y837442D01*
D02*
G37*
G36*
X1009460D02*
X1008264Y837364D01*
X1007089Y837130D01*
X1005954Y836745D01*
X1004878Y836215D01*
X1003882Y835549D01*
X1002981Y834759D01*
X1002190Y833857D01*
X1001524Y832861D01*
X1000994Y831786D01*
X1000609Y830651D01*
X1000375Y829475D01*
X1000297Y828279D01*
X1000375Y827083D01*
X1000609Y825907D01*
X1000994Y824772D01*
X1001524Y823697D01*
X1002190Y822700D01*
X1002981Y821799D01*
X1003882Y821009D01*
X1004878Y820343D01*
X1005954Y819813D01*
X1007089Y819427D01*
X1008264Y819194D01*
X1009460Y819115D01*
X1010656Y819194D01*
X1011832Y819427D01*
X1012967Y819813D01*
X1014042Y820343D01*
X1015039Y821009D01*
X1015940Y821799D01*
X1016730Y822700D01*
X1017396Y823697D01*
X1017926Y824772D01*
X1018312Y825907D01*
X1018546Y827083D01*
X1018624Y828279D01*
X1018546Y829475D01*
X1018312Y830651D01*
X1017926Y831786D01*
X1017396Y832861D01*
X1016730Y833857D01*
X1015940Y834759D01*
X1015039Y835549D01*
X1014042Y836215D01*
X1012967Y836745D01*
X1011832Y837130D01*
X1010656Y837364D01*
X1009460Y837442D01*
D02*
G37*
G36*
X958660D02*
X957464Y837364D01*
X956289Y837130D01*
X955154Y836745D01*
X954079Y836215D01*
X953082Y835549D01*
X952181Y834759D01*
X951390Y833857D01*
X950724Y832861D01*
X950194Y831786D01*
X949809Y830651D01*
X949575Y829475D01*
X949497Y828279D01*
X949575Y827083D01*
X949809Y825907D01*
X950194Y824772D01*
X950724Y823697D01*
X951390Y822700D01*
X952181Y821799D01*
X953082Y821009D01*
X954079Y820343D01*
X955154Y819813D01*
X956289Y819427D01*
X957464Y819194D01*
X958660Y819115D01*
X959856Y819194D01*
X961032Y819427D01*
X962167Y819813D01*
X963242Y820343D01*
X964239Y821009D01*
X965140Y821799D01*
X965930Y822700D01*
X966596Y823697D01*
X967126Y824772D01*
X967512Y825907D01*
X967746Y827083D01*
X967824Y828279D01*
X967746Y829475D01*
X967512Y830651D01*
X967126Y831786D01*
X966596Y832861D01*
X965930Y833857D01*
X965140Y834759D01*
X964239Y835549D01*
X963242Y836215D01*
X962167Y836745D01*
X961032Y837130D01*
X959856Y837364D01*
X958660Y837442D01*
D02*
G37*
G36*
X1218392Y827200D02*
X1209563D01*
Y818372D01*
X1209622Y818376D01*
X1210928Y818635D01*
X1212189Y819063D01*
X1213384Y819653D01*
X1214491Y820393D01*
X1215493Y821271D01*
X1216371Y822272D01*
X1217111Y823379D01*
X1217700Y824574D01*
X1218128Y825835D01*
X1218388Y827141D01*
X1218392Y827200D01*
D02*
G37*
G36*
X1207023D02*
X1198195D01*
X1198198Y827141D01*
X1198458Y825835D01*
X1198886Y824574D01*
X1199475Y823379D01*
X1200215Y822272D01*
X1201093Y821271D01*
X1202095Y820393D01*
X1203202Y819653D01*
X1204397Y819063D01*
X1205658Y818635D01*
X1206964Y818376D01*
X1207023Y818372D01*
Y827200D01*
D02*
G37*
G36*
X994159Y827009D02*
X985330D01*
Y818180D01*
X985389Y818184D01*
X986696Y818444D01*
X987957Y818872D01*
X989151Y819461D01*
X990259Y820201D01*
X991260Y821079D01*
X992138Y822081D01*
X992878Y823188D01*
X993467Y824382D01*
X993895Y825644D01*
X994155Y826950D01*
X994159Y827009D01*
D02*
G37*
G36*
X1146559D02*
X1137730D01*
Y818180D01*
X1137789Y818184D01*
X1139096Y818444D01*
X1140357Y818872D01*
X1141551Y819461D01*
X1142659Y820201D01*
X1143660Y821079D01*
X1144538Y822081D01*
X1145278Y823188D01*
X1145867Y824382D01*
X1146295Y825644D01*
X1146555Y826950D01*
X1146559Y827009D01*
D02*
G37*
G36*
X982790D02*
X973962D01*
X973966Y826950D01*
X974225Y825644D01*
X974653Y824382D01*
X975243Y823188D01*
X975983Y822081D01*
X976861Y821079D01*
X977862Y820201D01*
X978969Y819461D01*
X980164Y818872D01*
X981425Y818444D01*
X982731Y818184D01*
X982790Y818180D01*
Y827009D01*
D02*
G37*
G36*
X861112Y825500D02*
X850900D01*
Y815288D01*
X851140Y815304D01*
X852623Y815599D01*
X854056Y816086D01*
X855412Y816755D01*
X856670Y817595D01*
X857807Y818593D01*
X858805Y819730D01*
X859645Y820988D01*
X860314Y822344D01*
X860801Y823777D01*
X861096Y825260D01*
X861112Y825500D01*
D02*
G37*
G36*
X848360D02*
X838148D01*
X838164Y825260D01*
X838459Y823777D01*
X838946Y822344D01*
X839615Y820988D01*
X840455Y819730D01*
X841452Y818593D01*
X842590Y817595D01*
X843848Y816755D01*
X845204Y816086D01*
X846637Y815599D01*
X848120Y815304D01*
X848360Y815288D01*
Y825500D01*
D02*
G37*
G36*
X860154Y811894D02*
X839106D01*
Y790846D01*
X860154D01*
Y811894D01*
D02*
G37*
G36*
X1278467Y798425D02*
X1260419D01*
Y780377D01*
X1278467D01*
Y798425D01*
D02*
G37*
G36*
X1246767D02*
X1228719D01*
Y780377D01*
X1246767D01*
Y798425D01*
D02*
G37*
G36*
X1215067D02*
X1197019D01*
Y780377D01*
X1215067D01*
Y798425D01*
D02*
G37*
G36*
X1054234Y798234D02*
X1036186D01*
Y780186D01*
X1054234D01*
Y798234D01*
D02*
G37*
G36*
X1022534D02*
X1004486D01*
Y780186D01*
X1022534D01*
Y798234D01*
D02*
G37*
G36*
X850900Y770941D02*
Y760730D01*
X861112D01*
X861096Y760969D01*
X860801Y762453D01*
X860314Y763886D01*
X859645Y765242D01*
X858805Y766500D01*
X857807Y767637D01*
X856670Y768635D01*
X855412Y769475D01*
X854056Y770144D01*
X852623Y770631D01*
X851140Y770926D01*
X850900Y770941D01*
D02*
G37*
G36*
X848360D02*
X848120Y770926D01*
X846637Y770631D01*
X845204Y770144D01*
X843848Y769475D01*
X842590Y768635D01*
X841452Y767637D01*
X840455Y766500D01*
X839615Y765242D01*
X838946Y763886D01*
X838459Y762453D01*
X838164Y760969D01*
X838148Y760730D01*
X848360D01*
Y770941D01*
D02*
G37*
G36*
X1269443Y773045D02*
X1268262Y772967D01*
X1267102Y772737D01*
X1265982Y772356D01*
X1264921Y771833D01*
X1263938Y771176D01*
X1263048Y770396D01*
X1262268Y769507D01*
X1261611Y768523D01*
X1261088Y767462D01*
X1260707Y766342D01*
X1260477Y765182D01*
X1260399Y764001D01*
X1260477Y762821D01*
X1260707Y761661D01*
X1261088Y760541D01*
X1261611Y759480D01*
X1262268Y758496D01*
X1263048Y757607D01*
X1263938Y756827D01*
X1264921Y756170D01*
X1265982Y755647D01*
X1267102Y755266D01*
X1268262Y755035D01*
X1269443Y754958D01*
X1270623Y755035D01*
X1271783Y755266D01*
X1272903Y755647D01*
X1273964Y756170D01*
X1274948Y756827D01*
X1275837Y757607D01*
X1276617Y758496D01*
X1277274Y759480D01*
X1277798Y760541D01*
X1278178Y761661D01*
X1278409Y762821D01*
X1278486Y764001D01*
X1278409Y765182D01*
X1278178Y766342D01*
X1277798Y767462D01*
X1277274Y768523D01*
X1276617Y769507D01*
X1275837Y770396D01*
X1274948Y771176D01*
X1273964Y771833D01*
X1272903Y772356D01*
X1271783Y772737D01*
X1270623Y772967D01*
X1269443Y773045D01*
D02*
G37*
G36*
X1237743D02*
X1236562Y772967D01*
X1235402Y772737D01*
X1234282Y772356D01*
X1233221Y771833D01*
X1232238Y771176D01*
X1231348Y770396D01*
X1230568Y769507D01*
X1229911Y768523D01*
X1229388Y767462D01*
X1229008Y766342D01*
X1228777Y765182D01*
X1228699Y764001D01*
X1228777Y762821D01*
X1229008Y761661D01*
X1229388Y760541D01*
X1229911Y759480D01*
X1230568Y758496D01*
X1231348Y757607D01*
X1232238Y756827D01*
X1233221Y756170D01*
X1234282Y755647D01*
X1235402Y755266D01*
X1236562Y755035D01*
X1237743Y754958D01*
X1238923Y755035D01*
X1240083Y755266D01*
X1241204Y755647D01*
X1242264Y756170D01*
X1243248Y756827D01*
X1244137Y757607D01*
X1244917Y758496D01*
X1245575Y759480D01*
X1246098Y760541D01*
X1246478Y761661D01*
X1246709Y762821D01*
X1246786Y764001D01*
X1246709Y765182D01*
X1246478Y766342D01*
X1246098Y767462D01*
X1245575Y768523D01*
X1244917Y769507D01*
X1244137Y770396D01*
X1243248Y771176D01*
X1242264Y771833D01*
X1241204Y772356D01*
X1240083Y772737D01*
X1238923Y772967D01*
X1237743Y773045D01*
D02*
G37*
G36*
X1206043D02*
X1204863Y772967D01*
X1203702Y772737D01*
X1202582Y772356D01*
X1201521Y771833D01*
X1200538Y771176D01*
X1199648Y770396D01*
X1198868Y769507D01*
X1198211Y768523D01*
X1197688Y767462D01*
X1197308Y766342D01*
X1197077Y765182D01*
X1197000Y764001D01*
X1197077Y762821D01*
X1197308Y761661D01*
X1197688Y760541D01*
X1198211Y759480D01*
X1198868Y758496D01*
X1199648Y757607D01*
X1200538Y756827D01*
X1201521Y756170D01*
X1202582Y755647D01*
X1203702Y755266D01*
X1204863Y755035D01*
X1206043Y754958D01*
X1207223Y755035D01*
X1208383Y755266D01*
X1209504Y755647D01*
X1210565Y756170D01*
X1211548Y756827D01*
X1212438Y757607D01*
X1213217Y758496D01*
X1213875Y759480D01*
X1214398Y760541D01*
X1214778Y761661D01*
X1215009Y762821D01*
X1215086Y764001D01*
X1215009Y765182D01*
X1214778Y766342D01*
X1214398Y767462D01*
X1213875Y768523D01*
X1213217Y769507D01*
X1212438Y770396D01*
X1211548Y771176D01*
X1210565Y771833D01*
X1209504Y772356D01*
X1208383Y772737D01*
X1207223Y772967D01*
X1206043Y773045D01*
D02*
G37*
G36*
X1045210Y772853D02*
X1044030Y772776D01*
X1042869Y772545D01*
X1041749Y772165D01*
X1040688Y771642D01*
X1039705Y770985D01*
X1038815Y770205D01*
X1038035Y769315D01*
X1037378Y768332D01*
X1036855Y767271D01*
X1036475Y766151D01*
X1036244Y764990D01*
X1036167Y763810D01*
X1036244Y762630D01*
X1036475Y761469D01*
X1036855Y760349D01*
X1037378Y759288D01*
X1038035Y758305D01*
X1038815Y757415D01*
X1039705Y756635D01*
X1040688Y755978D01*
X1041749Y755455D01*
X1042869Y755075D01*
X1044030Y754844D01*
X1045210Y754767D01*
X1046390Y754844D01*
X1047551Y755075D01*
X1048671Y755455D01*
X1049732Y755978D01*
X1050715Y756635D01*
X1051605Y757415D01*
X1052385Y758305D01*
X1053042Y759288D01*
X1053565Y760349D01*
X1053945Y761469D01*
X1054176Y762630D01*
X1054253Y763810D01*
X1054176Y764990D01*
X1053945Y766151D01*
X1053565Y767271D01*
X1053042Y768332D01*
X1052385Y769315D01*
X1051605Y770205D01*
X1050715Y770985D01*
X1049732Y771642D01*
X1048671Y772165D01*
X1047551Y772545D01*
X1046390Y772776D01*
X1045210Y772853D01*
D02*
G37*
G36*
X1013510D02*
X1012330Y772776D01*
X1011170Y772545D01*
X1010049Y772165D01*
X1008988Y771642D01*
X1008005Y770985D01*
X1007115Y770205D01*
X1006336Y769315D01*
X1005678Y768332D01*
X1005155Y767271D01*
X1004775Y766151D01*
X1004544Y764990D01*
X1004467Y763810D01*
X1004544Y762630D01*
X1004775Y761469D01*
X1005155Y760349D01*
X1005678Y759288D01*
X1006336Y758305D01*
X1007115Y757415D01*
X1008005Y756635D01*
X1008988Y755978D01*
X1010049Y755455D01*
X1011170Y755075D01*
X1012330Y754844D01*
X1013510Y754767D01*
X1014690Y754844D01*
X1015851Y755075D01*
X1016971Y755455D01*
X1018032Y755978D01*
X1019015Y756635D01*
X1019905Y757415D01*
X1020685Y758305D01*
X1021342Y759288D01*
X1021865Y760349D01*
X1022245Y761469D01*
X1022476Y762630D01*
X1022553Y763810D01*
X1022476Y764990D01*
X1022245Y766151D01*
X1021865Y767271D01*
X1021342Y768332D01*
X1020685Y769315D01*
X1019905Y770205D01*
X1019015Y770985D01*
X1018032Y771642D01*
X1016971Y772165D01*
X1015851Y772545D01*
X1014690Y772776D01*
X1013510Y772853D01*
D02*
G37*
G36*
X861112Y758190D02*
X850900D01*
Y747979D01*
X851140Y747994D01*
X852623Y748289D01*
X854056Y748776D01*
X855412Y749445D01*
X856670Y750285D01*
X857807Y751283D01*
X858805Y752420D01*
X859645Y753678D01*
X860314Y755034D01*
X860801Y756467D01*
X861096Y757951D01*
X861112Y758190D01*
D02*
G37*
G36*
X848360D02*
X838148D01*
X838164Y757951D01*
X838459Y756467D01*
X838946Y755034D01*
X839615Y753678D01*
X840455Y752420D01*
X841452Y751283D01*
X842590Y750285D01*
X843848Y749445D01*
X845204Y748776D01*
X846637Y748289D01*
X848120Y747994D01*
X848360Y747979D01*
Y758190D01*
D02*
G37*
G36*
X778104Y760324D02*
X756056D01*
Y738276D01*
X778104D01*
Y760324D01*
D02*
G37*
G36*
X860154Y744584D02*
X839106D01*
Y723536D01*
X860154D01*
Y744584D01*
D02*
G37*
G36*
X1309893Y737304D02*
X1308697Y737225D01*
X1307521Y736992D01*
X1306386Y736606D01*
X1305311Y736076D01*
X1304315Y735410D01*
X1303413Y734620D01*
X1302623Y733719D01*
X1301957Y732722D01*
X1301427Y731647D01*
X1301042Y730512D01*
X1300808Y729336D01*
X1300729Y728140D01*
X1300808Y726944D01*
X1301042Y725769D01*
X1301427Y724633D01*
X1301957Y723559D01*
X1302623Y722562D01*
X1303413Y721661D01*
X1304315Y720870D01*
X1305311Y720204D01*
X1306386Y719674D01*
X1307521Y719289D01*
X1308697Y719055D01*
X1309893Y718977D01*
X1311089Y719055D01*
X1312265Y719289D01*
X1313400Y719674D01*
X1314475Y720204D01*
X1315471Y720870D01*
X1316373Y721661D01*
X1317163Y722562D01*
X1317829Y723559D01*
X1318359Y724633D01*
X1318744Y725769D01*
X1318978Y726944D01*
X1319057Y728140D01*
X1318978Y729336D01*
X1318744Y730512D01*
X1318359Y731647D01*
X1317829Y732722D01*
X1317163Y733719D01*
X1316373Y734620D01*
X1315471Y735410D01*
X1314475Y736076D01*
X1313400Y736606D01*
X1312265Y736992D01*
X1311089Y737225D01*
X1309893Y737304D01*
D02*
G37*
G36*
X1284493D02*
X1283297Y737225D01*
X1282121Y736992D01*
X1280986Y736606D01*
X1279911Y736076D01*
X1278915Y735410D01*
X1278013Y734620D01*
X1277223Y733719D01*
X1276557Y732722D01*
X1276027Y731647D01*
X1275642Y730512D01*
X1275408Y729336D01*
X1275329Y728140D01*
X1275408Y726944D01*
X1275642Y725769D01*
X1276027Y724633D01*
X1276557Y723559D01*
X1277223Y722562D01*
X1278013Y721661D01*
X1278915Y720870D01*
X1279911Y720204D01*
X1280986Y719674D01*
X1282121Y719289D01*
X1283297Y719055D01*
X1284493Y718977D01*
X1285689Y719055D01*
X1286865Y719289D01*
X1288000Y719674D01*
X1289075Y720204D01*
X1290072Y720870D01*
X1290973Y721661D01*
X1291763Y722562D01*
X1292429Y723559D01*
X1292959Y724633D01*
X1293344Y725769D01*
X1293578Y726944D01*
X1293657Y728140D01*
X1293578Y729336D01*
X1293344Y730512D01*
X1292959Y731647D01*
X1292429Y732722D01*
X1291763Y733719D01*
X1290973Y734620D01*
X1290072Y735410D01*
X1289075Y736076D01*
X1288000Y736606D01*
X1286865Y736992D01*
X1285689Y737225D01*
X1284493Y737304D01*
D02*
G37*
G36*
X1259093D02*
X1257897Y737225D01*
X1256721Y736992D01*
X1255586Y736606D01*
X1254511Y736076D01*
X1253515Y735410D01*
X1252613Y734620D01*
X1251823Y733719D01*
X1251157Y732722D01*
X1250627Y731647D01*
X1250242Y730512D01*
X1250008Y729336D01*
X1249929Y728140D01*
X1250008Y726944D01*
X1250242Y725769D01*
X1250627Y724633D01*
X1251157Y723559D01*
X1251823Y722562D01*
X1252613Y721661D01*
X1253515Y720870D01*
X1254511Y720204D01*
X1255586Y719674D01*
X1256721Y719289D01*
X1257897Y719055D01*
X1259093Y718977D01*
X1260289Y719055D01*
X1261465Y719289D01*
X1262600Y719674D01*
X1263675Y720204D01*
X1264671Y720870D01*
X1265573Y721661D01*
X1266363Y722562D01*
X1267029Y723559D01*
X1267559Y724633D01*
X1267944Y725769D01*
X1268178Y726944D01*
X1268257Y728140D01*
X1268178Y729336D01*
X1267944Y730512D01*
X1267559Y731647D01*
X1267029Y732722D01*
X1266363Y733719D01*
X1265573Y734620D01*
X1264671Y735410D01*
X1263675Y736076D01*
X1262600Y736606D01*
X1261465Y736992D01*
X1260289Y737225D01*
X1259093Y737304D01*
D02*
G37*
G36*
X1233693D02*
X1232497Y737225D01*
X1231321Y736992D01*
X1230186Y736606D01*
X1229111Y736076D01*
X1228115Y735410D01*
X1227213Y734620D01*
X1226423Y733719D01*
X1225757Y732722D01*
X1225227Y731647D01*
X1224842Y730512D01*
X1224608Y729336D01*
X1224529Y728140D01*
X1224608Y726944D01*
X1224842Y725769D01*
X1225227Y724633D01*
X1225757Y723559D01*
X1226423Y722562D01*
X1227213Y721661D01*
X1228115Y720870D01*
X1229111Y720204D01*
X1230186Y719674D01*
X1231321Y719289D01*
X1232497Y719055D01*
X1233693Y718977D01*
X1234889Y719055D01*
X1236065Y719289D01*
X1237200Y719674D01*
X1238275Y720204D01*
X1239271Y720870D01*
X1240173Y721661D01*
X1240963Y722562D01*
X1241629Y723559D01*
X1242159Y724633D01*
X1242544Y725769D01*
X1242778Y726944D01*
X1242857Y728140D01*
X1242778Y729336D01*
X1242544Y730512D01*
X1242159Y731647D01*
X1241629Y732722D01*
X1240963Y733719D01*
X1240173Y734620D01*
X1239271Y735410D01*
X1238275Y736076D01*
X1237200Y736606D01*
X1236065Y736992D01*
X1234889Y737225D01*
X1233693Y737304D01*
D02*
G37*
G36*
X1208293D02*
X1207097Y737225D01*
X1205921Y736992D01*
X1204786Y736606D01*
X1203711Y736076D01*
X1202715Y735410D01*
X1201813Y734620D01*
X1201023Y733719D01*
X1200357Y732722D01*
X1199827Y731647D01*
X1199442Y730512D01*
X1199208Y729336D01*
X1199129Y728140D01*
X1199208Y726944D01*
X1199442Y725769D01*
X1199827Y724633D01*
X1200357Y723559D01*
X1201023Y722562D01*
X1201813Y721661D01*
X1202715Y720870D01*
X1203711Y720204D01*
X1204786Y719674D01*
X1205921Y719289D01*
X1207097Y719055D01*
X1208293Y718977D01*
X1209489Y719055D01*
X1210665Y719289D01*
X1211800Y719674D01*
X1212875Y720204D01*
X1213872Y720870D01*
X1214773Y721661D01*
X1215563Y722562D01*
X1216229Y723559D01*
X1216759Y724633D01*
X1217144Y725769D01*
X1217378Y726944D01*
X1217457Y728140D01*
X1217378Y729336D01*
X1217144Y730512D01*
X1216759Y731647D01*
X1216229Y732722D01*
X1215563Y733719D01*
X1214773Y734620D01*
X1213872Y735410D01*
X1212875Y736076D01*
X1211800Y736606D01*
X1210665Y736992D01*
X1209489Y737225D01*
X1208293Y737304D01*
D02*
G37*
G36*
X1085660Y737113D02*
X1084464Y737034D01*
X1083289Y736800D01*
X1082154Y736415D01*
X1081078Y735885D01*
X1080082Y735219D01*
X1079181Y734428D01*
X1078390Y733527D01*
X1077724Y732531D01*
X1077194Y731456D01*
X1076809Y730321D01*
X1076575Y729145D01*
X1076497Y727949D01*
X1076575Y726753D01*
X1076809Y725577D01*
X1077194Y724442D01*
X1077724Y723367D01*
X1078390Y722370D01*
X1079181Y721469D01*
X1080082Y720679D01*
X1081078Y720013D01*
X1082154Y719483D01*
X1083289Y719098D01*
X1084464Y718864D01*
X1085660Y718785D01*
X1086856Y718864D01*
X1088032Y719098D01*
X1089167Y719483D01*
X1090242Y720013D01*
X1091239Y720679D01*
X1092140Y721469D01*
X1092930Y722370D01*
X1093596Y723367D01*
X1094126Y724442D01*
X1094512Y725577D01*
X1094745Y726753D01*
X1094824Y727949D01*
X1094745Y729145D01*
X1094512Y730321D01*
X1094126Y731456D01*
X1093596Y732531D01*
X1092930Y733527D01*
X1092140Y734428D01*
X1091239Y735219D01*
X1090242Y735885D01*
X1089167Y736415D01*
X1088032Y736800D01*
X1086856Y737034D01*
X1085660Y737113D01*
D02*
G37*
G36*
X1060260D02*
X1059064Y737034D01*
X1057889Y736800D01*
X1056754Y736415D01*
X1055678Y735885D01*
X1054682Y735219D01*
X1053781Y734428D01*
X1052990Y733527D01*
X1052324Y732531D01*
X1051794Y731456D01*
X1051409Y730321D01*
X1051175Y729145D01*
X1051097Y727949D01*
X1051175Y726753D01*
X1051409Y725577D01*
X1051794Y724442D01*
X1052324Y723367D01*
X1052990Y722370D01*
X1053781Y721469D01*
X1054682Y720679D01*
X1055678Y720013D01*
X1056754Y719483D01*
X1057889Y719098D01*
X1059064Y718864D01*
X1060260Y718785D01*
X1061456Y718864D01*
X1062632Y719098D01*
X1063767Y719483D01*
X1064842Y720013D01*
X1065839Y720679D01*
X1066740Y721469D01*
X1067530Y722370D01*
X1068196Y723367D01*
X1068726Y724442D01*
X1069112Y725577D01*
X1069345Y726753D01*
X1069424Y727949D01*
X1069345Y729145D01*
X1069112Y730321D01*
X1068726Y731456D01*
X1068196Y732531D01*
X1067530Y733527D01*
X1066740Y734428D01*
X1065839Y735219D01*
X1064842Y735885D01*
X1063767Y736415D01*
X1062632Y736800D01*
X1061456Y737034D01*
X1060260Y737113D01*
D02*
G37*
G36*
X1034860D02*
X1033664Y737034D01*
X1032489Y736800D01*
X1031354Y736415D01*
X1030278Y735885D01*
X1029282Y735219D01*
X1028381Y734428D01*
X1027590Y733527D01*
X1026924Y732531D01*
X1026394Y731456D01*
X1026009Y730321D01*
X1025775Y729145D01*
X1025697Y727949D01*
X1025775Y726753D01*
X1026009Y725577D01*
X1026394Y724442D01*
X1026924Y723367D01*
X1027590Y722370D01*
X1028381Y721469D01*
X1029282Y720679D01*
X1030278Y720013D01*
X1031354Y719483D01*
X1032489Y719098D01*
X1033664Y718864D01*
X1034860Y718785D01*
X1036056Y718864D01*
X1037232Y719098D01*
X1038367Y719483D01*
X1039442Y720013D01*
X1040439Y720679D01*
X1041340Y721469D01*
X1042130Y722370D01*
X1042796Y723367D01*
X1043326Y724442D01*
X1043712Y725577D01*
X1043945Y726753D01*
X1044024Y727949D01*
X1043945Y729145D01*
X1043712Y730321D01*
X1043326Y731456D01*
X1042796Y732531D01*
X1042130Y733527D01*
X1041340Y734428D01*
X1040439Y735219D01*
X1039442Y735885D01*
X1038367Y736415D01*
X1037232Y736800D01*
X1036056Y737034D01*
X1034860Y737113D01*
D02*
G37*
G36*
X1009460D02*
X1008264Y737034D01*
X1007089Y736800D01*
X1005954Y736415D01*
X1004878Y735885D01*
X1003882Y735219D01*
X1002981Y734428D01*
X1002190Y733527D01*
X1001524Y732531D01*
X1000994Y731456D01*
X1000609Y730321D01*
X1000375Y729145D01*
X1000297Y727949D01*
X1000375Y726753D01*
X1000609Y725577D01*
X1000994Y724442D01*
X1001524Y723367D01*
X1002190Y722370D01*
X1002981Y721469D01*
X1003882Y720679D01*
X1004878Y720013D01*
X1005954Y719483D01*
X1007089Y719098D01*
X1008264Y718864D01*
X1009460Y718785D01*
X1010656Y718864D01*
X1011832Y719098D01*
X1012967Y719483D01*
X1014042Y720013D01*
X1015039Y720679D01*
X1015940Y721469D01*
X1016730Y722370D01*
X1017396Y723367D01*
X1017926Y724442D01*
X1018312Y725577D01*
X1018546Y726753D01*
X1018624Y727949D01*
X1018546Y729145D01*
X1018312Y730321D01*
X1017926Y731456D01*
X1017396Y732531D01*
X1016730Y733527D01*
X1015940Y734428D01*
X1015039Y735219D01*
X1014042Y735885D01*
X1012967Y736415D01*
X1011832Y736800D01*
X1010656Y737034D01*
X1009460Y737113D01*
D02*
G37*
G36*
X767080Y709548D02*
X765638Y709453D01*
X764221Y709171D01*
X762852Y708707D01*
X761556Y708067D01*
X760355Y707265D01*
X759268Y706312D01*
X758315Y705225D01*
X757513Y704024D01*
X756873Y702728D01*
X756409Y701359D01*
X756127Y699942D01*
X756032Y698500D01*
X756127Y697058D01*
X756409Y695641D01*
X756873Y694272D01*
X757513Y692976D01*
X758315Y691775D01*
X759268Y690688D01*
X760355Y689735D01*
X761556Y688932D01*
X762852Y688293D01*
X764221Y687829D01*
X765638Y687547D01*
X767080Y687452D01*
X768522Y687547D01*
X769939Y687829D01*
X771308Y688293D01*
X772604Y688932D01*
X773805Y689735D01*
X774892Y690688D01*
X775845Y691775D01*
X776647Y692976D01*
X777287Y694272D01*
X777751Y695641D01*
X778033Y697058D01*
X778128Y698500D01*
X778033Y699942D01*
X777751Y701359D01*
X777287Y702728D01*
X776647Y704024D01*
X775845Y705225D01*
X774892Y706312D01*
X773805Y707265D01*
X772604Y708067D01*
X771308Y708707D01*
X769939Y709171D01*
X768522Y709453D01*
X767080Y709548D01*
D02*
G37*
G36*
X1321331Y678391D02*
X1304283D01*
Y661343D01*
X1321331D01*
Y678391D01*
D02*
G37*
G36*
X1287407Y678409D02*
X1286292Y678336D01*
X1285196Y678118D01*
X1284138Y677759D01*
X1283136Y677264D01*
X1282207Y676644D01*
X1281367Y675907D01*
X1280630Y675067D01*
X1280009Y674138D01*
X1279515Y673136D01*
X1279156Y672077D01*
X1278938Y670982D01*
X1278865Y669867D01*
X1278938Y668752D01*
X1279156Y667656D01*
X1279515Y666598D01*
X1280009Y665595D01*
X1280630Y664666D01*
X1281367Y663826D01*
X1282207Y663090D01*
X1283136Y662469D01*
X1284138Y661975D01*
X1285196Y661615D01*
X1286292Y661397D01*
X1287407Y661324D01*
X1288522Y661397D01*
X1289618Y661615D01*
X1290676Y661975D01*
X1291678Y662469D01*
X1292607Y663090D01*
X1293447Y663826D01*
X1294184Y664666D01*
X1294805Y665595D01*
X1295299Y666598D01*
X1295658Y667656D01*
X1295876Y668752D01*
X1295949Y669867D01*
X1295876Y670982D01*
X1295658Y672077D01*
X1295299Y673136D01*
X1294805Y674138D01*
X1294184Y675067D01*
X1293447Y675907D01*
X1292607Y676644D01*
X1291678Y677264D01*
X1290676Y677759D01*
X1289618Y678118D01*
X1288522Y678336D01*
X1287407Y678409D01*
D02*
G37*
G36*
X1262007D02*
X1260892Y678336D01*
X1259796Y678118D01*
X1258738Y677759D01*
X1257736Y677264D01*
X1256807Y676644D01*
X1255967Y675907D01*
X1255230Y675067D01*
X1254609Y674138D01*
X1254115Y673136D01*
X1253756Y672077D01*
X1253538Y670982D01*
X1253465Y669867D01*
X1253538Y668752D01*
X1253756Y667656D01*
X1254115Y666598D01*
X1254609Y665595D01*
X1255230Y664666D01*
X1255967Y663826D01*
X1256807Y663090D01*
X1257736Y662469D01*
X1258738Y661975D01*
X1259796Y661615D01*
X1260892Y661397D01*
X1262007Y661324D01*
X1263122Y661397D01*
X1264218Y661615D01*
X1265276Y661975D01*
X1266278Y662469D01*
X1267207Y663090D01*
X1268047Y663826D01*
X1268784Y664666D01*
X1269405Y665595D01*
X1269899Y666598D01*
X1270258Y667656D01*
X1270476Y668752D01*
X1270549Y669867D01*
X1270476Y670982D01*
X1270258Y672077D01*
X1269899Y673136D01*
X1269405Y674138D01*
X1268784Y675067D01*
X1268047Y675907D01*
X1267207Y676644D01*
X1266278Y677264D01*
X1265276Y677759D01*
X1264218Y678118D01*
X1263122Y678336D01*
X1262007Y678409D01*
D02*
G37*
G36*
X1237877D02*
X1236762Y678336D01*
X1235666Y678118D01*
X1234608Y677759D01*
X1233606Y677264D01*
X1232677Y676644D01*
X1231837Y675907D01*
X1231100Y675067D01*
X1230479Y674138D01*
X1229985Y673136D01*
X1229626Y672077D01*
X1229408Y670982D01*
X1229335Y669867D01*
X1229408Y668752D01*
X1229626Y667656D01*
X1229985Y666598D01*
X1230479Y665595D01*
X1231100Y664666D01*
X1231837Y663826D01*
X1232677Y663090D01*
X1233606Y662469D01*
X1234608Y661975D01*
X1235666Y661615D01*
X1236762Y661397D01*
X1237877Y661324D01*
X1238992Y661397D01*
X1240088Y661615D01*
X1241146Y661975D01*
X1242148Y662469D01*
X1243077Y663090D01*
X1243917Y663826D01*
X1244654Y664666D01*
X1245275Y665595D01*
X1245769Y666598D01*
X1246128Y667656D01*
X1246346Y668752D01*
X1246419Y669867D01*
X1246346Y670982D01*
X1246128Y672077D01*
X1245769Y673136D01*
X1245275Y674138D01*
X1244654Y675067D01*
X1243917Y675907D01*
X1243077Y676644D01*
X1242148Y677264D01*
X1241146Y677759D01*
X1240088Y678118D01*
X1238992Y678336D01*
X1237877Y678409D01*
D02*
G37*
G36*
X1097098Y678199D02*
X1080050D01*
Y661151D01*
X1097098D01*
Y678199D01*
D02*
G37*
G36*
X1063174Y678217D02*
X1062059Y678144D01*
X1060963Y677926D01*
X1059905Y677567D01*
X1058903Y677073D01*
X1057974Y676452D01*
X1057134Y675715D01*
X1056397Y674875D01*
X1055776Y673946D01*
X1055282Y672944D01*
X1054923Y671886D01*
X1054705Y670790D01*
X1054632Y669675D01*
X1054705Y668560D01*
X1054923Y667464D01*
X1055282Y666406D01*
X1055776Y665404D01*
X1056397Y664475D01*
X1057134Y663635D01*
X1057974Y662898D01*
X1058903Y662277D01*
X1059905Y661783D01*
X1060963Y661424D01*
X1062059Y661206D01*
X1063174Y661133D01*
X1064289Y661206D01*
X1065385Y661424D01*
X1066443Y661783D01*
X1067445Y662277D01*
X1068374Y662898D01*
X1069214Y663635D01*
X1069951Y664475D01*
X1070572Y665404D01*
X1071066Y666406D01*
X1071425Y667464D01*
X1071643Y668560D01*
X1071717Y669675D01*
X1071643Y670790D01*
X1071425Y671886D01*
X1071066Y672944D01*
X1070572Y673946D01*
X1069951Y674875D01*
X1069214Y675715D01*
X1068374Y676452D01*
X1067445Y677073D01*
X1066443Y677567D01*
X1065385Y677926D01*
X1064289Y678144D01*
X1063174Y678217D01*
D02*
G37*
G36*
X1037774D02*
X1036659Y678144D01*
X1035563Y677926D01*
X1034505Y677567D01*
X1033503Y677073D01*
X1032574Y676452D01*
X1031734Y675715D01*
X1030997Y674875D01*
X1030376Y673946D01*
X1029882Y672944D01*
X1029523Y671886D01*
X1029305Y670790D01*
X1029232Y669675D01*
X1029305Y668560D01*
X1029523Y667464D01*
X1029882Y666406D01*
X1030376Y665404D01*
X1030997Y664475D01*
X1031734Y663635D01*
X1032574Y662898D01*
X1033503Y662277D01*
X1034505Y661783D01*
X1035563Y661424D01*
X1036659Y661206D01*
X1037774Y661133D01*
X1038889Y661206D01*
X1039985Y661424D01*
X1041043Y661783D01*
X1042045Y662277D01*
X1042974Y662898D01*
X1043814Y663635D01*
X1044551Y664475D01*
X1045172Y665404D01*
X1045666Y666406D01*
X1046025Y667464D01*
X1046243Y668560D01*
X1046317Y669675D01*
X1046243Y670790D01*
X1046025Y671886D01*
X1045666Y672944D01*
X1045172Y673946D01*
X1044551Y674875D01*
X1043814Y675715D01*
X1042974Y676452D01*
X1042045Y677073D01*
X1041043Y677567D01*
X1039985Y677926D01*
X1038889Y678144D01*
X1037774Y678217D01*
D02*
G37*
G36*
X1013644D02*
X1012529Y678144D01*
X1011433Y677926D01*
X1010375Y677567D01*
X1009373Y677073D01*
X1008444Y676452D01*
X1007604Y675715D01*
X1006867Y674875D01*
X1006246Y673946D01*
X1005752Y672944D01*
X1005393Y671886D01*
X1005175Y670790D01*
X1005102Y669675D01*
X1005175Y668560D01*
X1005393Y667464D01*
X1005752Y666406D01*
X1006246Y665404D01*
X1006867Y664475D01*
X1007604Y663635D01*
X1008444Y662898D01*
X1009373Y662277D01*
X1010375Y661783D01*
X1011433Y661424D01*
X1012529Y661206D01*
X1013644Y661133D01*
X1014759Y661206D01*
X1015855Y661424D01*
X1016913Y661783D01*
X1017915Y662277D01*
X1018844Y662898D01*
X1019685Y663635D01*
X1020421Y664475D01*
X1021042Y665404D01*
X1021536Y666406D01*
X1021895Y667464D01*
X1022113Y668560D01*
X1022187Y669675D01*
X1022113Y670790D01*
X1021895Y671886D01*
X1021536Y672944D01*
X1021042Y673946D01*
X1020421Y674875D01*
X1019685Y675715D01*
X1018844Y676452D01*
X1017915Y677073D01*
X1016913Y677567D01*
X1015855Y677926D01*
X1014759Y678144D01*
X1013644Y678217D01*
D02*
G37*
G36*
X1209563Y619828D02*
Y611000D01*
X1218392D01*
X1218388Y611059D01*
X1218128Y612365D01*
X1217700Y613626D01*
X1217111Y614821D01*
X1216371Y615928D01*
X1215493Y616930D01*
X1214491Y617808D01*
X1213384Y618548D01*
X1212189Y619137D01*
X1210928Y619565D01*
X1209622Y619825D01*
X1209563Y619828D01*
D02*
G37*
G36*
X985330Y619637D02*
Y610808D01*
X994159D01*
X994155Y610868D01*
X993895Y612174D01*
X993467Y613435D01*
X992878Y614629D01*
X992138Y615737D01*
X991260Y616738D01*
X990259Y617616D01*
X989151Y618356D01*
X987957Y618945D01*
X986696Y619373D01*
X985389Y619633D01*
X985330Y619637D01*
D02*
G37*
G36*
X1309893Y618894D02*
X1308697Y618815D01*
X1307521Y618581D01*
X1306386Y618196D01*
X1305311Y617666D01*
X1304315Y617000D01*
X1303413Y616210D01*
X1302623Y615308D01*
X1301957Y614312D01*
X1301427Y613237D01*
X1301042Y612102D01*
X1300808Y610926D01*
X1300729Y609730D01*
X1300808Y608534D01*
X1301042Y607358D01*
X1301427Y606223D01*
X1301957Y605148D01*
X1302623Y604151D01*
X1303413Y603250D01*
X1304315Y602460D01*
X1305311Y601794D01*
X1306386Y601264D01*
X1307521Y600879D01*
X1308697Y600645D01*
X1309893Y600566D01*
X1311089Y600645D01*
X1312265Y600879D01*
X1313400Y601264D01*
X1314475Y601794D01*
X1315471Y602460D01*
X1316373Y603250D01*
X1317163Y604151D01*
X1317829Y605148D01*
X1318359Y606223D01*
X1318744Y607358D01*
X1318978Y608534D01*
X1319057Y609730D01*
X1318978Y610926D01*
X1318744Y612102D01*
X1318359Y613237D01*
X1317829Y614312D01*
X1317163Y615308D01*
X1316373Y616210D01*
X1315471Y617000D01*
X1314475Y617666D01*
X1313400Y618196D01*
X1312265Y618581D01*
X1311089Y618815D01*
X1309893Y618894D01*
D02*
G37*
G36*
X1284493D02*
X1283297Y618815D01*
X1282121Y618581D01*
X1280986Y618196D01*
X1279911Y617666D01*
X1278915Y617000D01*
X1278013Y616210D01*
X1277223Y615308D01*
X1276557Y614312D01*
X1276027Y613237D01*
X1275642Y612102D01*
X1275408Y610926D01*
X1275329Y609730D01*
X1275408Y608534D01*
X1275642Y607358D01*
X1276027Y606223D01*
X1276557Y605148D01*
X1277223Y604151D01*
X1278013Y603250D01*
X1278915Y602460D01*
X1279911Y601794D01*
X1280986Y601264D01*
X1282121Y600879D01*
X1283297Y600645D01*
X1284493Y600566D01*
X1285689Y600645D01*
X1286865Y600879D01*
X1288000Y601264D01*
X1289075Y601794D01*
X1290072Y602460D01*
X1290973Y603250D01*
X1291763Y604151D01*
X1292429Y605148D01*
X1292959Y606223D01*
X1293344Y607358D01*
X1293578Y608534D01*
X1293657Y609730D01*
X1293578Y610926D01*
X1293344Y612102D01*
X1292959Y613237D01*
X1292429Y614312D01*
X1291763Y615308D01*
X1290973Y616210D01*
X1290072Y617000D01*
X1289075Y617666D01*
X1288000Y618196D01*
X1286865Y618581D01*
X1285689Y618815D01*
X1284493Y618894D01*
D02*
G37*
G36*
X1259093D02*
X1257897Y618815D01*
X1256721Y618581D01*
X1255586Y618196D01*
X1254511Y617666D01*
X1253515Y617000D01*
X1252613Y616210D01*
X1251823Y615308D01*
X1251157Y614312D01*
X1250627Y613237D01*
X1250242Y612102D01*
X1250008Y610926D01*
X1249929Y609730D01*
X1250008Y608534D01*
X1250242Y607358D01*
X1250627Y606223D01*
X1251157Y605148D01*
X1251823Y604151D01*
X1252613Y603250D01*
X1253515Y602460D01*
X1254511Y601794D01*
X1255586Y601264D01*
X1256721Y600879D01*
X1257897Y600645D01*
X1259093Y600566D01*
X1260289Y600645D01*
X1261465Y600879D01*
X1262600Y601264D01*
X1263675Y601794D01*
X1264671Y602460D01*
X1265573Y603250D01*
X1266363Y604151D01*
X1267029Y605148D01*
X1267559Y606223D01*
X1267944Y607358D01*
X1268178Y608534D01*
X1268257Y609730D01*
X1268178Y610926D01*
X1267944Y612102D01*
X1267559Y613237D01*
X1267029Y614312D01*
X1266363Y615308D01*
X1265573Y616210D01*
X1264671Y617000D01*
X1263675Y617666D01*
X1262600Y618196D01*
X1261465Y618581D01*
X1260289Y618815D01*
X1259093Y618894D01*
D02*
G37*
G36*
X1233693D02*
X1232497Y618815D01*
X1231321Y618581D01*
X1230186Y618196D01*
X1229111Y617666D01*
X1228115Y617000D01*
X1227213Y616210D01*
X1226423Y615308D01*
X1225757Y614312D01*
X1225227Y613237D01*
X1224842Y612102D01*
X1224608Y610926D01*
X1224529Y609730D01*
X1224608Y608534D01*
X1224842Y607358D01*
X1225227Y606223D01*
X1225757Y605148D01*
X1226423Y604151D01*
X1227213Y603250D01*
X1228115Y602460D01*
X1229111Y601794D01*
X1230186Y601264D01*
X1231321Y600879D01*
X1232497Y600645D01*
X1233693Y600566D01*
X1234889Y600645D01*
X1236065Y600879D01*
X1237200Y601264D01*
X1238275Y601794D01*
X1239271Y602460D01*
X1240173Y603250D01*
X1240963Y604151D01*
X1241629Y605148D01*
X1242159Y606223D01*
X1242544Y607358D01*
X1242778Y608534D01*
X1242857Y609730D01*
X1242778Y610926D01*
X1242544Y612102D01*
X1242159Y613237D01*
X1241629Y614312D01*
X1240963Y615308D01*
X1240173Y616210D01*
X1239271Y617000D01*
X1238275Y617666D01*
X1237200Y618196D01*
X1236065Y618581D01*
X1234889Y618815D01*
X1233693Y618894D01*
D02*
G37*
G36*
X1085660Y618702D02*
X1084464Y618624D01*
X1083289Y618390D01*
X1082154Y618005D01*
X1081078Y617475D01*
X1080082Y616809D01*
X1079181Y616018D01*
X1078390Y615117D01*
X1077724Y614120D01*
X1077194Y613045D01*
X1076809Y611910D01*
X1076575Y610735D01*
X1076497Y609538D01*
X1076575Y608342D01*
X1076809Y607167D01*
X1077194Y606032D01*
X1077724Y604957D01*
X1078390Y603960D01*
X1079181Y603059D01*
X1080082Y602268D01*
X1081078Y601603D01*
X1082154Y601073D01*
X1083289Y600687D01*
X1084464Y600453D01*
X1085660Y600375D01*
X1086856Y600453D01*
X1088032Y600687D01*
X1089167Y601073D01*
X1090242Y601603D01*
X1091239Y602268D01*
X1092140Y603059D01*
X1092930Y603960D01*
X1093596Y604957D01*
X1094126Y606032D01*
X1094512Y607167D01*
X1094745Y608342D01*
X1094824Y609538D01*
X1094745Y610735D01*
X1094512Y611910D01*
X1094126Y613045D01*
X1093596Y614120D01*
X1092930Y615117D01*
X1092140Y616018D01*
X1091239Y616809D01*
X1090242Y617475D01*
X1089167Y618005D01*
X1088032Y618390D01*
X1086856Y618624D01*
X1085660Y618702D01*
D02*
G37*
G36*
X1060260D02*
X1059064Y618624D01*
X1057889Y618390D01*
X1056754Y618005D01*
X1055678Y617475D01*
X1054682Y616809D01*
X1053781Y616018D01*
X1052990Y615117D01*
X1052324Y614120D01*
X1051794Y613045D01*
X1051409Y611910D01*
X1051175Y610735D01*
X1051097Y609538D01*
X1051175Y608342D01*
X1051409Y607167D01*
X1051794Y606032D01*
X1052324Y604957D01*
X1052990Y603960D01*
X1053781Y603059D01*
X1054682Y602268D01*
X1055678Y601603D01*
X1056754Y601073D01*
X1057889Y600687D01*
X1059064Y600453D01*
X1060260Y600375D01*
X1061456Y600453D01*
X1062632Y600687D01*
X1063767Y601073D01*
X1064842Y601603D01*
X1065839Y602268D01*
X1066740Y603059D01*
X1067530Y603960D01*
X1068196Y604957D01*
X1068726Y606032D01*
X1069112Y607167D01*
X1069345Y608342D01*
X1069424Y609538D01*
X1069345Y610735D01*
X1069112Y611910D01*
X1068726Y613045D01*
X1068196Y614120D01*
X1067530Y615117D01*
X1066740Y616018D01*
X1065839Y616809D01*
X1064842Y617475D01*
X1063767Y618005D01*
X1062632Y618390D01*
X1061456Y618624D01*
X1060260Y618702D01*
D02*
G37*
G36*
X1034860D02*
X1033664Y618624D01*
X1032489Y618390D01*
X1031354Y618005D01*
X1030278Y617475D01*
X1029282Y616809D01*
X1028381Y616018D01*
X1027590Y615117D01*
X1026924Y614120D01*
X1026394Y613045D01*
X1026009Y611910D01*
X1025775Y610735D01*
X1025697Y609538D01*
X1025775Y608342D01*
X1026009Y607167D01*
X1026394Y606032D01*
X1026924Y604957D01*
X1027590Y603960D01*
X1028381Y603059D01*
X1029282Y602268D01*
X1030278Y601603D01*
X1031354Y601073D01*
X1032489Y600687D01*
X1033664Y600453D01*
X1034860Y600375D01*
X1036056Y600453D01*
X1037232Y600687D01*
X1038367Y601073D01*
X1039442Y601603D01*
X1040439Y602268D01*
X1041340Y603059D01*
X1042130Y603960D01*
X1042796Y604957D01*
X1043326Y606032D01*
X1043712Y607167D01*
X1043945Y608342D01*
X1044024Y609538D01*
X1043945Y610735D01*
X1043712Y611910D01*
X1043326Y613045D01*
X1042796Y614120D01*
X1042130Y615117D01*
X1041340Y616018D01*
X1040439Y616809D01*
X1039442Y617475D01*
X1038367Y618005D01*
X1037232Y618390D01*
X1036056Y618624D01*
X1034860Y618702D01*
D02*
G37*
G36*
X1009460D02*
X1008264Y618624D01*
X1007089Y618390D01*
X1005954Y618005D01*
X1004878Y617475D01*
X1003882Y616809D01*
X1002981Y616018D01*
X1002190Y615117D01*
X1001524Y614120D01*
X1000994Y613045D01*
X1000609Y611910D01*
X1000375Y610735D01*
X1000297Y609538D01*
X1000375Y608342D01*
X1000609Y607167D01*
X1000994Y606032D01*
X1001524Y604957D01*
X1002190Y603960D01*
X1002981Y603059D01*
X1003882Y602268D01*
X1004878Y601603D01*
X1005954Y601073D01*
X1007089Y600687D01*
X1008264Y600453D01*
X1009460Y600375D01*
X1010656Y600453D01*
X1011832Y600687D01*
X1012967Y601073D01*
X1014042Y601603D01*
X1015039Y602268D01*
X1015940Y603059D01*
X1016730Y603960D01*
X1017396Y604957D01*
X1017926Y606032D01*
X1018312Y607167D01*
X1018546Y608342D01*
X1018624Y609538D01*
X1018546Y610735D01*
X1018312Y611910D01*
X1017926Y613045D01*
X1017396Y614120D01*
X1016730Y615117D01*
X1015940Y616018D01*
X1015039Y616809D01*
X1014042Y617475D01*
X1012967Y618005D01*
X1011832Y618390D01*
X1010656Y618624D01*
X1009460Y618702D01*
D02*
G37*
G36*
X1218392Y608460D02*
X1209563D01*
Y599631D01*
X1209622Y599635D01*
X1210928Y599895D01*
X1212189Y600323D01*
X1213384Y600912D01*
X1214491Y601652D01*
X1215493Y602530D01*
X1216371Y603532D01*
X1217111Y604639D01*
X1217700Y605834D01*
X1218128Y607095D01*
X1218388Y608401D01*
X1218392Y608460D01*
D02*
G37*
G36*
X994159Y608269D02*
X985330D01*
Y599440D01*
X985389Y599444D01*
X986696Y599704D01*
X987957Y600132D01*
X989151Y600721D01*
X990259Y601461D01*
X991260Y602339D01*
X992138Y603340D01*
X992878Y604448D01*
X993467Y605642D01*
X993895Y606903D01*
X994155Y608210D01*
X994159Y608269D01*
D02*
G37*
G36*
X1278467Y579685D02*
X1260419D01*
Y561637D01*
X1278467D01*
Y579685D01*
D02*
G37*
G36*
X1246767D02*
X1228719D01*
Y561637D01*
X1246767D01*
Y579685D01*
D02*
G37*
G36*
X1215067D02*
X1197019D01*
Y561637D01*
X1215067D01*
Y579685D01*
D02*
G37*
G36*
X1054234Y579494D02*
X1036186D01*
Y561446D01*
X1054234D01*
Y579494D01*
D02*
G37*
G36*
X1022534D02*
X1004486D01*
Y561446D01*
X1022534D01*
Y579494D01*
D02*
G37*
G36*
X1269443Y554304D02*
X1268262Y554227D01*
X1267102Y553996D01*
X1265982Y553616D01*
X1264921Y553093D01*
X1263938Y552436D01*
X1263048Y551656D01*
X1262268Y550766D01*
X1261611Y549783D01*
X1261088Y548722D01*
X1260707Y547602D01*
X1260477Y546441D01*
X1260399Y545261D01*
X1260477Y544081D01*
X1260707Y542920D01*
X1261088Y541800D01*
X1261611Y540739D01*
X1262268Y539756D01*
X1263048Y538867D01*
X1263938Y538087D01*
X1264921Y537429D01*
X1265982Y536906D01*
X1267102Y536526D01*
X1268262Y536295D01*
X1269443Y536218D01*
X1270623Y536295D01*
X1271783Y536526D01*
X1272903Y536906D01*
X1273964Y537429D01*
X1274948Y538087D01*
X1275837Y538867D01*
X1276617Y539756D01*
X1277274Y540739D01*
X1277798Y541800D01*
X1278178Y542920D01*
X1278409Y544081D01*
X1278486Y545261D01*
X1278409Y546441D01*
X1278178Y547602D01*
X1277798Y548722D01*
X1277274Y549783D01*
X1276617Y550766D01*
X1275837Y551656D01*
X1274948Y552436D01*
X1273964Y553093D01*
X1272903Y553616D01*
X1271783Y553996D01*
X1270623Y554227D01*
X1269443Y554304D01*
D02*
G37*
G36*
X1237743D02*
X1236562Y554227D01*
X1235402Y553996D01*
X1234282Y553616D01*
X1233221Y553093D01*
X1232238Y552436D01*
X1231348Y551656D01*
X1230568Y550766D01*
X1229911Y549783D01*
X1229388Y548722D01*
X1229008Y547602D01*
X1228777Y546441D01*
X1228699Y545261D01*
X1228777Y544081D01*
X1229008Y542920D01*
X1229388Y541800D01*
X1229911Y540739D01*
X1230568Y539756D01*
X1231348Y538867D01*
X1232238Y538087D01*
X1233221Y537429D01*
X1234282Y536906D01*
X1235402Y536526D01*
X1236562Y536295D01*
X1237743Y536218D01*
X1238923Y536295D01*
X1240083Y536526D01*
X1241204Y536906D01*
X1242264Y537429D01*
X1243248Y538087D01*
X1244137Y538867D01*
X1244917Y539756D01*
X1245575Y540739D01*
X1246098Y541800D01*
X1246478Y542920D01*
X1246709Y544081D01*
X1246786Y545261D01*
X1246709Y546441D01*
X1246478Y547602D01*
X1246098Y548722D01*
X1245575Y549783D01*
X1244917Y550766D01*
X1244137Y551656D01*
X1243248Y552436D01*
X1242264Y553093D01*
X1241204Y553616D01*
X1240083Y553996D01*
X1238923Y554227D01*
X1237743Y554304D01*
D02*
G37*
G36*
X1206043D02*
X1204863Y554227D01*
X1203702Y553996D01*
X1202582Y553616D01*
X1201521Y553093D01*
X1200538Y552436D01*
X1199648Y551656D01*
X1198868Y550766D01*
X1198211Y549783D01*
X1197688Y548722D01*
X1197308Y547602D01*
X1197077Y546441D01*
X1197000Y545261D01*
X1197077Y544081D01*
X1197308Y542920D01*
X1197688Y541800D01*
X1198211Y540739D01*
X1198868Y539756D01*
X1199648Y538867D01*
X1200538Y538087D01*
X1201521Y537429D01*
X1202582Y536906D01*
X1203702Y536526D01*
X1204863Y536295D01*
X1206043Y536218D01*
X1207223Y536295D01*
X1208383Y536526D01*
X1209504Y536906D01*
X1210565Y537429D01*
X1211548Y538087D01*
X1212438Y538867D01*
X1213217Y539756D01*
X1213875Y540739D01*
X1214398Y541800D01*
X1214778Y542920D01*
X1215009Y544081D01*
X1215086Y545261D01*
X1215009Y546441D01*
X1214778Y547602D01*
X1214398Y548722D01*
X1213875Y549783D01*
X1213217Y550766D01*
X1212438Y551656D01*
X1211548Y552436D01*
X1210565Y553093D01*
X1209504Y553616D01*
X1208383Y553996D01*
X1207223Y554227D01*
X1206043Y554304D01*
D02*
G37*
G36*
X1045210Y554113D02*
X1044030Y554036D01*
X1042869Y553805D01*
X1041749Y553425D01*
X1040688Y552901D01*
X1039705Y552244D01*
X1038815Y551464D01*
X1038035Y550575D01*
X1037378Y549591D01*
X1036855Y548530D01*
X1036475Y547410D01*
X1036244Y546250D01*
X1036167Y545070D01*
X1036244Y543889D01*
X1036475Y542729D01*
X1036855Y541609D01*
X1037378Y540548D01*
X1038035Y539564D01*
X1038815Y538675D01*
X1039705Y537895D01*
X1040688Y537238D01*
X1041749Y536715D01*
X1042869Y536334D01*
X1044030Y536104D01*
X1045210Y536026D01*
X1046390Y536104D01*
X1047551Y536334D01*
X1048671Y536715D01*
X1049732Y537238D01*
X1050715Y537895D01*
X1051605Y538675D01*
X1052385Y539564D01*
X1053042Y540548D01*
X1053565Y541609D01*
X1053945Y542729D01*
X1054176Y543889D01*
X1054253Y545070D01*
X1054176Y546250D01*
X1053945Y547410D01*
X1053565Y548530D01*
X1053042Y549591D01*
X1052385Y550575D01*
X1051605Y551464D01*
X1050715Y552244D01*
X1049732Y552901D01*
X1048671Y553425D01*
X1047551Y553805D01*
X1046390Y554036D01*
X1045210Y554113D01*
D02*
G37*
G36*
X1013510D02*
X1012330Y554036D01*
X1011170Y553805D01*
X1010049Y553425D01*
X1008988Y552901D01*
X1008005Y552244D01*
X1007115Y551464D01*
X1006336Y550575D01*
X1005678Y549591D01*
X1005155Y548530D01*
X1004775Y547410D01*
X1004544Y546250D01*
X1004467Y545070D01*
X1004544Y543889D01*
X1004775Y542729D01*
X1005155Y541609D01*
X1005678Y540548D01*
X1006336Y539564D01*
X1007115Y538675D01*
X1008005Y537895D01*
X1008988Y537238D01*
X1010049Y536715D01*
X1011170Y536334D01*
X1012330Y536104D01*
X1013510Y536026D01*
X1014690Y536104D01*
X1015851Y536334D01*
X1016971Y536715D01*
X1018032Y537238D01*
X1019015Y537895D01*
X1019905Y538675D01*
X1020685Y539564D01*
X1021342Y540548D01*
X1021865Y541609D01*
X1022245Y542729D01*
X1022476Y543889D01*
X1022553Y545070D01*
X1022476Y546250D01*
X1022245Y547410D01*
X1021865Y548530D01*
X1021342Y549591D01*
X1020685Y550575D01*
X1019905Y551464D01*
X1019015Y552244D01*
X1018032Y552901D01*
X1016971Y553425D01*
X1015851Y553805D01*
X1014690Y554036D01*
X1013510Y554113D01*
D02*
G37*
G36*
X981810D02*
X980630Y554036D01*
X979470Y553805D01*
X978350Y553425D01*
X977289Y552901D01*
X976305Y552244D01*
X975416Y551464D01*
X974636Y550575D01*
X973978Y549591D01*
X973455Y548530D01*
X973075Y547410D01*
X972844Y546250D01*
X972767Y545070D01*
X972844Y543889D01*
X973075Y542729D01*
X973455Y541609D01*
X973978Y540548D01*
X974636Y539564D01*
X975416Y538675D01*
X976305Y537895D01*
X977289Y537238D01*
X978350Y536715D01*
X979470Y536334D01*
X980630Y536104D01*
X981810Y536026D01*
X982991Y536104D01*
X984151Y536334D01*
X985271Y536715D01*
X986332Y537238D01*
X987315Y537895D01*
X988205Y538675D01*
X988985Y539564D01*
X989642Y540548D01*
X990165Y541609D01*
X990545Y542729D01*
X990776Y543889D01*
X990854Y545070D01*
X990776Y546250D01*
X990545Y547410D01*
X990165Y548530D01*
X989642Y549591D01*
X988985Y550575D01*
X988205Y551464D01*
X987315Y552244D01*
X986332Y552901D01*
X985271Y553425D01*
X984151Y553805D01*
X982991Y554036D01*
X981810Y554113D01*
D02*
G37*
G36*
X1309893Y518564D02*
X1308697Y518485D01*
X1307521Y518251D01*
X1306386Y517866D01*
X1305311Y517336D01*
X1304315Y516670D01*
X1303413Y515880D01*
X1302623Y514978D01*
X1301957Y513982D01*
X1301427Y512907D01*
X1301042Y511772D01*
X1300808Y510596D01*
X1300729Y509400D01*
X1300808Y508204D01*
X1301042Y507028D01*
X1301427Y505893D01*
X1301957Y504818D01*
X1302623Y503821D01*
X1303413Y502920D01*
X1304315Y502130D01*
X1305311Y501464D01*
X1306386Y500934D01*
X1307521Y500549D01*
X1308697Y500315D01*
X1309893Y500236D01*
X1311089Y500315D01*
X1312265Y500549D01*
X1313400Y500934D01*
X1314475Y501464D01*
X1315471Y502130D01*
X1316373Y502920D01*
X1317163Y503821D01*
X1317829Y504818D01*
X1318359Y505893D01*
X1318744Y507028D01*
X1318978Y508204D01*
X1319057Y509400D01*
X1318978Y510596D01*
X1318744Y511772D01*
X1318359Y512907D01*
X1317829Y513982D01*
X1317163Y514978D01*
X1316373Y515880D01*
X1315471Y516670D01*
X1314475Y517336D01*
X1313400Y517866D01*
X1312265Y518251D01*
X1311089Y518485D01*
X1309893Y518564D01*
D02*
G37*
G36*
X1284493D02*
X1283297Y518485D01*
X1282121Y518251D01*
X1280986Y517866D01*
X1279911Y517336D01*
X1278915Y516670D01*
X1278013Y515880D01*
X1277223Y514978D01*
X1276557Y513982D01*
X1276027Y512907D01*
X1275642Y511772D01*
X1275408Y510596D01*
X1275329Y509400D01*
X1275408Y508204D01*
X1275642Y507028D01*
X1276027Y505893D01*
X1276557Y504818D01*
X1277223Y503821D01*
X1278013Y502920D01*
X1278915Y502130D01*
X1279911Y501464D01*
X1280986Y500934D01*
X1282121Y500549D01*
X1283297Y500315D01*
X1284493Y500236D01*
X1285689Y500315D01*
X1286865Y500549D01*
X1288000Y500934D01*
X1289075Y501464D01*
X1290072Y502130D01*
X1290973Y502920D01*
X1291763Y503821D01*
X1292429Y504818D01*
X1292959Y505893D01*
X1293344Y507028D01*
X1293578Y508204D01*
X1293657Y509400D01*
X1293578Y510596D01*
X1293344Y511772D01*
X1292959Y512907D01*
X1292429Y513982D01*
X1291763Y514978D01*
X1290973Y515880D01*
X1290072Y516670D01*
X1289075Y517336D01*
X1288000Y517866D01*
X1286865Y518251D01*
X1285689Y518485D01*
X1284493Y518564D01*
D02*
G37*
G36*
X1259093D02*
X1257897Y518485D01*
X1256721Y518251D01*
X1255586Y517866D01*
X1254511Y517336D01*
X1253515Y516670D01*
X1252613Y515880D01*
X1251823Y514978D01*
X1251157Y513982D01*
X1250627Y512907D01*
X1250242Y511772D01*
X1250008Y510596D01*
X1249929Y509400D01*
X1250008Y508204D01*
X1250242Y507028D01*
X1250627Y505893D01*
X1251157Y504818D01*
X1251823Y503821D01*
X1252613Y502920D01*
X1253515Y502130D01*
X1254511Y501464D01*
X1255586Y500934D01*
X1256721Y500549D01*
X1257897Y500315D01*
X1259093Y500236D01*
X1260289Y500315D01*
X1261465Y500549D01*
X1262600Y500934D01*
X1263675Y501464D01*
X1264671Y502130D01*
X1265573Y502920D01*
X1266363Y503821D01*
X1267029Y504818D01*
X1267559Y505893D01*
X1267944Y507028D01*
X1268178Y508204D01*
X1268257Y509400D01*
X1268178Y510596D01*
X1267944Y511772D01*
X1267559Y512907D01*
X1267029Y513982D01*
X1266363Y514978D01*
X1265573Y515880D01*
X1264671Y516670D01*
X1263675Y517336D01*
X1262600Y517866D01*
X1261465Y518251D01*
X1260289Y518485D01*
X1259093Y518564D01*
D02*
G37*
G36*
X1233693D02*
X1232497Y518485D01*
X1231321Y518251D01*
X1230186Y517866D01*
X1229111Y517336D01*
X1228115Y516670D01*
X1227213Y515880D01*
X1226423Y514978D01*
X1225757Y513982D01*
X1225227Y512907D01*
X1224842Y511772D01*
X1224608Y510596D01*
X1224529Y509400D01*
X1224608Y508204D01*
X1224842Y507028D01*
X1225227Y505893D01*
X1225757Y504818D01*
X1226423Y503821D01*
X1227213Y502920D01*
X1228115Y502130D01*
X1229111Y501464D01*
X1230186Y500934D01*
X1231321Y500549D01*
X1232497Y500315D01*
X1233693Y500236D01*
X1234889Y500315D01*
X1236065Y500549D01*
X1237200Y500934D01*
X1238275Y501464D01*
X1239271Y502130D01*
X1240173Y502920D01*
X1240963Y503821D01*
X1241629Y504818D01*
X1242159Y505893D01*
X1242544Y507028D01*
X1242778Y508204D01*
X1242857Y509400D01*
X1242778Y510596D01*
X1242544Y511772D01*
X1242159Y512907D01*
X1241629Y513982D01*
X1240963Y514978D01*
X1240173Y515880D01*
X1239271Y516670D01*
X1238275Y517336D01*
X1237200Y517866D01*
X1236065Y518251D01*
X1234889Y518485D01*
X1233693Y518564D01*
D02*
G37*
G36*
X1208293D02*
X1207097Y518485D01*
X1205921Y518251D01*
X1204786Y517866D01*
X1203711Y517336D01*
X1202715Y516670D01*
X1201813Y515880D01*
X1201023Y514978D01*
X1200357Y513982D01*
X1199827Y512907D01*
X1199442Y511772D01*
X1199208Y510596D01*
X1199129Y509400D01*
X1199208Y508204D01*
X1199442Y507028D01*
X1199827Y505893D01*
X1200357Y504818D01*
X1201023Y503821D01*
X1201813Y502920D01*
X1202715Y502130D01*
X1203711Y501464D01*
X1204786Y500934D01*
X1205921Y500549D01*
X1207097Y500315D01*
X1208293Y500236D01*
X1209489Y500315D01*
X1210665Y500549D01*
X1211800Y500934D01*
X1212875Y501464D01*
X1213872Y502130D01*
X1214773Y502920D01*
X1215563Y503821D01*
X1216229Y504818D01*
X1216759Y505893D01*
X1217144Y507028D01*
X1217378Y508204D01*
X1217457Y509400D01*
X1217378Y510596D01*
X1217144Y511772D01*
X1216759Y512907D01*
X1216229Y513982D01*
X1215563Y514978D01*
X1214773Y515880D01*
X1213872Y516670D01*
X1212875Y517336D01*
X1211800Y517866D01*
X1210665Y518251D01*
X1209489Y518485D01*
X1208293Y518564D01*
D02*
G37*
G36*
X1060260Y518372D02*
X1059064Y518294D01*
X1057889Y518060D01*
X1056754Y517675D01*
X1055678Y517145D01*
X1054682Y516479D01*
X1053781Y515688D01*
X1052990Y514787D01*
X1052324Y513790D01*
X1051794Y512715D01*
X1051409Y511580D01*
X1051175Y510405D01*
X1051097Y509208D01*
X1051175Y508012D01*
X1051409Y506837D01*
X1051794Y505702D01*
X1052324Y504627D01*
X1052990Y503630D01*
X1053781Y502729D01*
X1054682Y501939D01*
X1055678Y501273D01*
X1056754Y500742D01*
X1057889Y500357D01*
X1059064Y500123D01*
X1060260Y500045D01*
X1061456Y500123D01*
X1062632Y500357D01*
X1063767Y500742D01*
X1064842Y501273D01*
X1065839Y501939D01*
X1066740Y502729D01*
X1067530Y503630D01*
X1068196Y504627D01*
X1068726Y505702D01*
X1069112Y506837D01*
X1069345Y508012D01*
X1069424Y509208D01*
X1069345Y510405D01*
X1069112Y511580D01*
X1068726Y512715D01*
X1068196Y513790D01*
X1067530Y514787D01*
X1066740Y515688D01*
X1065839Y516479D01*
X1064842Y517145D01*
X1063767Y517675D01*
X1062632Y518060D01*
X1061456Y518294D01*
X1060260Y518372D01*
D02*
G37*
G36*
X1034860D02*
X1033664Y518294D01*
X1032489Y518060D01*
X1031354Y517675D01*
X1030278Y517145D01*
X1029282Y516479D01*
X1028381Y515688D01*
X1027590Y514787D01*
X1026924Y513790D01*
X1026394Y512715D01*
X1026009Y511580D01*
X1025775Y510405D01*
X1025697Y509208D01*
X1025775Y508012D01*
X1026009Y506837D01*
X1026394Y505702D01*
X1026924Y504627D01*
X1027590Y503630D01*
X1028381Y502729D01*
X1029282Y501939D01*
X1030278Y501273D01*
X1031354Y500742D01*
X1032489Y500357D01*
X1033664Y500123D01*
X1034860Y500045D01*
X1036056Y500123D01*
X1037232Y500357D01*
X1038367Y500742D01*
X1039442Y501273D01*
X1040439Y501939D01*
X1041340Y502729D01*
X1042130Y503630D01*
X1042796Y504627D01*
X1043326Y505702D01*
X1043712Y506837D01*
X1043945Y508012D01*
X1044024Y509208D01*
X1043945Y510405D01*
X1043712Y511580D01*
X1043326Y512715D01*
X1042796Y513790D01*
X1042130Y514787D01*
X1041340Y515688D01*
X1040439Y516479D01*
X1039442Y517145D01*
X1038367Y517675D01*
X1037232Y518060D01*
X1036056Y518294D01*
X1034860Y518372D01*
D02*
G37*
G36*
X1009460D02*
X1008264Y518294D01*
X1007089Y518060D01*
X1005954Y517675D01*
X1004878Y517145D01*
X1003882Y516479D01*
X1002981Y515688D01*
X1002190Y514787D01*
X1001524Y513790D01*
X1000994Y512715D01*
X1000609Y511580D01*
X1000375Y510405D01*
X1000297Y509208D01*
X1000375Y508012D01*
X1000609Y506837D01*
X1000994Y505702D01*
X1001524Y504627D01*
X1002190Y503630D01*
X1002981Y502729D01*
X1003882Y501939D01*
X1004878Y501273D01*
X1005954Y500742D01*
X1007089Y500357D01*
X1008264Y500123D01*
X1009460Y500045D01*
X1010656Y500123D01*
X1011832Y500357D01*
X1012967Y500742D01*
X1014042Y501273D01*
X1015039Y501939D01*
X1015940Y502729D01*
X1016730Y503630D01*
X1017396Y504627D01*
X1017926Y505702D01*
X1018312Y506837D01*
X1018546Y508012D01*
X1018624Y509208D01*
X1018546Y510405D01*
X1018312Y511580D01*
X1017926Y512715D01*
X1017396Y513790D01*
X1016730Y514787D01*
X1015940Y515688D01*
X1015039Y516479D01*
X1014042Y517145D01*
X1012967Y517675D01*
X1011832Y518060D01*
X1010656Y518294D01*
X1009460Y518372D01*
D02*
G37*
G36*
X984060D02*
X982864Y518294D01*
X981689Y518060D01*
X980554Y517675D01*
X979479Y517145D01*
X978482Y516479D01*
X977581Y515688D01*
X976790Y514787D01*
X976124Y513790D01*
X975594Y512715D01*
X975209Y511580D01*
X974975Y510405D01*
X974897Y509208D01*
X974975Y508012D01*
X975209Y506837D01*
X975594Y505702D01*
X976124Y504627D01*
X976790Y503630D01*
X977581Y502729D01*
X978482Y501939D01*
X979479Y501273D01*
X980554Y500742D01*
X981689Y500357D01*
X982864Y500123D01*
X984060Y500045D01*
X985256Y500123D01*
X986432Y500357D01*
X987567Y500742D01*
X988642Y501273D01*
X989639Y501939D01*
X990540Y502729D01*
X991330Y503630D01*
X991996Y504627D01*
X992526Y505702D01*
X992912Y506837D01*
X993146Y508012D01*
X993224Y509208D01*
X993146Y510405D01*
X992912Y511580D01*
X992526Y512715D01*
X991996Y513790D01*
X991330Y514787D01*
X990540Y515688D01*
X989639Y516479D01*
X988642Y517145D01*
X987567Y517675D01*
X986432Y518060D01*
X985256Y518294D01*
X984060Y518372D01*
D02*
G37*
G36*
X1148080Y469718D02*
Y461010D01*
X1156788D01*
X1156785Y461053D01*
X1156529Y462344D01*
X1156106Y463590D01*
X1155524Y464771D01*
X1154792Y465865D01*
X1153925Y466855D01*
X1152935Y467722D01*
X1151841Y468453D01*
X1150660Y469036D01*
X1149414Y469459D01*
X1148123Y469715D01*
X1148080Y469718D01*
D02*
G37*
G36*
X1122680D02*
Y461010D01*
X1131388D01*
X1131385Y461053D01*
X1131129Y462344D01*
X1130706Y463590D01*
X1130124Y464771D01*
X1129392Y465865D01*
X1128525Y466855D01*
X1127535Y467722D01*
X1126441Y468453D01*
X1125260Y469036D01*
X1124014Y469459D01*
X1122723Y469715D01*
X1122680Y469718D01*
D02*
G37*
G36*
X1145540D02*
X1145497Y469715D01*
X1144206Y469459D01*
X1142960Y469036D01*
X1141779Y468453D01*
X1140685Y467722D01*
X1139695Y466855D01*
X1138828Y465865D01*
X1138096Y464771D01*
X1137514Y463590D01*
X1137091Y462344D01*
X1136835Y461053D01*
X1136832Y461010D01*
X1145540D01*
Y469718D01*
D02*
G37*
G36*
X1120140D02*
X1120097Y469715D01*
X1118806Y469459D01*
X1117560Y469036D01*
X1116379Y468453D01*
X1115285Y467722D01*
X1114295Y466855D01*
X1113428Y465865D01*
X1112697Y464771D01*
X1112114Y463590D01*
X1111691Y462344D01*
X1111435Y461053D01*
X1111432Y461010D01*
X1120140D01*
Y469718D01*
D02*
G37*
G36*
X1287407Y897149D02*
X1286292Y897076D01*
X1285196Y896858D01*
X1284138Y896499D01*
X1283136Y896005D01*
X1282207Y895384D01*
X1281367Y894647D01*
X1280630Y893807D01*
X1280009Y892878D01*
X1279515Y891876D01*
X1279156Y890818D01*
X1278938Y889722D01*
X1278865Y888607D01*
X1278938Y887492D01*
X1279156Y886396D01*
X1279515Y885338D01*
X1280009Y884336D01*
X1280630Y883407D01*
X1281367Y882567D01*
X1282207Y881830D01*
X1283136Y881209D01*
X1284138Y880715D01*
X1285196Y880356D01*
X1286292Y880138D01*
X1287407Y880065D01*
X1288522Y880138D01*
X1289618Y880356D01*
X1290676Y880715D01*
X1291678Y881209D01*
X1292607Y881830D01*
X1293447Y882567D01*
X1294184Y883407D01*
X1294805Y884336D01*
X1295299Y885338D01*
X1295658Y886396D01*
X1295876Y887492D01*
X1295949Y888607D01*
X1295876Y889722D01*
X1295658Y890818D01*
X1295299Y891876D01*
X1294805Y892878D01*
X1294184Y893807D01*
X1293447Y894647D01*
X1292607Y895384D01*
X1291678Y896005D01*
X1290676Y896499D01*
X1289618Y896858D01*
X1288522Y897076D01*
X1287407Y897149D01*
D02*
G37*
G36*
X1359423Y838569D02*
X1359364Y838565D01*
X1358058Y838305D01*
X1356797Y837877D01*
X1355602Y837288D01*
X1354495Y836548D01*
X1353493Y835670D01*
X1352615Y834669D01*
X1351875Y833561D01*
X1351286Y832367D01*
X1350858Y831105D01*
X1350598Y829799D01*
X1350594Y829740D01*
X1359423D01*
Y838569D01*
D02*
G37*
G36*
Y827200D02*
X1350594D01*
X1350598Y827141D01*
X1350858Y825835D01*
X1351286Y824574D01*
X1351875Y823379D01*
X1352615Y822272D01*
X1353493Y821271D01*
X1354495Y820393D01*
X1355602Y819653D01*
X1356797Y819063D01*
X1358058Y818635D01*
X1359364Y818376D01*
X1359423Y818372D01*
Y827200D01*
D02*
G37*
G36*
X1137730Y619637D02*
Y610808D01*
X1146559D01*
X1146555Y610868D01*
X1146295Y612174D01*
X1145867Y613435D01*
X1145278Y614629D01*
X1144538Y615737D01*
X1143660Y616738D01*
X1142659Y617616D01*
X1141551Y618356D01*
X1140357Y618945D01*
X1139096Y619373D01*
X1137789Y619633D01*
X1137730Y619637D01*
D02*
G37*
G36*
X1146559Y608269D02*
X1137730D01*
Y599440D01*
X1137789Y599444D01*
X1139096Y599704D01*
X1140357Y600132D01*
X1141551Y600721D01*
X1142659Y601461D01*
X1143660Y602339D01*
X1144538Y603340D01*
X1145278Y604448D01*
X1145867Y605642D01*
X1146295Y606903D01*
X1146555Y608210D01*
X1146559Y608269D01*
D02*
G37*
%LPD*%
D11*
X1124166Y811061D02*
Y833371D01*
Y560112D02*
Y811061D01*
X962342D02*
X1124166D01*
X958660Y807380D02*
X962342Y811061D01*
X958660Y727949D02*
Y807380D01*
X1110140Y492376D02*
X1119504Y483012D01*
X1098766Y503749D02*
X1110140Y492376D01*
X975493D02*
X1110140D01*
X958660Y509208D02*
X975493Y492376D01*
X1182893Y509400D02*
Y585142D01*
X1195187Y597436D01*
Y614822D01*
X1182893Y627116D02*
X1195187Y614822D01*
X1182893Y627116D02*
Y728140D01*
X1166448Y836497D02*
X1260801Y930850D01*
X1166448Y836497D02*
X1166448Y508748D01*
X1260801Y930850D02*
Y950417D01*
X1272199Y812703D02*
Y940729D01*
X1049160Y481190D02*
X1070610Y459740D01*
X941030Y481190D02*
X1049160D01*
X1372987Y522755D02*
Y938314D01*
X1360693Y510461D02*
X1372987Y522755D01*
X1360693Y509400D02*
Y510461D01*
X1350010Y942340D02*
Y946537D01*
X1343000Y953547D02*
X1350010Y946537D01*
X1263930Y953547D02*
X1343000D01*
X1260801Y950417D02*
X1263930Y953547D01*
X1351888Y959414D02*
X1372987Y938314D01*
X1240083Y959414D02*
X1351888D01*
X1223010Y942340D02*
X1240083Y959414D01*
X1152463Y743952D02*
Y852141D01*
X1136460Y727949D02*
X1152463Y743952D01*
Y852141D02*
X1197610Y897287D01*
X1159777Y845006D02*
X1248410Y933639D01*
X1159777Y532525D02*
Y845006D01*
X1136460Y509208D02*
X1159777Y532525D01*
X1151878Y494179D02*
X1166448Y508748D01*
X1126090Y494179D02*
X1151878D01*
X1111060Y509208D02*
X1126090Y494179D01*
X1248410Y933639D02*
Y942340D01*
X1096664Y927927D02*
X1106170Y937433D01*
X908877Y927927D02*
X1096664D01*
X849630Y868680D02*
X908877Y927927D01*
X1106170Y937433D02*
Y942340D01*
X1347547Y459740D02*
X1350010D01*
X1333866Y446058D02*
X1347547Y459740D01*
X766669Y446058D02*
X1333866Y446058D01*
X751809Y460918D02*
X766669Y446058D01*
X1313472Y749961D02*
X1335293Y728140D01*
X1313472Y749961D02*
Y771430D01*
X1272199Y812703D02*
X1313472Y771430D01*
X1119504Y483012D02*
X1156505D01*
X1098766Y503749D02*
Y534712D01*
X1099133Y535079D01*
X1124166Y560112D01*
X1156505Y483012D02*
X1182893Y509400D01*
X1124166Y833371D02*
X1131570Y840775D01*
X751809Y460918D02*
Y612109D01*
X765810Y626110D01*
X865090Y570470D02*
X931449D01*
X941030D01*
X971516Y600956D01*
Y768074D01*
X981810Y778368D01*
Y789210D01*
X834849Y600710D02*
X865090Y570470D01*
X765810Y600710D02*
X834849D01*
X941030Y570470D02*
X981810D01*
X931449Y490770D02*
Y570470D01*
Y490770D02*
X941030Y481190D01*
X1335293Y509400D02*
X1347587Y521694D01*
Y733233D01*
X1322999Y757821D02*
X1347587Y733233D01*
X1322999Y757821D02*
Y940729D01*
X1324610Y942340D01*
X1197610Y897287D02*
Y942340D01*
X1131570Y840775D02*
Y942340D01*
X1272199Y940729D02*
X1273810Y942340D01*
D36*
X1233693Y728140D02*
D03*
X1208293D02*
D03*
X1284493D02*
D03*
X1259093D02*
D03*
X1309893D02*
D03*
X1335293D02*
D03*
X1360693D02*
D03*
Y828470D02*
D03*
X1335293D02*
D03*
X1309893D02*
D03*
X1259093D02*
D03*
X1284493D02*
D03*
X1208293D02*
D03*
X1182893D02*
D03*
X1233693D02*
D03*
X1009460Y727949D02*
D03*
X984060D02*
D03*
X1060260D02*
D03*
X1034860D02*
D03*
X1085660D02*
D03*
X1111060D02*
D03*
X1136460D02*
D03*
Y828279D02*
D03*
X1111060D02*
D03*
X1085660D02*
D03*
X1034860D02*
D03*
X1060260D02*
D03*
X984060D02*
D03*
X958660D02*
D03*
X1009460D02*
D03*
X1233693Y509400D02*
D03*
X1208293D02*
D03*
X1284493D02*
D03*
X1259093D02*
D03*
X1309893D02*
D03*
X1335293D02*
D03*
X1360693D02*
D03*
Y609730D02*
D03*
X1335293D02*
D03*
X1309893D02*
D03*
X1259093D02*
D03*
X1284493D02*
D03*
X1208293D02*
D03*
X1182893D02*
D03*
X1233693D02*
D03*
X1009460Y509208D02*
D03*
X984060D02*
D03*
X1060260D02*
D03*
X1034860D02*
D03*
X1085660D02*
D03*
X1111060D02*
D03*
X1136460D02*
D03*
Y609538D02*
D03*
X1111060D02*
D03*
X1085660D02*
D03*
X1034860D02*
D03*
X1060260D02*
D03*
X984060D02*
D03*
X958660D02*
D03*
X1009460D02*
D03*
D37*
X1182893Y728140D02*
D03*
X958660Y727949D02*
D03*
X1182893Y509400D02*
D03*
X958660Y509208D02*
D03*
D38*
X768350Y849630D02*
D03*
X767080Y698500D02*
D03*
D39*
X768350Y900430D02*
D03*
X767080Y749300D02*
D03*
D40*
X849630Y734060D02*
D03*
Y801370D02*
D03*
Y868680D02*
D03*
X765810Y600710D02*
D03*
D41*
X849630Y759460D02*
D03*
Y826770D02*
D03*
Y894080D02*
D03*
X765810Y626110D02*
D03*
D42*
X1172210Y942340D02*
D03*
X1197610D02*
D03*
X1223010D02*
D03*
X1248410D02*
D03*
X1273810D02*
D03*
X1299210D02*
D03*
X1324610D02*
D03*
X981810Y763810D02*
D03*
X1013510D02*
D03*
X1045210D02*
D03*
X1269443Y764001D02*
D03*
X1237743D02*
D03*
X1206043D02*
D03*
Y545261D02*
D03*
X1237743D02*
D03*
X1269443D02*
D03*
X1045210Y545070D02*
D03*
X1013510D02*
D03*
X981810D02*
D03*
X1223010Y459740D02*
D03*
X1248410D02*
D03*
X1273810D02*
D03*
X1299210D02*
D03*
X1324610D02*
D03*
X1146810D02*
D03*
X1121410D02*
D03*
X1096010D02*
D03*
X1070610D02*
D03*
X1045210D02*
D03*
X1019810D02*
D03*
X994410D02*
D03*
X1080770Y942340D02*
D03*
X902970D02*
D03*
X928370D02*
D03*
X953770D02*
D03*
X979170D02*
D03*
X1004570D02*
D03*
X1029970D02*
D03*
X1055370D02*
D03*
X1106170D02*
D03*
D43*
X1350010D02*
D03*
Y459740D02*
D03*
X1172210D02*
D03*
X1131570Y942340D02*
D03*
D44*
X1013644Y888416D02*
D03*
X1063174D02*
D03*
X1037774D02*
D03*
X1237877Y888607D02*
D03*
X1287407D02*
D03*
X1262007D02*
D03*
X1237877Y669867D02*
D03*
X1287407D02*
D03*
X1262007D02*
D03*
X1037774Y669675D02*
D03*
X1063174D02*
D03*
X1013644D02*
D03*
D45*
X1088574Y888416D02*
D03*
X1312807Y888607D02*
D03*
Y669867D02*
D03*
X1088574Y669675D02*
D03*
D46*
X981810Y789210D02*
D03*
X1013510D02*
D03*
X1045210D02*
D03*
X1269443Y789401D02*
D03*
X1237743D02*
D03*
X1206043D02*
D03*
Y570661D02*
D03*
X1237743D02*
D03*
X1269443D02*
D03*
X1045210Y570470D02*
D03*
X1013510D02*
D03*
X981810D02*
D03*
M02*
