G04*
G04 #@! TF.GenerationSoftware,Altium Limited,Altium Designer,18.1.7 (191)*
G04*
G04 Layer_Color=65535*
%FSLAX44Y44*%
%MOMM*%
G71*
G01*
G75*
%ADD10C,0.2500*%
%ADD11C,0.2540*%
%ADD12C,0.1500*%
%ADD13C,0.0254*%
%ADD14C,0.2000*%
%ADD15C,0.1270*%
G36*
X1166314Y698198D02*
X1166465D01*
Y698122D01*
X1166541D01*
Y698047D01*
Y697971D01*
Y697895D01*
X1166617D01*
Y697820D01*
Y697744D01*
Y697668D01*
Y697592D01*
Y697516D01*
X1166692D01*
Y697441D01*
Y697365D01*
Y697289D01*
Y697214D01*
Y697138D01*
X1166768D01*
Y697062D01*
Y696986D01*
Y696910D01*
Y696835D01*
Y696759D01*
Y696683D01*
X1166844D01*
Y696608D01*
Y696532D01*
Y696456D01*
Y696380D01*
Y696304D01*
X1166920D01*
Y696229D01*
Y696153D01*
Y696077D01*
Y696002D01*
Y695926D01*
Y695850D01*
X1166995D01*
Y695774D01*
Y695698D01*
Y695623D01*
Y695547D01*
Y695471D01*
X1167071D01*
Y695396D01*
Y695320D01*
Y695244D01*
Y695168D01*
Y695092D01*
X1167147D01*
Y695017D01*
Y694941D01*
Y694865D01*
Y694790D01*
Y694714D01*
Y694638D01*
X1167223D01*
Y694562D01*
Y694486D01*
Y694411D01*
Y694335D01*
Y694259D01*
X1167298D01*
Y694184D01*
Y694108D01*
Y694032D01*
Y693956D01*
Y693881D01*
X1167374D01*
Y693805D01*
Y693729D01*
Y693653D01*
Y693578D01*
Y693502D01*
Y693426D01*
X1167450D01*
Y693350D01*
Y693275D01*
Y693199D01*
Y693123D01*
Y693047D01*
X1167526D01*
Y692972D01*
Y692896D01*
Y692820D01*
Y692744D01*
Y692669D01*
X1167601D01*
Y692593D01*
Y692517D01*
Y692441D01*
Y692366D01*
Y692290D01*
X1167677D01*
Y692214D01*
Y692138D01*
X1167753D01*
Y692063D01*
X1167829D01*
Y691987D01*
X1167980D01*
Y691911D01*
X1168207D01*
Y691835D01*
X1168359D01*
Y691760D01*
X1168510D01*
Y691684D01*
X1168738D01*
Y691608D01*
X1168889D01*
Y691532D01*
X1169116D01*
Y691457D01*
X1169268D01*
Y691381D01*
X1169495D01*
Y691305D01*
X1169647D01*
Y691229D01*
X1169874D01*
Y691154D01*
X1170025D01*
Y691078D01*
X1170177D01*
Y691002D01*
X1170404D01*
Y690926D01*
X1170556D01*
Y690851D01*
X1170783D01*
Y690775D01*
X1170934D01*
Y690699D01*
X1171162D01*
Y690623D01*
X1171313D01*
Y690548D01*
X1171540D01*
Y690472D01*
X1171692D01*
Y690396D01*
X1172146D01*
Y690472D01*
X1172298D01*
Y690548D01*
X1172374D01*
Y690623D01*
X1172525D01*
Y690699D01*
X1172601D01*
Y690775D01*
X1172752D01*
Y690851D01*
X1172828D01*
Y690926D01*
X1172980D01*
Y691002D01*
X1173055D01*
Y691078D01*
X1173207D01*
Y691154D01*
X1173283D01*
Y691229D01*
X1173434D01*
Y691305D01*
X1173510D01*
Y691381D01*
X1173586D01*
Y691457D01*
X1173737D01*
Y691532D01*
X1173813D01*
Y691608D01*
X1173964D01*
Y691684D01*
X1174040D01*
Y691760D01*
X1174192D01*
Y691835D01*
X1174267D01*
Y691911D01*
X1174419D01*
Y691987D01*
X1174494D01*
Y692063D01*
X1174646D01*
Y692138D01*
X1174722D01*
Y692214D01*
X1174798D01*
Y692290D01*
X1174949D01*
Y692366D01*
X1175025D01*
Y692441D01*
X1175176D01*
Y692517D01*
X1175252D01*
Y692593D01*
X1175404D01*
Y692669D01*
X1175479D01*
Y692744D01*
X1175631D01*
Y692820D01*
X1175706D01*
Y692896D01*
X1175858D01*
Y692972D01*
X1175934D01*
Y693047D01*
X1176085D01*
Y693123D01*
X1176161D01*
Y693199D01*
X1176237D01*
Y693275D01*
X1176388D01*
Y693350D01*
X1176464D01*
Y693426D01*
X1176616D01*
Y693502D01*
X1176691D01*
Y693578D01*
X1176843D01*
Y693653D01*
X1176918D01*
Y693729D01*
X1177222D01*
Y693653D01*
X1177373D01*
Y693578D01*
X1177449D01*
Y693502D01*
X1177524D01*
Y693426D01*
X1177600D01*
Y693350D01*
X1177676D01*
Y693275D01*
X1177752D01*
Y693199D01*
X1177828D01*
Y693123D01*
X1177903D01*
Y693047D01*
X1177979D01*
Y692972D01*
X1178055D01*
Y692896D01*
X1178130D01*
Y692820D01*
X1178206D01*
Y692744D01*
X1178282D01*
Y692669D01*
X1178358D01*
Y692593D01*
X1178434D01*
Y692517D01*
X1178509D01*
Y692441D01*
X1178585D01*
Y692366D01*
X1178661D01*
Y692290D01*
X1178736D01*
Y692214D01*
X1178812D01*
Y692138D01*
X1178888D01*
Y692063D01*
X1178964D01*
Y691987D01*
X1179040D01*
Y691911D01*
X1179115D01*
Y691835D01*
X1179191D01*
Y691760D01*
X1179267D01*
Y691684D01*
X1179342D01*
Y691608D01*
X1179418D01*
Y691532D01*
X1179494D01*
Y691457D01*
X1179570D01*
Y691381D01*
X1179645D01*
Y691305D01*
X1179721D01*
Y691229D01*
X1179797D01*
Y691154D01*
X1179873D01*
Y691078D01*
X1179949D01*
Y691002D01*
X1180024D01*
Y690926D01*
X1180100D01*
Y690851D01*
X1180176D01*
Y690775D01*
X1180251D01*
Y690699D01*
X1180327D01*
Y690623D01*
X1180403D01*
Y690548D01*
X1180479D01*
Y690472D01*
X1180555D01*
Y690396D01*
X1180630D01*
Y690320D01*
X1180706D01*
Y690245D01*
X1180782D01*
Y690169D01*
X1180857D01*
Y690093D01*
X1180933D01*
Y690017D01*
X1181009D01*
Y689942D01*
X1181085D01*
Y689866D01*
X1181160D01*
Y689790D01*
X1181236D01*
Y689714D01*
X1181312D01*
Y689639D01*
Y689563D01*
X1181388D01*
Y689487D01*
X1181312D01*
Y689411D01*
Y689336D01*
Y689260D01*
X1181236D01*
Y689184D01*
X1181160D01*
Y689108D01*
Y689033D01*
X1181085D01*
Y688957D01*
X1181009D01*
Y688881D01*
X1180933D01*
Y688805D01*
Y688730D01*
X1180857D01*
Y688654D01*
X1180782D01*
Y688578D01*
Y688502D01*
X1180706D01*
Y688427D01*
X1180630D01*
Y688351D01*
Y688275D01*
X1180555D01*
Y688199D01*
X1180479D01*
Y688124D01*
Y688048D01*
X1180403D01*
Y687972D01*
X1180327D01*
Y687896D01*
Y687821D01*
X1180251D01*
Y687745D01*
X1180176D01*
Y687669D01*
X1180100D01*
Y687593D01*
Y687518D01*
X1180024D01*
Y687442D01*
X1179949D01*
Y687366D01*
Y687290D01*
X1179873D01*
Y687215D01*
X1179797D01*
Y687139D01*
Y687063D01*
X1179721D01*
Y686987D01*
X1179645D01*
Y686912D01*
Y686836D01*
X1179570D01*
Y686760D01*
X1179494D01*
Y686684D01*
Y686609D01*
X1179418D01*
Y686533D01*
X1179342D01*
Y686457D01*
X1179267D01*
Y686381D01*
Y686306D01*
X1179191D01*
Y686230D01*
X1179115D01*
Y686154D01*
Y686078D01*
X1179040D01*
Y686003D01*
X1178964D01*
Y685927D01*
Y685851D01*
X1178888D01*
Y685775D01*
X1178812D01*
Y685700D01*
Y685624D01*
X1178736D01*
Y685548D01*
X1178661D01*
Y685472D01*
Y685397D01*
X1178585D01*
Y685321D01*
X1178509D01*
Y685245D01*
Y685169D01*
X1178434D01*
Y685094D01*
X1178358D01*
Y685018D01*
X1178282D01*
Y684942D01*
Y684866D01*
X1178206D01*
Y684791D01*
X1178130D01*
Y684715D01*
Y684639D01*
X1178055D01*
Y684564D01*
Y684488D01*
Y684412D01*
Y684336D01*
Y684260D01*
Y684185D01*
X1178130D01*
Y684109D01*
Y684033D01*
X1178206D01*
Y683958D01*
Y683882D01*
Y683806D01*
X1178282D01*
Y683730D01*
Y683654D01*
X1178358D01*
Y683579D01*
Y683503D01*
X1178434D01*
Y683427D01*
Y683351D01*
Y683276D01*
X1178509D01*
Y683200D01*
Y683124D01*
X1178585D01*
Y683048D01*
Y682973D01*
X1178661D01*
Y682897D01*
Y682821D01*
Y682745D01*
X1178736D01*
Y682670D01*
Y682594D01*
X1178812D01*
Y682518D01*
Y682442D01*
X1178888D01*
Y682367D01*
Y682291D01*
Y682215D01*
X1178964D01*
Y682140D01*
Y682064D01*
X1179040D01*
Y681988D01*
Y681912D01*
X1179115D01*
Y681836D01*
Y681761D01*
Y681685D01*
X1179191D01*
Y681609D01*
Y681534D01*
X1179267D01*
Y681458D01*
Y681382D01*
X1179342D01*
Y681306D01*
Y681230D01*
Y681155D01*
X1179418D01*
Y681079D01*
Y681003D01*
X1179494D01*
Y680928D01*
Y680852D01*
X1179570D01*
Y680776D01*
Y680700D01*
Y680624D01*
X1179645D01*
Y680549D01*
Y680473D01*
X1179721D01*
Y680397D01*
Y680322D01*
X1179797D01*
Y680246D01*
Y680170D01*
X1179873D01*
Y680094D01*
X1179949D01*
Y680018D01*
X1180100D01*
Y679943D01*
X1180479D01*
Y679867D01*
X1180933D01*
Y679791D01*
X1181312D01*
Y679715D01*
X1181691D01*
Y679640D01*
X1182145D01*
Y679564D01*
X1182524D01*
Y679488D01*
X1182903D01*
Y679413D01*
X1183357D01*
Y679337D01*
X1183736D01*
Y679261D01*
X1184115D01*
Y679185D01*
X1184569D01*
Y679109D01*
X1184948D01*
Y679034D01*
X1185402D01*
Y678958D01*
X1185630D01*
Y678882D01*
X1185781D01*
Y678807D01*
Y678731D01*
X1185857D01*
Y678655D01*
Y678579D01*
Y678503D01*
Y678428D01*
Y678352D01*
Y678276D01*
Y678201D01*
Y678125D01*
Y678049D01*
Y677973D01*
Y677897D01*
Y677822D01*
Y677746D01*
Y677670D01*
Y677595D01*
Y677519D01*
Y677443D01*
Y677367D01*
Y677291D01*
Y677216D01*
Y677140D01*
Y677064D01*
Y676989D01*
Y676913D01*
Y676837D01*
Y676761D01*
Y676685D01*
Y676610D01*
Y676534D01*
Y676458D01*
Y676383D01*
Y676307D01*
Y676231D01*
Y676155D01*
Y676079D01*
Y676004D01*
Y675928D01*
Y675852D01*
Y675777D01*
Y675701D01*
Y675625D01*
Y675549D01*
Y675474D01*
Y675398D01*
Y675322D01*
Y675246D01*
Y675171D01*
Y675095D01*
Y675019D01*
Y674943D01*
Y674868D01*
Y674792D01*
Y674716D01*
Y674640D01*
Y674565D01*
Y674489D01*
Y674413D01*
Y674337D01*
Y674261D01*
Y674186D01*
Y674110D01*
Y674034D01*
Y673959D01*
Y673883D01*
Y673807D01*
Y673731D01*
Y673656D01*
Y673580D01*
Y673504D01*
Y673428D01*
Y673353D01*
Y673277D01*
Y673201D01*
Y673125D01*
Y673050D01*
Y672974D01*
X1185781D01*
Y672898D01*
Y672822D01*
X1185630D01*
Y672747D01*
X1185251D01*
Y672671D01*
X1184872D01*
Y672595D01*
X1184493D01*
Y672519D01*
X1184039D01*
Y672444D01*
X1183660D01*
Y672368D01*
X1183281D01*
Y672292D01*
X1182827D01*
Y672216D01*
X1182448D01*
Y672141D01*
X1181994D01*
Y672065D01*
X1181615D01*
Y671989D01*
X1181236D01*
Y671913D01*
X1180782D01*
Y671838D01*
X1180403D01*
Y671762D01*
X1180176D01*
Y671686D01*
X1180024D01*
Y671610D01*
X1179949D01*
Y671535D01*
Y671459D01*
X1179873D01*
Y671383D01*
Y671307D01*
X1179797D01*
Y671232D01*
Y671156D01*
Y671080D01*
X1179721D01*
Y671004D01*
Y670929D01*
X1179645D01*
Y670853D01*
Y670777D01*
Y670701D01*
X1179570D01*
Y670626D01*
Y670550D01*
X1179494D01*
Y670474D01*
Y670398D01*
Y670323D01*
X1179418D01*
Y670247D01*
Y670171D01*
X1179342D01*
Y670095D01*
Y670020D01*
Y669944D01*
X1179267D01*
Y669868D01*
Y669792D01*
X1179191D01*
Y669717D01*
Y669641D01*
Y669565D01*
X1179115D01*
Y669489D01*
Y669414D01*
X1179040D01*
Y669338D01*
Y669262D01*
Y669186D01*
X1178964D01*
Y669111D01*
Y669035D01*
X1178888D01*
Y668959D01*
Y668883D01*
Y668808D01*
X1178812D01*
Y668732D01*
Y668656D01*
X1178736D01*
Y668580D01*
Y668505D01*
Y668429D01*
X1178661D01*
Y668353D01*
Y668277D01*
X1178585D01*
Y668202D01*
Y668126D01*
Y668050D01*
X1178509D01*
Y667974D01*
Y667899D01*
X1178434D01*
Y667823D01*
Y667747D01*
Y667671D01*
X1178358D01*
Y667596D01*
Y667520D01*
X1178282D01*
Y667444D01*
Y667368D01*
Y667293D01*
X1178206D01*
Y667217D01*
Y667141D01*
Y667065D01*
Y666990D01*
Y666914D01*
X1178282D01*
Y666838D01*
Y666762D01*
X1178358D01*
Y666687D01*
Y666611D01*
X1178434D01*
Y666535D01*
X1178509D01*
Y666459D01*
Y666384D01*
X1178585D01*
Y666308D01*
X1178661D01*
Y666232D01*
Y666156D01*
X1178736D01*
Y666081D01*
X1178812D01*
Y666005D01*
Y665929D01*
X1178888D01*
Y665853D01*
X1178964D01*
Y665778D01*
X1179040D01*
Y665702D01*
Y665626D01*
X1179115D01*
Y665550D01*
X1179191D01*
Y665475D01*
Y665399D01*
X1179267D01*
Y665323D01*
X1179342D01*
Y665247D01*
Y665172D01*
X1179418D01*
Y665096D01*
X1179494D01*
Y665020D01*
Y664944D01*
X1179570D01*
Y664869D01*
X1179645D01*
Y664793D01*
Y664717D01*
X1179721D01*
Y664641D01*
X1179797D01*
Y664566D01*
X1179873D01*
Y664490D01*
Y664414D01*
X1179949D01*
Y664338D01*
X1180024D01*
Y664263D01*
Y664187D01*
X1180100D01*
Y664111D01*
X1180176D01*
Y664035D01*
Y663960D01*
X1180251D01*
Y663884D01*
X1180327D01*
Y663808D01*
Y663733D01*
X1180403D01*
Y663657D01*
X1180479D01*
Y663581D01*
Y663505D01*
X1180555D01*
Y663429D01*
X1180630D01*
Y663354D01*
Y663278D01*
X1180706D01*
Y663202D01*
X1180782D01*
Y663127D01*
X1180857D01*
Y663051D01*
Y662975D01*
X1180933D01*
Y662899D01*
X1181009D01*
Y662823D01*
Y662748D01*
X1181085D01*
Y662672D01*
X1181160D01*
Y662596D01*
Y662521D01*
X1181236D01*
Y662445D01*
X1181312D01*
Y662369D01*
Y662293D01*
Y662217D01*
Y662142D01*
Y662066D01*
X1181236D01*
Y661990D01*
X1181160D01*
Y661915D01*
X1181085D01*
Y661839D01*
X1181009D01*
Y661763D01*
X1180933D01*
Y661687D01*
X1180857D01*
Y661611D01*
X1180782D01*
Y661536D01*
X1180706D01*
Y661460D01*
X1180630D01*
Y661384D01*
X1180555D01*
Y661309D01*
X1180479D01*
Y661233D01*
X1180403D01*
Y661157D01*
X1180327D01*
Y661081D01*
X1180251D01*
Y661005D01*
X1180176D01*
Y660930D01*
X1180100D01*
Y660854D01*
X1180024D01*
Y660778D01*
X1179949D01*
Y660703D01*
X1179873D01*
Y660627D01*
X1179797D01*
Y660551D01*
X1179721D01*
Y660475D01*
X1179645D01*
Y660399D01*
X1179570D01*
Y660324D01*
X1179494D01*
Y660248D01*
X1179418D01*
Y660172D01*
X1179342D01*
Y660097D01*
X1179267D01*
Y660021D01*
X1179191D01*
Y659945D01*
X1179115D01*
Y659869D01*
X1179040D01*
Y659793D01*
X1178964D01*
Y659718D01*
X1178888D01*
Y659642D01*
X1178812D01*
Y659566D01*
X1178736D01*
Y659491D01*
X1178661D01*
Y659415D01*
X1178585D01*
Y659339D01*
X1178509D01*
Y659263D01*
X1178434D01*
Y659187D01*
X1178358D01*
Y659112D01*
X1178282D01*
Y659036D01*
X1178206D01*
Y658960D01*
X1178130D01*
Y658885D01*
X1178055D01*
Y658809D01*
X1177979D01*
Y658733D01*
X1177903D01*
Y658657D01*
X1177828D01*
Y658581D01*
X1177752D01*
Y658506D01*
X1177676D01*
Y658430D01*
X1177600D01*
Y658354D01*
X1177524D01*
Y658279D01*
X1177449D01*
Y658203D01*
X1177373D01*
Y658127D01*
X1177297D01*
Y658051D01*
X1177222D01*
Y657975D01*
X1176918D01*
Y658051D01*
X1176843D01*
Y658127D01*
X1176767D01*
Y658203D01*
X1176616D01*
Y658279D01*
X1176540D01*
Y658354D01*
X1176388D01*
Y658430D01*
X1176312D01*
Y658506D01*
X1176161D01*
Y658581D01*
X1176085D01*
Y658657D01*
X1175934D01*
Y658733D01*
X1175858D01*
Y658809D01*
X1175706D01*
Y658885D01*
X1175631D01*
Y658960D01*
X1175555D01*
Y659036D01*
X1175404D01*
Y659112D01*
X1175328D01*
Y659187D01*
X1175176D01*
Y659263D01*
X1175100D01*
Y659339D01*
X1174949D01*
Y659415D01*
X1174873D01*
Y659491D01*
X1174722D01*
Y659566D01*
X1174646D01*
Y659642D01*
X1174494D01*
Y659718D01*
X1174419D01*
Y659793D01*
X1174343D01*
Y659869D01*
X1174192D01*
Y659945D01*
X1174116D01*
Y660021D01*
X1173964D01*
Y660097D01*
X1173888D01*
Y660172D01*
X1173737D01*
Y660248D01*
X1173661D01*
Y660324D01*
X1173510D01*
Y660399D01*
X1173434D01*
Y660475D01*
X1173283D01*
Y660551D01*
X1173207D01*
Y660627D01*
X1173131D01*
Y660703D01*
X1172980D01*
Y660778D01*
X1172904D01*
Y660854D01*
X1172752D01*
Y660930D01*
X1172677D01*
Y661005D01*
X1172449D01*
Y661081D01*
X1172222D01*
Y661005D01*
X1171995D01*
Y660930D01*
X1171919D01*
Y660854D01*
X1171768D01*
Y660778D01*
X1171616D01*
Y660703D01*
X1171465D01*
Y660627D01*
X1171313D01*
Y660551D01*
X1171162D01*
Y660475D01*
X1171010D01*
Y660399D01*
X1170859D01*
Y660324D01*
X1170783D01*
Y660248D01*
X1170631D01*
Y660172D01*
X1170480D01*
Y660097D01*
X1170328D01*
Y660021D01*
X1170177D01*
Y659945D01*
X1170101D01*
Y660021D01*
X1169950D01*
Y660097D01*
Y660172D01*
X1169874D01*
Y660248D01*
Y660324D01*
Y660399D01*
X1169798D01*
Y660475D01*
Y660551D01*
X1169722D01*
Y660627D01*
Y660703D01*
X1169647D01*
Y660778D01*
Y660854D01*
Y660930D01*
X1169571D01*
Y661005D01*
Y661081D01*
X1169495D01*
Y661157D01*
Y661233D01*
Y661309D01*
X1169419D01*
Y661384D01*
Y661460D01*
X1169344D01*
Y661536D01*
Y661611D01*
X1169268D01*
Y661687D01*
Y661763D01*
Y661839D01*
X1169192D01*
Y661915D01*
Y661990D01*
X1169116D01*
Y662066D01*
Y662142D01*
Y662217D01*
X1169041D01*
Y662293D01*
Y662369D01*
X1168965D01*
Y662445D01*
Y662521D01*
Y662596D01*
X1168889D01*
Y662672D01*
Y662748D01*
X1168813D01*
Y662823D01*
Y662899D01*
X1168738D01*
Y662975D01*
Y663051D01*
Y663127D01*
X1168662D01*
Y663202D01*
Y663278D01*
X1168586D01*
Y663354D01*
Y663429D01*
Y663505D01*
X1168510D01*
Y663581D01*
Y663657D01*
X1168435D01*
Y663733D01*
Y663808D01*
X1168359D01*
Y663884D01*
Y663960D01*
Y664035D01*
X1168283D01*
Y664111D01*
Y664187D01*
X1168207D01*
Y664263D01*
Y664338D01*
Y664414D01*
X1168132D01*
Y664490D01*
Y664566D01*
X1168056D01*
Y664641D01*
Y664717D01*
Y664793D01*
X1167980D01*
Y664869D01*
Y664944D01*
X1167904D01*
Y665020D01*
Y665096D01*
X1167829D01*
Y665172D01*
Y665247D01*
Y665323D01*
X1167753D01*
Y665399D01*
Y665475D01*
X1167677D01*
Y665550D01*
Y665626D01*
Y665702D01*
X1167601D01*
Y665778D01*
Y665853D01*
X1167526D01*
Y665929D01*
Y666005D01*
X1167450D01*
Y666081D01*
Y666156D01*
Y666232D01*
X1167374D01*
Y666308D01*
Y666384D01*
X1167298D01*
Y666459D01*
Y666535D01*
Y666611D01*
X1167223D01*
Y666687D01*
Y666762D01*
X1167147D01*
Y666838D01*
Y666914D01*
Y666990D01*
X1167071D01*
Y667065D01*
Y667141D01*
X1166995D01*
Y667217D01*
Y667293D01*
X1166920D01*
Y667368D01*
Y667444D01*
Y667520D01*
X1166844D01*
Y667596D01*
Y667671D01*
X1166768D01*
Y667747D01*
Y667823D01*
Y667899D01*
X1166692D01*
Y667974D01*
Y668050D01*
X1166617D01*
Y668126D01*
Y668202D01*
X1166541D01*
Y668277D01*
Y668353D01*
Y668429D01*
X1166465D01*
Y668505D01*
Y668580D01*
X1166389D01*
Y668656D01*
Y668732D01*
Y668808D01*
X1166314D01*
Y668883D01*
Y668959D01*
X1166238D01*
Y669035D01*
Y669111D01*
Y669186D01*
X1166162D01*
Y669262D01*
Y669338D01*
X1166086D01*
Y669414D01*
Y669489D01*
X1166011D01*
Y669565D01*
Y669641D01*
Y669717D01*
Y669792D01*
Y669868D01*
Y669944D01*
X1166086D01*
Y670020D01*
X1166238D01*
Y670095D01*
X1166314D01*
Y670171D01*
X1166465D01*
Y670247D01*
X1166541D01*
Y670323D01*
X1166692D01*
Y670398D01*
X1166768D01*
Y670474D01*
X1166844D01*
Y670550D01*
X1166995D01*
Y670626D01*
X1167071D01*
Y670701D01*
X1167147D01*
Y670777D01*
X1167298D01*
Y670853D01*
X1167374D01*
Y670929D01*
X1167526D01*
Y671004D01*
X1167601D01*
Y671080D01*
X1167677D01*
Y671156D01*
X1167753D01*
Y671232D01*
X1167829D01*
Y671307D01*
X1167904D01*
Y671383D01*
X1167980D01*
Y671459D01*
X1168056D01*
Y671535D01*
X1168132D01*
Y671610D01*
X1168207D01*
Y671686D01*
X1168283D01*
Y671762D01*
Y671838D01*
X1168359D01*
Y671913D01*
X1168435D01*
Y671989D01*
X1168510D01*
Y672065D01*
X1168586D01*
Y672141D01*
Y672216D01*
X1168662D01*
Y672292D01*
X1168738D01*
Y672368D01*
Y672444D01*
X1168813D01*
Y672519D01*
X1168889D01*
Y672595D01*
Y672671D01*
X1168965D01*
Y672747D01*
Y672822D01*
X1169041D01*
Y672898D01*
Y672974D01*
X1169116D01*
Y673050D01*
Y673125D01*
X1169192D01*
Y673201D01*
Y673277D01*
X1169268D01*
Y673353D01*
Y673428D01*
X1169344D01*
Y673504D01*
Y673580D01*
Y673656D01*
X1169419D01*
Y673731D01*
Y673807D01*
Y673883D01*
X1169495D01*
Y673959D01*
Y674034D01*
Y674110D01*
X1169571D01*
Y674186D01*
Y674261D01*
Y674337D01*
Y674413D01*
X1169647D01*
Y674489D01*
Y674565D01*
Y674640D01*
Y674716D01*
Y674792D01*
X1169722D01*
Y674868D01*
Y674943D01*
Y675019D01*
Y675095D01*
Y675171D01*
Y675246D01*
Y675322D01*
Y675398D01*
Y675474D01*
Y675549D01*
Y675625D01*
X1169798D01*
Y675701D01*
Y675777D01*
Y675852D01*
Y675928D01*
Y676004D01*
Y676079D01*
X1169722D01*
Y676155D01*
Y676231D01*
Y676307D01*
Y676383D01*
Y676458D01*
Y676534D01*
Y676610D01*
Y676685D01*
Y676761D01*
Y676837D01*
X1169647D01*
Y676913D01*
Y676989D01*
Y677064D01*
Y677140D01*
Y677216D01*
X1169571D01*
Y677291D01*
Y677367D01*
Y677443D01*
Y677519D01*
X1169495D01*
Y677595D01*
Y677670D01*
Y677746D01*
Y677822D01*
X1169419D01*
Y677897D01*
Y677973D01*
X1169344D01*
Y678049D01*
Y678125D01*
Y678201D01*
X1169268D01*
Y678276D01*
Y678352D01*
Y678428D01*
X1169192D01*
Y678503D01*
Y678579D01*
X1169116D01*
Y678655D01*
Y678731D01*
X1169041D01*
Y678807D01*
Y678882D01*
X1168965D01*
Y678958D01*
X1168889D01*
Y679034D01*
Y679109D01*
X1168813D01*
Y679185D01*
Y679261D01*
X1168738D01*
Y679337D01*
X1168662D01*
Y679413D01*
Y679488D01*
X1168586D01*
Y679564D01*
X1168510D01*
Y679640D01*
X1168435D01*
Y679715D01*
Y679791D01*
X1168359D01*
Y679867D01*
X1168283D01*
Y679943D01*
X1168207D01*
Y680018D01*
X1168132D01*
Y680094D01*
X1168056D01*
Y680170D01*
X1167980D01*
Y680246D01*
X1167904D01*
Y680322D01*
X1167829D01*
Y680397D01*
X1167753D01*
Y680473D01*
X1167677D01*
Y680549D01*
X1167601D01*
Y680624D01*
X1167526D01*
Y680700D01*
X1167450D01*
Y680776D01*
X1167298D01*
Y680852D01*
X1167223D01*
Y680928D01*
X1167147D01*
Y681003D01*
X1166995D01*
Y681079D01*
X1166920D01*
Y681155D01*
X1166768D01*
Y681230D01*
X1166692D01*
Y681306D01*
X1166541D01*
Y681382D01*
X1166389D01*
Y681458D01*
X1166238D01*
Y681534D01*
X1166086D01*
Y681609D01*
X1165935D01*
Y681685D01*
X1165708D01*
Y681761D01*
X1165480D01*
Y681836D01*
X1165253D01*
Y681912D01*
X1164950D01*
Y681988D01*
X1164571D01*
Y682064D01*
X1164041D01*
Y682140D01*
X1162905D01*
Y682064D01*
X1162375D01*
Y681988D01*
X1161996D01*
Y681912D01*
X1161693D01*
Y681836D01*
X1161466D01*
Y681761D01*
X1161238D01*
Y681685D01*
X1161011D01*
Y681609D01*
X1160860D01*
Y681534D01*
X1160708D01*
Y681458D01*
X1160557D01*
Y681382D01*
X1160405D01*
Y681306D01*
X1160254D01*
Y681230D01*
X1160178D01*
Y681155D01*
X1160026D01*
Y681079D01*
X1159951D01*
Y681003D01*
X1159799D01*
Y680928D01*
X1159724D01*
Y680852D01*
X1159648D01*
Y680776D01*
X1159496D01*
Y680700D01*
X1159420D01*
Y680624D01*
X1159345D01*
Y680549D01*
X1159269D01*
Y680473D01*
X1159193D01*
Y680397D01*
X1159118D01*
Y680322D01*
X1159042D01*
Y680246D01*
X1158966D01*
Y680170D01*
X1158890D01*
Y680094D01*
X1158814D01*
Y680018D01*
X1158739D01*
Y679943D01*
X1158663D01*
Y679867D01*
X1158587D01*
Y679791D01*
X1158512D01*
Y679715D01*
Y679640D01*
X1158436D01*
Y679564D01*
X1158360D01*
Y679488D01*
X1158284D01*
Y679413D01*
Y679337D01*
X1158208D01*
Y679261D01*
X1158133D01*
Y679185D01*
Y679109D01*
X1158057D01*
Y679034D01*
Y678958D01*
X1157981D01*
Y678882D01*
X1157906D01*
Y678807D01*
Y678731D01*
X1157830D01*
Y678655D01*
Y678579D01*
X1157754D01*
Y678503D01*
Y678428D01*
X1157678D01*
Y678352D01*
Y678276D01*
Y678201D01*
X1157602D01*
Y678125D01*
Y678049D01*
X1157527D01*
Y677973D01*
Y677897D01*
Y677822D01*
X1157451D01*
Y677746D01*
Y677670D01*
Y677595D01*
Y677519D01*
X1157375D01*
Y677443D01*
Y677367D01*
Y677291D01*
Y677216D01*
X1157299D01*
Y677140D01*
Y677064D01*
Y676989D01*
Y676913D01*
Y676837D01*
X1157224D01*
Y676761D01*
Y676685D01*
Y676610D01*
Y676534D01*
Y676458D01*
Y676383D01*
Y676307D01*
Y676231D01*
Y676155D01*
Y676079D01*
X1157148D01*
Y676004D01*
Y675928D01*
Y675852D01*
Y675777D01*
Y675701D01*
Y675625D01*
X1157224D01*
Y675549D01*
Y675474D01*
Y675398D01*
Y675322D01*
Y675246D01*
Y675171D01*
Y675095D01*
Y675019D01*
Y674943D01*
Y674868D01*
Y674792D01*
X1157299D01*
Y674716D01*
Y674640D01*
Y674565D01*
Y674489D01*
Y674413D01*
X1157375D01*
Y674337D01*
Y674261D01*
Y674186D01*
Y674110D01*
X1157451D01*
Y674034D01*
Y673959D01*
Y673883D01*
X1157527D01*
Y673807D01*
Y673731D01*
Y673656D01*
X1157602D01*
Y673580D01*
Y673504D01*
Y673428D01*
X1157678D01*
Y673353D01*
Y673277D01*
X1157754D01*
Y673201D01*
Y673125D01*
X1157830D01*
Y673050D01*
Y672974D01*
X1157906D01*
Y672898D01*
Y672822D01*
X1157981D01*
Y672747D01*
Y672671D01*
X1158057D01*
Y672595D01*
Y672519D01*
X1158133D01*
Y672444D01*
X1158208D01*
Y672368D01*
Y672292D01*
X1158284D01*
Y672216D01*
X1158360D01*
Y672141D01*
Y672065D01*
X1158436D01*
Y671989D01*
X1158512D01*
Y671913D01*
X1158587D01*
Y671838D01*
X1158663D01*
Y671762D01*
Y671686D01*
X1158739D01*
Y671610D01*
X1158814D01*
Y671535D01*
X1158890D01*
Y671459D01*
X1158966D01*
Y671383D01*
X1159042D01*
Y671307D01*
X1159118D01*
Y671232D01*
X1159193D01*
Y671156D01*
X1159269D01*
Y671080D01*
X1159345D01*
Y671004D01*
X1159420D01*
Y670929D01*
X1159572D01*
Y670853D01*
X1159648D01*
Y670777D01*
X1159799D01*
Y670701D01*
X1159875D01*
Y670626D01*
X1159951D01*
Y670550D01*
X1160102D01*
Y670474D01*
X1160178D01*
Y670398D01*
X1160254D01*
Y670323D01*
X1160405D01*
Y670247D01*
X1160481D01*
Y670171D01*
X1160632D01*
Y670095D01*
X1160708D01*
Y670020D01*
X1160860D01*
Y669944D01*
X1160936D01*
Y669868D01*
Y669792D01*
Y669717D01*
Y669641D01*
Y669565D01*
Y669489D01*
X1160860D01*
Y669414D01*
Y669338D01*
X1160784D01*
Y669262D01*
Y669186D01*
X1160708D01*
Y669111D01*
Y669035D01*
Y668959D01*
X1160632D01*
Y668883D01*
Y668808D01*
X1160557D01*
Y668732D01*
Y668656D01*
Y668580D01*
X1160481D01*
Y668505D01*
Y668429D01*
X1160405D01*
Y668353D01*
Y668277D01*
Y668202D01*
X1160330D01*
Y668126D01*
Y668050D01*
X1160254D01*
Y667974D01*
Y667899D01*
X1160178D01*
Y667823D01*
Y667747D01*
Y667671D01*
X1160102D01*
Y667596D01*
Y667520D01*
X1160026D01*
Y667444D01*
Y667368D01*
Y667293D01*
X1159951D01*
Y667217D01*
Y667141D01*
X1159875D01*
Y667065D01*
Y666990D01*
X1159799D01*
Y666914D01*
Y666838D01*
Y666762D01*
X1159724D01*
Y666687D01*
Y666611D01*
X1159648D01*
Y666535D01*
Y666459D01*
Y666384D01*
X1159572D01*
Y666308D01*
Y666232D01*
X1159496D01*
Y666156D01*
Y666081D01*
Y666005D01*
X1159420D01*
Y665929D01*
Y665853D01*
X1159345D01*
Y665778D01*
Y665702D01*
X1159269D01*
Y665626D01*
Y665550D01*
Y665475D01*
X1159193D01*
Y665399D01*
Y665323D01*
X1159118D01*
Y665247D01*
Y665172D01*
Y665096D01*
X1159042D01*
Y665020D01*
Y664944D01*
X1158966D01*
Y664869D01*
Y664793D01*
X1158890D01*
Y664717D01*
Y664641D01*
Y664566D01*
X1158814D01*
Y664490D01*
Y664414D01*
X1158739D01*
Y664338D01*
Y664263D01*
Y664187D01*
X1158663D01*
Y664111D01*
Y664035D01*
X1158587D01*
Y663960D01*
Y663884D01*
Y663808D01*
X1158512D01*
Y663733D01*
Y663657D01*
X1158436D01*
Y663581D01*
Y663505D01*
X1158360D01*
Y663429D01*
Y663354D01*
Y663278D01*
X1158284D01*
Y663202D01*
Y663127D01*
X1158208D01*
Y663051D01*
Y662975D01*
Y662899D01*
X1158133D01*
Y662823D01*
Y662748D01*
X1158057D01*
Y662672D01*
Y662596D01*
X1157981D01*
Y662521D01*
Y662445D01*
Y662369D01*
X1157906D01*
Y662293D01*
Y662217D01*
X1157830D01*
Y662142D01*
Y662066D01*
Y661990D01*
X1157754D01*
Y661915D01*
Y661839D01*
X1157678D01*
Y661763D01*
Y661687D01*
Y661611D01*
X1157602D01*
Y661536D01*
Y661460D01*
X1157527D01*
Y661384D01*
Y661309D01*
X1157451D01*
Y661233D01*
Y661157D01*
Y661081D01*
X1157375D01*
Y661005D01*
Y660930D01*
X1157299D01*
Y660854D01*
Y660778D01*
Y660703D01*
X1157224D01*
Y660627D01*
Y660551D01*
X1157148D01*
Y660475D01*
Y660399D01*
X1157072D01*
Y660324D01*
Y660248D01*
Y660172D01*
X1156997D01*
Y660097D01*
Y660021D01*
X1156845D01*
Y659945D01*
X1156769D01*
Y660021D01*
X1156618D01*
Y660097D01*
X1156466D01*
Y660172D01*
X1156315D01*
Y660248D01*
X1156163D01*
Y660324D01*
X1156088D01*
Y660399D01*
X1155936D01*
Y660475D01*
X1155785D01*
Y660551D01*
X1155633D01*
Y660627D01*
X1155482D01*
Y660703D01*
X1155330D01*
Y660778D01*
X1155179D01*
Y660854D01*
X1155027D01*
Y660930D01*
X1154951D01*
Y661005D01*
X1154724D01*
Y661081D01*
X1154497D01*
Y661005D01*
X1154270D01*
Y660930D01*
X1154194D01*
Y660854D01*
X1154042D01*
Y660778D01*
X1153967D01*
Y660703D01*
X1153815D01*
Y660627D01*
X1153739D01*
Y660551D01*
X1153664D01*
Y660475D01*
X1153512D01*
Y660399D01*
X1153436D01*
Y660324D01*
X1153285D01*
Y660248D01*
X1153209D01*
Y660172D01*
X1153058D01*
Y660097D01*
X1152982D01*
Y660021D01*
X1152830D01*
Y659945D01*
X1152755D01*
Y659869D01*
X1152603D01*
Y659793D01*
X1152527D01*
Y659718D01*
X1152452D01*
Y659642D01*
X1152300D01*
Y659566D01*
X1152224D01*
Y659491D01*
X1152073D01*
Y659415D01*
X1151997D01*
Y659339D01*
X1151846D01*
Y659263D01*
X1151770D01*
Y659187D01*
X1151618D01*
Y659112D01*
X1151543D01*
Y659036D01*
X1151391D01*
Y658960D01*
X1151315D01*
Y658885D01*
X1151240D01*
Y658809D01*
X1151088D01*
Y658733D01*
X1151012D01*
Y658657D01*
X1150861D01*
Y658581D01*
X1150785D01*
Y658506D01*
X1150634D01*
Y658430D01*
X1150558D01*
Y658354D01*
X1150406D01*
Y658279D01*
X1150331D01*
Y658203D01*
X1150179D01*
Y658127D01*
X1150103D01*
Y658051D01*
X1150028D01*
Y657975D01*
X1149725D01*
Y658051D01*
X1149649D01*
Y658127D01*
X1149573D01*
Y658203D01*
X1149497D01*
Y658279D01*
X1149422D01*
Y658354D01*
X1149346D01*
Y658430D01*
X1149270D01*
Y658506D01*
X1149194D01*
Y658581D01*
X1149119D01*
Y658657D01*
X1149043D01*
Y658733D01*
X1148967D01*
Y658809D01*
X1148891D01*
Y658885D01*
X1148816D01*
Y658960D01*
X1148740D01*
Y659036D01*
X1148664D01*
Y659112D01*
X1148588D01*
Y659187D01*
X1148513D01*
Y659263D01*
X1148437D01*
Y659339D01*
X1148361D01*
Y659415D01*
X1148285D01*
Y659491D01*
X1148210D01*
Y659566D01*
X1148134D01*
Y659642D01*
X1148058D01*
Y659718D01*
X1147982D01*
Y659793D01*
X1147907D01*
Y659869D01*
X1147831D01*
Y659945D01*
X1147755D01*
Y660021D01*
X1147679D01*
Y660097D01*
X1147604D01*
Y660172D01*
X1147528D01*
Y660248D01*
X1147452D01*
Y660324D01*
X1147376D01*
Y660399D01*
X1147301D01*
Y660475D01*
X1147225D01*
Y660551D01*
X1147149D01*
Y660627D01*
X1147073D01*
Y660703D01*
X1146998D01*
Y660778D01*
X1146922D01*
Y660854D01*
X1146846D01*
Y660930D01*
X1146770D01*
Y661005D01*
X1146695D01*
Y661081D01*
X1146619D01*
Y661157D01*
X1146543D01*
Y661233D01*
X1146467D01*
Y661309D01*
X1146392D01*
Y661384D01*
X1146316D01*
Y661460D01*
X1146240D01*
Y661536D01*
X1146164D01*
Y661611D01*
X1146089D01*
Y661687D01*
X1146013D01*
Y661763D01*
X1145937D01*
Y661839D01*
X1145861D01*
Y661915D01*
X1145786D01*
Y661990D01*
X1145710D01*
Y662066D01*
X1145634D01*
Y662142D01*
Y662217D01*
Y662293D01*
Y662369D01*
Y662445D01*
X1145710D01*
Y662521D01*
X1145786D01*
Y662596D01*
Y662672D01*
X1145861D01*
Y662748D01*
X1145937D01*
Y662823D01*
Y662899D01*
X1146013D01*
Y662975D01*
X1146089D01*
Y663051D01*
Y663127D01*
X1146164D01*
Y663202D01*
X1146240D01*
Y663278D01*
X1146316D01*
Y663354D01*
Y663429D01*
X1146392D01*
Y663505D01*
X1146467D01*
Y663581D01*
Y663657D01*
X1146543D01*
Y663733D01*
X1146619D01*
Y663808D01*
Y663884D01*
X1146695D01*
Y663960D01*
X1146770D01*
Y664035D01*
Y664111D01*
X1146846D01*
Y664187D01*
X1146922D01*
Y664263D01*
Y664338D01*
X1146998D01*
Y664414D01*
X1147073D01*
Y664490D01*
Y664566D01*
X1147149D01*
Y664641D01*
X1147225D01*
Y664717D01*
X1147301D01*
Y664793D01*
Y664869D01*
X1147376D01*
Y664944D01*
X1147452D01*
Y665020D01*
Y665096D01*
X1147528D01*
Y665172D01*
X1147604D01*
Y665247D01*
Y665323D01*
X1147679D01*
Y665399D01*
X1147755D01*
Y665475D01*
Y665550D01*
X1147831D01*
Y665626D01*
X1147907D01*
Y665702D01*
Y665778D01*
X1147982D01*
Y665853D01*
X1148058D01*
Y665929D01*
X1148134D01*
Y666005D01*
Y666081D01*
X1148210D01*
Y666156D01*
X1148285D01*
Y666232D01*
Y666308D01*
X1148361D01*
Y666384D01*
X1148437D01*
Y666459D01*
Y666535D01*
X1148513D01*
Y666611D01*
X1148588D01*
Y666687D01*
Y666762D01*
X1148664D01*
Y666838D01*
Y666914D01*
X1148740D01*
Y666990D01*
Y667065D01*
Y667141D01*
Y667217D01*
Y667293D01*
X1148664D01*
Y667368D01*
Y667444D01*
Y667520D01*
X1148588D01*
Y667596D01*
Y667671D01*
X1148513D01*
Y667747D01*
Y667823D01*
Y667899D01*
X1148437D01*
Y667974D01*
Y668050D01*
X1148361D01*
Y668126D01*
Y668202D01*
Y668277D01*
X1148285D01*
Y668353D01*
Y668429D01*
X1148210D01*
Y668505D01*
Y668580D01*
Y668656D01*
X1148134D01*
Y668732D01*
Y668808D01*
X1148058D01*
Y668883D01*
Y668959D01*
Y669035D01*
X1147982D01*
Y669111D01*
Y669186D01*
X1147907D01*
Y669262D01*
Y669338D01*
Y669414D01*
X1147831D01*
Y669489D01*
Y669565D01*
X1147755D01*
Y669641D01*
Y669717D01*
Y669792D01*
X1147679D01*
Y669868D01*
Y669944D01*
X1147604D01*
Y670020D01*
Y670095D01*
Y670171D01*
X1147528D01*
Y670247D01*
Y670323D01*
X1147452D01*
Y670398D01*
Y670474D01*
Y670550D01*
X1147376D01*
Y670626D01*
Y670701D01*
X1147301D01*
Y670777D01*
Y670853D01*
Y670929D01*
X1147225D01*
Y671004D01*
Y671080D01*
X1147149D01*
Y671156D01*
Y671232D01*
Y671307D01*
X1147073D01*
Y671383D01*
Y671459D01*
X1146998D01*
Y671535D01*
Y671610D01*
X1146922D01*
Y671686D01*
X1146770D01*
Y671762D01*
X1146543D01*
Y671838D01*
X1146164D01*
Y671913D01*
X1145710D01*
Y671989D01*
X1145331D01*
Y672065D01*
X1144952D01*
Y672141D01*
X1144498D01*
Y672216D01*
X1144119D01*
Y672292D01*
X1143665D01*
Y672368D01*
X1143286D01*
Y672444D01*
X1142907D01*
Y672519D01*
X1142453D01*
Y672595D01*
X1142074D01*
Y672671D01*
X1141695D01*
Y672747D01*
X1141317D01*
Y672822D01*
X1141165D01*
Y672898D01*
Y672974D01*
X1141089D01*
Y673050D01*
Y673125D01*
Y673201D01*
Y673277D01*
Y673353D01*
Y673428D01*
Y673504D01*
Y673580D01*
Y673656D01*
Y673731D01*
Y673807D01*
Y673883D01*
Y673959D01*
Y674034D01*
Y674110D01*
Y674186D01*
Y674261D01*
Y674337D01*
Y674413D01*
Y674489D01*
Y674565D01*
Y674640D01*
Y674716D01*
Y674792D01*
Y674868D01*
Y674943D01*
Y675019D01*
Y675095D01*
Y675171D01*
Y675246D01*
Y675322D01*
Y675398D01*
Y675474D01*
Y675549D01*
Y675625D01*
Y675701D01*
Y675777D01*
Y675852D01*
Y675928D01*
Y676004D01*
Y676079D01*
Y676155D01*
Y676231D01*
Y676307D01*
Y676383D01*
Y676458D01*
Y676534D01*
Y676610D01*
Y676685D01*
Y676761D01*
Y676837D01*
Y676913D01*
Y676989D01*
Y677064D01*
Y677140D01*
Y677216D01*
Y677291D01*
Y677367D01*
Y677443D01*
Y677519D01*
Y677595D01*
Y677670D01*
Y677746D01*
Y677822D01*
Y677897D01*
Y677973D01*
Y678049D01*
Y678125D01*
Y678201D01*
Y678276D01*
Y678352D01*
Y678428D01*
Y678503D01*
Y678579D01*
Y678655D01*
Y678731D01*
X1141165D01*
Y678807D01*
Y678882D01*
X1141317D01*
Y678958D01*
X1141544D01*
Y679034D01*
X1141998D01*
Y679109D01*
X1142377D01*
Y679185D01*
X1142831D01*
Y679261D01*
X1143210D01*
Y679337D01*
X1143589D01*
Y679413D01*
X1144044D01*
Y679488D01*
X1144422D01*
Y679564D01*
X1144801D01*
Y679640D01*
X1145255D01*
Y679715D01*
X1145634D01*
Y679791D01*
X1146013D01*
Y679867D01*
X1146467D01*
Y679943D01*
X1146846D01*
Y680018D01*
X1146998D01*
Y680094D01*
X1147073D01*
Y680170D01*
X1147149D01*
Y680246D01*
Y680322D01*
X1147225D01*
Y680397D01*
Y680473D01*
X1147301D01*
Y680549D01*
Y680624D01*
X1147376D01*
Y680700D01*
Y680776D01*
Y680852D01*
X1147452D01*
Y680928D01*
Y681003D01*
X1147528D01*
Y681079D01*
Y681155D01*
X1147604D01*
Y681230D01*
Y681306D01*
Y681382D01*
X1147679D01*
Y681458D01*
Y681534D01*
X1147755D01*
Y681609D01*
Y681685D01*
X1147831D01*
Y681761D01*
Y681836D01*
Y681912D01*
X1147907D01*
Y681988D01*
Y682064D01*
X1147982D01*
Y682140D01*
Y682215D01*
X1148058D01*
Y682291D01*
Y682367D01*
Y682442D01*
X1148134D01*
Y682518D01*
Y682594D01*
X1148210D01*
Y682670D01*
Y682745D01*
X1148285D01*
Y682821D01*
Y682897D01*
Y682973D01*
X1148361D01*
Y683048D01*
Y683124D01*
X1148437D01*
Y683200D01*
Y683276D01*
X1148513D01*
Y683351D01*
Y683427D01*
Y683503D01*
X1148588D01*
Y683579D01*
Y683654D01*
X1148664D01*
Y683730D01*
Y683806D01*
X1148740D01*
Y683882D01*
Y683958D01*
Y684033D01*
X1148816D01*
Y684109D01*
Y684185D01*
X1148891D01*
Y684260D01*
Y684336D01*
Y684412D01*
Y684488D01*
Y684564D01*
Y684639D01*
X1148816D01*
Y684715D01*
Y684791D01*
X1148740D01*
Y684866D01*
X1148664D01*
Y684942D01*
Y685018D01*
X1148588D01*
Y685094D01*
X1148513D01*
Y685169D01*
X1148437D01*
Y685245D01*
Y685321D01*
X1148361D01*
Y685397D01*
X1148285D01*
Y685472D01*
Y685548D01*
X1148210D01*
Y685624D01*
X1148134D01*
Y685700D01*
Y685775D01*
X1148058D01*
Y685851D01*
X1147982D01*
Y685927D01*
Y686003D01*
X1147907D01*
Y686078D01*
X1147831D01*
Y686154D01*
Y686230D01*
X1147755D01*
Y686306D01*
X1147679D01*
Y686381D01*
Y686457D01*
X1147604D01*
Y686533D01*
X1147528D01*
Y686609D01*
X1147452D01*
Y686684D01*
Y686760D01*
X1147376D01*
Y686836D01*
X1147301D01*
Y686912D01*
Y686987D01*
X1147225D01*
Y687063D01*
X1147149D01*
Y687139D01*
Y687215D01*
X1147073D01*
Y687290D01*
X1146998D01*
Y687366D01*
Y687442D01*
X1146922D01*
Y687518D01*
X1146846D01*
Y687593D01*
Y687669D01*
X1146770D01*
Y687745D01*
X1146695D01*
Y687821D01*
X1146619D01*
Y687896D01*
Y687972D01*
X1146543D01*
Y688048D01*
X1146467D01*
Y688124D01*
Y688199D01*
X1146392D01*
Y688275D01*
X1146316D01*
Y688351D01*
Y688427D01*
X1146240D01*
Y688502D01*
X1146164D01*
Y688578D01*
Y688654D01*
X1146089D01*
Y688730D01*
X1146013D01*
Y688805D01*
Y688881D01*
X1145937D01*
Y688957D01*
X1145861D01*
Y689033D01*
X1145786D01*
Y689108D01*
Y689184D01*
X1145710D01*
Y689260D01*
X1145634D01*
Y689336D01*
Y689411D01*
Y689487D01*
X1145558D01*
Y689563D01*
X1145634D01*
Y689639D01*
Y689714D01*
X1145710D01*
Y689790D01*
X1145786D01*
Y689866D01*
X1145861D01*
Y689942D01*
X1145937D01*
Y690017D01*
X1146013D01*
Y690093D01*
X1146089D01*
Y690169D01*
X1146164D01*
Y690245D01*
X1146240D01*
Y690320D01*
X1146316D01*
Y690396D01*
X1146392D01*
Y690472D01*
X1146467D01*
Y690548D01*
X1146543D01*
Y690623D01*
X1146619D01*
Y690699D01*
X1146695D01*
Y690775D01*
X1146770D01*
Y690851D01*
X1146846D01*
Y690926D01*
X1146922D01*
Y691002D01*
X1146998D01*
Y691078D01*
X1147073D01*
Y691154D01*
X1147149D01*
Y691229D01*
X1147225D01*
Y691305D01*
X1147301D01*
Y691381D01*
X1147376D01*
Y691457D01*
X1147452D01*
Y691532D01*
X1147528D01*
Y691608D01*
X1147604D01*
Y691684D01*
X1147679D01*
Y691760D01*
X1147755D01*
Y691835D01*
X1147831D01*
Y691911D01*
X1147907D01*
Y691987D01*
X1147982D01*
Y692063D01*
X1148058D01*
Y692138D01*
X1148134D01*
Y692214D01*
X1148210D01*
Y692290D01*
X1148285D01*
Y692366D01*
X1148361D01*
Y692441D01*
X1148437D01*
Y692517D01*
X1148513D01*
Y692593D01*
X1148588D01*
Y692669D01*
X1148664D01*
Y692744D01*
X1148740D01*
Y692820D01*
X1148816D01*
Y692896D01*
X1148891D01*
Y692972D01*
X1148967D01*
Y693047D01*
X1149043D01*
Y693123D01*
X1149119D01*
Y693199D01*
X1149194D01*
Y693275D01*
X1149270D01*
Y693350D01*
X1149346D01*
Y693426D01*
X1149422D01*
Y693502D01*
X1149497D01*
Y693578D01*
X1149573D01*
Y693653D01*
X1149725D01*
Y693729D01*
X1150028D01*
Y693653D01*
X1150103D01*
Y693578D01*
X1150255D01*
Y693502D01*
X1150331D01*
Y693426D01*
X1150482D01*
Y693350D01*
X1150558D01*
Y693275D01*
X1150709D01*
Y693199D01*
X1150785D01*
Y693123D01*
X1150937D01*
Y693047D01*
X1151012D01*
Y692972D01*
X1151088D01*
Y692896D01*
X1151240D01*
Y692820D01*
X1151315D01*
Y692744D01*
X1151467D01*
Y692669D01*
X1151543D01*
Y692593D01*
X1151694D01*
Y692517D01*
X1151770D01*
Y692441D01*
X1151921D01*
Y692366D01*
X1151997D01*
Y692290D01*
X1152149D01*
Y692214D01*
X1152224D01*
Y692138D01*
X1152300D01*
Y692063D01*
X1152452D01*
Y691987D01*
X1152527D01*
Y691911D01*
X1152679D01*
Y691835D01*
X1152755D01*
Y691760D01*
X1152906D01*
Y691684D01*
X1152982D01*
Y691608D01*
X1153133D01*
Y691532D01*
X1153209D01*
Y691457D01*
X1153361D01*
Y691381D01*
X1153436D01*
Y691305D01*
X1153512D01*
Y691229D01*
X1153664D01*
Y691154D01*
X1153739D01*
Y691078D01*
X1153891D01*
Y691002D01*
X1153967D01*
Y690926D01*
X1154118D01*
Y690851D01*
X1154194D01*
Y690775D01*
X1154345D01*
Y690699D01*
X1154421D01*
Y690623D01*
X1154573D01*
Y690548D01*
X1154648D01*
Y690472D01*
X1154800D01*
Y690396D01*
X1155254D01*
Y690472D01*
X1155482D01*
Y690548D01*
X1155633D01*
Y690623D01*
X1155785D01*
Y690699D01*
X1156012D01*
Y690775D01*
X1156163D01*
Y690851D01*
X1156391D01*
Y690926D01*
X1156542D01*
Y691002D01*
X1156769D01*
Y691078D01*
X1156921D01*
Y691154D01*
X1157072D01*
Y691229D01*
X1157299D01*
Y691305D01*
X1157451D01*
Y691381D01*
X1157678D01*
Y691457D01*
X1157830D01*
Y691532D01*
X1158057D01*
Y691608D01*
X1158208D01*
Y691684D01*
X1158436D01*
Y691760D01*
X1158587D01*
Y691835D01*
X1158739D01*
Y691911D01*
X1158966D01*
Y691987D01*
X1159118D01*
Y692063D01*
X1159193D01*
Y692138D01*
X1159269D01*
Y692214D01*
Y692290D01*
X1159345D01*
Y692366D01*
Y692441D01*
Y692517D01*
Y692593D01*
X1159420D01*
Y692669D01*
Y692744D01*
Y692820D01*
Y692896D01*
Y692972D01*
Y693047D01*
X1159496D01*
Y693123D01*
Y693199D01*
Y693275D01*
Y693350D01*
Y693426D01*
X1159572D01*
Y693502D01*
Y693578D01*
Y693653D01*
Y693729D01*
Y693805D01*
X1159648D01*
Y693881D01*
Y693956D01*
Y694032D01*
Y694108D01*
Y694184D01*
Y694259D01*
X1159724D01*
Y694335D01*
Y694411D01*
Y694486D01*
Y694562D01*
Y694638D01*
X1159799D01*
Y694714D01*
Y694790D01*
Y694865D01*
Y694941D01*
Y695017D01*
Y695092D01*
X1159875D01*
Y695168D01*
Y695244D01*
Y695320D01*
Y695396D01*
Y695471D01*
X1159951D01*
Y695547D01*
Y695623D01*
Y695698D01*
Y695774D01*
Y695850D01*
X1160026D01*
Y695926D01*
Y696002D01*
Y696077D01*
Y696153D01*
Y696229D01*
Y696304D01*
X1160102D01*
Y696380D01*
Y696456D01*
Y696532D01*
Y696608D01*
Y696683D01*
X1160178D01*
Y696759D01*
Y696835D01*
Y696910D01*
Y696986D01*
Y697062D01*
Y697138D01*
X1160254D01*
Y697214D01*
Y697289D01*
Y697365D01*
Y697441D01*
Y697516D01*
X1160330D01*
Y697592D01*
Y697668D01*
Y697744D01*
Y697820D01*
Y697895D01*
X1160405D01*
Y697971D01*
Y698047D01*
Y698122D01*
X1160481D01*
Y698198D01*
X1160632D01*
Y698274D01*
X1166314D01*
Y698198D01*
D02*
G37*
G36*
X1181388Y653203D02*
X1181691D01*
Y653128D01*
X1181842D01*
Y653052D01*
X1181994D01*
Y652976D01*
X1182069D01*
Y652900D01*
X1182221D01*
Y652825D01*
X1182145D01*
Y652749D01*
Y652673D01*
X1182069D01*
Y652597D01*
X1181994D01*
Y652522D01*
X1181918D01*
Y652446D01*
X1181842D01*
Y652370D01*
X1181766D01*
Y652294D01*
X1181691D01*
Y652219D01*
Y652143D01*
X1181615D01*
Y652067D01*
X1181539D01*
Y651991D01*
X1181463D01*
Y651916D01*
X1181312D01*
Y651991D01*
X1181160D01*
Y652067D01*
X1180933D01*
Y652143D01*
X1180251D01*
Y652067D01*
X1180024D01*
Y651991D01*
X1179949D01*
Y651916D01*
X1179797D01*
Y651840D01*
X1179721D01*
Y651764D01*
X1179645D01*
Y651688D01*
Y651613D01*
X1179570D01*
Y651537D01*
Y651461D01*
X1179494D01*
Y651385D01*
Y651310D01*
Y651234D01*
X1179418D01*
Y651158D01*
Y651082D01*
Y651007D01*
Y650931D01*
Y650855D01*
Y650779D01*
Y650704D01*
Y650628D01*
Y650552D01*
Y650476D01*
Y650401D01*
Y650325D01*
Y650249D01*
Y650173D01*
Y650098D01*
Y650022D01*
Y649946D01*
Y649870D01*
Y649795D01*
Y649719D01*
Y649643D01*
Y649567D01*
Y649492D01*
Y649416D01*
Y649340D01*
Y649264D01*
Y649189D01*
Y649113D01*
Y649037D01*
Y648961D01*
Y648886D01*
Y648810D01*
Y648734D01*
Y648658D01*
Y648583D01*
Y648507D01*
Y648431D01*
Y648355D01*
Y648280D01*
Y648204D01*
Y648128D01*
Y648052D01*
Y647977D01*
Y647901D01*
Y647825D01*
Y647749D01*
Y647674D01*
Y647598D01*
Y647522D01*
Y647446D01*
Y647371D01*
Y647295D01*
X1178282D01*
Y647371D01*
Y647446D01*
Y647522D01*
Y647598D01*
Y647674D01*
Y647749D01*
Y647825D01*
Y647901D01*
Y647977D01*
Y648052D01*
Y648128D01*
Y648204D01*
Y648280D01*
Y648355D01*
Y648431D01*
Y648507D01*
Y648583D01*
Y648658D01*
Y648734D01*
Y648810D01*
Y648886D01*
Y648961D01*
Y649037D01*
Y649113D01*
Y649189D01*
Y649264D01*
Y649340D01*
Y649416D01*
Y649492D01*
Y649567D01*
Y649643D01*
Y649719D01*
Y649795D01*
Y649870D01*
Y649946D01*
Y650022D01*
Y650098D01*
Y650173D01*
Y650249D01*
Y650325D01*
Y650401D01*
Y650476D01*
Y650552D01*
Y650628D01*
Y650704D01*
Y650779D01*
Y650855D01*
Y650931D01*
Y651007D01*
Y651082D01*
Y651158D01*
Y651234D01*
Y651310D01*
Y651385D01*
Y651461D01*
Y651537D01*
Y651613D01*
Y651688D01*
Y651764D01*
Y651840D01*
Y651916D01*
Y651991D01*
Y652067D01*
Y652143D01*
Y652219D01*
Y652294D01*
Y652370D01*
Y652446D01*
Y652522D01*
Y652597D01*
Y652673D01*
Y652749D01*
Y652825D01*
Y652900D01*
Y652976D01*
Y653052D01*
Y653128D01*
Y653203D01*
X1179418D01*
Y653128D01*
Y653052D01*
Y652976D01*
Y652900D01*
Y652825D01*
Y652749D01*
Y652673D01*
Y652597D01*
X1179570D01*
Y652673D01*
X1179645D01*
Y652749D01*
X1179721D01*
Y652825D01*
X1179797D01*
Y652900D01*
X1179873D01*
Y652976D01*
X1180024D01*
Y653052D01*
X1180176D01*
Y653128D01*
X1180327D01*
Y653203D01*
X1180555D01*
Y653279D01*
X1181388D01*
Y653203D01*
D02*
G37*
G36*
X1155406D02*
X1155709D01*
Y653128D01*
X1155860D01*
Y653052D01*
X1156012D01*
Y652976D01*
X1156088D01*
Y652900D01*
X1156239D01*
Y652825D01*
X1156315D01*
Y652749D01*
X1156391D01*
Y652673D01*
X1156466D01*
Y652597D01*
X1156542D01*
Y652522D01*
X1156618D01*
Y652446D01*
Y652370D01*
X1156693D01*
Y652294D01*
X1156769D01*
Y652219D01*
Y652143D01*
X1156845D01*
Y652067D01*
Y651991D01*
Y651916D01*
X1156921D01*
Y651840D01*
Y651764D01*
Y651688D01*
X1156997D01*
Y651613D01*
Y651537D01*
Y651461D01*
Y651385D01*
Y651310D01*
Y651234D01*
Y651158D01*
Y651082D01*
Y651007D01*
Y650931D01*
Y650855D01*
Y650779D01*
Y650704D01*
Y650628D01*
Y650552D01*
Y650476D01*
Y650401D01*
Y650325D01*
Y650249D01*
Y650173D01*
Y650098D01*
Y650022D01*
Y649946D01*
Y649870D01*
Y649795D01*
Y649719D01*
Y649643D01*
Y649567D01*
Y649492D01*
Y649416D01*
Y649340D01*
Y649264D01*
Y649189D01*
Y649113D01*
Y649037D01*
Y648961D01*
Y648886D01*
Y648810D01*
Y648734D01*
Y648658D01*
Y648583D01*
Y648507D01*
Y648431D01*
Y648355D01*
Y648280D01*
Y648204D01*
Y648128D01*
Y648052D01*
Y647977D01*
Y647901D01*
Y647825D01*
Y647749D01*
Y647674D01*
Y647598D01*
Y647522D01*
Y647446D01*
Y647371D01*
Y647295D01*
X1155860D01*
Y647371D01*
Y647446D01*
Y647522D01*
Y647598D01*
Y647674D01*
Y647749D01*
Y647825D01*
Y647901D01*
Y647977D01*
Y648052D01*
Y648128D01*
Y648204D01*
Y648280D01*
Y648355D01*
Y648431D01*
Y648507D01*
Y648583D01*
Y648658D01*
Y648734D01*
Y648810D01*
Y648886D01*
Y648961D01*
Y649037D01*
Y649113D01*
Y649189D01*
Y649264D01*
Y649340D01*
Y649416D01*
Y649492D01*
Y649567D01*
Y649643D01*
Y649719D01*
Y649795D01*
Y649870D01*
Y649946D01*
Y650022D01*
Y650098D01*
Y650173D01*
Y650249D01*
Y650325D01*
Y650401D01*
Y650476D01*
Y650552D01*
Y650628D01*
Y650704D01*
Y650779D01*
Y650855D01*
Y650931D01*
Y651007D01*
Y651082D01*
Y651158D01*
Y651234D01*
X1155785D01*
Y651310D01*
Y651385D01*
Y651461D01*
X1155709D01*
Y651537D01*
Y651613D01*
X1155633D01*
Y651688D01*
X1155557D01*
Y651764D01*
Y651840D01*
X1155406D01*
Y651916D01*
X1155330D01*
Y651991D01*
X1155179D01*
Y652067D01*
X1155027D01*
Y652143D01*
X1154270D01*
Y652067D01*
X1154042D01*
Y651991D01*
X1153967D01*
Y651916D01*
X1153815D01*
Y651840D01*
X1153739D01*
Y651764D01*
X1153664D01*
Y651688D01*
Y651613D01*
X1153588D01*
Y651537D01*
Y651461D01*
X1153512D01*
Y651385D01*
Y651310D01*
X1153436D01*
Y651234D01*
Y651158D01*
Y651082D01*
Y651007D01*
Y650931D01*
Y650855D01*
Y650779D01*
Y650704D01*
Y650628D01*
Y650552D01*
Y650476D01*
Y650401D01*
Y650325D01*
Y650249D01*
Y650173D01*
Y650098D01*
Y650022D01*
Y649946D01*
Y649870D01*
Y649795D01*
Y649719D01*
Y649643D01*
Y649567D01*
Y649492D01*
Y649416D01*
Y649340D01*
Y649264D01*
Y649189D01*
Y649113D01*
Y649037D01*
Y648961D01*
Y648886D01*
Y648810D01*
Y648734D01*
Y648658D01*
Y648583D01*
Y648507D01*
Y648431D01*
Y648355D01*
Y648280D01*
Y648204D01*
Y648128D01*
Y648052D01*
Y647977D01*
Y647901D01*
Y647825D01*
Y647749D01*
Y647674D01*
Y647598D01*
Y647522D01*
Y647446D01*
Y647371D01*
Y647295D01*
X1152300D01*
Y647371D01*
Y647446D01*
Y647522D01*
Y647598D01*
Y647674D01*
Y647749D01*
Y647825D01*
Y647901D01*
Y647977D01*
Y648052D01*
Y648128D01*
Y648204D01*
Y648280D01*
Y648355D01*
Y648431D01*
Y648507D01*
Y648583D01*
Y648658D01*
Y648734D01*
Y648810D01*
Y648886D01*
Y648961D01*
Y649037D01*
Y649113D01*
Y649189D01*
Y649264D01*
Y649340D01*
Y649416D01*
Y649492D01*
Y649567D01*
Y649643D01*
Y649719D01*
Y649795D01*
Y649870D01*
Y649946D01*
Y650022D01*
Y650098D01*
Y650173D01*
Y650249D01*
Y650325D01*
Y650401D01*
Y650476D01*
Y650552D01*
Y650628D01*
Y650704D01*
Y650779D01*
Y650855D01*
Y650931D01*
Y651007D01*
Y651082D01*
Y651158D01*
Y651234D01*
Y651310D01*
Y651385D01*
Y651461D01*
Y651537D01*
Y651613D01*
Y651688D01*
Y651764D01*
Y651840D01*
Y651916D01*
Y651991D01*
Y652067D01*
Y652143D01*
Y652219D01*
Y652294D01*
Y652370D01*
Y652446D01*
Y652522D01*
Y652597D01*
Y652673D01*
Y652749D01*
Y652825D01*
Y652900D01*
Y652976D01*
Y653052D01*
Y653128D01*
Y653203D01*
X1153436D01*
Y653128D01*
Y653052D01*
Y652976D01*
Y652900D01*
Y652825D01*
Y652749D01*
Y652673D01*
Y652597D01*
X1153588D01*
Y652673D01*
X1153664D01*
Y652749D01*
X1153739D01*
Y652825D01*
X1153815D01*
Y652900D01*
X1153891D01*
Y652976D01*
X1154042D01*
Y653052D01*
X1154118D01*
Y653128D01*
X1154345D01*
Y653203D01*
X1154573D01*
Y653279D01*
X1155406D01*
Y653203D01*
D02*
G37*
G36*
X1143816D02*
X1144044D01*
Y653128D01*
X1144271D01*
Y653052D01*
X1144422D01*
Y652976D01*
X1144498D01*
Y652900D01*
X1144650D01*
Y652825D01*
X1144725D01*
Y652749D01*
X1144801D01*
Y652673D01*
X1144877D01*
Y652597D01*
X1144952D01*
Y652522D01*
X1145028D01*
Y652446D01*
Y652370D01*
X1145104D01*
Y652294D01*
Y652219D01*
X1145180D01*
Y652143D01*
Y652067D01*
X1145255D01*
Y651991D01*
Y651916D01*
Y651840D01*
X1145331D01*
Y651764D01*
Y651688D01*
Y651613D01*
Y651537D01*
Y651461D01*
Y651385D01*
Y651310D01*
Y651234D01*
X1145407D01*
Y651158D01*
Y651082D01*
Y651007D01*
Y650931D01*
Y650855D01*
Y650779D01*
Y650704D01*
Y650628D01*
Y650552D01*
Y650476D01*
Y650401D01*
Y650325D01*
Y650249D01*
Y650173D01*
Y650098D01*
Y650022D01*
Y649946D01*
Y649870D01*
Y649795D01*
Y649719D01*
Y649643D01*
Y649567D01*
Y649492D01*
Y649416D01*
Y649340D01*
Y649264D01*
X1145331D01*
Y649189D01*
Y649113D01*
Y649037D01*
Y648961D01*
Y648886D01*
Y648810D01*
Y648734D01*
Y648658D01*
X1145255D01*
Y648583D01*
Y648507D01*
Y648431D01*
X1145180D01*
Y648355D01*
Y648280D01*
X1145104D01*
Y648204D01*
Y648128D01*
X1145028D01*
Y648052D01*
Y647977D01*
X1144952D01*
Y647901D01*
X1144877D01*
Y647825D01*
X1144801D01*
Y647749D01*
X1144725D01*
Y647674D01*
X1144650D01*
Y647598D01*
X1144498D01*
Y647522D01*
X1144422D01*
Y647446D01*
X1144271D01*
Y647371D01*
X1144044D01*
Y647295D01*
X1143816D01*
Y647219D01*
X1142983D01*
Y647295D01*
X1142756D01*
Y647371D01*
X1142604D01*
Y647446D01*
X1142453D01*
Y647522D01*
X1142301D01*
Y647598D01*
X1142225D01*
Y647674D01*
X1142150D01*
Y647749D01*
X1141998D01*
Y647825D01*
X1141923D01*
Y647901D01*
X1141847D01*
Y647825D01*
Y647749D01*
Y647674D01*
Y647598D01*
Y647522D01*
Y647446D01*
Y647371D01*
Y647295D01*
Y647219D01*
Y647143D01*
Y647068D01*
Y646992D01*
X1141771D01*
Y646916D01*
Y646840D01*
Y646765D01*
Y646689D01*
Y646613D01*
Y646537D01*
Y646462D01*
Y646386D01*
Y646310D01*
Y646235D01*
Y646159D01*
Y646083D01*
Y646007D01*
Y645931D01*
Y645856D01*
Y645780D01*
Y645704D01*
Y645629D01*
Y645553D01*
Y645477D01*
Y645401D01*
Y645325D01*
Y645250D01*
Y645174D01*
Y645098D01*
Y645023D01*
Y644947D01*
Y644871D01*
Y644795D01*
Y644719D01*
Y644644D01*
Y644568D01*
Y644492D01*
Y644417D01*
Y644341D01*
Y644265D01*
Y644189D01*
Y644113D01*
Y644038D01*
Y643962D01*
Y643886D01*
Y643811D01*
Y643735D01*
Y643659D01*
Y643583D01*
Y643508D01*
Y643432D01*
Y643356D01*
Y643280D01*
Y643204D01*
Y643129D01*
X1141923D01*
Y643204D01*
X1142074D01*
Y643280D01*
X1142150D01*
Y643356D01*
X1142225D01*
Y643432D01*
X1142301D01*
Y643508D01*
X1142453D01*
Y643583D01*
X1142604D01*
Y643659D01*
X1142831D01*
Y643735D01*
X1143210D01*
Y643811D01*
X1143665D01*
Y643735D01*
X1143968D01*
Y643659D01*
X1144195D01*
Y643583D01*
X1144346D01*
Y643508D01*
X1144498D01*
Y643432D01*
X1144574D01*
Y643356D01*
X1144650D01*
Y643280D01*
X1144801D01*
Y643204D01*
Y643129D01*
X1144877D01*
Y643053D01*
X1144952D01*
Y642977D01*
X1145028D01*
Y642902D01*
X1145104D01*
Y642826D01*
Y642750D01*
X1145180D01*
Y642674D01*
Y642598D01*
X1145255D01*
Y642523D01*
Y642447D01*
Y642371D01*
X1145331D01*
Y642296D01*
Y642220D01*
Y642144D01*
Y642068D01*
Y641992D01*
X1145407D01*
Y641917D01*
Y641841D01*
Y641765D01*
Y641690D01*
Y641614D01*
Y641538D01*
Y641462D01*
Y641386D01*
Y641311D01*
Y641235D01*
Y641159D01*
Y641084D01*
Y641008D01*
Y640932D01*
Y640856D01*
Y640780D01*
Y640705D01*
Y640629D01*
Y640553D01*
Y640478D01*
Y640402D01*
Y640326D01*
Y640250D01*
Y640174D01*
Y640099D01*
Y640023D01*
Y639947D01*
Y639871D01*
Y639796D01*
Y639720D01*
Y639644D01*
Y639568D01*
Y639493D01*
Y639417D01*
Y639341D01*
Y639266D01*
Y639190D01*
Y639114D01*
Y639038D01*
Y638963D01*
Y638887D01*
Y638811D01*
Y638735D01*
Y638660D01*
Y638584D01*
Y638508D01*
Y638432D01*
Y638357D01*
Y638281D01*
Y638205D01*
Y638129D01*
Y638054D01*
Y637978D01*
Y637902D01*
Y637826D01*
Y637751D01*
X1144271D01*
Y637826D01*
Y637902D01*
Y637978D01*
Y638054D01*
Y638129D01*
Y638205D01*
Y638281D01*
Y638357D01*
Y638432D01*
Y638508D01*
Y638584D01*
Y638660D01*
Y638735D01*
Y638811D01*
Y638887D01*
Y638963D01*
Y639038D01*
Y639114D01*
Y639190D01*
Y639266D01*
Y639341D01*
Y639417D01*
Y639493D01*
Y639568D01*
Y639644D01*
Y639720D01*
Y639796D01*
Y639871D01*
Y639947D01*
Y640023D01*
Y640099D01*
Y640174D01*
Y640250D01*
Y640326D01*
Y640402D01*
Y640478D01*
Y640553D01*
Y640629D01*
Y640705D01*
Y640780D01*
Y640856D01*
Y640932D01*
Y641008D01*
Y641084D01*
Y641159D01*
Y641235D01*
Y641311D01*
Y641386D01*
Y641462D01*
Y641538D01*
Y641614D01*
X1144195D01*
Y641690D01*
Y641765D01*
Y641841D01*
Y641917D01*
X1144119D01*
Y641992D01*
Y642068D01*
X1144044D01*
Y642144D01*
Y642220D01*
X1143968D01*
Y642296D01*
X1143892D01*
Y642371D01*
X1143816D01*
Y642447D01*
X1143665D01*
Y642523D01*
X1143513D01*
Y642598D01*
X1143286D01*
Y642674D01*
X1142756D01*
Y642598D01*
X1142529D01*
Y642523D01*
X1142377D01*
Y642447D01*
X1142301D01*
Y642371D01*
X1142150D01*
Y642296D01*
X1142074D01*
Y642220D01*
Y642144D01*
X1141998D01*
Y642068D01*
X1141923D01*
Y641992D01*
Y641917D01*
Y641841D01*
X1141847D01*
Y641765D01*
Y641690D01*
Y641614D01*
Y641538D01*
Y641462D01*
Y641386D01*
X1141771D01*
Y641311D01*
Y641235D01*
Y641159D01*
Y641084D01*
Y641008D01*
Y640932D01*
Y640856D01*
Y640780D01*
Y640705D01*
Y640629D01*
Y640553D01*
Y640478D01*
Y640402D01*
Y640326D01*
Y640250D01*
Y640174D01*
Y640099D01*
Y640023D01*
Y639947D01*
Y639871D01*
Y639796D01*
Y639720D01*
Y639644D01*
Y639568D01*
Y639493D01*
Y639417D01*
Y639341D01*
Y639266D01*
Y639190D01*
Y639114D01*
Y639038D01*
Y638963D01*
Y638887D01*
Y638811D01*
Y638735D01*
Y638660D01*
Y638584D01*
Y638508D01*
Y638432D01*
Y638357D01*
Y638281D01*
Y638205D01*
Y638129D01*
Y638054D01*
Y637978D01*
Y637902D01*
Y637826D01*
Y637751D01*
X1140635D01*
Y637826D01*
Y637902D01*
Y637978D01*
Y638054D01*
Y638129D01*
Y638205D01*
Y638281D01*
Y638357D01*
Y638432D01*
Y638508D01*
Y638584D01*
Y638660D01*
Y638735D01*
Y638811D01*
Y638887D01*
Y638963D01*
Y639038D01*
Y639114D01*
Y639190D01*
Y639266D01*
Y639341D01*
Y639417D01*
Y639493D01*
Y639568D01*
Y639644D01*
Y639720D01*
Y639796D01*
Y639871D01*
Y639947D01*
Y640023D01*
Y640099D01*
Y640174D01*
Y640250D01*
Y640326D01*
Y640402D01*
Y640478D01*
Y640553D01*
Y640629D01*
Y640705D01*
Y640780D01*
Y640856D01*
Y640932D01*
Y641008D01*
Y641084D01*
Y641159D01*
Y641235D01*
Y641311D01*
Y641386D01*
Y641462D01*
Y641538D01*
Y641614D01*
Y641690D01*
Y641765D01*
Y641841D01*
Y641917D01*
Y641992D01*
Y642068D01*
Y642144D01*
Y642220D01*
Y642296D01*
Y642371D01*
Y642447D01*
Y642523D01*
Y642598D01*
Y642674D01*
Y642750D01*
Y642826D01*
Y642902D01*
Y642977D01*
Y643053D01*
Y643129D01*
Y643204D01*
Y643280D01*
Y643356D01*
Y643432D01*
Y643508D01*
Y643583D01*
Y643659D01*
Y643735D01*
Y643811D01*
Y643886D01*
Y643962D01*
Y644038D01*
Y644113D01*
Y644189D01*
Y644265D01*
Y644341D01*
Y644417D01*
Y644492D01*
Y644568D01*
Y644644D01*
Y644719D01*
Y644795D01*
Y644871D01*
Y644947D01*
Y645023D01*
Y645098D01*
Y645174D01*
Y645250D01*
Y645325D01*
Y645401D01*
Y645477D01*
Y645553D01*
Y645629D01*
Y645704D01*
Y645780D01*
Y645856D01*
Y645931D01*
Y646007D01*
Y646083D01*
Y646159D01*
Y646235D01*
Y646310D01*
Y646386D01*
Y646462D01*
Y646537D01*
Y646613D01*
Y646689D01*
Y646765D01*
Y646840D01*
Y646916D01*
Y646992D01*
Y647068D01*
Y647143D01*
Y647219D01*
Y647295D01*
Y647371D01*
Y647446D01*
Y647522D01*
Y647598D01*
Y647674D01*
Y647749D01*
Y647825D01*
Y647901D01*
Y647977D01*
Y648052D01*
Y648128D01*
Y648204D01*
Y648280D01*
Y648355D01*
Y648431D01*
Y648507D01*
Y648583D01*
Y648658D01*
Y648734D01*
Y648810D01*
Y648886D01*
Y648961D01*
Y649037D01*
Y649113D01*
Y649189D01*
Y649264D01*
Y649340D01*
Y649416D01*
Y649492D01*
Y649567D01*
Y649643D01*
Y649719D01*
Y649795D01*
Y649870D01*
Y649946D01*
Y650022D01*
Y650098D01*
Y650173D01*
Y650249D01*
Y650325D01*
Y650401D01*
Y650476D01*
Y650552D01*
Y650628D01*
Y650704D01*
Y650779D01*
Y650855D01*
Y650931D01*
Y651007D01*
Y651082D01*
Y651158D01*
Y651234D01*
Y651310D01*
Y651385D01*
Y651461D01*
Y651537D01*
Y651613D01*
Y651688D01*
Y651764D01*
Y651840D01*
Y651916D01*
Y651991D01*
Y652067D01*
Y652143D01*
Y652219D01*
Y652294D01*
Y652370D01*
Y652446D01*
Y652522D01*
Y652597D01*
Y652673D01*
Y652749D01*
Y652825D01*
Y652900D01*
Y652976D01*
Y653052D01*
Y653128D01*
Y653203D01*
X1141847D01*
Y653128D01*
Y653052D01*
Y652976D01*
Y652900D01*
Y652825D01*
Y652749D01*
Y652673D01*
Y652597D01*
X1141923D01*
Y652673D01*
X1141998D01*
Y652749D01*
X1142074D01*
Y652825D01*
X1142150D01*
Y652900D01*
X1142301D01*
Y652976D01*
X1142453D01*
Y653052D01*
X1142529D01*
Y653128D01*
X1142756D01*
Y653203D01*
X1142983D01*
Y653279D01*
X1143816D01*
Y653203D01*
D02*
G37*
G36*
X1163511D02*
X1163890D01*
Y653128D01*
X1164193D01*
Y653052D01*
X1164344D01*
Y652976D01*
X1164496D01*
Y652900D01*
X1164723D01*
Y652825D01*
X1164799D01*
Y652749D01*
X1164950D01*
Y652673D01*
X1165026D01*
Y652597D01*
X1165177D01*
Y652522D01*
X1165253D01*
Y652446D01*
X1165177D01*
Y652370D01*
X1165102D01*
Y652294D01*
X1165026D01*
Y652219D01*
X1164950D01*
Y652143D01*
X1164874D01*
Y652067D01*
X1164799D01*
Y651991D01*
Y651916D01*
X1164723D01*
Y651840D01*
X1164647D01*
Y651764D01*
X1164571D01*
Y651688D01*
X1164496D01*
Y651764D01*
X1164344D01*
Y651840D01*
X1164268D01*
Y651916D01*
X1164117D01*
Y651991D01*
X1163890D01*
Y652067D01*
X1163662D01*
Y652143D01*
X1163435D01*
Y652219D01*
X1162526D01*
Y652143D01*
X1162299D01*
Y652067D01*
X1162148D01*
Y651991D01*
X1162072D01*
Y651916D01*
X1161996D01*
Y651840D01*
X1161920D01*
Y651764D01*
Y651688D01*
Y651613D01*
Y651537D01*
X1161844D01*
Y651461D01*
Y651385D01*
X1161920D01*
Y651310D01*
Y651234D01*
Y651158D01*
X1161996D01*
Y651082D01*
X1162072D01*
Y651007D01*
X1162223D01*
Y650931D01*
X1162526D01*
Y650855D01*
X1163208D01*
Y650779D01*
X1163965D01*
Y650704D01*
X1164268D01*
Y650628D01*
X1164496D01*
Y650552D01*
X1164647D01*
Y650476D01*
X1164799D01*
Y650401D01*
X1164874D01*
Y650325D01*
X1164950D01*
Y650249D01*
X1165026D01*
Y650173D01*
Y650098D01*
X1165102D01*
Y650022D01*
X1165177D01*
Y649946D01*
Y649870D01*
X1165253D01*
Y649795D01*
Y649719D01*
X1165329D01*
Y649643D01*
Y649567D01*
Y649492D01*
Y649416D01*
X1165405D01*
Y649340D01*
Y649264D01*
Y649189D01*
Y649113D01*
Y649037D01*
Y648961D01*
Y648886D01*
Y648810D01*
Y648734D01*
X1165329D01*
Y648658D01*
Y648583D01*
Y648507D01*
Y648431D01*
X1165253D01*
Y648355D01*
Y648280D01*
X1165177D01*
Y648204D01*
Y648128D01*
X1165102D01*
Y648052D01*
X1165026D01*
Y647977D01*
X1164950D01*
Y647901D01*
X1164874D01*
Y647825D01*
X1164799D01*
Y647749D01*
X1164723D01*
Y647674D01*
X1164571D01*
Y647598D01*
X1164496D01*
Y647522D01*
X1164344D01*
Y647446D01*
X1164117D01*
Y647371D01*
X1163890D01*
Y647295D01*
X1163511D01*
Y647219D01*
X1162450D01*
Y647295D01*
X1162072D01*
Y647371D01*
X1161769D01*
Y647446D01*
X1161542D01*
Y647522D01*
X1161390D01*
Y647598D01*
X1161238D01*
Y647674D01*
X1161163D01*
Y647749D01*
X1161011D01*
Y647825D01*
X1160860D01*
Y647901D01*
X1160784D01*
Y647977D01*
X1160708D01*
Y648052D01*
X1160557D01*
Y648128D01*
X1160481D01*
Y648204D01*
X1160405D01*
Y648280D01*
Y648355D01*
X1160481D01*
Y648431D01*
X1160632D01*
Y648507D01*
X1160708D01*
Y648583D01*
X1160784D01*
Y648658D01*
X1160860D01*
Y648734D01*
X1160936D01*
Y648810D01*
X1161011D01*
Y648886D01*
X1161087D01*
Y648961D01*
X1161238D01*
Y648886D01*
X1161390D01*
Y648810D01*
X1161466D01*
Y648734D01*
X1161542D01*
Y648658D01*
X1161693D01*
Y648583D01*
X1161844D01*
Y648507D01*
Y648431D01*
X1161920D01*
Y648507D01*
X1161996D01*
Y648431D01*
X1162223D01*
Y648355D01*
X1162526D01*
Y648280D01*
X1163511D01*
Y648355D01*
X1163738D01*
Y648431D01*
X1163890D01*
Y648507D01*
X1164041D01*
Y648583D01*
X1164117D01*
Y648658D01*
X1164193D01*
Y648734D01*
Y648810D01*
X1164268D01*
Y648886D01*
Y648961D01*
Y649037D01*
Y649113D01*
Y649189D01*
Y649264D01*
X1164193D01*
Y649340D01*
Y649416D01*
X1164117D01*
Y649492D01*
X1164041D01*
Y649567D01*
X1163965D01*
Y649643D01*
X1163662D01*
Y649719D01*
X1162981D01*
Y649795D01*
X1162223D01*
Y649870D01*
X1161920D01*
Y649946D01*
X1161693D01*
Y650022D01*
X1161542D01*
Y650098D01*
X1161466D01*
Y650173D01*
X1161314D01*
Y650249D01*
X1161238D01*
Y650325D01*
X1161163D01*
Y650401D01*
X1161087D01*
Y650476D01*
X1161011D01*
Y650552D01*
Y650628D01*
X1160936D01*
Y650704D01*
Y650779D01*
X1160860D01*
Y650855D01*
Y650931D01*
X1160784D01*
Y651007D01*
Y651082D01*
Y651158D01*
Y651234D01*
Y651310D01*
Y651385D01*
X1160708D01*
Y651461D01*
Y651537D01*
X1160784D01*
Y651613D01*
Y651688D01*
Y651764D01*
Y651840D01*
Y651916D01*
Y651991D01*
X1160860D01*
Y652067D01*
Y652143D01*
Y652219D01*
X1160936D01*
Y652294D01*
Y652370D01*
X1161011D01*
Y652446D01*
X1161087D01*
Y652522D01*
Y652597D01*
X1161163D01*
Y652673D01*
X1161238D01*
Y652749D01*
X1161314D01*
Y652825D01*
X1161466D01*
Y652900D01*
X1161542D01*
Y652976D01*
X1161693D01*
Y653052D01*
X1161844D01*
Y653128D01*
X1162072D01*
Y653203D01*
X1162375D01*
Y653279D01*
X1163511D01*
Y653203D01*
D02*
G37*
G36*
X1185327D02*
X1185630D01*
Y653128D01*
X1185857D01*
Y653052D01*
X1186008D01*
Y652976D01*
X1186160D01*
Y652900D01*
X1186311D01*
Y652825D01*
X1186387D01*
Y652749D01*
X1186539D01*
Y652673D01*
X1186614D01*
Y652597D01*
X1186690D01*
Y652522D01*
X1186766D01*
Y652446D01*
X1186842D01*
Y652370D01*
X1186917D01*
Y652294D01*
Y652219D01*
X1186842D01*
Y652143D01*
X1186766D01*
Y652067D01*
X1186690D01*
Y651991D01*
X1186614D01*
Y651916D01*
X1186539D01*
Y651840D01*
X1186463D01*
Y651764D01*
X1186311D01*
Y651688D01*
X1186236D01*
Y651613D01*
X1186160D01*
Y651537D01*
X1186084D01*
Y651613D01*
Y651688D01*
X1186008D01*
Y651764D01*
X1185857D01*
Y651840D01*
X1185781D01*
Y651916D01*
X1185705D01*
Y651991D01*
X1185478D01*
Y652067D01*
X1185327D01*
Y652143D01*
X1184493D01*
Y652067D01*
X1184190D01*
Y651991D01*
X1184039D01*
Y651916D01*
X1183963D01*
Y651840D01*
X1183887D01*
Y651764D01*
X1183736D01*
Y651688D01*
Y651613D01*
X1183660D01*
Y651537D01*
X1183584D01*
Y651461D01*
Y651385D01*
X1183509D01*
Y651310D01*
Y651234D01*
X1183433D01*
Y651158D01*
Y651082D01*
Y651007D01*
Y650931D01*
X1183357D01*
Y650855D01*
Y650779D01*
Y650704D01*
Y650628D01*
Y650552D01*
Y650476D01*
Y650401D01*
Y650325D01*
Y650249D01*
Y650173D01*
Y650098D01*
Y650022D01*
Y649946D01*
Y649870D01*
Y649795D01*
Y649719D01*
Y649643D01*
Y649567D01*
X1183433D01*
Y649492D01*
Y649416D01*
Y649340D01*
Y649264D01*
X1183509D01*
Y649189D01*
Y649113D01*
X1183584D01*
Y649037D01*
Y648961D01*
X1183660D01*
Y648886D01*
X1183736D01*
Y648810D01*
Y648734D01*
X1183812D01*
Y648658D01*
X1183963D01*
Y648583D01*
X1184039D01*
Y648507D01*
X1184190D01*
Y648431D01*
X1184493D01*
Y648355D01*
X1185327D01*
Y648431D01*
X1185478D01*
Y648507D01*
X1185705D01*
Y648583D01*
X1185781D01*
Y648658D01*
X1185857D01*
Y648734D01*
X1186008D01*
Y648810D01*
X1186084D01*
Y648886D01*
X1186236D01*
Y648810D01*
X1186311D01*
Y648734D01*
X1186387D01*
Y648658D01*
X1186539D01*
Y648583D01*
X1186614D01*
Y648507D01*
X1186690D01*
Y648431D01*
X1186766D01*
Y648355D01*
X1186842D01*
Y648280D01*
X1186917D01*
Y648204D01*
Y648128D01*
X1186842D01*
Y648052D01*
X1186766D01*
Y647977D01*
X1186690D01*
Y647901D01*
X1186614D01*
Y647825D01*
X1186539D01*
Y647749D01*
X1186387D01*
Y647674D01*
X1186311D01*
Y647598D01*
X1186160D01*
Y647522D01*
X1186008D01*
Y647446D01*
X1185857D01*
Y647371D01*
X1185630D01*
Y647295D01*
X1185327D01*
Y647219D01*
X1184342D01*
Y647295D01*
X1184039D01*
Y647371D01*
X1183812D01*
Y647446D01*
X1183660D01*
Y647522D01*
X1183509D01*
Y647598D01*
X1183357D01*
Y647674D01*
X1183281D01*
Y647749D01*
X1183206D01*
Y647825D01*
X1183130D01*
Y647901D01*
X1182978D01*
Y647977D01*
Y648052D01*
X1182903D01*
Y648128D01*
X1182827D01*
Y648204D01*
X1182751D01*
Y648280D01*
X1182675D01*
Y648355D01*
Y648431D01*
X1182600D01*
Y648507D01*
Y648583D01*
X1182524D01*
Y648658D01*
Y648734D01*
X1182448D01*
Y648810D01*
Y648886D01*
X1182372D01*
Y648961D01*
Y649037D01*
Y649113D01*
Y649189D01*
X1182297D01*
Y649264D01*
Y649340D01*
Y649416D01*
Y649492D01*
X1182221D01*
Y649567D01*
Y649643D01*
Y649719D01*
Y649795D01*
Y649870D01*
Y649946D01*
Y650022D01*
Y650098D01*
Y650173D01*
Y650249D01*
Y650325D01*
Y650401D01*
Y650476D01*
Y650552D01*
Y650628D01*
Y650704D01*
Y650779D01*
Y650855D01*
Y650931D01*
Y651007D01*
X1182297D01*
Y651082D01*
Y651158D01*
Y651234D01*
Y651310D01*
X1182372D01*
Y651385D01*
Y651461D01*
Y651537D01*
Y651613D01*
X1182448D01*
Y651688D01*
Y651764D01*
X1182524D01*
Y651840D01*
Y651916D01*
X1182600D01*
Y651991D01*
Y652067D01*
X1182675D01*
Y652143D01*
Y652219D01*
X1182751D01*
Y652294D01*
X1182827D01*
Y652370D01*
X1182903D01*
Y652446D01*
X1182978D01*
Y652522D01*
Y652597D01*
X1183130D01*
Y652673D01*
X1183206D01*
Y652749D01*
X1183281D01*
Y652825D01*
X1183357D01*
Y652900D01*
X1183509D01*
Y652976D01*
X1183660D01*
Y653052D01*
X1183812D01*
Y653128D01*
X1184039D01*
Y653203D01*
X1184342D01*
Y653279D01*
X1185327D01*
Y653203D01*
D02*
G37*
G36*
X1176843Y653128D02*
Y653052D01*
Y652976D01*
Y652900D01*
Y652825D01*
Y652749D01*
Y652673D01*
Y652597D01*
Y652522D01*
Y652446D01*
Y652370D01*
Y652294D01*
Y652219D01*
Y652143D01*
Y652067D01*
Y651991D01*
Y651916D01*
Y651840D01*
Y651764D01*
Y651688D01*
Y651613D01*
Y651537D01*
Y651461D01*
Y651385D01*
Y651310D01*
Y651234D01*
Y651158D01*
Y651082D01*
Y651007D01*
Y650931D01*
Y650855D01*
Y650779D01*
Y650704D01*
Y650628D01*
Y650552D01*
Y650476D01*
Y650401D01*
Y650325D01*
Y650249D01*
Y650173D01*
Y650098D01*
Y650022D01*
Y649946D01*
Y649870D01*
Y649795D01*
Y649719D01*
Y649643D01*
Y649567D01*
Y649492D01*
Y649416D01*
Y649340D01*
Y649264D01*
Y649189D01*
Y649113D01*
Y649037D01*
Y648961D01*
Y648886D01*
Y648810D01*
Y648734D01*
Y648658D01*
Y648583D01*
Y648507D01*
Y648431D01*
Y648355D01*
Y648280D01*
Y648204D01*
Y648128D01*
Y648052D01*
Y647977D01*
Y647901D01*
Y647825D01*
Y647749D01*
Y647674D01*
Y647598D01*
Y647522D01*
Y647446D01*
Y647371D01*
Y647295D01*
X1175706D01*
Y647371D01*
Y647446D01*
Y647522D01*
Y647598D01*
Y647674D01*
Y647749D01*
Y647825D01*
Y647901D01*
X1175631D01*
Y647825D01*
X1175555D01*
Y647749D01*
X1175479D01*
Y647674D01*
X1175404D01*
Y647598D01*
X1175252D01*
Y647522D01*
X1175100D01*
Y647446D01*
X1175025D01*
Y647371D01*
X1174798D01*
Y647295D01*
X1174570D01*
Y647219D01*
X1173737D01*
Y647295D01*
X1173434D01*
Y647371D01*
X1173283D01*
Y647446D01*
X1173131D01*
Y647522D01*
X1173055D01*
Y647598D01*
X1172904D01*
Y647674D01*
X1172828D01*
Y647749D01*
X1172752D01*
Y647825D01*
X1172677D01*
Y647901D01*
X1172601D01*
Y647977D01*
X1172525D01*
Y648052D01*
Y648128D01*
X1172449D01*
Y648204D01*
Y648280D01*
X1172374D01*
Y648355D01*
X1172298D01*
Y648431D01*
Y648507D01*
Y648583D01*
X1172222D01*
Y648658D01*
Y648734D01*
Y648810D01*
Y648886D01*
Y648961D01*
X1172146D01*
Y649037D01*
Y649113D01*
Y649189D01*
Y649264D01*
Y649340D01*
Y649416D01*
Y649492D01*
Y649567D01*
Y649643D01*
Y649719D01*
Y649795D01*
Y649870D01*
Y649946D01*
Y650022D01*
Y650098D01*
Y650173D01*
Y650249D01*
Y650325D01*
Y650401D01*
Y650476D01*
Y650552D01*
Y650628D01*
Y650704D01*
Y650779D01*
Y650855D01*
Y650931D01*
Y651007D01*
Y651082D01*
Y651158D01*
Y651234D01*
Y651310D01*
Y651385D01*
Y651461D01*
Y651537D01*
Y651613D01*
Y651688D01*
Y651764D01*
Y651840D01*
Y651916D01*
Y651991D01*
Y652067D01*
Y652143D01*
Y652219D01*
Y652294D01*
Y652370D01*
Y652446D01*
Y652522D01*
Y652597D01*
Y652673D01*
Y652749D01*
Y652825D01*
Y652900D01*
Y652976D01*
Y653052D01*
Y653128D01*
Y653203D01*
X1173283D01*
Y653128D01*
Y653052D01*
Y652976D01*
Y652900D01*
Y652825D01*
Y652749D01*
Y652673D01*
Y652597D01*
Y652522D01*
Y652446D01*
Y652370D01*
Y652294D01*
Y652219D01*
Y652143D01*
Y652067D01*
Y651991D01*
Y651916D01*
Y651840D01*
Y651764D01*
Y651688D01*
Y651613D01*
Y651537D01*
Y651461D01*
Y651385D01*
Y651310D01*
Y651234D01*
Y651158D01*
Y651082D01*
Y651007D01*
Y650931D01*
Y650855D01*
Y650779D01*
Y650704D01*
Y650628D01*
Y650552D01*
Y650476D01*
Y650401D01*
Y650325D01*
Y650249D01*
Y650173D01*
Y650098D01*
Y650022D01*
Y649946D01*
Y649870D01*
Y649795D01*
Y649719D01*
Y649643D01*
Y649567D01*
Y649492D01*
Y649416D01*
Y649340D01*
X1173358D01*
Y649264D01*
Y649189D01*
Y649113D01*
Y649037D01*
X1173434D01*
Y648961D01*
Y648886D01*
X1173510D01*
Y648810D01*
X1173586D01*
Y648734D01*
X1173661D01*
Y648658D01*
X1173737D01*
Y648583D01*
X1173813D01*
Y648507D01*
X1173964D01*
Y648431D01*
X1174192D01*
Y648355D01*
X1174873D01*
Y648431D01*
X1175100D01*
Y648507D01*
X1175252D01*
Y648583D01*
X1175328D01*
Y648658D01*
X1175404D01*
Y648734D01*
X1175479D01*
Y648810D01*
X1175555D01*
Y648886D01*
Y648961D01*
X1175631D01*
Y649037D01*
Y649113D01*
Y649189D01*
X1175706D01*
Y649264D01*
Y649340D01*
Y649416D01*
Y649492D01*
Y649567D01*
Y649643D01*
Y649719D01*
Y649795D01*
Y649870D01*
Y649946D01*
Y650022D01*
Y650098D01*
Y650173D01*
Y650249D01*
Y650325D01*
Y650401D01*
Y650476D01*
Y650552D01*
Y650628D01*
Y650704D01*
Y650779D01*
Y650855D01*
Y650931D01*
Y651007D01*
Y651082D01*
Y651158D01*
Y651234D01*
Y651310D01*
Y651385D01*
Y651461D01*
Y651537D01*
Y651613D01*
Y651688D01*
Y651764D01*
Y651840D01*
Y651916D01*
Y651991D01*
Y652067D01*
Y652143D01*
Y652219D01*
Y652294D01*
Y652370D01*
Y652446D01*
Y652522D01*
Y652597D01*
Y652673D01*
Y652749D01*
Y652825D01*
Y652900D01*
Y652976D01*
Y653052D01*
Y653128D01*
Y653203D01*
X1176843D01*
Y653128D01*
D02*
G37*
G36*
X1190326Y653203D02*
X1190553D01*
Y653128D01*
X1190781D01*
Y653052D01*
X1190932D01*
Y652976D01*
X1191084D01*
Y652900D01*
X1191235D01*
Y652825D01*
X1191311D01*
Y652749D01*
X1191386D01*
Y652673D01*
X1191462D01*
Y652597D01*
X1191538D01*
Y652522D01*
X1191614D01*
Y652446D01*
X1191690D01*
Y652370D01*
X1191765D01*
Y652294D01*
X1191841D01*
Y652219D01*
Y652143D01*
X1191917D01*
Y652067D01*
Y651991D01*
X1191992D01*
Y651916D01*
Y651840D01*
X1192068D01*
Y651764D01*
Y651688D01*
X1192144D01*
Y651613D01*
Y651537D01*
Y651461D01*
Y651385D01*
X1192220D01*
Y651310D01*
Y651234D01*
Y651158D01*
Y651082D01*
Y651007D01*
Y650931D01*
Y650855D01*
Y650779D01*
X1192296D01*
Y650704D01*
Y650628D01*
Y650552D01*
Y650476D01*
Y650401D01*
Y650325D01*
Y650249D01*
Y650173D01*
Y650098D01*
Y650022D01*
Y649946D01*
Y649870D01*
Y649795D01*
X1188508D01*
Y649719D01*
Y649643D01*
Y649567D01*
Y649492D01*
Y649416D01*
X1188584D01*
Y649340D01*
Y649264D01*
Y649189D01*
Y649113D01*
X1188660D01*
Y649037D01*
Y648961D01*
X1188735D01*
Y648886D01*
Y648810D01*
X1188811D01*
Y648734D01*
X1188887D01*
Y648658D01*
X1188963D01*
Y648583D01*
X1189038D01*
Y648507D01*
X1189190D01*
Y648431D01*
X1189341D01*
Y648355D01*
X1189569D01*
Y648280D01*
X1190402D01*
Y648355D01*
X1190629D01*
Y648431D01*
X1190781D01*
Y648507D01*
X1190932D01*
Y648583D01*
X1191084D01*
Y648658D01*
X1191159D01*
Y648734D01*
X1191235D01*
Y648810D01*
X1191386D01*
Y648734D01*
X1191462D01*
Y648658D01*
X1191538D01*
Y648583D01*
X1191614D01*
Y648507D01*
X1191690D01*
Y648431D01*
X1191841D01*
Y648355D01*
X1191917D01*
Y648280D01*
X1191992D01*
Y648204D01*
X1192068D01*
Y648128D01*
Y648052D01*
X1191992D01*
Y647977D01*
X1191917D01*
Y647901D01*
X1191841D01*
Y647825D01*
X1191690D01*
Y647749D01*
X1191614D01*
Y647674D01*
X1191462D01*
Y647598D01*
X1191386D01*
Y647522D01*
X1191235D01*
Y647446D01*
X1191084D01*
Y647371D01*
X1190781D01*
Y647295D01*
X1190553D01*
Y647219D01*
X1189493D01*
Y647295D01*
X1189114D01*
Y647371D01*
X1188963D01*
Y647446D01*
X1188735D01*
Y647522D01*
X1188584D01*
Y647598D01*
X1188508D01*
Y647674D01*
X1188357D01*
Y647749D01*
X1188281D01*
Y647825D01*
X1188205D01*
Y647901D01*
X1188129D01*
Y647977D01*
X1188054D01*
Y648052D01*
X1187978D01*
Y648128D01*
X1187902D01*
Y648204D01*
Y648280D01*
X1187826D01*
Y648355D01*
Y648431D01*
X1187751D01*
Y648507D01*
Y648583D01*
X1187675D01*
Y648658D01*
Y648734D01*
X1187599D01*
Y648810D01*
Y648886D01*
Y648961D01*
X1187523D01*
Y649037D01*
Y649113D01*
Y649189D01*
Y649264D01*
X1187448D01*
Y649340D01*
Y649416D01*
Y649492D01*
Y649567D01*
Y649643D01*
Y649719D01*
Y649795D01*
X1187372D01*
Y649870D01*
Y649946D01*
Y650022D01*
Y650098D01*
Y650173D01*
Y650249D01*
Y650325D01*
Y650401D01*
Y650476D01*
Y650552D01*
Y650628D01*
X1187448D01*
Y650704D01*
Y650779D01*
Y650855D01*
Y650931D01*
Y651007D01*
Y651082D01*
Y651158D01*
Y651234D01*
X1187523D01*
Y651310D01*
Y651385D01*
Y651461D01*
Y651537D01*
X1187599D01*
Y651613D01*
Y651688D01*
Y651764D01*
X1187675D01*
Y651840D01*
Y651916D01*
X1187751D01*
Y651991D01*
Y652067D01*
X1187826D01*
Y652143D01*
Y652219D01*
X1187902D01*
Y652294D01*
X1187978D01*
Y652370D01*
Y652446D01*
X1188054D01*
Y652522D01*
X1188129D01*
Y652597D01*
X1188205D01*
Y652673D01*
X1188281D01*
Y652749D01*
X1188357D01*
Y652825D01*
X1188508D01*
Y652900D01*
X1188584D01*
Y652976D01*
X1188735D01*
Y653052D01*
X1188887D01*
Y653128D01*
X1189114D01*
Y653203D01*
X1189341D01*
Y653279D01*
X1190326D01*
Y653203D01*
D02*
G37*
G36*
X1169116D02*
X1169344D01*
Y653128D01*
X1169571D01*
Y653052D01*
X1169798D01*
Y652976D01*
X1169874D01*
Y652900D01*
X1170025D01*
Y652825D01*
X1170101D01*
Y652749D01*
X1170177D01*
Y652673D01*
X1170253D01*
Y652597D01*
X1170328D01*
Y652522D01*
X1170404D01*
Y652446D01*
X1170480D01*
Y652370D01*
X1170556D01*
Y652294D01*
X1170631D01*
Y652219D01*
Y652143D01*
X1170707D01*
Y652067D01*
Y651991D01*
X1170783D01*
Y651916D01*
Y651840D01*
X1170859D01*
Y651764D01*
Y651688D01*
X1170934D01*
Y651613D01*
Y651537D01*
Y651461D01*
Y651385D01*
Y651310D01*
Y651234D01*
X1171010D01*
Y651158D01*
Y651082D01*
Y651007D01*
Y650931D01*
Y650855D01*
Y650779D01*
Y650704D01*
Y650628D01*
Y650552D01*
Y650476D01*
Y650401D01*
Y650325D01*
Y650249D01*
Y650173D01*
Y650098D01*
Y650022D01*
Y649946D01*
Y649870D01*
Y649795D01*
Y649719D01*
Y649643D01*
Y649567D01*
Y649492D01*
Y649416D01*
Y649340D01*
Y649264D01*
X1170934D01*
Y649189D01*
Y649113D01*
Y649037D01*
Y648961D01*
Y648886D01*
Y648810D01*
X1170859D01*
Y648734D01*
Y648658D01*
X1170783D01*
Y648583D01*
Y648507D01*
X1170707D01*
Y648431D01*
Y648355D01*
X1170631D01*
Y648280D01*
Y648204D01*
X1170556D01*
Y648128D01*
X1170480D01*
Y648052D01*
X1170404D01*
Y647977D01*
X1170328D01*
Y647901D01*
X1170253D01*
Y647825D01*
X1170177D01*
Y647749D01*
X1170101D01*
Y647674D01*
X1170025D01*
Y647598D01*
X1169874D01*
Y647522D01*
X1169798D01*
Y647446D01*
X1169571D01*
Y647371D01*
X1169344D01*
Y647295D01*
X1169041D01*
Y647219D01*
X1168207D01*
Y647295D01*
X1167829D01*
Y647371D01*
X1167601D01*
Y647446D01*
X1167450D01*
Y647522D01*
X1167298D01*
Y647598D01*
X1167223D01*
Y647674D01*
X1167071D01*
Y647749D01*
X1166995D01*
Y647825D01*
X1166920D01*
Y647901D01*
X1166844D01*
Y647977D01*
X1166768D01*
Y648052D01*
X1166692D01*
Y648128D01*
Y648204D01*
X1166617D01*
Y648280D01*
X1166541D01*
Y648355D01*
Y648431D01*
X1166465D01*
Y648507D01*
Y648583D01*
X1166389D01*
Y648658D01*
Y648734D01*
X1166314D01*
Y648810D01*
Y648886D01*
Y648961D01*
Y649037D01*
X1166238D01*
Y649113D01*
Y649189D01*
Y649264D01*
Y649340D01*
Y649416D01*
X1166162D01*
Y649492D01*
Y649567D01*
Y649643D01*
Y649719D01*
Y649795D01*
Y649870D01*
Y649946D01*
Y650022D01*
Y650098D01*
Y650173D01*
Y650249D01*
Y650325D01*
Y650401D01*
Y650476D01*
Y650552D01*
Y650628D01*
Y650704D01*
Y650779D01*
Y650855D01*
Y650931D01*
Y651007D01*
Y651082D01*
X1166238D01*
Y651158D01*
Y651234D01*
Y651310D01*
Y651385D01*
Y651461D01*
X1166314D01*
Y651537D01*
Y651613D01*
Y651688D01*
Y651764D01*
X1166389D01*
Y651840D01*
Y651916D01*
X1166465D01*
Y651991D01*
Y652067D01*
X1166541D01*
Y652143D01*
Y652219D01*
X1166617D01*
Y652294D01*
X1166692D01*
Y652370D01*
Y652446D01*
X1166768D01*
Y652522D01*
X1166844D01*
Y652597D01*
X1166920D01*
Y652673D01*
X1166995D01*
Y652749D01*
X1167071D01*
Y652825D01*
X1167223D01*
Y652900D01*
X1167298D01*
Y652976D01*
X1167450D01*
Y653052D01*
X1167601D01*
Y653128D01*
X1167829D01*
Y653203D01*
X1168132D01*
Y653279D01*
X1169116D01*
Y653203D01*
D02*
G37*
G36*
X1149194D02*
X1149497D01*
Y653128D01*
X1149725D01*
Y653052D01*
X1149876D01*
Y652976D01*
X1149952D01*
Y652900D01*
X1150103D01*
Y652825D01*
X1150179D01*
Y652749D01*
X1150331D01*
Y652673D01*
X1150406D01*
Y652597D01*
X1150482D01*
Y652522D01*
X1150558D01*
Y652446D01*
X1150634D01*
Y652370D01*
Y652294D01*
X1150709D01*
Y652219D01*
X1150785D01*
Y652143D01*
Y652067D01*
X1150861D01*
Y651991D01*
Y651916D01*
X1150937D01*
Y651840D01*
X1151012D01*
Y651764D01*
Y651688D01*
Y651613D01*
Y651537D01*
X1151088D01*
Y651461D01*
Y651385D01*
Y651310D01*
Y651234D01*
X1151164D01*
Y651158D01*
Y651082D01*
Y651007D01*
Y650931D01*
Y650855D01*
Y650779D01*
Y650704D01*
Y650628D01*
Y650552D01*
Y650476D01*
Y650401D01*
Y650325D01*
Y650249D01*
Y650173D01*
Y650098D01*
Y650022D01*
Y649946D01*
Y649870D01*
Y649795D01*
X1147452D01*
Y649719D01*
Y649643D01*
Y649567D01*
Y649492D01*
Y649416D01*
Y649340D01*
Y649264D01*
X1147528D01*
Y649189D01*
Y649113D01*
Y649037D01*
X1147604D01*
Y648961D01*
Y648886D01*
X1147679D01*
Y648810D01*
X1147755D01*
Y648734D01*
X1147831D01*
Y648658D01*
X1147907D01*
Y648583D01*
X1147982D01*
Y648507D01*
X1148058D01*
Y648431D01*
X1148210D01*
Y648355D01*
X1148513D01*
Y648280D01*
X1149270D01*
Y648355D01*
X1149497D01*
Y648431D01*
X1149725D01*
Y648507D01*
X1149800D01*
Y648583D01*
X1149952D01*
Y648658D01*
X1150028D01*
Y648734D01*
X1150179D01*
Y648810D01*
X1150255D01*
Y648734D01*
X1150406D01*
Y648658D01*
X1150482D01*
Y648583D01*
X1150558D01*
Y648507D01*
X1150634D01*
Y648431D01*
X1150709D01*
Y648355D01*
X1150785D01*
Y648280D01*
X1150937D01*
Y648204D01*
X1151012D01*
Y648128D01*
X1150937D01*
Y648052D01*
X1150861D01*
Y647977D01*
X1150785D01*
Y647901D01*
X1150709D01*
Y647825D01*
X1150634D01*
Y647749D01*
X1150558D01*
Y647674D01*
X1150406D01*
Y647598D01*
X1150255D01*
Y647522D01*
X1150179D01*
Y647446D01*
X1149952D01*
Y647371D01*
X1149725D01*
Y647295D01*
X1149422D01*
Y647219D01*
X1148361D01*
Y647295D01*
X1148058D01*
Y647371D01*
X1147831D01*
Y647446D01*
X1147679D01*
Y647522D01*
X1147528D01*
Y647598D01*
X1147376D01*
Y647674D01*
X1147301D01*
Y647749D01*
X1147149D01*
Y647825D01*
X1147073D01*
Y647901D01*
Y647977D01*
X1146998D01*
Y648052D01*
X1146922D01*
Y648128D01*
X1146846D01*
Y648204D01*
X1146770D01*
Y648280D01*
Y648355D01*
X1146695D01*
Y648431D01*
Y648507D01*
X1146619D01*
Y648583D01*
Y648658D01*
X1146543D01*
Y648734D01*
Y648810D01*
X1146467D01*
Y648886D01*
Y648961D01*
Y649037D01*
Y649113D01*
X1146392D01*
Y649189D01*
Y649264D01*
Y649340D01*
Y649416D01*
X1146316D01*
Y649492D01*
Y649567D01*
Y649643D01*
Y649719D01*
Y649795D01*
Y649870D01*
Y649946D01*
Y650022D01*
Y650098D01*
Y650173D01*
Y650249D01*
Y650325D01*
Y650401D01*
Y650476D01*
Y650552D01*
Y650628D01*
Y650704D01*
Y650779D01*
Y650855D01*
Y650931D01*
Y651007D01*
X1146392D01*
Y651082D01*
Y651158D01*
Y651234D01*
Y651310D01*
X1146467D01*
Y651385D01*
Y651461D01*
Y651537D01*
Y651613D01*
X1146543D01*
Y651688D01*
Y651764D01*
Y651840D01*
X1146619D01*
Y651916D01*
Y651991D01*
X1146695D01*
Y652067D01*
Y652143D01*
X1146770D01*
Y652219D01*
Y652294D01*
X1146846D01*
Y652370D01*
X1146922D01*
Y652446D01*
X1146998D01*
Y652522D01*
X1147073D01*
Y652597D01*
Y652673D01*
X1147225D01*
Y652749D01*
X1147301D01*
Y652825D01*
X1147376D01*
Y652900D01*
X1147452D01*
Y652976D01*
X1147604D01*
Y653052D01*
X1147755D01*
Y653128D01*
X1147982D01*
Y653203D01*
X1148285D01*
Y653279D01*
X1149194D01*
Y653203D01*
D02*
G37*
G36*
X1137605D02*
X1137908D01*
Y653128D01*
X1138135D01*
Y653052D01*
X1138287D01*
Y652976D01*
X1138438D01*
Y652900D01*
X1138514D01*
Y652825D01*
X1138665D01*
Y652749D01*
X1138741D01*
Y652673D01*
X1138817D01*
Y652597D01*
X1138893D01*
Y652522D01*
X1138968D01*
Y652446D01*
X1139044D01*
Y652370D01*
Y652294D01*
X1139120D01*
Y652219D01*
X1139195D01*
Y652143D01*
Y652067D01*
X1139271D01*
Y651991D01*
Y651916D01*
X1139347D01*
Y651840D01*
Y651764D01*
X1139423D01*
Y651688D01*
Y651613D01*
Y651537D01*
Y651461D01*
X1139499D01*
Y651385D01*
Y651310D01*
Y651234D01*
Y651158D01*
Y651082D01*
Y651007D01*
Y650931D01*
X1139574D01*
Y650855D01*
Y650779D01*
Y650704D01*
Y650628D01*
Y650552D01*
Y650476D01*
Y650401D01*
Y650325D01*
Y650249D01*
Y650173D01*
Y650098D01*
Y650022D01*
Y649946D01*
Y649870D01*
Y649795D01*
Y649719D01*
Y649643D01*
Y649567D01*
X1139499D01*
Y649492D01*
Y649416D01*
Y649340D01*
Y649264D01*
Y649189D01*
Y649113D01*
Y649037D01*
X1139423D01*
Y648961D01*
Y648886D01*
Y648810D01*
Y648734D01*
X1139347D01*
Y648658D01*
Y648583D01*
X1139271D01*
Y648507D01*
Y648431D01*
X1139195D01*
Y648355D01*
Y648280D01*
X1139120D01*
Y648204D01*
X1139044D01*
Y648128D01*
Y648052D01*
X1138968D01*
Y647977D01*
X1138893D01*
Y647901D01*
X1138817D01*
Y647825D01*
X1138741D01*
Y647749D01*
X1138665D01*
Y647674D01*
X1138514D01*
Y647598D01*
X1138438D01*
Y647522D01*
X1138287D01*
Y647446D01*
X1138135D01*
Y647371D01*
X1137908D01*
Y647295D01*
X1137529D01*
Y647219D01*
X1136696D01*
Y647295D01*
X1136393D01*
Y647371D01*
X1136165D01*
Y647446D01*
X1135938D01*
Y647522D01*
X1135863D01*
Y647598D01*
X1135711D01*
Y647674D01*
X1135635D01*
Y647749D01*
X1135560D01*
Y647825D01*
X1135484D01*
Y647901D01*
X1135408D01*
Y647977D01*
X1135332D01*
Y648052D01*
X1135257D01*
Y648128D01*
X1135181D01*
Y648204D01*
X1135105D01*
Y648280D01*
Y648355D01*
X1135029D01*
Y648431D01*
Y648507D01*
X1134954D01*
Y648583D01*
Y648658D01*
X1134878D01*
Y648734D01*
Y648810D01*
X1134802D01*
Y648886D01*
Y648961D01*
Y649037D01*
Y649113D01*
Y649189D01*
X1134726D01*
Y649264D01*
Y649340D01*
Y649416D01*
Y649492D01*
Y649567D01*
Y649643D01*
Y649719D01*
Y649795D01*
Y649870D01*
Y649946D01*
Y650022D01*
Y650098D01*
Y650173D01*
Y650249D01*
Y650325D01*
Y650401D01*
Y650476D01*
Y650552D01*
Y650628D01*
Y650704D01*
Y650779D01*
Y650855D01*
Y650931D01*
Y651007D01*
Y651082D01*
Y651158D01*
Y651234D01*
Y651310D01*
X1134802D01*
Y651385D01*
Y651461D01*
Y651537D01*
Y651613D01*
Y651688D01*
X1134878D01*
Y651764D01*
Y651840D01*
X1134954D01*
Y651916D01*
Y651991D01*
X1135029D01*
Y652067D01*
Y652143D01*
X1135105D01*
Y652219D01*
Y652294D01*
X1135181D01*
Y652370D01*
X1135257D01*
Y652446D01*
X1135332D01*
Y652522D01*
X1135408D01*
Y652597D01*
X1135484D01*
Y652673D01*
X1135560D01*
Y652749D01*
X1135635D01*
Y652825D01*
X1135711D01*
Y652900D01*
X1135863D01*
Y652976D01*
X1135938D01*
Y653052D01*
X1136165D01*
Y653128D01*
X1136393D01*
Y653203D01*
X1136620D01*
Y653279D01*
X1137605D01*
Y653203D01*
D02*
G37*
G36*
X1179721Y643735D02*
X1180100D01*
Y643659D01*
X1180251D01*
Y643583D01*
X1180479D01*
Y643508D01*
X1180555D01*
Y643432D01*
X1180706D01*
Y643356D01*
Y643280D01*
X1180630D01*
Y643204D01*
X1180555D01*
Y643129D01*
X1180479D01*
Y643053D01*
Y642977D01*
X1180403D01*
Y642902D01*
X1180327D01*
Y642826D01*
X1180251D01*
Y642750D01*
X1180176D01*
Y642674D01*
X1180100D01*
Y642598D01*
X1180024D01*
Y642523D01*
Y642447D01*
X1179949D01*
Y642371D01*
X1179873D01*
Y642447D01*
X1179721D01*
Y642523D01*
X1179570D01*
Y642598D01*
X1179342D01*
Y642674D01*
X1178888D01*
Y642598D01*
X1178585D01*
Y642523D01*
X1178434D01*
Y642447D01*
X1178358D01*
Y642371D01*
X1178282D01*
Y642296D01*
X1178206D01*
Y642220D01*
X1178130D01*
Y642144D01*
Y642068D01*
X1178055D01*
Y641992D01*
Y641917D01*
X1177979D01*
Y641841D01*
Y641765D01*
Y641690D01*
X1177903D01*
Y641614D01*
Y641538D01*
Y641462D01*
Y641386D01*
Y641311D01*
Y641235D01*
Y641159D01*
Y641084D01*
Y641008D01*
Y640932D01*
Y640856D01*
Y640780D01*
Y640705D01*
Y640629D01*
Y640553D01*
Y640478D01*
Y640402D01*
Y640326D01*
Y640250D01*
Y640174D01*
Y640099D01*
Y640023D01*
Y639947D01*
Y639871D01*
Y639796D01*
Y639720D01*
Y639644D01*
Y639568D01*
Y639493D01*
Y639417D01*
Y639341D01*
Y639266D01*
Y639190D01*
Y639114D01*
Y639038D01*
Y638963D01*
Y638887D01*
Y638811D01*
Y638735D01*
Y638660D01*
Y638584D01*
Y638508D01*
Y638432D01*
Y638357D01*
Y638281D01*
Y638205D01*
Y638129D01*
Y638054D01*
Y637978D01*
Y637902D01*
Y637826D01*
Y637751D01*
X1176767D01*
Y637826D01*
Y637902D01*
Y637978D01*
Y638054D01*
Y638129D01*
Y638205D01*
Y638281D01*
Y638357D01*
Y638432D01*
Y638508D01*
Y638584D01*
Y638660D01*
Y638735D01*
Y638811D01*
Y638887D01*
Y638963D01*
Y639038D01*
Y639114D01*
Y639190D01*
Y639266D01*
Y639341D01*
Y639417D01*
Y639493D01*
Y639568D01*
Y639644D01*
Y639720D01*
Y639796D01*
Y639871D01*
Y639947D01*
Y640023D01*
Y640099D01*
Y640174D01*
Y640250D01*
Y640326D01*
Y640402D01*
Y640478D01*
Y640553D01*
Y640629D01*
Y640705D01*
Y640780D01*
Y640856D01*
Y640932D01*
Y641008D01*
Y641084D01*
Y641159D01*
Y641235D01*
Y641311D01*
Y641386D01*
Y641462D01*
Y641538D01*
Y641614D01*
Y641690D01*
Y641765D01*
Y641841D01*
Y641917D01*
Y641992D01*
Y642068D01*
Y642144D01*
Y642220D01*
Y642296D01*
Y642371D01*
Y642447D01*
Y642523D01*
Y642598D01*
Y642674D01*
Y642750D01*
Y642826D01*
Y642902D01*
Y642977D01*
Y643053D01*
Y643129D01*
Y643204D01*
Y643280D01*
Y643356D01*
Y643432D01*
Y643508D01*
Y643583D01*
Y643659D01*
Y643735D01*
X1177903D01*
Y643659D01*
Y643583D01*
Y643508D01*
Y643432D01*
Y643356D01*
Y643280D01*
Y643204D01*
Y643129D01*
Y643053D01*
X1177979D01*
Y643129D01*
X1178055D01*
Y643204D01*
X1178130D01*
Y643280D01*
X1178206D01*
Y643356D01*
X1178282D01*
Y643432D01*
X1178434D01*
Y643508D01*
X1178585D01*
Y643583D01*
X1178736D01*
Y643659D01*
X1178964D01*
Y643735D01*
X1179342D01*
Y643811D01*
X1179721D01*
Y643735D01*
D02*
G37*
G36*
X1161314Y646083D02*
Y646007D01*
Y645931D01*
Y645856D01*
Y645780D01*
Y645704D01*
Y645629D01*
Y645553D01*
Y645477D01*
Y645401D01*
Y645325D01*
Y645250D01*
Y645174D01*
Y645098D01*
Y645023D01*
Y644947D01*
Y644871D01*
Y644795D01*
Y644719D01*
Y644644D01*
Y644568D01*
Y644492D01*
Y644417D01*
Y644341D01*
Y644265D01*
Y644189D01*
Y644113D01*
Y644038D01*
Y643962D01*
Y643886D01*
Y643811D01*
Y643735D01*
Y643659D01*
Y643583D01*
Y643508D01*
Y643432D01*
Y643356D01*
Y643280D01*
Y643204D01*
Y643129D01*
Y643053D01*
Y642977D01*
Y642902D01*
Y642826D01*
Y642750D01*
Y642674D01*
Y642598D01*
Y642523D01*
Y642447D01*
Y642371D01*
Y642296D01*
Y642220D01*
Y642144D01*
Y642068D01*
Y641992D01*
Y641917D01*
Y641841D01*
Y641765D01*
Y641690D01*
Y641614D01*
Y641538D01*
Y641462D01*
Y641386D01*
Y641311D01*
Y641235D01*
Y641159D01*
Y641084D01*
Y641008D01*
Y640932D01*
Y640856D01*
Y640780D01*
Y640705D01*
Y640629D01*
Y640553D01*
Y640478D01*
Y640402D01*
Y640326D01*
Y640250D01*
Y640174D01*
Y640099D01*
Y640023D01*
Y639947D01*
Y639871D01*
Y639796D01*
Y639720D01*
Y639644D01*
Y639568D01*
Y639493D01*
Y639417D01*
Y639341D01*
Y639266D01*
Y639190D01*
Y639114D01*
Y639038D01*
Y638963D01*
Y638887D01*
Y638811D01*
Y638735D01*
Y638660D01*
Y638584D01*
Y638508D01*
Y638432D01*
Y638357D01*
Y638281D01*
Y638205D01*
Y638129D01*
Y638054D01*
Y637978D01*
Y637902D01*
Y637826D01*
Y637751D01*
X1160178D01*
Y637826D01*
Y637902D01*
Y637978D01*
Y638054D01*
Y638129D01*
Y638205D01*
Y638281D01*
Y638357D01*
Y638432D01*
X1160102D01*
Y638357D01*
X1159951D01*
Y638281D01*
X1159875D01*
Y638205D01*
X1159799D01*
Y638129D01*
X1159724D01*
Y638054D01*
X1159572D01*
Y637978D01*
X1159496D01*
Y637902D01*
X1159269D01*
Y637826D01*
X1159042D01*
Y637751D01*
X1158057D01*
Y637826D01*
X1157830D01*
Y637902D01*
X1157602D01*
Y637978D01*
X1157527D01*
Y638054D01*
X1157375D01*
Y638129D01*
X1157299D01*
Y638205D01*
X1157224D01*
Y638281D01*
X1157148D01*
Y638357D01*
X1157072D01*
Y638432D01*
X1156997D01*
Y638508D01*
X1156921D01*
Y638584D01*
Y638660D01*
X1156845D01*
Y638735D01*
Y638811D01*
X1156769D01*
Y638887D01*
Y638963D01*
X1156693D01*
Y639038D01*
Y639114D01*
Y639190D01*
X1156618D01*
Y639266D01*
Y639341D01*
Y639417D01*
Y639493D01*
Y639568D01*
Y639644D01*
Y639720D01*
Y639796D01*
Y639871D01*
Y639947D01*
Y640023D01*
X1156542D01*
Y640099D01*
Y640174D01*
Y640250D01*
Y640326D01*
Y640402D01*
Y640478D01*
Y640553D01*
Y640629D01*
Y640705D01*
Y640780D01*
Y640856D01*
Y640932D01*
Y641008D01*
Y641084D01*
Y641159D01*
Y641235D01*
Y641311D01*
Y641386D01*
Y641462D01*
X1156618D01*
Y641538D01*
Y641614D01*
Y641690D01*
Y641765D01*
Y641841D01*
Y641917D01*
Y641992D01*
Y642068D01*
Y642144D01*
Y642220D01*
Y642296D01*
X1156693D01*
Y642371D01*
Y642447D01*
Y642523D01*
X1156769D01*
Y642598D01*
Y642674D01*
Y642750D01*
X1156845D01*
Y642826D01*
X1156921D01*
Y642902D01*
Y642977D01*
X1156997D01*
Y643053D01*
X1157072D01*
Y643129D01*
X1157148D01*
Y643204D01*
X1157224D01*
Y643280D01*
X1157299D01*
Y643356D01*
X1157375D01*
Y643432D01*
X1157527D01*
Y643508D01*
X1157602D01*
Y643583D01*
X1157754D01*
Y643659D01*
X1157981D01*
Y643735D01*
X1158436D01*
Y643811D01*
X1158739D01*
Y643735D01*
X1159118D01*
Y643659D01*
X1159345D01*
Y643583D01*
X1159496D01*
Y643508D01*
X1159572D01*
Y643432D01*
X1159724D01*
Y643356D01*
X1159799D01*
Y643280D01*
X1159875D01*
Y643204D01*
X1160026D01*
Y643129D01*
X1160102D01*
Y643053D01*
X1160178D01*
Y643129D01*
Y643204D01*
Y643280D01*
Y643356D01*
Y643432D01*
Y643508D01*
Y643583D01*
Y643659D01*
Y643735D01*
Y643811D01*
Y643886D01*
Y643962D01*
Y644038D01*
Y644113D01*
Y644189D01*
Y644265D01*
Y644341D01*
Y644417D01*
Y644492D01*
Y644568D01*
Y644644D01*
Y644719D01*
Y644795D01*
Y644871D01*
Y644947D01*
Y645023D01*
Y645098D01*
Y645174D01*
Y645250D01*
Y645325D01*
Y645401D01*
Y645477D01*
Y645553D01*
Y645629D01*
Y645704D01*
Y645780D01*
Y645856D01*
Y645931D01*
Y646007D01*
Y646083D01*
Y646159D01*
X1161314D01*
Y646083D01*
D02*
G37*
G36*
X1155482Y643735D02*
X1155785D01*
Y643659D01*
X1156012D01*
Y643583D01*
X1156163D01*
Y643508D01*
X1156239D01*
Y643432D01*
X1156391D01*
Y643356D01*
Y643280D01*
X1156315D01*
Y643204D01*
X1156239D01*
Y643129D01*
Y643053D01*
X1156163D01*
Y642977D01*
X1156088D01*
Y642902D01*
X1156012D01*
Y642826D01*
X1155936D01*
Y642750D01*
X1155860D01*
Y642674D01*
Y642598D01*
X1155785D01*
Y642523D01*
X1155709D01*
Y642447D01*
X1155633D01*
Y642371D01*
X1155557D01*
Y642447D01*
X1155406D01*
Y642523D01*
X1155330D01*
Y642598D01*
X1155103D01*
Y642674D01*
X1154573D01*
Y642598D01*
X1154345D01*
Y642523D01*
X1154194D01*
Y642447D01*
X1154042D01*
Y642371D01*
X1153967D01*
Y642296D01*
X1153891D01*
Y642220D01*
X1153815D01*
Y642144D01*
Y642068D01*
X1153739D01*
Y641992D01*
Y641917D01*
X1153664D01*
Y641841D01*
Y641765D01*
Y641690D01*
Y641614D01*
Y641538D01*
Y641462D01*
X1153588D01*
Y641386D01*
Y641311D01*
Y641235D01*
Y641159D01*
Y641084D01*
Y641008D01*
Y640932D01*
Y640856D01*
Y640780D01*
Y640705D01*
Y640629D01*
Y640553D01*
Y640478D01*
Y640402D01*
Y640326D01*
Y640250D01*
Y640174D01*
Y640099D01*
Y640023D01*
Y639947D01*
Y639871D01*
Y639796D01*
Y639720D01*
Y639644D01*
Y639568D01*
Y639493D01*
Y639417D01*
Y639341D01*
Y639266D01*
Y639190D01*
Y639114D01*
Y639038D01*
Y638963D01*
Y638887D01*
Y638811D01*
Y638735D01*
Y638660D01*
Y638584D01*
Y638508D01*
Y638432D01*
Y638357D01*
Y638281D01*
Y638205D01*
Y638129D01*
Y638054D01*
Y637978D01*
Y637902D01*
Y637826D01*
Y637751D01*
X1152452D01*
Y637826D01*
Y637902D01*
Y637978D01*
Y638054D01*
Y638129D01*
Y638205D01*
Y638281D01*
Y638357D01*
Y638432D01*
Y638508D01*
Y638584D01*
Y638660D01*
Y638735D01*
Y638811D01*
Y638887D01*
Y638963D01*
Y639038D01*
Y639114D01*
Y639190D01*
Y639266D01*
Y639341D01*
Y639417D01*
Y639493D01*
Y639568D01*
Y639644D01*
Y639720D01*
Y639796D01*
Y639871D01*
Y639947D01*
Y640023D01*
Y640099D01*
Y640174D01*
Y640250D01*
Y640326D01*
Y640402D01*
Y640478D01*
Y640553D01*
Y640629D01*
Y640705D01*
Y640780D01*
Y640856D01*
Y640932D01*
Y641008D01*
Y641084D01*
Y641159D01*
Y641235D01*
Y641311D01*
Y641386D01*
Y641462D01*
Y641538D01*
Y641614D01*
Y641690D01*
Y641765D01*
Y641841D01*
Y641917D01*
Y641992D01*
Y642068D01*
Y642144D01*
Y642220D01*
Y642296D01*
Y642371D01*
Y642447D01*
Y642523D01*
Y642598D01*
Y642674D01*
Y642750D01*
Y642826D01*
Y642902D01*
Y642977D01*
Y643053D01*
Y643129D01*
Y643204D01*
Y643280D01*
Y643356D01*
Y643432D01*
Y643508D01*
Y643583D01*
Y643659D01*
Y643735D01*
X1153588D01*
Y643659D01*
Y643583D01*
Y643508D01*
Y643432D01*
Y643356D01*
Y643280D01*
Y643204D01*
Y643129D01*
Y643053D01*
X1153739D01*
Y643129D01*
X1153815D01*
Y643204D01*
X1153891D01*
Y643280D01*
X1153967D01*
Y643356D01*
X1154042D01*
Y643432D01*
X1154118D01*
Y643508D01*
X1154270D01*
Y643583D01*
X1154421D01*
Y643659D01*
X1154648D01*
Y643735D01*
X1155027D01*
Y643811D01*
X1155482D01*
Y643735D01*
D02*
G37*
G36*
X1170404Y643659D02*
Y643583D01*
Y643508D01*
X1170328D01*
Y643432D01*
Y643356D01*
Y643280D01*
X1170253D01*
Y643204D01*
Y643129D01*
Y643053D01*
X1170177D01*
Y642977D01*
Y642902D01*
Y642826D01*
X1170101D01*
Y642750D01*
Y642674D01*
Y642598D01*
X1170025D01*
Y642523D01*
Y642447D01*
Y642371D01*
X1169950D01*
Y642296D01*
Y642220D01*
Y642144D01*
Y642068D01*
X1169874D01*
Y641992D01*
Y641917D01*
Y641841D01*
X1169798D01*
Y641765D01*
Y641690D01*
Y641614D01*
X1169722D01*
Y641538D01*
Y641462D01*
Y641386D01*
X1169647D01*
Y641311D01*
Y641235D01*
Y641159D01*
X1169571D01*
Y641084D01*
Y641008D01*
Y640932D01*
X1169495D01*
Y640856D01*
Y640780D01*
Y640705D01*
X1169419D01*
Y640629D01*
Y640553D01*
Y640478D01*
Y640402D01*
X1169344D01*
Y640326D01*
Y640250D01*
Y640174D01*
X1169268D01*
Y640099D01*
Y640023D01*
Y639947D01*
X1169192D01*
Y639871D01*
Y639796D01*
Y639720D01*
X1169116D01*
Y639644D01*
Y639568D01*
Y639493D01*
X1169041D01*
Y639417D01*
Y639341D01*
Y639266D01*
X1168965D01*
Y639190D01*
Y639114D01*
Y639038D01*
X1168889D01*
Y638963D01*
Y638887D01*
Y638811D01*
X1168813D01*
Y638735D01*
Y638660D01*
Y638584D01*
Y638508D01*
X1168738D01*
Y638432D01*
Y638357D01*
Y638281D01*
X1168662D01*
Y638205D01*
Y638129D01*
Y638054D01*
X1168586D01*
Y637978D01*
Y637902D01*
Y637826D01*
X1168510D01*
Y637751D01*
X1167526D01*
Y637826D01*
Y637902D01*
X1167450D01*
Y637978D01*
Y638054D01*
Y638129D01*
Y638205D01*
X1167374D01*
Y638281D01*
Y638357D01*
Y638432D01*
X1167298D01*
Y638508D01*
Y638584D01*
Y638660D01*
X1167223D01*
Y638735D01*
Y638811D01*
Y638887D01*
Y638963D01*
X1167147D01*
Y639038D01*
Y639114D01*
Y639190D01*
X1167071D01*
Y639266D01*
Y639341D01*
Y639417D01*
X1166995D01*
Y639493D01*
Y639568D01*
Y639644D01*
Y639720D01*
X1166920D01*
Y639796D01*
Y639871D01*
Y639947D01*
X1166844D01*
Y640023D01*
Y640099D01*
Y640174D01*
X1166768D01*
Y640250D01*
Y640326D01*
Y640402D01*
Y640478D01*
X1166692D01*
Y640553D01*
Y640629D01*
Y640705D01*
X1166617D01*
Y640780D01*
Y640856D01*
Y640932D01*
X1166541D01*
Y641008D01*
Y641084D01*
Y641159D01*
Y641235D01*
X1166465D01*
Y641311D01*
Y641386D01*
Y641462D01*
X1166389D01*
Y641538D01*
Y641614D01*
Y641690D01*
X1166314D01*
Y641765D01*
Y641841D01*
Y641917D01*
Y641992D01*
X1166162D01*
Y641917D01*
Y641841D01*
Y641765D01*
X1166086D01*
Y641690D01*
Y641614D01*
Y641538D01*
X1166011D01*
Y641462D01*
Y641386D01*
Y641311D01*
X1165935D01*
Y641235D01*
Y641159D01*
Y641084D01*
Y641008D01*
X1165859D01*
Y640932D01*
Y640856D01*
Y640780D01*
X1165783D01*
Y640705D01*
Y640629D01*
Y640553D01*
X1165708D01*
Y640478D01*
Y640402D01*
Y640326D01*
Y640250D01*
X1165632D01*
Y640174D01*
Y640099D01*
Y640023D01*
X1165556D01*
Y639947D01*
Y639871D01*
Y639796D01*
X1165480D01*
Y639720D01*
Y639644D01*
Y639568D01*
Y639493D01*
X1165405D01*
Y639417D01*
Y639341D01*
Y639266D01*
X1165329D01*
Y639190D01*
Y639114D01*
Y639038D01*
Y638963D01*
X1165253D01*
Y638887D01*
Y638811D01*
Y638735D01*
X1165177D01*
Y638660D01*
Y638584D01*
Y638508D01*
X1165102D01*
Y638432D01*
Y638357D01*
Y638281D01*
Y638205D01*
X1165026D01*
Y638129D01*
Y638054D01*
Y637978D01*
X1164950D01*
Y637902D01*
Y637826D01*
Y637751D01*
X1163890D01*
Y637826D01*
Y637902D01*
Y637978D01*
X1163814D01*
Y638054D01*
Y638129D01*
Y638205D01*
Y638281D01*
X1163738D01*
Y638357D01*
Y638432D01*
Y638508D01*
X1163662D01*
Y638584D01*
Y638660D01*
Y638735D01*
X1163587D01*
Y638811D01*
Y638887D01*
Y638963D01*
X1163511D01*
Y639038D01*
Y639114D01*
Y639190D01*
X1163435D01*
Y639266D01*
Y639341D01*
Y639417D01*
X1163359D01*
Y639493D01*
Y639568D01*
Y639644D01*
X1163284D01*
Y639720D01*
Y639796D01*
Y639871D01*
Y639947D01*
X1163208D01*
Y640023D01*
Y640099D01*
Y640174D01*
X1163132D01*
Y640250D01*
Y640326D01*
Y640402D01*
X1163056D01*
Y640478D01*
Y640553D01*
Y640629D01*
X1162981D01*
Y640705D01*
Y640780D01*
Y640856D01*
X1162905D01*
Y640932D01*
Y641008D01*
Y641084D01*
X1162829D01*
Y641159D01*
Y641235D01*
Y641311D01*
X1162754D01*
Y641386D01*
Y641462D01*
Y641538D01*
X1162678D01*
Y641614D01*
Y641690D01*
Y641765D01*
Y641841D01*
X1162602D01*
Y641917D01*
Y641992D01*
Y642068D01*
X1162526D01*
Y642144D01*
Y642220D01*
Y642296D01*
X1162450D01*
Y642371D01*
Y642447D01*
Y642523D01*
X1162375D01*
Y642598D01*
Y642674D01*
Y642750D01*
X1162299D01*
Y642826D01*
Y642902D01*
Y642977D01*
X1162223D01*
Y643053D01*
Y643129D01*
Y643204D01*
X1162148D01*
Y643280D01*
Y643356D01*
Y643432D01*
Y643508D01*
X1162072D01*
Y643583D01*
Y643659D01*
Y643735D01*
X1163208D01*
Y643659D01*
X1163284D01*
Y643583D01*
Y643508D01*
Y643432D01*
Y643356D01*
X1163359D01*
Y643280D01*
Y643204D01*
Y643129D01*
Y643053D01*
X1163435D01*
Y642977D01*
Y642902D01*
Y642826D01*
X1163511D01*
Y642750D01*
Y642674D01*
Y642598D01*
Y642523D01*
X1163587D01*
Y642447D01*
Y642371D01*
Y642296D01*
Y642220D01*
X1163662D01*
Y642144D01*
Y642068D01*
Y641992D01*
X1163738D01*
Y641917D01*
Y641841D01*
Y641765D01*
Y641690D01*
X1163814D01*
Y641614D01*
Y641538D01*
Y641462D01*
Y641386D01*
X1163890D01*
Y641311D01*
Y641235D01*
Y641159D01*
X1163965D01*
Y641084D01*
Y641008D01*
Y640932D01*
Y640856D01*
X1164041D01*
Y640780D01*
Y640705D01*
Y640629D01*
Y640553D01*
X1164117D01*
Y640478D01*
Y640402D01*
Y640326D01*
X1164193D01*
Y640250D01*
Y640174D01*
Y640099D01*
Y640023D01*
X1164268D01*
Y639947D01*
Y639871D01*
Y639796D01*
Y639720D01*
X1164344D01*
Y639644D01*
Y639568D01*
Y639493D01*
X1164496D01*
Y639568D01*
Y639644D01*
Y639720D01*
X1164571D01*
Y639796D01*
Y639871D01*
Y639947D01*
X1164647D01*
Y640023D01*
Y640099D01*
Y640174D01*
X1164723D01*
Y640250D01*
Y640326D01*
Y640402D01*
Y640478D01*
X1164799D01*
Y640553D01*
Y640629D01*
Y640705D01*
X1164874D01*
Y640780D01*
Y640856D01*
Y640932D01*
X1164950D01*
Y641008D01*
Y641084D01*
Y641159D01*
X1165026D01*
Y641235D01*
Y641311D01*
Y641386D01*
X1165102D01*
Y641462D01*
Y641538D01*
Y641614D01*
X1165177D01*
Y641690D01*
Y641765D01*
Y641841D01*
X1165253D01*
Y641917D01*
Y641992D01*
Y642068D01*
X1165329D01*
Y642144D01*
Y642220D01*
Y642296D01*
X1165405D01*
Y642371D01*
Y642447D01*
Y642523D01*
X1165480D01*
Y642598D01*
Y642674D01*
Y642750D01*
X1165556D01*
Y642826D01*
Y642902D01*
Y642977D01*
Y643053D01*
X1165632D01*
Y643129D01*
Y643204D01*
Y643280D01*
X1165708D01*
Y643356D01*
Y643432D01*
Y643508D01*
X1165783D01*
Y643583D01*
Y643659D01*
Y643735D01*
X1166617D01*
Y643659D01*
X1166692D01*
Y643583D01*
Y643508D01*
Y643432D01*
X1166768D01*
Y643356D01*
Y643280D01*
Y643204D01*
X1166844D01*
Y643129D01*
Y643053D01*
Y642977D01*
X1166920D01*
Y642902D01*
Y642826D01*
Y642750D01*
X1166995D01*
Y642674D01*
Y642598D01*
Y642523D01*
X1167071D01*
Y642447D01*
Y642371D01*
Y642296D01*
X1167147D01*
Y642220D01*
Y642144D01*
Y642068D01*
Y641992D01*
X1167223D01*
Y641917D01*
Y641841D01*
Y641765D01*
X1167298D01*
Y641690D01*
Y641614D01*
Y641538D01*
X1167374D01*
Y641462D01*
Y641386D01*
Y641311D01*
X1167450D01*
Y641235D01*
Y641159D01*
Y641084D01*
X1167526D01*
Y641008D01*
Y640932D01*
Y640856D01*
X1167601D01*
Y640780D01*
Y640705D01*
Y640629D01*
X1167677D01*
Y640553D01*
Y640478D01*
Y640402D01*
X1167753D01*
Y640326D01*
Y640250D01*
Y640174D01*
X1167829D01*
Y640099D01*
Y640023D01*
Y639947D01*
X1167904D01*
Y639871D01*
Y639796D01*
Y639720D01*
X1167980D01*
Y639644D01*
Y639568D01*
Y639493D01*
X1168056D01*
Y639568D01*
X1168132D01*
Y639644D01*
Y639720D01*
Y639796D01*
X1168207D01*
Y639871D01*
Y639947D01*
Y640023D01*
Y640099D01*
X1168283D01*
Y640174D01*
Y640250D01*
Y640326D01*
Y640402D01*
X1168359D01*
Y640478D01*
Y640553D01*
Y640629D01*
X1168435D01*
Y640705D01*
Y640780D01*
Y640856D01*
Y640932D01*
X1168510D01*
Y641008D01*
Y641084D01*
Y641159D01*
Y641235D01*
X1168586D01*
Y641311D01*
Y641386D01*
Y641462D01*
X1168662D01*
Y641538D01*
Y641614D01*
Y641690D01*
Y641765D01*
X1168738D01*
Y641841D01*
Y641917D01*
Y641992D01*
Y642068D01*
X1168813D01*
Y642144D01*
Y642220D01*
Y642296D01*
X1168889D01*
Y642371D01*
Y642447D01*
Y642523D01*
Y642598D01*
X1168965D01*
Y642674D01*
Y642750D01*
Y642826D01*
Y642902D01*
X1169041D01*
Y642977D01*
Y643053D01*
Y643129D01*
X1169116D01*
Y643204D01*
Y643280D01*
Y643356D01*
Y643432D01*
X1169192D01*
Y643508D01*
Y643583D01*
Y643659D01*
Y643735D01*
X1170404D01*
Y643659D01*
D02*
G37*
G36*
X1183509Y643735D02*
X1183963D01*
Y643659D01*
X1184190D01*
Y643583D01*
X1184342D01*
Y643508D01*
X1184493D01*
Y643432D01*
X1184645D01*
Y643356D01*
X1184721D01*
Y643280D01*
X1184872D01*
Y643204D01*
X1184948D01*
Y643129D01*
X1185024D01*
Y643053D01*
X1185099D01*
Y642977D01*
X1185175D01*
Y642902D01*
Y642826D01*
X1185251D01*
Y642750D01*
X1185327D01*
Y642674D01*
X1185402D01*
Y642598D01*
Y642523D01*
X1185478D01*
Y642447D01*
Y642371D01*
X1185554D01*
Y642296D01*
Y642220D01*
Y642144D01*
X1185630D01*
Y642068D01*
Y641992D01*
Y641917D01*
X1185705D01*
Y641841D01*
Y641765D01*
Y641690D01*
Y641614D01*
Y641538D01*
Y641462D01*
Y641386D01*
Y641311D01*
Y641235D01*
Y641159D01*
Y641084D01*
Y641008D01*
Y640932D01*
Y640856D01*
Y640780D01*
Y640705D01*
Y640629D01*
Y640553D01*
Y640478D01*
Y640402D01*
Y640326D01*
X1181994D01*
Y640250D01*
Y640174D01*
Y640099D01*
Y640023D01*
Y639947D01*
Y639871D01*
X1182069D01*
Y639796D01*
Y639720D01*
Y639644D01*
X1182145D01*
Y639568D01*
Y639493D01*
X1182221D01*
Y639417D01*
Y639341D01*
X1182297D01*
Y639266D01*
X1182372D01*
Y639190D01*
Y639114D01*
X1182524D01*
Y639038D01*
X1182600D01*
Y638963D01*
X1182751D01*
Y638887D01*
X1182978D01*
Y638811D01*
X1183963D01*
Y638887D01*
X1184190D01*
Y638963D01*
X1184342D01*
Y639038D01*
X1184418D01*
Y639114D01*
X1184569D01*
Y639190D01*
X1184645D01*
Y639266D01*
X1184721D01*
Y639341D01*
X1184796D01*
Y639266D01*
X1184872D01*
Y639190D01*
X1185024D01*
Y639114D01*
X1185099D01*
Y639038D01*
X1185175D01*
Y638963D01*
X1185251D01*
Y638887D01*
X1185327D01*
Y638811D01*
X1185402D01*
Y638735D01*
X1185554D01*
Y638660D01*
Y638584D01*
X1185478D01*
Y638508D01*
X1185402D01*
Y638432D01*
X1185327D01*
Y638357D01*
X1185251D01*
Y638281D01*
X1185175D01*
Y638205D01*
X1185024D01*
Y638129D01*
X1184872D01*
Y638054D01*
X1184721D01*
Y637978D01*
X1184645D01*
Y637902D01*
X1184342D01*
Y637826D01*
X1184115D01*
Y637751D01*
X1182827D01*
Y637826D01*
X1182524D01*
Y637902D01*
X1182372D01*
Y637978D01*
X1182145D01*
Y638054D01*
X1182069D01*
Y638129D01*
X1181918D01*
Y638205D01*
X1181842D01*
Y638281D01*
X1181691D01*
Y638357D01*
X1181615D01*
Y638432D01*
Y638508D01*
X1181539D01*
Y638584D01*
X1181463D01*
Y638660D01*
X1181388D01*
Y638735D01*
X1181312D01*
Y638811D01*
Y638887D01*
X1181236D01*
Y638963D01*
Y639038D01*
X1181160D01*
Y639114D01*
Y639190D01*
X1181085D01*
Y639266D01*
Y639341D01*
Y639417D01*
X1181009D01*
Y639493D01*
Y639568D01*
Y639644D01*
Y639720D01*
X1180933D01*
Y639796D01*
Y639871D01*
Y639947D01*
Y640023D01*
Y640099D01*
Y640174D01*
Y640250D01*
X1180857D01*
Y640326D01*
Y640402D01*
Y640478D01*
Y640553D01*
Y640629D01*
Y640705D01*
Y640780D01*
Y640856D01*
Y640932D01*
Y641008D01*
Y641084D01*
Y641159D01*
Y641235D01*
Y641311D01*
X1180933D01*
Y641386D01*
Y641462D01*
Y641538D01*
Y641614D01*
Y641690D01*
Y641765D01*
X1181009D01*
Y641841D01*
Y641917D01*
Y641992D01*
Y642068D01*
X1181085D01*
Y642144D01*
Y642220D01*
Y642296D01*
X1181160D01*
Y642371D01*
Y642447D01*
X1181236D01*
Y642523D01*
Y642598D01*
X1181312D01*
Y642674D01*
Y642750D01*
X1181388D01*
Y642826D01*
X1181463D01*
Y642902D01*
X1181539D01*
Y642977D01*
Y643053D01*
X1181615D01*
Y643129D01*
X1181691D01*
Y643204D01*
X1181766D01*
Y643280D01*
X1181918D01*
Y643356D01*
X1181994D01*
Y643432D01*
X1182069D01*
Y643508D01*
X1182221D01*
Y643583D01*
X1182448D01*
Y643659D01*
X1182675D01*
Y643735D01*
X1183054D01*
Y643811D01*
X1183509D01*
Y643735D01*
D02*
G37*
G36*
X1173358D02*
X1173888D01*
Y643659D01*
X1174116D01*
Y643583D01*
X1174343D01*
Y643508D01*
X1174494D01*
Y643432D01*
X1174646D01*
Y643356D01*
X1174722D01*
Y643280D01*
X1174798D01*
Y643204D01*
X1174873D01*
Y643129D01*
X1174949D01*
Y643053D01*
X1175025D01*
Y642977D01*
X1175100D01*
Y642902D01*
Y642826D01*
X1175176D01*
Y642750D01*
Y642674D01*
X1175252D01*
Y642598D01*
Y642523D01*
Y642447D01*
X1175328D01*
Y642371D01*
Y642296D01*
Y642220D01*
Y642144D01*
Y642068D01*
Y641992D01*
X1175404D01*
Y641917D01*
Y641841D01*
Y641765D01*
Y641690D01*
Y641614D01*
Y641538D01*
Y641462D01*
Y641386D01*
Y641311D01*
Y641235D01*
Y641159D01*
Y641084D01*
Y641008D01*
Y640932D01*
Y640856D01*
Y640780D01*
Y640705D01*
Y640629D01*
Y640553D01*
Y640478D01*
Y640402D01*
Y640326D01*
Y640250D01*
Y640174D01*
Y640099D01*
Y640023D01*
Y639947D01*
Y639871D01*
Y639796D01*
Y639720D01*
Y639644D01*
Y639568D01*
Y639493D01*
Y639417D01*
Y639341D01*
Y639266D01*
Y639190D01*
Y639114D01*
Y639038D01*
Y638963D01*
Y638887D01*
Y638811D01*
Y638735D01*
Y638660D01*
Y638584D01*
Y638508D01*
Y638432D01*
Y638357D01*
Y638281D01*
Y638205D01*
Y638129D01*
Y638054D01*
Y637978D01*
Y637902D01*
Y637826D01*
Y637751D01*
X1174267D01*
Y637826D01*
Y637902D01*
Y637978D01*
Y638054D01*
Y638129D01*
Y638205D01*
Y638281D01*
X1174116D01*
Y638205D01*
X1174040D01*
Y638129D01*
X1173964D01*
Y638054D01*
X1173888D01*
Y637978D01*
X1173737D01*
Y637902D01*
X1173661D01*
Y637826D01*
X1173358D01*
Y637751D01*
X1172071D01*
Y637826D01*
X1171768D01*
Y637902D01*
X1171616D01*
Y637978D01*
X1171465D01*
Y638054D01*
X1171389D01*
Y638129D01*
X1171237D01*
Y638205D01*
X1171162D01*
Y638281D01*
X1171086D01*
Y638357D01*
X1171010D01*
Y638432D01*
X1170934D01*
Y638508D01*
Y638584D01*
X1170859D01*
Y638660D01*
Y638735D01*
X1170783D01*
Y638811D01*
X1170707D01*
Y638887D01*
Y638963D01*
Y639038D01*
Y639114D01*
X1170631D01*
Y639190D01*
Y639266D01*
Y639341D01*
Y639417D01*
Y639493D01*
Y639568D01*
Y639644D01*
Y639720D01*
Y639796D01*
Y639871D01*
Y639947D01*
X1170707D01*
Y640023D01*
Y640099D01*
Y640174D01*
X1170783D01*
Y640250D01*
Y640326D01*
X1170859D01*
Y640402D01*
Y640478D01*
X1170934D01*
Y640553D01*
X1171010D01*
Y640629D01*
X1171086D01*
Y640705D01*
Y640780D01*
X1171237D01*
Y640856D01*
X1171313D01*
Y640932D01*
X1171389D01*
Y641008D01*
X1171540D01*
Y641084D01*
X1171768D01*
Y641159D01*
X1171995D01*
Y641235D01*
X1174267D01*
Y641311D01*
Y641386D01*
Y641462D01*
Y641538D01*
Y641614D01*
Y641690D01*
Y641765D01*
Y641841D01*
Y641917D01*
Y641992D01*
Y642068D01*
X1174192D01*
Y642144D01*
Y642220D01*
Y642296D01*
X1174116D01*
Y642371D01*
Y642447D01*
X1174040D01*
Y642523D01*
X1173888D01*
Y642598D01*
X1173661D01*
Y642674D01*
X1173207D01*
Y642750D01*
X1172677D01*
Y642674D01*
X1172298D01*
Y642598D01*
X1172146D01*
Y642523D01*
X1171995D01*
Y642447D01*
X1171919D01*
Y642371D01*
X1171843D01*
Y642296D01*
X1171768D01*
Y642371D01*
X1171692D01*
Y642447D01*
X1171540D01*
Y642523D01*
X1171465D01*
Y642598D01*
X1171389D01*
Y642674D01*
X1171237D01*
Y642750D01*
X1171162D01*
Y642826D01*
X1171086D01*
Y642902D01*
X1171010D01*
Y642977D01*
Y643053D01*
X1171086D01*
Y643129D01*
X1171162D01*
Y643204D01*
X1171237D01*
Y643280D01*
X1171313D01*
Y643356D01*
X1171389D01*
Y643432D01*
X1171540D01*
Y643508D01*
X1171692D01*
Y643583D01*
X1171843D01*
Y643659D01*
X1172146D01*
Y643735D01*
X1172677D01*
Y643811D01*
X1173358D01*
Y643735D01*
D02*
G37*
G36*
X1149043D02*
X1149573D01*
Y643659D01*
X1149800D01*
Y643583D01*
X1150028D01*
Y643508D01*
X1150179D01*
Y643432D01*
X1150331D01*
Y643356D01*
X1150406D01*
Y643280D01*
X1150558D01*
Y643204D01*
X1150634D01*
Y643129D01*
X1150709D01*
Y643053D01*
Y642977D01*
X1150785D01*
Y642902D01*
X1150861D01*
Y642826D01*
Y642750D01*
X1150937D01*
Y642674D01*
Y642598D01*
Y642523D01*
X1151012D01*
Y642447D01*
Y642371D01*
Y642296D01*
Y642220D01*
X1151088D01*
Y642144D01*
Y642068D01*
Y641992D01*
Y641917D01*
Y641841D01*
Y641765D01*
Y641690D01*
Y641614D01*
Y641538D01*
Y641462D01*
Y641386D01*
Y641311D01*
Y641235D01*
Y641159D01*
Y641084D01*
Y641008D01*
Y640932D01*
Y640856D01*
Y640780D01*
Y640705D01*
Y640629D01*
Y640553D01*
Y640478D01*
Y640402D01*
Y640326D01*
Y640250D01*
Y640174D01*
Y640099D01*
Y640023D01*
Y639947D01*
Y639871D01*
Y639796D01*
Y639720D01*
Y639644D01*
Y639568D01*
Y639493D01*
Y639417D01*
Y639341D01*
Y639266D01*
Y639190D01*
Y639114D01*
Y639038D01*
Y638963D01*
Y638887D01*
Y638811D01*
Y638735D01*
Y638660D01*
Y638584D01*
Y638508D01*
Y638432D01*
Y638357D01*
Y638281D01*
Y638205D01*
Y638129D01*
Y638054D01*
Y637978D01*
Y637902D01*
Y637826D01*
Y637751D01*
X1149952D01*
Y637826D01*
Y637902D01*
Y637978D01*
Y638054D01*
Y638129D01*
Y638205D01*
Y638281D01*
X1149800D01*
Y638205D01*
X1149725D01*
Y638129D01*
X1149649D01*
Y638054D01*
X1149573D01*
Y637978D01*
X1149497D01*
Y637902D01*
X1149346D01*
Y637826D01*
X1149119D01*
Y637751D01*
X1147755D01*
Y637826D01*
X1147528D01*
Y637902D01*
X1147301D01*
Y637978D01*
X1147149D01*
Y638054D01*
X1147073D01*
Y638129D01*
X1146998D01*
Y638205D01*
X1146846D01*
Y638281D01*
X1146770D01*
Y638357D01*
Y638432D01*
X1146695D01*
Y638508D01*
X1146619D01*
Y638584D01*
X1146543D01*
Y638660D01*
Y638735D01*
X1146467D01*
Y638811D01*
Y638887D01*
X1146392D01*
Y638963D01*
Y639038D01*
Y639114D01*
Y639190D01*
X1146316D01*
Y639266D01*
Y639341D01*
Y639417D01*
Y639493D01*
Y639568D01*
Y639644D01*
Y639720D01*
Y639796D01*
Y639871D01*
X1146392D01*
Y639947D01*
Y640023D01*
Y640099D01*
X1146467D01*
Y640174D01*
Y640250D01*
Y640326D01*
X1146543D01*
Y640402D01*
Y640478D01*
X1146619D01*
Y640553D01*
X1146695D01*
Y640629D01*
X1146770D01*
Y640705D01*
X1146846D01*
Y640780D01*
X1146922D01*
Y640856D01*
X1146998D01*
Y640932D01*
X1147149D01*
Y641008D01*
X1147301D01*
Y641084D01*
X1147452D01*
Y641159D01*
X1147755D01*
Y641235D01*
X1149952D01*
Y641311D01*
Y641386D01*
Y641462D01*
Y641538D01*
Y641614D01*
Y641690D01*
Y641765D01*
Y641841D01*
Y641917D01*
Y641992D01*
Y642068D01*
Y642144D01*
Y642220D01*
X1149876D01*
Y642296D01*
Y642371D01*
X1149800D01*
Y642447D01*
X1149725D01*
Y642523D01*
X1149649D01*
Y642598D01*
X1149422D01*
Y642674D01*
X1148891D01*
Y642750D01*
X1148437D01*
Y642674D01*
X1147982D01*
Y642598D01*
X1147831D01*
Y642523D01*
X1147679D01*
Y642447D01*
X1147604D01*
Y642371D01*
Y642296D01*
X1147452D01*
Y642371D01*
X1147376D01*
Y642447D01*
X1147301D01*
Y642523D01*
X1147149D01*
Y642598D01*
X1147073D01*
Y642674D01*
X1146998D01*
Y642750D01*
X1146846D01*
Y642826D01*
X1146770D01*
Y642902D01*
X1146695D01*
Y642977D01*
Y643053D01*
X1146770D01*
Y643129D01*
X1146846D01*
Y643204D01*
X1146922D01*
Y643280D01*
X1146998D01*
Y643356D01*
X1147073D01*
Y643432D01*
X1147225D01*
Y643508D01*
X1147376D01*
Y643583D01*
X1147528D01*
Y643659D01*
X1147831D01*
Y643735D01*
X1148361D01*
Y643811D01*
X1149043D01*
Y643735D01*
D02*
G37*
%LPC*%
G36*
X1143437Y652143D02*
X1142604D01*
Y652067D01*
X1142453D01*
Y651991D01*
X1142301D01*
Y651916D01*
X1142225D01*
Y651840D01*
X1142150D01*
Y651764D01*
X1142074D01*
Y651688D01*
Y651613D01*
X1141998D01*
Y651537D01*
Y651461D01*
X1141923D01*
Y651385D01*
Y651310D01*
Y651234D01*
X1141847D01*
Y651158D01*
Y651082D01*
Y651007D01*
Y650931D01*
Y650855D01*
Y650779D01*
Y650704D01*
Y650628D01*
Y650552D01*
Y650476D01*
Y650401D01*
Y650325D01*
Y650249D01*
Y650173D01*
Y650098D01*
Y650022D01*
Y649946D01*
Y649870D01*
Y649795D01*
Y649719D01*
Y649643D01*
Y649567D01*
Y649492D01*
Y649416D01*
Y649340D01*
Y649264D01*
X1141923D01*
Y649189D01*
Y649113D01*
Y649037D01*
X1141998D01*
Y648961D01*
Y648886D01*
X1142074D01*
Y648810D01*
Y648734D01*
X1142150D01*
Y648658D01*
X1142225D01*
Y648583D01*
X1142301D01*
Y648507D01*
X1142453D01*
Y648431D01*
X1142604D01*
Y648355D01*
X1143437D01*
Y648431D01*
X1143665D01*
Y648507D01*
X1143740D01*
Y648583D01*
X1143892D01*
Y648658D01*
X1143968D01*
Y648734D01*
Y648810D01*
X1144044D01*
Y648886D01*
X1144119D01*
Y648961D01*
Y649037D01*
Y649113D01*
X1144195D01*
Y649189D01*
Y649264D01*
Y649340D01*
Y649416D01*
Y649492D01*
X1144271D01*
Y649567D01*
Y649643D01*
Y649719D01*
Y649795D01*
Y649870D01*
Y649946D01*
Y650022D01*
Y650098D01*
Y650173D01*
Y650249D01*
Y650325D01*
Y650401D01*
Y650476D01*
Y650552D01*
Y650628D01*
Y650704D01*
Y650779D01*
Y650855D01*
Y650931D01*
Y651007D01*
X1144195D01*
Y651082D01*
Y651158D01*
Y651234D01*
Y651310D01*
Y651385D01*
X1144119D01*
Y651461D01*
Y651537D01*
Y651613D01*
X1144044D01*
Y651688D01*
X1143968D01*
Y651764D01*
Y651840D01*
X1143892D01*
Y651916D01*
X1143740D01*
Y651991D01*
X1143665D01*
Y652067D01*
X1143437D01*
Y652143D01*
D02*
G37*
G36*
X1190175Y652219D02*
X1189493D01*
Y652143D01*
X1189266D01*
Y652067D01*
X1189114D01*
Y651991D01*
X1189038D01*
Y651916D01*
X1188887D01*
Y651840D01*
Y651764D01*
X1188811D01*
Y651688D01*
X1188735D01*
Y651613D01*
Y651537D01*
X1188660D01*
Y651461D01*
Y651385D01*
X1188584D01*
Y651310D01*
Y651234D01*
Y651158D01*
X1188508D01*
Y651082D01*
Y651007D01*
Y650931D01*
Y650855D01*
Y650779D01*
X1191084D01*
Y650855D01*
Y650931D01*
Y651007D01*
Y651082D01*
Y651158D01*
Y651234D01*
Y651310D01*
X1191008D01*
Y651385D01*
Y651461D01*
X1190932D01*
Y651537D01*
Y651613D01*
Y651688D01*
X1190856D01*
Y651764D01*
X1190781D01*
Y651840D01*
X1190705D01*
Y651916D01*
X1190629D01*
Y651991D01*
X1190553D01*
Y652067D01*
X1190402D01*
Y652143D01*
X1190175D01*
Y652219D01*
D02*
G37*
G36*
X1168965Y652143D02*
X1168207D01*
Y652067D01*
X1168056D01*
Y651991D01*
X1167904D01*
Y651916D01*
X1167753D01*
Y651840D01*
X1167677D01*
Y651764D01*
X1167601D01*
Y651688D01*
Y651613D01*
X1167526D01*
Y651537D01*
X1167450D01*
Y651461D01*
Y651385D01*
Y651310D01*
X1167374D01*
Y651234D01*
Y651158D01*
Y651082D01*
Y651007D01*
X1167298D01*
Y650931D01*
Y650855D01*
Y650779D01*
Y650704D01*
Y650628D01*
Y650552D01*
Y650476D01*
Y650401D01*
Y650325D01*
Y650249D01*
Y650173D01*
Y650098D01*
Y650022D01*
Y649946D01*
Y649870D01*
Y649795D01*
Y649719D01*
Y649643D01*
Y649567D01*
Y649492D01*
X1167374D01*
Y649416D01*
Y649340D01*
Y649264D01*
Y649189D01*
X1167450D01*
Y649113D01*
Y649037D01*
Y648961D01*
X1167526D01*
Y648886D01*
X1167601D01*
Y648810D01*
Y648734D01*
X1167677D01*
Y648658D01*
X1167753D01*
Y648583D01*
X1167904D01*
Y648507D01*
X1167980D01*
Y648431D01*
X1168207D01*
Y648355D01*
X1168965D01*
Y648431D01*
X1169192D01*
Y648507D01*
X1169344D01*
Y648583D01*
X1169419D01*
Y648658D01*
X1169495D01*
Y648734D01*
X1169571D01*
Y648810D01*
X1169647D01*
Y648886D01*
X1169722D01*
Y648961D01*
Y649037D01*
X1169798D01*
Y649113D01*
Y649189D01*
Y649264D01*
X1169874D01*
Y649340D01*
Y649416D01*
Y649492D01*
Y649567D01*
Y649643D01*
Y649719D01*
Y649795D01*
Y649870D01*
Y649946D01*
Y650022D01*
Y650098D01*
Y650173D01*
Y650249D01*
Y650325D01*
Y650401D01*
Y650476D01*
Y650552D01*
Y650628D01*
Y650704D01*
Y650779D01*
Y650855D01*
Y650931D01*
Y651007D01*
Y651082D01*
Y651158D01*
Y651234D01*
X1169798D01*
Y651310D01*
Y651385D01*
Y651461D01*
X1169722D01*
Y651537D01*
Y651613D01*
X1169647D01*
Y651688D01*
X1169571D01*
Y651764D01*
X1169495D01*
Y651840D01*
X1169419D01*
Y651916D01*
X1169344D01*
Y651991D01*
X1169192D01*
Y652067D01*
X1168965D01*
Y652143D01*
D02*
G37*
G36*
X1149043Y652219D02*
X1148361D01*
Y652143D01*
X1148134D01*
Y652067D01*
X1147982D01*
Y651991D01*
X1147907D01*
Y651916D01*
X1147831D01*
Y651840D01*
X1147755D01*
Y651764D01*
X1147679D01*
Y651688D01*
Y651613D01*
X1147604D01*
Y651537D01*
Y651461D01*
X1147528D01*
Y651385D01*
Y651310D01*
Y651234D01*
X1147452D01*
Y651158D01*
Y651082D01*
Y651007D01*
Y650931D01*
Y650855D01*
Y650779D01*
X1150028D01*
Y650855D01*
Y650931D01*
Y651007D01*
Y651082D01*
Y651158D01*
X1149952D01*
Y651234D01*
Y651310D01*
Y651385D01*
Y651461D01*
X1149876D01*
Y651537D01*
Y651613D01*
X1149800D01*
Y651688D01*
X1149725D01*
Y651764D01*
Y651840D01*
X1149649D01*
Y651916D01*
X1149573D01*
Y651991D01*
X1149422D01*
Y652067D01*
X1149270D01*
Y652143D01*
X1149043D01*
Y652219D01*
D02*
G37*
G36*
X1137453Y652143D02*
X1136771D01*
Y652067D01*
X1136544D01*
Y651991D01*
X1136393D01*
Y651916D01*
X1136317D01*
Y651840D01*
X1136241D01*
Y651764D01*
X1136165D01*
Y651688D01*
X1136090D01*
Y651613D01*
X1136014D01*
Y651537D01*
Y651461D01*
X1135938D01*
Y651385D01*
Y651310D01*
Y651234D01*
X1135863D01*
Y651158D01*
Y651082D01*
Y651007D01*
Y650931D01*
Y650855D01*
Y650779D01*
Y650704D01*
Y650628D01*
Y650552D01*
Y650476D01*
Y650401D01*
Y650325D01*
X1135787D01*
Y650249D01*
Y650173D01*
X1135863D01*
Y650098D01*
Y650022D01*
Y649946D01*
Y649870D01*
Y649795D01*
Y649719D01*
Y649643D01*
Y649567D01*
Y649492D01*
Y649416D01*
Y649340D01*
Y649264D01*
X1135938D01*
Y649189D01*
Y649113D01*
Y649037D01*
X1136014D01*
Y648961D01*
Y648886D01*
X1136090D01*
Y648810D01*
X1136165D01*
Y648734D01*
X1136241D01*
Y648658D01*
X1136317D01*
Y648583D01*
X1136393D01*
Y648507D01*
X1136544D01*
Y648431D01*
X1136771D01*
Y648355D01*
X1137529D01*
Y648431D01*
X1137756D01*
Y648507D01*
X1137832D01*
Y648583D01*
X1137984D01*
Y648658D01*
X1138059D01*
Y648734D01*
X1138135D01*
Y648810D01*
Y648886D01*
X1138211D01*
Y648961D01*
X1138287D01*
Y649037D01*
Y649113D01*
Y649189D01*
X1138362D01*
Y649264D01*
Y649340D01*
Y649416D01*
Y649492D01*
Y649567D01*
X1138438D01*
Y649643D01*
Y649719D01*
Y649795D01*
Y649870D01*
Y649946D01*
Y650022D01*
Y650098D01*
Y650173D01*
Y650249D01*
Y650325D01*
Y650401D01*
Y650476D01*
Y650552D01*
Y650628D01*
Y650704D01*
Y650779D01*
Y650855D01*
Y650931D01*
X1138362D01*
Y651007D01*
Y651082D01*
Y651158D01*
Y651234D01*
Y651310D01*
X1138287D01*
Y651385D01*
Y651461D01*
Y651537D01*
X1138211D01*
Y651613D01*
X1138135D01*
Y651688D01*
Y651764D01*
X1138059D01*
Y651840D01*
X1137984D01*
Y651916D01*
X1137832D01*
Y651991D01*
X1137681D01*
Y652067D01*
X1137453D01*
Y652143D01*
D02*
G37*
G36*
X1159118Y642674D02*
X1158739D01*
Y642598D01*
X1158436D01*
Y642523D01*
X1158208D01*
Y642447D01*
X1158133D01*
Y642371D01*
X1158057D01*
Y642296D01*
X1157981D01*
Y642220D01*
Y642144D01*
X1157906D01*
Y642068D01*
X1157830D01*
Y641992D01*
Y641917D01*
Y641841D01*
X1157754D01*
Y641765D01*
Y641690D01*
Y641614D01*
Y641538D01*
Y641462D01*
Y641386D01*
Y641311D01*
Y641235D01*
Y641159D01*
X1157678D01*
Y641084D01*
Y641008D01*
Y640932D01*
Y640856D01*
Y640780D01*
Y640705D01*
Y640629D01*
Y640553D01*
Y640478D01*
Y640402D01*
Y640326D01*
X1157754D01*
Y640250D01*
Y640174D01*
Y640099D01*
Y640023D01*
Y639947D01*
Y639871D01*
Y639796D01*
Y639720D01*
X1157830D01*
Y639644D01*
Y639568D01*
Y639493D01*
X1157906D01*
Y639417D01*
Y639341D01*
X1157981D01*
Y639266D01*
Y639190D01*
X1158057D01*
Y639114D01*
X1158133D01*
Y639038D01*
X1158284D01*
Y638963D01*
X1158436D01*
Y638887D01*
X1159420D01*
Y638963D01*
X1159572D01*
Y639038D01*
X1159648D01*
Y639114D01*
X1159799D01*
Y639190D01*
X1159875D01*
Y639266D01*
Y639341D01*
X1159951D01*
Y639417D01*
Y639493D01*
X1160026D01*
Y639568D01*
Y639644D01*
Y639720D01*
X1160102D01*
Y639796D01*
Y639871D01*
Y639947D01*
Y640023D01*
Y640099D01*
Y640174D01*
Y640250D01*
Y640326D01*
Y640402D01*
X1160178D01*
Y640478D01*
Y640553D01*
Y640629D01*
Y640705D01*
Y640780D01*
Y640856D01*
Y640932D01*
Y641008D01*
Y641084D01*
Y641159D01*
X1160102D01*
Y641235D01*
Y641311D01*
Y641386D01*
Y641462D01*
Y641538D01*
Y641614D01*
Y641690D01*
Y641765D01*
X1160026D01*
Y641841D01*
Y641917D01*
Y641992D01*
X1159951D01*
Y642068D01*
Y642144D01*
X1159875D01*
Y642220D01*
Y642296D01*
X1159799D01*
Y642371D01*
X1159724D01*
Y642447D01*
X1159648D01*
Y642523D01*
X1159420D01*
Y642598D01*
X1159118D01*
Y642674D01*
D02*
G37*
G36*
X1183509Y642750D02*
X1183130D01*
Y642674D01*
X1182751D01*
Y642598D01*
X1182600D01*
Y642523D01*
X1182524D01*
Y642447D01*
X1182448D01*
Y642371D01*
X1182372D01*
Y642296D01*
X1182297D01*
Y642220D01*
X1182221D01*
Y642144D01*
Y642068D01*
X1182145D01*
Y641992D01*
Y641917D01*
X1182069D01*
Y641841D01*
Y641765D01*
Y641690D01*
X1181994D01*
Y641614D01*
Y641538D01*
Y641462D01*
Y641386D01*
Y641311D01*
Y641235D01*
X1184569D01*
Y641311D01*
Y641386D01*
Y641462D01*
Y641538D01*
Y641614D01*
Y641690D01*
Y641765D01*
X1184493D01*
Y641841D01*
Y641917D01*
Y641992D01*
X1184418D01*
Y642068D01*
Y642144D01*
X1184342D01*
Y642220D01*
X1184266D01*
Y642296D01*
Y642371D01*
X1184190D01*
Y642447D01*
X1184039D01*
Y642523D01*
X1183963D01*
Y642598D01*
X1183812D01*
Y642674D01*
X1183509D01*
Y642750D01*
D02*
G37*
G36*
X1174267Y640326D02*
X1172374D01*
Y640250D01*
X1172146D01*
Y640174D01*
X1171919D01*
Y640099D01*
X1171843D01*
Y640023D01*
Y639947D01*
X1171768D01*
Y639871D01*
Y639796D01*
X1171692D01*
Y639720D01*
Y639644D01*
Y639568D01*
Y639493D01*
Y639417D01*
Y639341D01*
X1171768D01*
Y639266D01*
Y639190D01*
X1171843D01*
Y639114D01*
Y639038D01*
X1171995D01*
Y638963D01*
X1172071D01*
Y638887D01*
X1172298D01*
Y638811D01*
X1173661D01*
Y638887D01*
X1173888D01*
Y638963D01*
X1173964D01*
Y639038D01*
X1174040D01*
Y639114D01*
X1174116D01*
Y639190D01*
Y639266D01*
X1174192D01*
Y639341D01*
Y639417D01*
Y639493D01*
Y639568D01*
X1174267D01*
Y639644D01*
Y639720D01*
Y639796D01*
Y639871D01*
Y639947D01*
Y640023D01*
Y640099D01*
Y640174D01*
Y640250D01*
Y640326D01*
D02*
G37*
G36*
X1149952D02*
X1148058D01*
Y640250D01*
X1147831D01*
Y640174D01*
X1147679D01*
Y640099D01*
X1147604D01*
Y640023D01*
X1147528D01*
Y639947D01*
X1147452D01*
Y639871D01*
Y639796D01*
Y639720D01*
X1147376D01*
Y639644D01*
Y639568D01*
Y639493D01*
Y639417D01*
X1147452D01*
Y639341D01*
Y639266D01*
Y639190D01*
X1147528D01*
Y639114D01*
X1147604D01*
Y639038D01*
X1147679D01*
Y638963D01*
X1147831D01*
Y638887D01*
X1147982D01*
Y638811D01*
X1149422D01*
Y638887D01*
X1149573D01*
Y638963D01*
X1149725D01*
Y639038D01*
X1149800D01*
Y639114D01*
Y639190D01*
X1149876D01*
Y639266D01*
Y639341D01*
Y639417D01*
X1149952D01*
Y639493D01*
Y639568D01*
Y639644D01*
Y639720D01*
Y639796D01*
Y639871D01*
Y639947D01*
Y640023D01*
Y640099D01*
Y640174D01*
Y640250D01*
Y640326D01*
D02*
G37*
%LPD*%
D10*
X877950Y489630D02*
G03*
X877950Y489630I-1250J0D01*
G01*
D11*
X1168923Y842440D02*
X1374663D01*
X1168923Y714170D02*
X1374663D01*
X1168923D02*
Y842440D01*
X1374663Y714170D02*
Y842440D01*
X944690Y842249D02*
X1150430D01*
X944690Y713979D02*
X1150430D01*
X944690D02*
Y842249D01*
X1150430Y713979D02*
Y842249D01*
X1168923Y623700D02*
X1374663D01*
X1168923Y495430D02*
X1374663D01*
X1168923D02*
Y623700D01*
X1374663Y495430D02*
Y623700D01*
X944690Y623508D02*
X1150430D01*
X944690Y495238D02*
X1150430D01*
X944690D02*
Y623508D01*
X1150430Y495238D02*
Y623508D01*
X1350482Y865224D02*
Y852528D01*
X1353022Y849989D01*
X1358100D01*
X1360639Y852528D01*
Y865224D01*
X1373335Y849989D02*
Y865224D01*
X1365717Y857606D01*
X1375874D01*
X1347291Y649642D02*
Y636946D01*
X1349830Y634407D01*
X1354908D01*
X1357447Y636946D01*
Y649642D01*
X1372682Y634407D02*
X1362526D01*
X1372682Y644564D01*
Y647103D01*
X1370143Y649642D01*
X1365065D01*
X1362526Y647103D01*
X821661Y920865D02*
Y936100D01*
X829278D01*
X831817Y933561D01*
Y928483D01*
X829278Y925944D01*
X821661D01*
X836896Y920865D02*
X841974D01*
X839435D01*
Y936100D01*
X836896Y933561D01*
X849592D02*
X852131Y936100D01*
X857209D01*
X859748Y933561D01*
Y923404D01*
X857209Y920865D01*
X852131D01*
X849592Y923404D01*
Y933561D01*
X1369286Y933550D02*
Y948785D01*
X1376903D01*
X1379443Y946245D01*
Y941167D01*
X1376903Y938628D01*
X1369286D01*
X1384521Y933550D02*
X1389599D01*
X1387060D01*
Y948785D01*
X1384521Y946245D01*
X863833Y695380D02*
X853676D01*
X858755Y690302D02*
Y700459D01*
X865103Y598861D02*
X854946D01*
X955046Y896858D02*
Y912093D01*
X962663D01*
X965203Y909554D01*
Y904476D01*
X962663Y901936D01*
X955046D01*
X970281Y909554D02*
X972820Y912093D01*
X977899D01*
X980438Y909554D01*
Y907015D01*
X977899Y904476D01*
X980438Y901936D01*
Y899397D01*
X977899Y896858D01*
X972820D01*
X970281Y899397D01*
Y901936D01*
X972820Y904476D01*
X970281Y907015D01*
Y909554D01*
X972820Y904476D02*
X977899D01*
X945896Y866389D02*
Y853693D01*
X948435Y851154D01*
X953513D01*
X956053Y853693D01*
Y866389D01*
X961131Y863850D02*
X963670Y866389D01*
X968749D01*
X971288Y863850D01*
Y861311D01*
X968749Y858772D01*
X966209D01*
X968749D01*
X971288Y856232D01*
Y853693D01*
X968749Y851154D01*
X963670D01*
X961131Y853693D01*
X1348705Y896858D02*
Y912093D01*
X1356323D01*
X1358862Y909554D01*
Y904476D01*
X1356323Y901936D01*
X1348705D01*
X1363940Y899397D02*
X1366480Y896858D01*
X1371558D01*
X1374097Y899397D01*
Y909554D01*
X1371558Y912093D01*
X1366480D01*
X1363940Y909554D01*
Y907015D01*
X1366480Y904476D01*
X1374097D01*
X1348705Y678409D02*
Y693644D01*
X1356323D01*
X1358862Y691105D01*
Y686026D01*
X1356323Y683487D01*
X1348705D01*
X1363940Y693644D02*
X1374097D01*
Y691105D01*
X1363940Y680948D01*
Y678409D01*
X907463Y585305D02*
X922698D01*
Y577688D01*
X920159Y575149D01*
X915081D01*
X912541Y577688D01*
Y585305D01*
Y580227D02*
X907463Y575149D01*
Y559913D02*
Y570070D01*
X917620Y559913D01*
X920159D01*
X922698Y562453D01*
Y567531D01*
X920159Y570070D01*
X907463Y554835D02*
Y549757D01*
Y552296D01*
X922698D01*
X920159Y554835D01*
X1367328Y452204D02*
Y467439D01*
X1374945D01*
X1377484Y464899D01*
Y459821D01*
X1374945Y457282D01*
X1367328D01*
X1382563Y464899D02*
X1385102Y467439D01*
X1390180D01*
X1392720Y464899D01*
Y462360D01*
X1390180Y459821D01*
X1387641D01*
X1390180D01*
X1392720Y457282D01*
Y454743D01*
X1390180Y452204D01*
X1385102D01*
X1382563Y454743D01*
X945896Y647695D02*
Y634999D01*
X948435Y632460D01*
X953513D01*
X956053Y634999D01*
Y647695D01*
X961131Y632460D02*
X966209D01*
X963670D01*
Y647695D01*
X961131Y645156D01*
X955046Y678409D02*
Y693644D01*
X962663D01*
X965203Y691105D01*
Y686026D01*
X962663Y683487D01*
X955046D01*
X980438Y693644D02*
X975359Y691105D01*
X970281Y686026D01*
Y680948D01*
X972820Y678409D01*
X977899D01*
X980438Y680948D01*
Y683487D01*
X977899Y686026D01*
X970281D01*
X821827Y588251D02*
Y598408D01*
X819288Y600947D01*
X814210D01*
X811671Y598408D01*
Y588251D01*
X814210Y585712D01*
X819288D01*
X816749Y590790D02*
X821827Y585712D01*
X819288D02*
X821827Y588251D01*
X826906Y585712D02*
X831984D01*
X829445D01*
Y600947D01*
X826906Y598408D01*
X742188Y643890D02*
Y659125D01*
X749806D01*
X752345Y656586D01*
Y651507D01*
X749806Y648968D01*
X742188D01*
X757423Y643890D02*
X762501D01*
X759962D01*
Y659125D01*
X757423Y656586D01*
X770119Y643890D02*
X775197D01*
X772658D01*
Y659125D01*
X770119Y656586D01*
X735838Y788162D02*
Y803397D01*
X743456D01*
X745995Y800858D01*
Y795779D01*
X743456Y793240D01*
X735838D01*
X761230Y803397D02*
X751073D01*
Y795779D01*
X756151Y798319D01*
X758691D01*
X761230Y795779D01*
Y790701D01*
X758691Y788162D01*
X753612D01*
X751073Y790701D01*
X949960Y454660D02*
Y469895D01*
X957578D01*
X960117Y467356D01*
Y462277D01*
X957578Y459738D01*
X949960D01*
X972813Y454660D02*
Y469895D01*
X965195Y462277D01*
X975352D01*
X892543Y907179D02*
Y922414D01*
X900161D01*
X902700Y919874D01*
Y914796D01*
X900161Y912257D01*
X892543D01*
X917935Y907179D02*
X907778D01*
X917935Y917335D01*
Y919874D01*
X915396Y922414D01*
X910317D01*
X907778Y919874D01*
D12*
X735330Y819150D02*
X736600D01*
X735330Y843280D02*
X736600D01*
X735330Y819157D02*
Y847090D01*
X736600Y819150D02*
X810260D01*
Y848360D01*
Y930910D01*
X735330Y847090D02*
Y930910D01*
X768350D01*
X784860D02*
X810260D01*
X768350D02*
X784860D01*
X735330Y855980D02*
X742950D01*
Y843280D02*
Y855980D01*
X736600Y843280D02*
X742950D01*
X735330Y906780D02*
X742950D01*
Y894080D02*
Y906780D01*
X735330Y894080D02*
X742950D01*
X734060Y668020D02*
X735330D01*
X734060Y692150D02*
X735330D01*
X734060Y668027D02*
Y695960D01*
X735330Y668020D02*
X808990D01*
Y697230D01*
Y779780D01*
X734060Y695960D02*
Y779780D01*
X767080D01*
X783590D02*
X808990D01*
X767080D02*
X783590D01*
X734060Y704850D02*
X741680D01*
Y692150D02*
Y704850D01*
X735330Y692150D02*
X741680D01*
X734060Y755650D02*
X741680D01*
Y742950D02*
Y755650D01*
X734060Y742950D02*
X741680D01*
X823667Y722630D02*
X881380D01*
Y770890D01*
X823667Y722630D02*
Y770890D01*
X881380D01*
X823667Y789940D02*
X881380D01*
Y838200D01*
X823667Y789940D02*
Y838200D01*
X881380D01*
X823667Y857250D02*
X881380D01*
Y905510D01*
X823667Y857250D02*
Y905510D01*
X881380D01*
X739847Y589280D02*
X797560D01*
Y637540D01*
X739847Y589280D02*
Y637540D01*
X797560D01*
X891773Y603938D02*
X922253D01*
X838433D02*
X868913D01*
X922253D02*
Y680138D01*
X914633Y687758D02*
X922253Y680138D01*
X838433Y603938D02*
Y680138D01*
X846053Y687758D01*
X868913D01*
X891773D02*
X914633D01*
X1112704Y856665D02*
Y888416D01*
X989514Y856665D02*
X1112704D01*
X989514D02*
Y888416D01*
Y913816D01*
X1112704D01*
Y888416D02*
Y913816D01*
X1336937Y856857D02*
Y888607D01*
X1213747Y856857D02*
X1336937D01*
X1213747D02*
Y888607D01*
Y914007D01*
X1336937D01*
Y888607D02*
Y914007D01*
Y638117D02*
Y669867D01*
X1213747Y638117D02*
X1336937D01*
X1213747D02*
Y669867D01*
Y695267D01*
X1336937D01*
Y669867D02*
Y695267D01*
X822700Y577780D02*
X844200D01*
X1112704Y669675D02*
Y695075D01*
X989514D02*
X1112704D01*
X989514Y669675D02*
Y695075D01*
Y637925D02*
Y669675D01*
Y637925D02*
X1112704D01*
Y669675D01*
X725748Y460996D02*
X728247Y463495D01*
X733245D01*
X735744Y460996D01*
Y458497D01*
X733245Y455998D01*
X730746D01*
X733245D01*
X735744Y453499D01*
Y450999D01*
X733245Y448500D01*
X728247D01*
X725748Y450999D01*
X740743Y463495D02*
Y448500D01*
X748240D01*
X750740Y450999D01*
Y460996D01*
X748240Y463495D01*
X740743D01*
X755738Y448500D02*
Y463495D01*
X763235D01*
X765735Y460996D01*
Y455998D01*
X763235Y453499D01*
X755738D01*
X795725Y460996D02*
X793226Y463495D01*
X788227D01*
X785728Y460996D01*
Y458497D01*
X788227Y455998D01*
X793226D01*
X795725Y453499D01*
Y450999D01*
X793226Y448500D01*
X788227D01*
X785728Y450999D01*
X800723Y463495D02*
Y448500D01*
Y455998D01*
X803223Y458497D01*
X808221D01*
X810720Y455998D01*
Y448500D01*
X815719D02*
X820717D01*
X818218D01*
Y458497D01*
X815719D01*
X835712Y448500D02*
X830714D01*
X828214Y450999D01*
Y455998D01*
X830714Y458497D01*
X835712D01*
X838211Y455998D01*
Y453499D01*
X828214D01*
X843210Y448500D02*
X848208D01*
X845709D01*
Y463495D01*
X843210D01*
X865702D02*
Y448500D01*
X858205D01*
X855706Y450999D01*
Y455998D01*
X858205Y458497D01*
X865702D01*
X885696D02*
X890694Y448500D01*
X895693Y458497D01*
X900691Y448500D02*
X905689D01*
X903190D01*
Y463495D01*
X900691Y460996D01*
X913187Y448500D02*
Y450999D01*
X915686D01*
Y448500D01*
X913187D01*
X925683Y460996D02*
X928182Y463495D01*
X933180D01*
X935680Y460996D01*
Y450999D01*
X933180Y448500D01*
X928182D01*
X925683Y450999D01*
Y460996D01*
X739068Y953246D02*
X736569Y955745D01*
X731570D01*
X729071Y953246D01*
Y950747D01*
X731570Y948247D01*
X736569D01*
X739068Y945748D01*
Y943249D01*
X736569Y940750D01*
X731570D01*
X729071Y943249D01*
X744066Y940750D02*
Y943249D01*
X746565D01*
Y940750D01*
X744066D01*
X756562D02*
Y950747D01*
X761561Y955745D01*
X766559Y950747D01*
Y940750D01*
Y948247D01*
X756562D01*
X774056Y940750D02*
X779055D01*
X781554Y943249D01*
Y948247D01*
X779055Y950747D01*
X774056D01*
X771557Y948247D01*
Y943249D01*
X774056Y940750D01*
X786552D02*
Y955745D01*
Y945748D02*
X794050Y950747D01*
X786552Y945748D02*
X794050Y940750D01*
X801547D02*
X806546D01*
X804047D01*
Y950747D01*
X801547D01*
D13*
X735323Y819150D02*
X735330Y819157D01*
X735323Y819150D02*
X735330Y819157D01*
X735323Y819150D02*
X736600D01*
X734053Y668020D02*
X734060Y668027D01*
X734053Y668020D02*
X734060Y668027D01*
X734053Y668020D02*
X735330D01*
D14*
X1159510Y929640D02*
X1362710D01*
Y955040D01*
X1159510D02*
X1362710D01*
X1159510Y929640D02*
Y955040D01*
X969110Y751110D02*
X994510D01*
X969110D02*
Y801910D01*
X994510D01*
Y751110D02*
Y801910D01*
X1000810Y751110D02*
X1026210D01*
X1000810D02*
Y801910D01*
X1026210D01*
Y751110D02*
Y801910D01*
X1032510Y751110D02*
X1057910D01*
X1032510D02*
Y801910D01*
X1057910D01*
Y751110D02*
Y801910D01*
X1256743Y751301D02*
X1282143D01*
X1256743D02*
Y802101D01*
X1282143D01*
Y751301D02*
Y802101D01*
X1225043Y751301D02*
X1250443D01*
X1225043D02*
Y802101D01*
X1250443D01*
Y751301D02*
Y802101D01*
X1193343Y751301D02*
X1218743D01*
X1193343D02*
Y802101D01*
X1218743D01*
Y751301D02*
Y802101D01*
X1193343Y532561D02*
X1218743D01*
X1193343D02*
Y583361D01*
X1218743D01*
Y532561D02*
Y583361D01*
X1225043Y532561D02*
X1250443D01*
X1225043D02*
Y583361D01*
X1250443D01*
Y532561D02*
Y583361D01*
X1256743Y532561D02*
X1282143D01*
X1256743D02*
Y583361D01*
X1282143D01*
Y532561D02*
Y583361D01*
X1032510Y532370D02*
X1057910D01*
X1032510D02*
Y583170D01*
X1057910D01*
Y532370D02*
Y583170D01*
X1000810Y532370D02*
X1026210D01*
X1000810D02*
Y583170D01*
X1026210D01*
Y532370D02*
Y583170D01*
X969110Y532370D02*
X994510D01*
X969110D02*
Y583170D01*
X994510D01*
Y532370D02*
Y583170D01*
X904390Y524816D02*
Y528816D01*
X911390Y524816D02*
Y528816D01*
X1210310Y472440D02*
X1362710D01*
X1210310Y447040D02*
X1362710D01*
Y472440D01*
X1210310Y447040D02*
Y472440D01*
X822700Y473780D02*
X844200D01*
Y577780D01*
X981710Y447040D02*
Y472440D01*
X1184910D01*
Y447040D02*
Y472440D01*
X981710Y447040D02*
X1184910D01*
X890270Y929640D02*
X1125220D01*
X1144270D01*
Y955040D01*
X890270D02*
X1144270D01*
X890270Y929640D02*
Y955040D01*
D15*
X969202Y804698D02*
Y812316D01*
X973010D01*
X974280Y811046D01*
Y808507D01*
X973010Y807237D01*
X969202D01*
X981897Y804698D02*
X976819D01*
X981897Y809777D01*
Y811046D01*
X980628Y812316D01*
X978089D01*
X976819Y811046D01*
X984437Y804698D02*
X986976D01*
X985706D01*
Y812316D01*
X984437Y811046D01*
X1000922Y804944D02*
Y812562D01*
X1004731D01*
X1006001Y811292D01*
Y808753D01*
X1004731Y807483D01*
X1000922D01*
X1013618Y804944D02*
X1008540D01*
X1013618Y810023D01*
Y811292D01*
X1012349Y812562D01*
X1009810D01*
X1008540Y811292D01*
X1021236Y804944D02*
X1016158D01*
X1021236Y810023D01*
Y811292D01*
X1019966Y812562D01*
X1017427D01*
X1016158Y811292D01*
X1032764Y804944D02*
Y812562D01*
X1036573D01*
X1037842Y811292D01*
Y808753D01*
X1036573Y807483D01*
X1032764D01*
X1045460Y804944D02*
X1040381D01*
X1045460Y810023D01*
Y811292D01*
X1044190Y812562D01*
X1041651D01*
X1040381Y811292D01*
X1047999D02*
X1049269Y812562D01*
X1051808D01*
X1053077Y811292D01*
Y810023D01*
X1051808Y808753D01*
X1050538D01*
X1051808D01*
X1053077Y807483D01*
Y806214D01*
X1051808Y804944D01*
X1049269D01*
X1047999Y806214D01*
X1256997Y805135D02*
Y812753D01*
X1260806D01*
X1262075Y811484D01*
Y808944D01*
X1260806Y807675D01*
X1256997D01*
X1269693Y805135D02*
X1264614D01*
X1269693Y810214D01*
Y811484D01*
X1268423Y812753D01*
X1265884D01*
X1264614Y811484D01*
X1277310Y812753D02*
X1274771Y811484D01*
X1272232Y808944D01*
Y806405D01*
X1273501Y805135D01*
X1276041D01*
X1277310Y806405D01*
Y807675D01*
X1276041Y808944D01*
X1272232D01*
X1225155Y805135D02*
Y812753D01*
X1228964D01*
X1230234Y811484D01*
Y808944D01*
X1228964Y807675D01*
X1225155D01*
X1237851Y805135D02*
X1232773D01*
X1237851Y810214D01*
Y811484D01*
X1236581Y812753D01*
X1234042D01*
X1232773Y811484D01*
X1245469Y812753D02*
X1240390D01*
Y808944D01*
X1242929Y810214D01*
X1244199D01*
X1245469Y808944D01*
Y806405D01*
X1244199Y805135D01*
X1241660D01*
X1240390Y806405D01*
X1193434Y804890D02*
Y812507D01*
X1197243D01*
X1198513Y811238D01*
Y808698D01*
X1197243Y807429D01*
X1193434D01*
X1206130Y804890D02*
X1201052D01*
X1206130Y809968D01*
Y811238D01*
X1204861Y812507D01*
X1202321D01*
X1201052Y811238D01*
X1212478Y804890D02*
Y812507D01*
X1208669Y808698D01*
X1213748D01*
X1193434Y586149D02*
Y593767D01*
X1197243D01*
X1198513Y592497D01*
Y589958D01*
X1197243Y588689D01*
X1193434D01*
X1201052Y586149D02*
X1203591D01*
X1202321D01*
Y593767D01*
X1201052Y592497D01*
X1207400D02*
X1208669Y593767D01*
X1211208D01*
X1212478Y592497D01*
Y591228D01*
X1211208Y589958D01*
X1212478Y588689D01*
Y587419D01*
X1211208Y586149D01*
X1208669D01*
X1207400Y587419D01*
Y588689D01*
X1208669Y589958D01*
X1207400Y591228D01*
Y592497D01*
X1208669Y589958D02*
X1211208D01*
X1225155Y586395D02*
Y594013D01*
X1228964D01*
X1230234Y592743D01*
Y590204D01*
X1228964Y588934D01*
X1225155D01*
X1232773Y586395D02*
X1235312D01*
X1234042D01*
Y594013D01*
X1232773Y592743D01*
X1239121Y587665D02*
X1240390Y586395D01*
X1242929D01*
X1244199Y587665D01*
Y592743D01*
X1242929Y594013D01*
X1240390D01*
X1239121Y592743D01*
Y591474D01*
X1240390Y590204D01*
X1244199D01*
X1256997Y586395D02*
Y594013D01*
X1260806D01*
X1262075Y592743D01*
Y590204D01*
X1260806Y588934D01*
X1256997D01*
X1269693Y586395D02*
X1264614D01*
X1269693Y591474D01*
Y592743D01*
X1268423Y594013D01*
X1265884D01*
X1264614Y592743D01*
X1272232D02*
X1273501Y594013D01*
X1276041D01*
X1277310Y592743D01*
Y587665D01*
X1276041Y586395D01*
X1273501D01*
X1272232Y587665D01*
Y592743D01*
X1032764Y586204D02*
Y593821D01*
X1036573D01*
X1037842Y592552D01*
Y590013D01*
X1036573Y588743D01*
X1032764D01*
X1040381Y586204D02*
X1042921D01*
X1041651D01*
Y593821D01*
X1040381Y592552D01*
X1046730Y593821D02*
X1051808D01*
Y592552D01*
X1046730Y587473D01*
Y586204D01*
X1000922D02*
Y593821D01*
X1004731D01*
X1006001Y592552D01*
Y590013D01*
X1004731Y588743D01*
X1000922D01*
X1008540Y586204D02*
X1011079D01*
X1009810D01*
Y593821D01*
X1008540Y592552D01*
X1019966Y593821D02*
X1017427Y592552D01*
X1014888Y590013D01*
Y587473D01*
X1016158Y586204D01*
X1018697D01*
X1019966Y587473D01*
Y588743D01*
X1018697Y590013D01*
X1014888D01*
X969202Y585958D02*
Y593575D01*
X973010D01*
X974280Y592306D01*
Y589767D01*
X973010Y588497D01*
X969202D01*
X976819Y585958D02*
X979358D01*
X978089D01*
Y593575D01*
X976819Y592306D01*
X988245Y593575D02*
X983167D01*
Y589767D01*
X985706Y591036D01*
X986976D01*
X988245Y589767D01*
Y587228D01*
X986976Y585958D01*
X984437D01*
X983167Y587228D01*
X769620Y788669D02*
X774698D01*
X772159Y791208D02*
Y786130D01*
X777237Y784860D02*
X779777D01*
X778507D01*
Y792477D01*
X777237Y791208D01*
X788664Y784860D02*
X783586D01*
X788664Y789938D01*
Y791208D01*
X787394Y792477D01*
X784855D01*
X783586Y791208D01*
X791203Y792477D02*
Y787399D01*
X793742Y784860D01*
X796281Y787399D01*
Y792477D01*
X824230Y773430D02*
Y781048D01*
X828039D01*
X829308Y779778D01*
Y777239D01*
X828039Y775969D01*
X824230D01*
X831848Y773430D02*
X834387D01*
X833117D01*
Y781048D01*
X831848Y779778D01*
X842004Y773430D02*
Y781048D01*
X838195Y777239D01*
X843274D01*
X824230Y841375D02*
Y848992D01*
X828039D01*
X829308Y847723D01*
Y845184D01*
X828039Y843914D01*
X824230D01*
X831848Y841375D02*
X834387D01*
X833117D01*
Y848992D01*
X831848Y847723D01*
X838195D02*
X839465Y848992D01*
X842004D01*
X843274Y847723D01*
Y846453D01*
X842004Y845184D01*
X840735D01*
X842004D01*
X843274Y843914D01*
Y842645D01*
X842004Y841375D01*
X839465D01*
X838195Y842645D01*
X826770Y909320D02*
Y916937D01*
X830579D01*
X831848Y915668D01*
Y913129D01*
X830579Y911859D01*
X826770D01*
X834388Y909320D02*
X836927D01*
X835657D01*
Y916937D01*
X834388Y915668D01*
X845814Y909320D02*
X840735D01*
X845814Y914398D01*
Y915668D01*
X844544Y916937D01*
X842005D01*
X840735Y915668D01*
X900973Y698457D02*
X899703Y699727D01*
X897164D01*
X895894Y698457D01*
Y693379D01*
X897164Y692109D01*
X899703D01*
X900973Y693379D01*
X908590Y692109D02*
X903512D01*
X908590Y697188D01*
Y698457D01*
X907320Y699727D01*
X904781D01*
X903512Y698457D01*
X916208Y699727D02*
X911129D01*
Y695918D01*
X913668Y697188D01*
X914938D01*
X916208Y695918D01*
Y693379D01*
X914938Y692109D01*
X912399D01*
X911129Y693379D01*
M02*
