M48
;Layer_Color=9474304
;FILE_FORMAT=4:4
METRIC,LZ
;TYPE=PLATED
T1F00S00C0.9000
T2F00S00C0.9050
T3F00S00C1.0160
T4F00S00C1.2000
T5F00S00C1.3000
%
T01
X0122301Y0045974
X0124841
X0127381
X0129921
X0132461
X0135001
X01269443Y00545261
Y00570661
X01237743
Y00545261
X01206043
Y00570661
Y00764001
Y00789401
X01237743
Y00764001
X01269443
Y00789401
X0104521Y0078921
Y0076381
X0101351
Y0078921
X0098181
Y0076381
Y0057047
Y0054507
X0101351
Y0057047
X0104521
Y0054507
Y0045974
X0107061
X0109601
X0112141
X0114681
X0117221
X0101981
X0099441
X0100457Y0094234
X0097917
X0095377
X0092837
X0090297
X0102997
X0105537
X0108077
X0110617
X0113157
X0117221
X0119761
X0122301
X0124841
X0127381
X0129921
X0132461
X0135001
T02
X01237877Y00669867
X01262007
X01287407
X01312807
X01088574Y00669675
X01063174
X01037774
X01013644
Y00888416
X01037774
X01063174
X01088574
X01237877Y00888607
X01262007
X01287407
X01312807
T03
X01208293Y005094
X01233693
X01259093
X01284493
X01309893
X01335293
X01360693
Y0060973
X01335293
X01309893
X01284493
X01259093
X01233693
X01208293
Y0072814
X01233693
X01259093
X01284493
X01309893
X01335293
X01360693
X01182893
X0113646Y00727949
X0111106
X0108566
X0106026
X0103486
X0100946
X0098406
X0095866
Y00609538
X0098406
X0100946
X0103486
X0106026
X0108566
X0111106
X0113646
X01182893Y0060973
Y005094
X0113646Y00509208
X0111106
X0108566
X0106026
X0103486
X0100946
X0098406
X0095866
Y00828279
X0098406
X0100946
X0103486
X0106026
X0108566
X0111106
X0113646
X01182893Y0082847
X01208293
X01233693
X01259093
X01284493
X01309893
X01335293
X01360693
T04
X0084963Y0073406
Y0075946
X0076581Y0062611
Y0060071
X0084963Y0080137
Y0082677
Y0086868
Y0089408
T05
X0076708Y006985
Y007493
X0076835Y0084963
Y0090043
M30
